<?xml version="1.0" encoding="UTF-8" standalone="no"?>
<!DOCTYPE svg PUBLIC "-//W3C//DTD SVG 1.1//EN"
 "http://www.w3.org/Graphics/SVG/1.1/DTD/svg11.dtd">
<!-- Generated by graphviz version 2.36.0 (20140111.2315)
 -->
<!-- Title: simple Pages: 1 -->
<svg width="209pt" height="196pt"
 viewBox="0.00 0.00 209.00 196.00" xmlns="http://www.w3.org/2000/svg" xmlns:xlink="http://www.w3.org/1999/xlink">
<g id="graph0" class="graph" transform="scale(1 1) rotate(0) translate(4 192)">
<title>simple</title>
<polygon fill="white" stroke="none" points="-4,4 -4,-192 205,-192 205,4 -4,4"/>
<!-- 8 -->
<g id="node1" class="node"><title>8</title>
<ellipse fill="none" stroke="blue" cx="99" cy="-170" rx="18" ry="18"/>
<text text-anchor="middle" x="99" y="-166.997" font-family="CabinSketch" font-size="14.00" fill="blue">8</text>
</g>
<!-- 10 -->
<g id="node2" class="node"><title>10</title>
<ellipse fill="none" stroke="blue" cx="128" cy="-95" rx="20.3821" ry="20.8404"/>
<text text-anchor="middle" x="128" y="-91.997" font-family="CabinSketch" font-size="14.00" fill="blue">10</text>
</g>
<!-- 8&#45;&gt;10 -->
<g id="edge2" class="edge"><title>8&#45;&gt;10</title>
<path fill="none" stroke="blue" d="M105.436,-152.799C108.79,-144.356 112.988,-133.788 116.851,-124.065"/>
<polygon fill="blue" stroke="blue" points="120.118,-125.32 120.558,-114.734 113.613,-122.735 120.118,-125.32"/>
</g>
<!-- 5 -->
<g id="node4" class="node"><title>5</title>
<ellipse fill="none" stroke="black" cx="71" cy="-95" rx="18" ry="18"/>
<text text-anchor="middle" x="71" y="-91.997" font-family="CabinSketch" font-size="14.00">5</text>
</g>
<!-- 8&#45;&gt;5 -->
<g id="edge1" class="edge"><title>8&#45;&gt;5</title>
<path fill="none" stroke="black" d="M92.7859,-152.799C89.2696,-143.631 84.7924,-131.959 80.8126,-121.583"/>
<polygon fill="black" stroke="black" points="84.0459,-120.239 77.1967,-112.156 77.5102,-122.746 84.0459,-120.239"/>
</g>
<!-- 9 -->
<g id="node3" class="node"><title>9</title>
<ellipse fill="none" stroke="blue" cx="127" cy="-19" rx="18" ry="18"/>
<text text-anchor="middle" x="127" y="-15.997" font-family="CabinSketch" font-size="14.00" fill="blue">9</text>
</g>
<!-- 10&#45;&gt;9 -->
<g id="edge5" class="edge"><title>10&#45;&gt;9</title>
<path fill="none" stroke="blue" d="M127.727,-73.7792C127.617,-65.6258 127.488,-56.0932 127.369,-47.337"/>
<polygon fill="blue" stroke="blue" points="130.867,-47.1381 127.232,-37.1864 123.868,-47.2328 130.867,-47.1381"/>
</g>
<!-- 12 -->
<g id="node7" class="node"><title>12</title>
<ellipse fill="none" stroke="black" cx="182" cy="-19" rx="19.2968" ry="19.3965"/>
<text text-anchor="middle" x="182" y="-15.997" font-family="CabinSketch" font-size="14.00">12</text>
</g>
<!-- 10&#45;&gt;12 -->
<g id="edge6" class="edge"><title>10&#45;&gt;12</title>
<path fill="none" stroke="black" d="M139.984,-77.577C147.412,-67.3977 157.064,-54.1717 165.243,-42.9633"/>
<polygon fill="black" stroke="black" points="168.082,-45.0104 171.149,-34.8693 162.427,-40.8841 168.082,-45.0104"/>
</g>
<!-- 3 -->
<g id="node5" class="node"><title>3</title>
<ellipse fill="none" stroke="black" cx="18" cy="-19" rx="18" ry="18"/>
<text text-anchor="middle" x="18" y="-15.997" font-family="CabinSketch" font-size="14.00">3</text>
</g>
<!-- 5&#45;&gt;3 -->
<g id="edge3" class="edge"><title>5&#45;&gt;3</title>
<path fill="none" stroke="black" d="M60.7811,-79.7321C53.1806,-69.1201 42.6628,-54.4348 33.9581,-42.2811"/>
<polygon fill="black" stroke="black" points="36.6761,-40.0651 28.0078,-33.9732 30.9852,-44.1411 36.6761,-40.0651"/>
</g>
<!-- 6 -->
<g id="node6" class="node"><title>6</title>
<ellipse fill="none" stroke="black" cx="72" cy="-19" rx="18" ry="18"/>
<text text-anchor="middle" x="72" y="-15.997" font-family="CabinSketch" font-size="14.00">6</text>
</g>
<!-- 5&#45;&gt;6 -->
<g id="edge4" class="edge"><title>5&#45;&gt;6</title>
<path fill="none" stroke="black" d="M71.2319,-76.8369C71.3506,-68.0575 71.4978,-57.1626 71.6315,-47.2675"/>
<polygon fill="black" stroke="black" points="75.1338,-47.1164 71.7693,-37.07 68.1344,-47.0218 75.1338,-47.1164"/>
</g>
</g>
</svg>
