<?xml version="1.0" encoding="UTF-8" standalone="no"?>
<!DOCTYPE svg PUBLIC "-//W3C//DTD SVG 1.1//EN"
 "http://www.w3.org/Graphics/SVG/1.1/DTD/svg11.dtd">
<!-- Generated by graphviz version 2.36.0 (20140111.2315)
 -->
<!-- Title: simple Pages: 1 -->
<svg width="301pt" height="264pt"
 viewBox="0.00 0.00 301.00 264.00" xmlns="http://www.w3.org/2000/svg" xmlns:xlink="http://www.w3.org/1999/xlink">
<g id="graph0" class="graph" transform="scale(1 1) rotate(0) translate(4 260)">
<title>simple</title>
<polygon fill="white" stroke="none" points="-4,4 -4,-260 297,-260 297,4 -4,4"/>
<!-- b8 -->
<g id="node1" class="node"><title>b8</title>
<ellipse fill="none" stroke="blue" cx="138" cy="-238" rx="18" ry="18"/>
<text text-anchor="middle" x="138" y="-233.8" font-family="Times,serif" font-size="14.00" fill="blue">8</text>
</g>
<!-- b5 -->
<g id="node2" class="node"><title>b5</title>
<ellipse fill="none" stroke="blue" cx="111" cy="-165" rx="18" ry="18"/>
<text text-anchor="middle" x="111" y="-160.8" font-family="Times,serif" font-size="14.00" fill="blue">5</text>
</g>
<!-- b8&#45;&gt;b5 -->
<g id="edge1" class="edge"><title>b8&#45;&gt;b5</title>
<path fill="none" stroke="blue" d="M131.873,-220.889C128.594,-212.265 124.477,-201.439 120.768,-191.686"/>
<polygon fill="blue" stroke="blue" points="123.928,-190.15 117.102,-182.047 117.386,-192.638 123.928,-190.15"/>
</g>
<!-- 10 -->
<g id="node6" class="node"><title>10</title>
<ellipse fill="none" stroke="black" cx="220" cy="-165" rx="18.4268" ry="18.9007"/>
<text text-anchor="middle" x="220" y="-160.8" font-family="Times,serif" font-size="14.00">10</text>
</g>
<!-- b8&#45;&gt;10 -->
<g id="edge2" class="edge"><title>b8&#45;&gt;10</title>
<path fill="none" stroke="blue" d="M151.175,-225.593C163.933,-214.546 183.498,-197.606 198.511,-184.606"/>
<polygon fill="blue" stroke="blue" points="201.042,-187.044 206.311,-177.853 196.46,-181.752 201.042,-187.044"/>
</g>
<!-- b3 -->
<g id="node3" class="node"><title>b3</title>
<ellipse fill="none" stroke="blue" cx="58" cy="-91" rx="18" ry="18"/>
<text text-anchor="middle" x="58" y="-86.8" font-family="Times,serif" font-size="14.00" fill="blue">3</text>
</g>
<!-- b5&#45;&gt;b3 -->
<g id="edge5" class="edge"><title>b5&#45;&gt;b3</title>
<path fill="none" stroke="blue" d="M100.781,-150.118C93.229,-139.858 82.7967,-125.686 74.1247,-113.905"/>
<polygon fill="blue" stroke="blue" points="76.9345,-111.818 68.1876,-105.84 71.2971,-115.968 76.9345,-111.818"/>
</g>
<!-- 6 -->
<g id="node9" class="node"><title>6</title>
<ellipse fill="none" stroke="black" cx="166" cy="-91" rx="18" ry="18"/>
<text text-anchor="middle" x="166" y="-86.8" font-family="Times,serif" font-size="14.00">6</text>
</g>
<!-- b5&#45;&gt;6 -->
<g id="edge6" class="edge"><title>b5&#45;&gt;6</title>
<path fill="none" stroke="blue" d="M121.605,-150.118C129.442,-139.858 140.268,-125.686 149.267,-113.905"/>
<polygon fill="blue" stroke="blue" points="152.139,-115.911 155.428,-105.84 146.576,-111.662 152.139,-115.911"/>
</g>
<!-- 4 -->
<g id="node4" class="node"><title>4</title>
<ellipse fill="none" stroke="blue" cx="90" cy="-18" rx="18" ry="18"/>
<text text-anchor="middle" x="90" y="-13.8" font-family="Times,serif" font-size="14.00" fill="blue">4</text>
</g>
<!-- b3&#45;&gt;4 -->
<g id="edge10" class="edge"><title>b3&#45;&gt;4</title>
<path fill="none" stroke="blue" d="M65.1018,-74.2428C69.1205,-65.3264 74.2372,-53.9737 78.7857,-43.8818"/>
<polygon fill="blue" stroke="blue" points="81.9999,-45.2681 82.918,-34.7132 75.6181,-42.3918 81.9999,-45.2681"/>
</g>
<!-- na -->
<g id="node5" class="node"><title>na</title>
<text text-anchor="middle" x="27" y="-13.8" font-family="Times,serif" font-size="14.00" fill="blue">∅</text>
</g>
<!-- b3&#45;&gt;na -->
<g id="edge9" class="edge"><title>b3&#45;&gt;na</title>
<path fill="none" stroke="blue" d="M51.1201,-74.2428C47.4277,-65.786 42.7784,-55.1376 38.5495,-45.452"/>
<polygon fill="blue" stroke="blue" points="41.7207,-43.9681 34.5117,-36.2041 35.3055,-46.7692 41.7207,-43.9681"/>
</g>
<!-- 9 -->
<g id="node11" class="node"><title>9</title>
<ellipse fill="none" stroke="black" cx="220" cy="-91" rx="18" ry="18"/>
<text text-anchor="middle" x="220" y="-86.8" font-family="Times,serif" font-size="14.00">9</text>
</g>
<!-- 10&#45;&gt;9 -->
<g id="edge11" class="edge"><title>10&#45;&gt;9</title>
<path fill="none" stroke="black" d="M220,-145.831C220,-137.894 220,-128.409 220,-119.628"/>
<polygon fill="black" stroke="black" points="223.5,-119.418 220,-109.418 216.5,-119.418 223.5,-119.418"/>
</g>
<!-- 12 -->
<g id="node12" class="node"><title>12</title>
<ellipse fill="none" stroke="black" cx="275" cy="-91" rx="18.4268" ry="18.9007"/>
<text text-anchor="middle" x="275" y="-86.8" font-family="Times,serif" font-size="14.00">12</text>
</g>
<!-- 10&#45;&gt;12 -->
<g id="edge12" class="edge"><title>10&#45;&gt;12</title>
<path fill="none" stroke="black" d="M231.13,-149.43C238.734,-139.475 248.963,-126.084 257.632,-114.737"/>
<polygon fill="black" stroke="black" points="260.597,-116.62 263.886,-106.549 255.035,-112.371 260.597,-116.62"/>
</g>
<!-- 8 -->
<g id="node7" class="node"><title>8</title>
<ellipse fill="none" stroke="black" cx="192" cy="-238" rx="18" ry="18"/>
<text text-anchor="middle" x="192" y="-233.8" font-family="Times,serif" font-size="14.00">8</text>
</g>
<!-- 8&#45;&gt;10 -->
<g id="edge4" class="edge"><title>8&#45;&gt;10</title>
<path fill="none" stroke="black" d="M198.354,-220.889C201.659,-212.508 205.784,-202.047 209.544,-192.512"/>
<polygon fill="black" stroke="black" points="212.868,-193.624 213.281,-183.037 206.356,-191.056 212.868,-193.624"/>
</g>
<!-- 5 -->
<g id="node8" class="node"><title>5</title>
<ellipse fill="none" stroke="black" cx="165" cy="-165" rx="18" ry="18"/>
<text text-anchor="middle" x="165" y="-160.8" font-family="Times,serif" font-size="14.00">5</text>
</g>
<!-- 8&#45;&gt;5 -->
<g id="edge3" class="edge"><title>8&#45;&gt;5</title>
<path fill="none" stroke="black" d="M185.873,-220.889C182.594,-212.265 178.477,-201.439 174.768,-191.686"/>
<polygon fill="black" stroke="black" points="177.928,-190.15 171.102,-182.047 171.386,-192.638 177.928,-190.15"/>
</g>
<!-- 5&#45;&gt;6 -->
<g id="edge8" class="edge"><title>5&#45;&gt;6</title>
<path fill="none" stroke="black" d="M165.237,-146.937C165.35,-138.807 165.488,-128.876 165.615,-119.705"/>
<polygon fill="black" stroke="black" points="169.118,-119.488 165.758,-109.441 162.119,-119.391 169.118,-119.488"/>
</g>
<!-- 3 -->
<g id="node10" class="node"><title>3</title>
<ellipse fill="none" stroke="black" cx="112" cy="-91" rx="18" ry="18"/>
<text text-anchor="middle" x="112" y="-86.8" font-family="Times,serif" font-size="14.00">3</text>
</g>
<!-- 5&#45;&gt;3 -->
<g id="edge7" class="edge"><title>5&#45;&gt;3</title>
<path fill="none" stroke="black" d="M154.781,-150.118C147.229,-139.858 136.797,-125.686 128.125,-113.905"/>
<polygon fill="black" stroke="black" points="130.934,-111.818 122.188,-105.84 125.297,-115.968 130.934,-111.818"/>
</g>
</g>
</svg>
