<?xml version="1.0" encoding="UTF-8" standalone="no"?>
<!DOCTYPE svg PUBLIC "-//W3C//DTD SVG 1.1//EN"
 "http://www.w3.org/Graphics/SVG/1.1/DTD/svg11.dtd">
<!-- Generated by graphviz version 2.36.0 (20140111.2315)
 -->
<!-- Title: simple Pages: 1 -->
<svg width="207pt" height="192pt"
 viewBox="0.00 0.00 207.00 192.00" xmlns="http://www.w3.org/2000/svg" xmlns:xlink="http://www.w3.org/1999/xlink">
<g id="graph0" class="graph" transform="scale(1 1) rotate(0) translate(4 188)">
<title>simple</title>
<polygon fill="white" stroke="none" points="-4,4 -4,-188 203,-188 203,4 -4,4"/>
<!-- 8 -->
<g id="node1" class="node"><title>8</title>
<ellipse fill="none" stroke="black" cx="98" cy="-166" rx="18" ry="18"/>
<text text-anchor="middle" x="98" y="-161.8" font-family="Times,serif" font-size="14.00">8</text>
</g>
<!-- 5 -->
<g id="node2" class="node"><title>5</title>
<ellipse fill="none" stroke="black" cx="71" cy="-93" rx="18" ry="18"/>
<text text-anchor="middle" x="71" y="-88.8" font-family="Times,serif" font-size="14.00">5</text>
</g>
<!-- 8&#45;&gt;5 -->
<g id="edge1" class="edge"><title>8&#45;&gt;5</title>
<path fill="none" stroke="black" d="M91.8733,-148.889C88.5938,-140.265 84.4768,-129.439 80.7678,-119.686"/>
<polygon fill="black" stroke="black" points="83.9285,-118.15 77.1025,-110.047 77.3856,-120.638 83.9285,-118.15"/>
</g>
<!-- 10 -->
<g id="node3" class="node"><title>10</title>
<ellipse fill="none" stroke="black" cx="126" cy="-93" rx="18.4268" ry="18.9007"/>
<text text-anchor="middle" x="126" y="-88.8" font-family="Times,serif" font-size="14.00">10</text>
</g>
<!-- 8&#45;&gt;10 -->
<g id="edge2" class="edge"><title>8&#45;&gt;10</title>
<path fill="none" stroke="black" d="M104.354,-148.889C107.659,-140.508 111.784,-130.047 115.544,-120.512"/>
<polygon fill="black" stroke="black" points="118.868,-121.624 119.281,-111.037 112.356,-119.056 118.868,-121.624"/>
</g>
<!-- 3 -->
<g id="node4" class="node"><title>3</title>
<ellipse fill="none" stroke="black" cx="18" cy="-19" rx="18" ry="18"/>
<text text-anchor="middle" x="18" y="-14.8" font-family="Times,serif" font-size="14.00">3</text>
</g>
<!-- 5&#45;&gt;3 -->
<g id="edge3" class="edge"><title>5&#45;&gt;3</title>
<path fill="none" stroke="black" d="M60.7811,-78.1177C53.229,-67.8583 42.7967,-53.686 34.1247,-41.9052"/>
<polygon fill="black" stroke="black" points="36.9345,-39.8182 28.1876,-33.8397 31.2971,-43.968 36.9345,-39.8182"/>
</g>
<!-- 6 -->
<g id="node5" class="node"><title>6</title>
<ellipse fill="none" stroke="black" cx="72" cy="-19" rx="18" ry="18"/>
<text text-anchor="middle" x="72" y="-14.8" font-family="Times,serif" font-size="14.00">6</text>
</g>
<!-- 5&#45;&gt;6 -->
<g id="edge4" class="edge"><title>5&#45;&gt;6</title>
<path fill="none" stroke="black" d="M71.237,-74.937C71.3499,-66.8072 71.4878,-56.8761 71.6152,-47.7047"/>
<polygon fill="black" stroke="black" points="75.1185,-47.4883 71.7578,-37.4407 68.1191,-47.3911 75.1185,-47.4883"/>
</g>
<!-- 9 -->
<g id="node6" class="node"><title>9</title>
<ellipse fill="none" stroke="black" cx="126" cy="-19" rx="18" ry="18"/>
<text text-anchor="middle" x="126" y="-14.8" font-family="Times,serif" font-size="14.00">9</text>
</g>
<!-- 10&#45;&gt;9 -->
<g id="edge5" class="edge"><title>10&#45;&gt;9</title>
<path fill="none" stroke="black" d="M126,-73.8314C126,-65.894 126,-56.4095 126,-47.6285"/>
<polygon fill="black" stroke="black" points="129.5,-47.4177 126,-37.4177 122.5,-47.4177 129.5,-47.4177"/>
</g>
<!-- 12 -->
<g id="node7" class="node"><title>12</title>
<ellipse fill="none" stroke="black" cx="181" cy="-19" rx="18.4268" ry="18.9007"/>
<text text-anchor="middle" x="181" y="-14.8" font-family="Times,serif" font-size="14.00">12</text>
</g>
<!-- 10&#45;&gt;12 -->
<g id="edge6" class="edge"><title>10&#45;&gt;12</title>
<path fill="none" stroke="black" d="M137.13,-77.4297C144.734,-67.4754 154.963,-54.0842 163.632,-42.7368"/>
<polygon fill="black" stroke="black" points="166.597,-44.62 169.886,-34.5486 161.035,-40.3707 166.597,-44.62"/>
</g>
</g>
</svg>
