<?xml version="1.0" encoding="UTF-8" standalone="no"?>
<!DOCTYPE svg PUBLIC "-//W3C//DTD SVG 1.1//EN"
 "http://www.w3.org/Graphics/SVG/1.1/DTD/svg11.dtd">
<!-- Generated by graphviz version 2.43.0 (0)
 -->
<!-- Title: %3 Pages: 1 -->
<svg width="136pt" height="116pt"
 viewBox="0.00 0.00 136.00 116.00" xmlns="http://www.w3.org/2000/svg" xmlns:xlink="http://www.w3.org/1999/xlink">
<g id="graph0" class="graph" transform="scale(1 1) rotate(0) translate(4 112)">
<title>%3</title>
<!-- auth -->
<g id="node1" class="node sum">
<title>auth</title>
<polygon fill="#586e75" stroke="#586e75" points="37.16,-72 88.84,-72 107.24,-108 18.76,-108 37.16,-72"/>
<text text-anchor="middle" x="63" y="-86.3" font-family="Inter,Arial" font-size="14.00" fill="#ffffff">Auth</text>
</g>
<!-- login -->
<g id="node2" class="node">
<title>login</title>
<path fill="#ffffff" stroke="#586e75" d="M42,-36C42,-36 12,-36 12,-36 6,-36 0,-30 0,-24 0,-24 0,-12 0,-12 0,-6 6,0 12,0 12,0 42,0 42,0 48,0 54,-6 54,-12 54,-12 54,-24 54,-24 54,-30 48,-36 42,-36"/>
<text text-anchor="middle" x="27" y="-14.3" font-family="Inter,Arial" font-size="14.00" fill="#586e75">Login</text>
</g>
<!-- auth&#45;&gt;login -->
<g id="edge2" class="edge value">
<title>auth&#45;&gt;login</title>
<path fill="none" stroke="#586e75" stroke-dasharray="5,2" d="M54.1,-71.7C50,-63.73 45.05,-54.1 40.51,-45.26"/>
<polygon fill="#586e75" stroke="#586e75" points="43.48,-43.4 35.8,-36.1 37.26,-46.6 43.48,-43.4"/>
</g>
<!-- token -->
<g id="node3" class="node">
<title>token</title>
<path fill="#ffffff" stroke="#586e75" d="M116,-36C116,-36 84,-36 84,-36 78,-36 72,-30 72,-24 72,-24 72,-12 72,-12 72,-6 78,0 84,0 84,0 116,0 116,0 122,0 128,-6 128,-12 128,-12 128,-24 128,-24 128,-30 122,-36 116,-36"/>
<text text-anchor="middle" x="100" y="-14.3" font-family="Inter,Arial" font-size="14.00" fill="#586e75">Token</text>
</g>
<!-- auth&#45;&gt;token -->
<g id="edge1" class="edge value">
<title>auth&#45;&gt;token</title>
<path fill="none" stroke="#586e75" stroke-dasharray="5,2" d="M72.15,-71.7C76.4,-63.64 81.56,-53.89 86.27,-44.98"/>
<polygon fill="#586e75" stroke="#586e75" points="89.38,-46.58 90.96,-36.1 83.19,-43.31 89.38,-46.58"/>
</g>
</g>
</svg>
