<?xml version="1.0" encoding="UTF-8" standalone="no"?>
<!DOCTYPE svg PUBLIC "-//W3C//DTD SVG 1.1//EN"
 "http://www.w3.org/Graphics/SVG/1.1/DTD/svg11.dtd">
<!-- Generated by graphviz version 2.43.0 (0)
 -->
<!-- Title: %3 Pages: 1 -->
<svg width="491pt" height="44pt"
 viewBox="0.00 0.00 491.00 44.00" xmlns="http://www.w3.org/2000/svg" xmlns:xlink="http://www.w3.org/1999/xlink">
<g id="graph0" class="graph" transform="scale(1 1) rotate(0) translate(4 40)">
<title>%3</title>
<!-- A -->
<g id="node1" class="node disabled">
<title>A</title>
<path fill="#ffffff" stroke="#d0dce3" d="M42,-36C42,-36 12,-36 12,-36 6,-36 0,-30 0,-24 0,-24 0,-12 0,-12 0,-6 6,0 12,0 12,0 42,0 42,0 48,0 54,-6 54,-12 54,-12 54,-24 54,-24 54,-30 48,-36 42,-36"/>
<text text-anchor="middle" x="27" y="-14.3" font-family="Inter,Arial" font-size="14.00" fill="#d0dce3">A</text>
</g>
<!-- ListFA -->
<g id="node2" class="node">
<title>ListFA</title>
<path fill="#ffffff" stroke="#586e75" d="M161,-36C161,-36 116,-36 116,-36 110,-36 104,-30 104,-24 104,-24 104,-12 104,-12 104,-6 110,0 116,0 116,0 161,0 161,0 167,0 173,-6 173,-12 173,-12 173,-24 173,-24 173,-30 167,-36 161,-36"/>
<text text-anchor="middle" x="138.5" y="-14.3" font-family="Inter,Arial" font-size="14.00" fill="#586e75">ListF[A]</text>
</g>
<!-- A&#45;&gt;ListFA -->
<g id="edge1" class="edge disabled">
<title>A&#45;&gt;ListFA</title>
<path fill="none" stroke="#d0dce3" d="M54.23,-18C65.91,-18 80,-18 93.23,-18"/>
<polygon fill="#d0dce3" stroke="#d0dce3" points="93.6,-21.5 103.6,-18 93.6,-14.5 93.6,-21.5"/>
<text text-anchor="middle" x="79" y="-21.2" font-family="Inter,Arial" font-size="11.00" fill="#d0dce3">op</text>
</g>
<!-- ListFList -->
<g id="node3" class="node">
<title>ListFList</title>
<path fill="#ffffff" stroke="#586e75" d="M344,-36C344,-36 285,-36 285,-36 279,-36 273,-30 273,-24 273,-24 273,-12 273,-12 273,-6 279,0 285,0 285,0 344,0 344,0 350,0 356,-6 356,-12 356,-12 356,-24 356,-24 356,-30 350,-36 344,-36"/>
<text text-anchor="middle" x="314.5" y="-14.3" font-family="Inter,Arial" font-size="14.00" fill="#586e75">ListF[List]</text>
</g>
<!-- ListFA&#45;&gt;ListFList -->
<g id="edge2" class="edge">
<title>ListFA&#45;&gt;ListFList</title>
<path fill="none" stroke="#586e75" d="M173.05,-18C198.38,-18 233.58,-18 262.4,-18"/>
<polygon fill="#586e75" stroke="#586e75" points="262.7,-21.5 272.7,-18 262.7,-14.5 262.7,-21.5"/>
<text text-anchor="middle" x="223" y="-21.2" font-family="Inter,Arial" font-size="11.00" fill="#586e75">map(_, loop)</text>
</g>
<!-- List -->
<g id="node4" class="node disabled">
<title>List</title>
<path fill="#ffffff" stroke="#d0dce3" d="M471,-36C471,-36 441,-36 441,-36 435,-36 429,-30 429,-24 429,-24 429,-12 429,-12 429,-6 435,0 441,0 441,0 471,0 471,0 477,0 483,-6 483,-12 483,-12 483,-24 483,-24 483,-30 477,-36 471,-36"/>
<text text-anchor="middle" x="456" y="-14.3" font-family="Inter,Arial" font-size="14.00" fill="#d0dce3">List</text>
</g>
<!-- ListFList&#45;&gt;List -->
<g id="edge3" class="edge disabled">
<title>ListFList&#45;&gt;List</title>
<path fill="none" stroke="#d0dce3" d="M356.22,-18C376.04,-18 399.65,-18 418.83,-18"/>
<polygon fill="#d0dce3" stroke="#d0dce3" points="418.97,-21.5 428.97,-18 418.97,-14.5 418.97,-21.5"/>
<text text-anchor="middle" x="392.5" y="-21.2" font-family="Inter,Arial" font-size="11.00" fill="#d0dce3">embed</text>
</g>
</g>
</svg>
