<?xml version="1.0" encoding="UTF-8" standalone="no"?>
<!DOCTYPE svg PUBLIC "-//W3C//DTD SVG 1.1//EN"
 "http://www.w3.org/Graphics/SVG/1.1/DTD/svg11.dtd">
<!-- Generated by graphviz version 2.43.0 (0)
 -->
<!-- Title: %3 Pages: 1 -->
<svg width="703pt" height="56pt"
 viewBox="0.00 0.00 703.00 55.50" xmlns="http://www.w3.org/2000/svg" xmlns:xlink="http://www.w3.org/1999/xlink">
<g id="graph0" class="graph" transform="scale(1 1) rotate(0) translate(4 51.5)">
<title>%3</title>
<!-- ListStruct -->
<g id="node1" class="node">
<title>ListStruct</title>
<path fill="#ffffff" stroke="#586e75" d="M365,-0.5C365,-0.5 406,-0.5 406,-0.5 412,-0.5 418,-6.5 418,-12.5 418,-12.5 418,-34.5 418,-34.5 418,-40.5 412,-46.5 406,-46.5 406,-46.5 365,-46.5 365,-46.5 359,-46.5 353,-40.5 353,-34.5 353,-34.5 353,-12.5 353,-12.5 353,-6.5 359,-0.5 365,-0.5"/>
<text text-anchor="middle" x="385.5" y="-31.3" font-family="Inter,Arial" font-size="14.00" fill="#586e75">Int, List</text>
<polyline fill="none" stroke="#586e75" points="353,-23.5 418,-23.5 "/>
<text text-anchor="middle" x="385.5" y="-8.3" font-family="Inter,Arial" font-size="14.00" fill="#586e75">∅</text>
</g>
<!-- ListFList -->
<g id="node4" class="node">
<title>ListFList</title>
<path fill="#ffffff" stroke="#586e75" d="M556,-41.5C556,-41.5 497,-41.5 497,-41.5 491,-41.5 485,-35.5 485,-29.5 485,-29.5 485,-17.5 485,-17.5 485,-11.5 491,-5.5 497,-5.5 497,-5.5 556,-5.5 556,-5.5 562,-5.5 568,-11.5 568,-17.5 568,-17.5 568,-29.5 568,-29.5 568,-35.5 562,-41.5 556,-41.5"/>
<text text-anchor="middle" x="526.5" y="-19.8" font-family="Inter,Arial" font-size="14.00" fill="#586e75">ListF[List]</text>
</g>
<!-- ListStruct&#45;&gt;ListFList -->
<g id="edge6" class="edge pattern">
<title>ListStruct:cons&#45;&gt;ListFList</title>
<path fill="none" stroke="#586e75" stroke-dasharray="5,2" d="M418,-35.5C418,-35.5 446.89,-32.28 474.71,-29.17"/>
<polygon fill="#586e75" stroke="#586e75" points="475.31,-32.62 484.86,-28.04 474.53,-25.67 475.31,-32.62"/>
<text text-anchor="middle" x="451.5" y="-35.7" font-family="Inter,Arial" font-size="11.00" fill="#586e75">Some</text>
</g>
<!-- ListStruct&#45;&gt;ListFList -->
<g id="edge7" class="edge pattern">
<title>ListStruct:nil&#45;&gt;ListFList</title>
<path fill="none" stroke="#586e75" stroke-dasharray="5,2" d="M418,-11.5C418,-11.5 446.89,-14.72 474.71,-17.83"/>
<polygon fill="#586e75" stroke="#586e75" points="474.53,-21.33 484.86,-18.96 475.31,-14.38 474.53,-21.33"/>
<text text-anchor="middle" x="451.5" y="-16.7" font-family="Inter,Arial" font-size="11.00" fill="#586e75">None</text>
</g>
<!-- ListStruct2 -->
<g id="node2" class="node">
<title>ListStruct2</title>
<path fill="#ffffff" stroke="#586e75" d="M252,-0.5C252,-0.5 282,-0.5 282,-0.5 288,-0.5 294,-6.5 294,-12.5 294,-12.5 294,-34.5 294,-34.5 294,-40.5 288,-46.5 282,-46.5 282,-46.5 252,-46.5 252,-46.5 246,-46.5 240,-40.5 240,-34.5 240,-34.5 240,-12.5 240,-12.5 240,-6.5 246,-0.5 252,-0.5"/>
<text text-anchor="middle" x="267" y="-31.3" font-family="Inter,Arial" font-size="14.00" fill="#586e75">Int, A</text>
<polyline fill="none" stroke="#586e75" points="240,-23.5 294,-23.5 "/>
<text text-anchor="middle" x="267" y="-8.3" font-family="Inter,Arial" font-size="14.00" fill="#586e75">∅</text>
</g>
<!-- ListStruct2&#45;&gt;ListStruct -->
<g id="edge4" class="edge">
<title>ListStruct2:cons&#45;&gt;ListStruct:cons</title>
<path fill="none" stroke="#586e75" d="M294,-35.5C294,-35.5 326.16,-35.5 342.99,-35.5"/>
<polygon fill="#586e75" stroke="#586e75" points="343,-39 353,-35.5 343,-32 343,-39"/>
<text text-anchor="middle" x="323.5" y="-38.7" font-family="Inter,Arial" font-size="11.00" fill="#586e75">loop</text>
</g>
<!-- ListStruct2&#45;&gt;ListStruct -->
<g id="edge5" class="edge">
<title>ListStruct2:nil&#45;&gt;ListStruct:nil</title>
<path fill="none" stroke="#586e75" d="M294,-11.5C294,-11.5 326.16,-11.5 342.99,-11.5"/>
<polygon fill="#586e75" stroke="#586e75" points="343,-15 353,-11.5 343,-8 343,-15"/>
</g>
<!-- ListFA -->
<g id="node3" class="node">
<title>ListFA</title>
<path fill="#ffffff" stroke="#586e75" d="M161,-41.5C161,-41.5 116,-41.5 116,-41.5 110,-41.5 104,-35.5 104,-29.5 104,-29.5 104,-17.5 104,-17.5 104,-11.5 110,-5.5 116,-5.5 116,-5.5 161,-5.5 161,-5.5 167,-5.5 173,-11.5 173,-17.5 173,-17.5 173,-29.5 173,-29.5 173,-35.5 167,-41.5 161,-41.5"/>
<text text-anchor="middle" x="138.5" y="-19.8" font-family="Inter,Arial" font-size="14.00" fill="#586e75">ListF[A]</text>
</g>
<!-- ListFA&#45;&gt;ListStruct2 -->
<g id="edge2" class="edge pattern">
<title>ListFA&#45;&gt;ListStruct2:cons</title>
<path fill="none" stroke="#586e75" stroke-dasharray="5,2" d="M173.24,-27.53C193.09,-29.9 216.8,-32.73 229.95,-34.3"/>
<polygon fill="#586e75" stroke="#586e75" points="229.66,-37.79 240,-35.5 230.49,-30.84 229.66,-37.79"/>
<text text-anchor="middle" x="206.5" y="-35.7" font-family="Inter,Arial" font-size="11.00" fill="#586e75">Some</text>
</g>
<!-- ListFA&#45;&gt;ListStruct2 -->
<g id="edge3" class="edge pattern">
<title>ListFA&#45;&gt;ListStruct2:nil</title>
<path fill="none" stroke="#586e75" stroke-dasharray="5,2" d="M173.24,-19.47C193.09,-17.1 216.8,-14.27 229.95,-12.7"/>
<polygon fill="#586e75" stroke="#586e75" points="230.49,-16.16 240,-11.5 229.66,-9.21 230.49,-16.16"/>
<text text-anchor="middle" x="206.5" y="-16.7" font-family="Inter,Arial" font-size="11.00" fill="#586e75">None</text>
</g>
<!-- List -->
<g id="node5" class="node disabled">
<title>List</title>
<path fill="#ffffff" stroke="#d0dce3" d="M683,-41.5C683,-41.5 653,-41.5 653,-41.5 647,-41.5 641,-35.5 641,-29.5 641,-29.5 641,-17.5 641,-17.5 641,-11.5 647,-5.5 653,-5.5 653,-5.5 683,-5.5 683,-5.5 689,-5.5 695,-11.5 695,-17.5 695,-17.5 695,-29.5 695,-29.5 695,-35.5 689,-41.5 683,-41.5"/>
<text text-anchor="middle" x="668" y="-19.8" font-family="Inter,Arial" font-size="14.00" fill="#d0dce3">List</text>
</g>
<!-- ListFList&#45;&gt;List -->
<g id="edge8" class="edge disabled">
<title>ListFList&#45;&gt;List</title>
<path fill="none" stroke="#d0dce3" d="M568.22,-23.5C588.04,-23.5 611.65,-23.5 630.83,-23.5"/>
<polygon fill="#d0dce3" stroke="#d0dce3" points="630.97,-27 640.97,-23.5 630.97,-20 630.97,-27"/>
<text text-anchor="middle" x="604.5" y="-26.7" font-family="Inter,Arial" font-size="11.00" fill="#d0dce3">embed</text>
</g>
<!-- A -->
<g id="node6" class="node disabled">
<title>A</title>
<path fill="#ffffff" stroke="#d0dce3" d="M42,-41.5C42,-41.5 12,-41.5 12,-41.5 6,-41.5 0,-35.5 0,-29.5 0,-29.5 0,-17.5 0,-17.5 0,-11.5 6,-5.5 12,-5.5 12,-5.5 42,-5.5 42,-5.5 48,-5.5 54,-11.5 54,-17.5 54,-17.5 54,-29.5 54,-29.5 54,-35.5 48,-41.5 42,-41.5"/>
<text text-anchor="middle" x="27" y="-19.8" font-family="Inter,Arial" font-size="14.00" fill="#d0dce3">A</text>
</g>
<!-- A&#45;&gt;ListFA -->
<g id="edge1" class="edge disabled">
<title>A&#45;&gt;ListFA</title>
<path fill="none" stroke="#d0dce3" d="M54.23,-23.5C65.91,-23.5 80,-23.5 93.23,-23.5"/>
<polygon fill="#d0dce3" stroke="#d0dce3" points="93.6,-27 103.6,-23.5 93.6,-20 93.6,-27"/>
<text text-anchor="middle" x="79" y="-26.7" font-family="Inter,Arial" font-size="11.00" fill="#d0dce3">op</text>
</g>
</g>
</svg>
