<?xml version="1.0" encoding="UTF-8" standalone="no"?>
<!DOCTYPE svg PUBLIC "-//W3C//DTD SVG 1.1//EN"
 "http://www.w3.org/Graphics/SVG/1.1/DTD/svg11.dtd">
<!-- Generated by graphviz version 2.43.0 (0)
 -->
<!-- Title: %3 Pages: 1 -->
<svg width="485pt" height="44pt"
 viewBox="0.00 0.00 485.00 44.00" xmlns="http://www.w3.org/2000/svg" xmlns:xlink="http://www.w3.org/1999/xlink">
<g id="graph0" class="graph" transform="scale(1 1) rotate(0) translate(4 40)">
<title>%3</title>
<!-- A -->
<g id="node1" class="node">
<title>A</title>
<path fill="#ffffff" stroke="#586e75" d="M42,-36C42,-36 12,-36 12,-36 6,-36 0,-30 0,-24 0,-24 0,-12 0,-12 0,-6 6,0 12,0 12,0 42,0 42,0 48,0 54,-6 54,-12 54,-12 54,-24 54,-24 54,-30 48,-36 42,-36"/>
<text text-anchor="middle" x="27" y="-14.3" font-family="Inter,Arial" font-size="14.00" fill="#586e75">A</text>
</g>
<!-- ListFA -->
<g id="node2" class="node">
<title>ListFA</title>
<path fill="#ffffff" stroke="#586e75" d="M184,-36C184,-36 154,-36 154,-36 148,-36 142,-30 142,-24 142,-24 142,-12 142,-12 142,-6 148,0 154,0 154,0 184,0 184,0 190,0 196,-6 196,-12 196,-12 196,-24 196,-24 196,-30 190,-36 184,-36"/>
<text text-anchor="middle" x="169" y="-14.3" font-family="Inter,Arial" font-size="14.00" fill="#586e75">F[A]</text>
</g>
<!-- A&#45;&gt;ListFA -->
<g id="edge1" class="edge">
<title>A&#45;&gt;ListFA</title>
<path fill="none" stroke="#586e75" d="M54,-18C75.77,-18 107.08,-18 131.38,-18"/>
<polygon fill="#586e75" stroke="#586e75" points="131.66,-21.5 141.66,-18 131.66,-14.5 131.66,-21.5"/>
<text text-anchor="middle" x="98" y="-21.2" font-family="Inter,Arial" font-size="11.00" fill="#586e75">coAlgebra</text>
</g>
<!-- ListFList -->
<g id="node3" class="node">
<title>ListFList</title>
<path fill="#ffffff" stroke="#586e75" d="M338,-36C338,-36 308,-36 308,-36 302,-36 296,-30 296,-24 296,-24 296,-12 296,-12 296,-6 302,0 308,0 308,0 338,0 338,0 344,0 350,-6 350,-12 350,-12 350,-24 350,-24 350,-30 344,-36 338,-36"/>
<text text-anchor="middle" x="323" y="-14.3" font-family="Inter,Arial" font-size="14.00" fill="#586e75">F[B]</text>
</g>
<!-- ListFA&#45;&gt;ListFList -->
<g id="edge2" class="edge">
<title>ListFA&#45;&gt;ListFList</title>
<path fill="none" stroke="#586e75" d="M196.13,-18C220.89,-18 258.3,-18 285.9,-18"/>
<polygon fill="#586e75" stroke="#586e75" points="285.96,-21.5 295.96,-18 285.96,-14.5 285.96,-21.5"/>
<text text-anchor="middle" x="246" y="-21.2" font-family="Inter,Arial" font-size="11.00" fill="#586e75">map(_, loop)</text>
</g>
<!-- List -->
<g id="node4" class="node">
<title>List</title>
<path fill="#ffffff" stroke="#586e75" d="M465,-36C465,-36 435,-36 435,-36 429,-36 423,-30 423,-24 423,-24 423,-12 423,-12 423,-6 429,0 435,0 435,0 465,0 465,0 471,0 477,-6 477,-12 477,-12 477,-24 477,-24 477,-30 471,-36 465,-36"/>
<text text-anchor="middle" x="450" y="-14.3" font-family="Inter,Arial" font-size="14.00" fill="#586e75">B</text>
</g>
<!-- ListFList&#45;&gt;List -->
<g id="edge3" class="edge">
<title>ListFList&#45;&gt;List</title>
<path fill="none" stroke="#586e75" d="M350.2,-18C368.37,-18 392.8,-18 412.82,-18"/>
<polygon fill="#586e75" stroke="#586e75" points="412.83,-21.5 422.83,-18 412.83,-14.5 412.83,-21.5"/>
<text text-anchor="middle" x="386.5" y="-21.2" font-family="Inter,Arial" font-size="11.00" fill="#586e75">embed</text>
</g>
</g>
</svg>
