<?xml version="1.0" encoding="UTF-8" standalone="no"?>
<!DOCTYPE svg PUBLIC "-//W3C//DTD SVG 1.1//EN"
 "http://www.w3.org/Graphics/SVG/1.1/DTD/svg11.dtd">
<!-- Generated by graphviz version 2.43.0 (0)
 -->
<!-- Title: %3 Pages: 1 -->
<svg width="452pt" height="44pt"
 viewBox="0.00 0.00 452.00 44.00" xmlns="http://www.w3.org/2000/svg" xmlns:xlink="http://www.w3.org/1999/xlink">
<g id="graph0" class="graph" transform="scale(1 1) rotate(0) translate(4 40)">
<title>%3</title>
<!-- List -->
<g id="node1" class="node">
<title>List</title>
<path fill="#ffffff" stroke="#586e75" d="M42,-36C42,-36 12,-36 12,-36 6,-36 0,-30 0,-24 0,-24 0,-12 0,-12 0,-6 6,0 12,0 12,0 42,0 42,0 48,0 54,-6 54,-12 54,-12 54,-24 54,-24 54,-30 48,-36 42,-36"/>
<text text-anchor="middle" x="27" y="-14.3" font-family="Inter,Arial" font-size="14.00" fill="#586e75">List</text>
</g>
<!-- ListFList -->
<g id="node2" class="node">
<title>ListFList</title>
<path fill="#ffffff" stroke="#586e75" d="M174,-36C174,-36 139,-36 139,-36 133,-36 127,-30 127,-24 127,-24 127,-12 127,-12 127,-6 133,0 139,0 139,0 174,0 174,0 180,0 186,-6 186,-12 186,-12 186,-24 186,-24 186,-30 180,-36 174,-36"/>
<text text-anchor="middle" x="156.5" y="-14.3" font-family="Inter,Arial" font-size="14.00" fill="#586e75">F[List]</text>
</g>
<!-- List&#45;&gt;ListFList -->
<g id="edge1" class="edge disabled">
<title>List&#45;&gt;ListFList</title>
<path fill="none" stroke="#d0dce3" d="M54.11,-18C72.1,-18 96.32,-18 116.58,-18"/>
<polygon fill="#d0dce3" stroke="#d0dce3" points="116.76,-21.5 126.76,-18 116.76,-14.5 116.76,-21.5"/>
<text text-anchor="middle" x="90.5" y="-21.2" font-family="Inter,Arial" font-size="11.00" fill="#d0dce3">project</text>
</g>
<!-- ListFA -->
<g id="node3" class="node disabled">
<title>ListFA</title>
<path fill="#ffffff" stroke="#d0dce3" d="M328,-36C328,-36 298,-36 298,-36 292,-36 286,-30 286,-24 286,-24 286,-12 286,-12 286,-6 292,0 298,0 298,0 328,0 328,0 334,0 340,-6 340,-12 340,-12 340,-24 340,-24 340,-30 334,-36 328,-36"/>
<text text-anchor="middle" x="313" y="-14.3" font-family="Inter,Arial" font-size="14.00" fill="#d0dce3">F[A]</text>
</g>
<!-- ListFList&#45;&gt;ListFA -->
<g id="edge2" class="edge disabled">
<title>ListFList&#45;&gt;ListFA</title>
<path fill="none" stroke="#d0dce3" d="M186.2,-18C211.39,-18 248.17,-18 275.46,-18"/>
<polygon fill="#d0dce3" stroke="#d0dce3" points="275.77,-21.5 285.77,-18 275.77,-14.5 275.77,-21.5"/>
<text text-anchor="middle" x="236" y="-21.2" font-family="Inter,Arial" font-size="11.00" fill="#d0dce3">map(_, loop)</text>
</g>
<!-- A -->
<g id="node4" class="node disabled">
<title>A</title>
<path fill="#ffffff" stroke="#d0dce3" d="M432,-36C432,-36 402,-36 402,-36 396,-36 390,-30 390,-24 390,-24 390,-12 390,-12 390,-6 396,0 402,0 402,0 432,0 432,0 438,0 444,-6 444,-12 444,-12 444,-24 444,-24 444,-30 438,-36 432,-36"/>
<text text-anchor="middle" x="417" y="-14.3" font-family="Inter,Arial" font-size="14.00" fill="#d0dce3">A</text>
</g>
<!-- ListFA&#45;&gt;A -->
<g id="edge3" class="edge disabled">
<title>ListFA&#45;&gt;A</title>
<path fill="none" stroke="#d0dce3" d="M340,-18C352.02,-18 366.49,-18 379.57,-18"/>
<polygon fill="#d0dce3" stroke="#d0dce3" points="379.69,-21.5 389.69,-18 379.69,-14.5 379.69,-21.5"/>
<text text-anchor="middle" x="365" y="-21.2" font-family="Inter,Arial" font-size="11.00" fill="#d0dce3">op</text>
</g>
</g>
</svg>
