<?xml version="1.0" encoding="UTF-8" standalone="no"?>
<!DOCTYPE svg PUBLIC "-//W3C//DTD SVG 1.1//EN"
 "http://www.w3.org/Graphics/SVG/1.1/DTD/svg11.dtd">
<!-- Generated by graphviz version 2.43.0 (0)
 -->
<!-- Title: %3 Pages: 1 -->
<svg width="534pt" height="44pt"
 viewBox="0.00 0.00 534.00 44.00" xmlns="http://www.w3.org/2000/svg" xmlns:xlink="http://www.w3.org/1999/xlink">
<g id="graph0" class="graph" transform="scale(1 1) rotate(0) translate(4 40)">
<title>%3</title>
<!-- B -->
<g id="node1" class="node">
<title>B</title>
<path fill="#ffffff" stroke="#586e75" d="M42,-36C42,-36 12,-36 12,-36 6,-36 0,-30 0,-24 0,-24 0,-12 0,-12 0,-6 6,0 12,0 12,0 42,0 42,0 48,0 54,-6 54,-12 54,-12 54,-24 54,-24 54,-30 48,-36 42,-36"/>
<text text-anchor="middle" x="27" y="-14.3" font-family="Inter,Arial" font-size="14.00" fill="#586e75">Tree</text>
</g>
<!-- ListFList -->
<g id="node2" class="node">
<title>ListFList</title>
<path fill="#ffffff" stroke="#586e75" d="M210,-36C210,-36 139,-36 139,-36 133,-36 127,-30 127,-24 127,-24 127,-12 127,-12 127,-6 133,0 139,0 139,0 210,0 210,0 216,0 222,-6 222,-12 222,-12 222,-24 222,-24 222,-30 216,-36 210,-36"/>
<text text-anchor="middle" x="174.5" y="-14.3" font-family="Inter,Arial" font-size="14.00" fill="#586e75">TreeF[Tree]</text>
</g>
<!-- B&#45;&gt;ListFList -->
<g id="edge1" class="edge">
<title>B&#45;&gt;ListFList</title>
<path fill="none" stroke="#586e75" d="M54.01,-18C71.44,-18 95.08,-18 116.73,-18"/>
<polygon fill="#586e75" stroke="#586e75" points="116.83,-21.5 126.83,-18 116.83,-14.5 116.83,-21.5"/>
<text text-anchor="middle" x="90.5" y="-21.2" font-family="Inter,Arial" font-size="11.00" fill="#586e75">project</text>
</g>
<!-- ListFA -->
<g id="node3" class="node disabled">
<title>ListFA</title>
<path fill="#ffffff" stroke="#d0dce3" d="M385,-36C385,-36 334,-36 334,-36 328,-36 322,-30 322,-24 322,-24 322,-12 322,-12 322,-6 328,0 334,0 334,0 385,0 385,0 391,0 397,-6 397,-12 397,-12 397,-24 397,-24 397,-30 391,-36 385,-36"/>
<text text-anchor="middle" x="359.5" y="-14.3" font-family="Inter,Arial" font-size="14.00" fill="#d0dce3">TreeF[A]</text>
</g>
<!-- ListFList&#45;&gt;ListFA -->
<g id="edge2" class="edge disabled">
<title>ListFList&#45;&gt;ListFA</title>
<path fill="none" stroke="#d0dce3" d="M222.15,-18C249.57,-18 284.13,-18 311.59,-18"/>
<polygon fill="#d0dce3" stroke="#d0dce3" points="311.74,-21.5 321.74,-18 311.74,-14.5 311.74,-21.5"/>
<text text-anchor="middle" x="272" y="-21.2" font-family="Inter,Arial" font-size="11.00" fill="#d0dce3">map(_, loop)</text>
</g>
<!-- A -->
<g id="node4" class="node disabled">
<title>A</title>
<path fill="#ffffff" stroke="#d0dce3" d="M514,-36C514,-36 484,-36 484,-36 478,-36 472,-30 472,-24 472,-24 472,-12 472,-12 472,-6 478,0 484,0 484,0 514,0 514,0 520,0 526,-6 526,-12 526,-12 526,-24 526,-24 526,-30 520,-36 514,-36"/>
<text text-anchor="middle" x="499" y="-14.3" font-family="Inter,Arial" font-size="14.00" fill="#d0dce3">A</text>
</g>
<!-- ListFA&#45;&gt;A -->
<g id="edge3" class="edge disabled">
<title>ListFA&#45;&gt;A</title>
<path fill="none" stroke="#d0dce3" d="M397.35,-18C417.31,-18 441.88,-18 461.74,-18"/>
<polygon fill="#d0dce3" stroke="#d0dce3" points="461.95,-21.5 471.95,-18 461.95,-14.5 461.95,-21.5"/>
<text text-anchor="middle" x="434.5" y="-21.2" font-family="Inter,Arial" font-size="11.00" fill="#d0dce3">algebra</text>
</g>
</g>
</svg>
