<?xml version="1.0" encoding="UTF-8" standalone="no"?>
<!DOCTYPE svg PUBLIC "-//W3C//DTD SVG 1.1//EN"
 "http://www.w3.org/Graphics/SVG/1.1/DTD/svg11.dtd">
<!-- Generated by graphviz version 2.43.0 (0)
 -->
<!-- Title: %3 Pages: 1 -->
<svg width="491pt" height="44pt"
 viewBox="0.00 0.00 491.00 44.00" xmlns="http://www.w3.org/2000/svg" xmlns:xlink="http://www.w3.org/1999/xlink">
<g id="graph0" class="graph" transform="scale(1 1) rotate(0) translate(4 40)">
<title>%3</title>
<!-- B -->
<g id="node1" class="node disabled">
<title>B</title>
<path fill="#ffffff" stroke="#d0dce3" d="M42,-36C42,-36 12,-36 12,-36 6,-36 0,-30 0,-24 0,-24 0,-12 0,-12 0,-6 6,0 12,0 12,0 42,0 42,0 48,0 54,-6 54,-12 54,-12 54,-24 54,-24 54,-30 48,-36 42,-36"/>
<text text-anchor="middle" x="27" y="-14.3" font-family="Inter,Arial" font-size="14.00" fill="#d0dce3">Fix[F]</text>
</g>
<!-- ListFList -->
<g id="node2" class="node disabled">
<title>ListFList</title>
<path fill="#ffffff" stroke="#d0dce3" d="M188,-36C188,-36 139,-36 139,-36 133,-36 127,-30 127,-24 127,-24 127,-12 127,-12 127,-6 133,0 139,0 139,0 188,0 188,0 194,0 200,-6 200,-12 200,-12 200,-24 200,-24 200,-30 194,-36 188,-36"/>
<text text-anchor="middle" x="163.5" y="-14.3" font-family="Inter,Arial" font-size="14.00" fill="#d0dce3">F[Fix[F]]</text>
</g>
<!-- B&#45;&gt;ListFList -->
<g id="edge1" class="edge">
<title>B&#45;&gt;ListFList</title>
<path fill="none" stroke="#586e75" d="M54.25,-18C71.98,-18 95.84,-18 116.66,-18"/>
<polygon fill="#586e75" stroke="#586e75" points="116.9,-21.5 126.9,-18 116.9,-14.5 116.9,-21.5"/>
<text text-anchor="middle" x="90.5" y="-21.2" font-family="Inter,Arial" font-size="11.00" fill="#586e75">project</text>
</g>
<!-- ListFA -->
<g id="node3" class="node disabled">
<title>ListFA</title>
<path fill="#ffffff" stroke="#d0dce3" d="M342,-36C342,-36 312,-36 312,-36 306,-36 300,-30 300,-24 300,-24 300,-12 300,-12 300,-6 306,0 312,0 312,0 342,0 342,0 348,0 354,-6 354,-12 354,-12 354,-24 354,-24 354,-30 348,-36 342,-36"/>
<text text-anchor="middle" x="327" y="-14.3" font-family="Inter,Arial" font-size="14.00" fill="#d0dce3">F[A]</text>
</g>
<!-- ListFList&#45;&gt;ListFA -->
<g id="edge2" class="edge disabled">
<title>ListFList&#45;&gt;ListFA</title>
<path fill="none" stroke="#d0dce3" d="M200.34,-18C226.92,-18 263.02,-18 289.71,-18"/>
<polygon fill="#d0dce3" stroke="#d0dce3" points="289.79,-21.5 299.79,-18 289.79,-14.5 289.79,-21.5"/>
<text text-anchor="middle" x="250" y="-21.2" font-family="Inter,Arial" font-size="11.00" fill="#d0dce3">map(_, loop)</text>
</g>
<!-- A -->
<g id="node4" class="node disabled">
<title>A</title>
<path fill="#ffffff" stroke="#d0dce3" d="M471,-36C471,-36 441,-36 441,-36 435,-36 429,-30 429,-24 429,-24 429,-12 429,-12 429,-6 435,0 441,0 441,0 471,0 471,0 477,0 483,-6 483,-12 483,-12 483,-24 483,-24 483,-30 477,-36 471,-36"/>
<text text-anchor="middle" x="456" y="-14.3" font-family="Inter,Arial" font-size="14.00" fill="#d0dce3">A</text>
</g>
<!-- ListFA&#45;&gt;A -->
<g id="edge3" class="edge disabled">
<title>ListFA&#45;&gt;A</title>
<path fill="none" stroke="#d0dce3" d="M354.01,-18C372.63,-18 397.96,-18 418.59,-18"/>
<polygon fill="#d0dce3" stroke="#d0dce3" points="418.59,-21.5 428.59,-18 418.59,-14.5 418.59,-21.5"/>
<text text-anchor="middle" x="391.5" y="-21.2" font-family="Inter,Arial" font-size="11.00" fill="#d0dce3">algebra</text>
</g>
</g>
</svg>
