<?xml version="1.0" encoding="UTF-8" standalone="no"?>
<!DOCTYPE svg PUBLIC "-//W3C//DTD SVG 1.1//EN"
 "http://www.w3.org/Graphics/SVG/1.1/DTD/svg11.dtd">
<!-- Generated by graphviz version 2.43.0 (0)
 -->
<!-- Title: %3 Pages: 1 -->
<svg width="615pt" height="56pt"
 viewBox="0.00 0.00 615.00 55.50" xmlns="http://www.w3.org/2000/svg" xmlns:xlink="http://www.w3.org/1999/xlink">
<g id="graph0" class="graph" transform="scale(1 1) rotate(0) translate(4 51.5)">
<title>%3</title>
<!-- ListStruct -->
<g id="node1" class="node disabled">
<title>ListStruct</title>
<path fill="#ffffff" stroke="#d0dce3" d="M325,-0.5C325,-0.5 366,-0.5 366,-0.5 372,-0.5 378,-6.5 378,-12.5 378,-12.5 378,-34.5 378,-34.5 378,-40.5 372,-46.5 366,-46.5 366,-46.5 325,-46.5 325,-46.5 319,-46.5 313,-40.5 313,-34.5 313,-34.5 313,-12.5 313,-12.5 313,-6.5 319,-0.5 325,-0.5"/>
<text text-anchor="middle" x="345.5" y="-31.3" font-family="Inter,Arial" font-size="14.00" fill="#d0dce3">Int, List</text>
<polyline fill="none" stroke="#d0dce3" points="313,-23.5 378,-23.5 "/>
<text text-anchor="middle" x="345.5" y="-8.3" font-family="Inter,Arial" font-size="14.00" fill="#d0dce3">∅</text>
</g>
<!-- ListStruct2 -->
<g id="node2" class="node">
<title>ListStruct2</title>
<path fill="#ffffff" stroke="#586e75" d="M449,-0.5C449,-0.5 479,-0.5 479,-0.5 485,-0.5 491,-6.5 491,-12.5 491,-12.5 491,-34.5 491,-34.5 491,-40.5 485,-46.5 479,-46.5 479,-46.5 449,-46.5 449,-46.5 443,-46.5 437,-40.5 437,-34.5 437,-34.5 437,-12.5 437,-12.5 437,-6.5 443,-0.5 449,-0.5"/>
<text text-anchor="middle" x="464" y="-31.3" font-family="Inter,Arial" font-size="14.00" fill="#586e75">Int, A</text>
<polyline fill="none" stroke="#586e75" points="437,-23.5 491,-23.5 "/>
<text text-anchor="middle" x="464" y="-8.3" font-family="Inter,Arial" font-size="14.00" fill="#586e75">∅</text>
</g>
<!-- ListStruct&#45;&gt;ListStruct2 -->
<g id="edge4" class="edge disabled">
<title>ListStruct:cons&#45;&gt;ListStruct2:cons</title>
<path fill="none" stroke="#d0dce3" d="M378,-35.5C378,-35.5 410.16,-35.5 426.99,-35.5"/>
<polygon fill="#d0dce3" stroke="#d0dce3" points="427,-39 437,-35.5 427,-32 427,-39"/>
<text text-anchor="middle" x="407.5" y="-38.7" font-family="Inter,Arial" font-size="11.00" fill="#d0dce3">loop</text>
</g>
<!-- ListStruct&#45;&gt;ListStruct2 -->
<g id="edge5" class="edge disabled">
<title>ListStruct:nil&#45;&gt;ListStruct2:nil</title>
<path fill="none" stroke="#d0dce3" d="M378,-11.5C378,-11.5 410.16,-11.5 426.99,-11.5"/>
<polygon fill="#d0dce3" stroke="#d0dce3" points="427,-15 437,-11.5 427,-8 427,-15"/>
</g>
<!-- A -->
<g id="node5" class="node">
<title>A</title>
<path fill="#ffffff" stroke="#586e75" d="M595,-41.5C595,-41.5 565,-41.5 565,-41.5 559,-41.5 553,-35.5 553,-29.5 553,-29.5 553,-17.5 553,-17.5 553,-11.5 559,-5.5 565,-5.5 565,-5.5 595,-5.5 595,-5.5 601,-5.5 607,-11.5 607,-17.5 607,-17.5 607,-29.5 607,-29.5 607,-35.5 601,-41.5 595,-41.5"/>
<text text-anchor="middle" x="580" y="-19.8" font-family="Inter,Arial" font-size="14.00" fill="#586e75">A</text>
</g>
<!-- ListStruct2&#45;&gt;A -->
<g id="edge6" class="edge">
<title>ListStruct2:cons&#45;&gt;A</title>
<path fill="none" stroke="#586e75" d="M491,-35.5C491,-35.5 518.31,-31.78 542.51,-28.48"/>
<polygon fill="#586e75" stroke="#586e75" points="543.16,-31.92 552.6,-27.1 542.22,-24.98 543.16,-31.92"/>
<text text-anchor="middle" x="522" y="-35.7" font-family="Inter,Arial" font-size="11.00" fill="#586e75">step</text>
</g>
<!-- ListStruct2&#45;&gt;A -->
<g id="edge7" class="edge">
<title>ListStruct2:nil&#45;&gt;A</title>
<path fill="none" stroke="#586e75" d="M491,-11.5C491,-11.5 518.31,-15.22 542.51,-18.52"/>
<polygon fill="#586e75" stroke="#586e75" points="542.22,-22.02 552.6,-19.9 543.16,-15.08 542.22,-22.02"/>
<text text-anchor="middle" x="522" y="-16.7" font-family="Inter,Arial" font-size="11.00" fill="#586e75">base</text>
</g>
<!-- ListFList -->
<g id="node3" class="node disabled">
<title>ListFList</title>
<path fill="#ffffff" stroke="#d0dce3" d="M234,-41.5C234,-41.5 139,-41.5 139,-41.5 133,-41.5 127,-35.5 127,-29.5 127,-29.5 127,-17.5 127,-17.5 127,-11.5 133,-5.5 139,-5.5 139,-5.5 234,-5.5 234,-5.5 240,-5.5 246,-11.5 246,-17.5 246,-17.5 246,-29.5 246,-29.5 246,-35.5 240,-41.5 234,-41.5"/>
<text text-anchor="middle" x="186.5" y="-19.8" font-family="Inter,Arial" font-size="14.00" fill="#d0dce3">Option[Int, List]</text>
</g>
<!-- ListFList&#45;&gt;ListStruct -->
<g id="edge2" class="edge pattern,disabled">
<title>ListFList&#45;&gt;ListStruct:cons</title>
<path fill="none" stroke="#d0dce3" stroke-dasharray="5,2" d="M246.21,-29.11C267.9,-31.19 290.23,-33.32 302.79,-34.52"/>
<polygon fill="#d0dce3" stroke="#d0dce3" points="302.71,-38.03 313,-35.5 303.38,-31.06 302.71,-38.03"/>
<text text-anchor="middle" x="279.5" y="-36.7" font-family="Inter,Arial" font-size="11.00" fill="#d0dce3">Some</text>
</g>
<!-- ListFList&#45;&gt;ListStruct -->
<g id="edge3" class="edge pattern,disabled">
<title>ListFList&#45;&gt;ListStruct:nil</title>
<path fill="none" stroke="#d0dce3" stroke-dasharray="5,2" d="M246.21,-17.89C267.9,-15.81 290.23,-13.68 302.79,-12.48"/>
<polygon fill="#d0dce3" stroke="#d0dce3" points="303.38,-15.94 313,-11.5 302.71,-8.97 303.38,-15.94"/>
<text text-anchor="middle" x="279.5" y="-17.7" font-family="Inter,Arial" font-size="11.00" fill="#d0dce3">None</text>
</g>
<!-- List -->
<g id="node4" class="node disabled">
<title>List</title>
<path fill="#ffffff" stroke="#d0dce3" d="M42,-41.5C42,-41.5 12,-41.5 12,-41.5 6,-41.5 0,-35.5 0,-29.5 0,-29.5 0,-17.5 0,-17.5 0,-11.5 6,-5.5 12,-5.5 12,-5.5 42,-5.5 42,-5.5 48,-5.5 54,-11.5 54,-17.5 54,-17.5 54,-29.5 54,-29.5 54,-35.5 48,-41.5 42,-41.5"/>
<text text-anchor="middle" x="27" y="-19.8" font-family="Inter,Arial" font-size="14.00" fill="#d0dce3">List</text>
</g>
<!-- List&#45;&gt;ListFList -->
<g id="edge1" class="edge disabled">
<title>List&#45;&gt;ListFList</title>
<path fill="none" stroke="#d0dce3" d="M54.01,-23.5C71.13,-23.5 94.41,-23.5 116.63,-23.5"/>
<polygon fill="#d0dce3" stroke="#d0dce3" points="116.73,-27 126.73,-23.5 116.73,-20 116.73,-27"/>
<text text-anchor="middle" x="90.5" y="-26.7" font-family="Inter,Arial" font-size="11.00" fill="#d0dce3">project</text>
</g>
</g>
</svg>
