<?xml version="1.0" encoding="UTF-8" standalone="no"?>
<!DOCTYPE svg PUBLIC "-//W3C//DTD SVG 1.1//EN"
 "http://www.w3.org/Graphics/SVG/1.1/DTD/svg11.dtd">
<!-- Generated by graphviz version 2.43.0 (0)
 -->
<!-- Title: %3 Pages: 1 -->
<svg width="777pt" height="44pt"
 viewBox="0.00 0.00 777.00 44.00" xmlns="http://www.w3.org/2000/svg" xmlns:xlink="http://www.w3.org/1999/xlink">
<g id="graph0" class="graph" transform="scale(1 1) rotate(0) translate(4 40)">
<title>%3</title>
<!-- l1 -->
<g id="node1" class="node fix,disabled">
<title>l1</title>
<polygon fill="#ffffff" stroke="#d0dce3" points="27,-36 0,-18 27,0 54,-18 27,-36"/>
</g>
<!-- p1 -->
<g id="node5" class="node cell">
<title>p1</title>
<ellipse fill="#586e75" stroke="#586e75" cx="136" cy="-18" rx="18" ry="18"/>
<text text-anchor="middle" x="136" y="-14.3" font-family="Inter,Arial" font-size="14.00" fill="#ffffff">3</text>
</g>
<!-- l1&#45;&gt;p1 -->
<g id="edge1" class="edge disabled">
<title>l1&#45;&gt;p1</title>
<path fill="none" stroke="#d0dce3" d="M54.18,-18C70.42,-18 91.25,-18 107.7,-18"/>
<polygon fill="#d0dce3" stroke="#d0dce3" points="107.78,-21.5 117.78,-18 107.78,-14.5 107.78,-21.5"/>
<text text-anchor="middle" x="86" y="-21.2" font-family="Inter,Arial" font-size="11.00" fill="#d0dce3">value</text>
</g>
<!-- l2 -->
<g id="node2" class="node fix,disabled">
<title>l2</title>
<polygon fill="#ffffff" stroke="#d0dce3" points="232,-36 205,-18 232,0 259,-18 232,-36"/>
</g>
<!-- p2 -->
<g id="node6" class="node cell">
<title>p2</title>
<ellipse fill="#586e75" stroke="#586e75" cx="341" cy="-18" rx="18" ry="18"/>
<text text-anchor="middle" x="341" y="-14.3" font-family="Inter,Arial" font-size="14.00" fill="#ffffff">2</text>
</g>
<!-- l2&#45;&gt;p2 -->
<g id="edge3" class="edge disabled">
<title>l2&#45;&gt;p2</title>
<path fill="none" stroke="#d0dce3" d="M259.18,-18C275.42,-18 296.25,-18 312.7,-18"/>
<polygon fill="#d0dce3" stroke="#d0dce3" points="312.78,-21.5 322.78,-18 312.78,-14.5 312.78,-21.5"/>
<text text-anchor="middle" x="291" y="-21.2" font-family="Inter,Arial" font-size="11.00" fill="#d0dce3">value</text>
</g>
<!-- l3 -->
<g id="node3" class="node fix,disabled">
<title>l3</title>
<polygon fill="#ffffff" stroke="#d0dce3" points="437,-36 410,-18 437,0 464,-18 437,-36"/>
</g>
<!-- p3 -->
<g id="node7" class="node cell">
<title>p3</title>
<ellipse fill="#586e75" stroke="#586e75" cx="546" cy="-18" rx="18" ry="18"/>
<text text-anchor="middle" x="546" y="-14.3" font-family="Inter,Arial" font-size="14.00" fill="#ffffff">1</text>
</g>
<!-- l3&#45;&gt;p3 -->
<g id="edge5" class="edge disabled">
<title>l3&#45;&gt;p3</title>
<path fill="none" stroke="#d0dce3" d="M464.18,-18C480.42,-18 501.25,-18 517.7,-18"/>
<polygon fill="#d0dce3" stroke="#d0dce3" points="517.78,-21.5 527.78,-18 517.78,-14.5 517.78,-21.5"/>
<text text-anchor="middle" x="496" y="-21.2" font-family="Inter,Arial" font-size="11.00" fill="#d0dce3">value</text>
</g>
<!-- l4 -->
<g id="node4" class="node fix,disabled">
<title>l4</title>
<polygon fill="#ffffff" stroke="#d0dce3" points="642,-36 615,-18 642,0 669,-18 642,-36"/>
</g>
<!-- nil -->
<g id="node8" class="node nil">
<title>nil</title>
<ellipse fill="#ffffff" stroke="#586e75" cx="751" cy="-18" rx="18" ry="18"/>
<text text-anchor="middle" x="751" y="-14.3" font-family="Inter,Arial" font-size="14.00" fill="#586e75">∅</text>
</g>
<!-- l4&#45;&gt;nil -->
<g id="edge7" class="edge disabled">
<title>l4&#45;&gt;nil</title>
<path fill="none" stroke="#d0dce3" d="M669.18,-18C685.42,-18 706.25,-18 722.7,-18"/>
<polygon fill="#d0dce3" stroke="#d0dce3" points="722.78,-21.5 732.78,-18 722.78,-14.5 722.78,-21.5"/>
<text text-anchor="middle" x="701" y="-21.2" font-family="Inter,Arial" font-size="11.00" fill="#d0dce3">value</text>
</g>
<!-- p1&#45;&gt;l2 -->
<g id="edge2" class="edge">
<title>p1&#45;&gt;l2</title>
<path fill="none" stroke="#586e75" d="M154.24,-18C165.56,-18 180.79,-18 194.7,-18"/>
<polygon fill="#586e75" stroke="#586e75" points="195,-21.5 205,-18 195,-14.5 195,-21.5"/>
<text text-anchor="middle" x="179.5" y="-21.2" font-family="Inter,Arial" font-size="11.00" fill="#586e75">tail</text>
</g>
<!-- p2&#45;&gt;l3 -->
<g id="edge4" class="edge">
<title>p2&#45;&gt;l3</title>
<path fill="none" stroke="#586e75" d="M359.24,-18C370.56,-18 385.79,-18 399.7,-18"/>
<polygon fill="#586e75" stroke="#586e75" points="400,-21.5 410,-18 400,-14.5 400,-21.5"/>
<text text-anchor="middle" x="384.5" y="-21.2" font-family="Inter,Arial" font-size="11.00" fill="#586e75">tail</text>
</g>
<!-- p3&#45;&gt;l4 -->
<g id="edge6" class="edge">
<title>p3&#45;&gt;l4</title>
<path fill="none" stroke="#586e75" d="M564.24,-18C575.56,-18 590.79,-18 604.7,-18"/>
<polygon fill="#586e75" stroke="#586e75" points="605,-21.5 615,-18 605,-14.5 605,-21.5"/>
<text text-anchor="middle" x="589.5" y="-21.2" font-family="Inter,Arial" font-size="11.00" fill="#586e75">tail</text>
</g>
</g>
</svg>
