<?xml version="1.0" encoding="UTF-8" standalone="no"?>
<!DOCTYPE svg PUBLIC "-//W3C//DTD SVG 1.1//EN"
 "http://www.w3.org/Graphics/SVG/1.1/DTD/svg11.dtd">
<!-- Generated by graphviz version 2.43.0 (0)
 -->
<!-- Title: %3 Pages: 1 -->
<svg width="636pt" height="44pt"
 viewBox="0.00 0.00 636.00 44.00" xmlns="http://www.w3.org/2000/svg" xmlns:xlink="http://www.w3.org/1999/xlink">
<g id="graph0" class="graph" transform="scale(1 1) rotate(0) translate(4 40)">
<title>%3</title>
<!-- anaFA -->
<g id="node1" class="node">
<title>anaFA</title>
<path fill="#ffffff" stroke="#586e75" d="M240,-36C240,-36 187,-36 187,-36 181,-36 175,-30 175,-24 175,-24 175,-12 175,-12 175,-6 181,0 187,0 187,0 240,0 240,0 246,0 252,-6 252,-12 252,-12 252,-24 252,-24 252,-30 246,-36 240,-36"/>
<text text-anchor="middle" x="213.5" y="-14.3" font-family="Inter,Arial" font-size="14.00" fill="#586e75">ListF[Int]</text>
</g>
<!-- cataFA -->
<g id="node2" class="node">
<title>cataFA</title>
<path fill="#ffffff" stroke="#586e75" d="M438,-36C438,-36 364,-36 364,-36 358,-36 352,-30 352,-24 352,-24 352,-12 352,-12 352,-6 358,0 364,0 364,0 438,0 438,0 444,0 450,-6 450,-12 450,-12 450,-24 450,-24 450,-30 444,-36 438,-36"/>
<text text-anchor="middle" x="401" y="-14.3" font-family="Inter,Arial" font-size="14.00" fill="#586e75">ListF[String]</text>
</g>
<!-- anaFA&#45;&gt;cataFA -->
<g id="edge2" class="edge">
<title>anaFA&#45;&gt;cataFA</title>
<path fill="none" stroke="#586e75" d="M252.04,-18C277.8,-18 312.49,-18 341.81,-18"/>
<polygon fill="#586e75" stroke="#586e75" points="341.93,-21.5 351.93,-18 341.93,-14.5 341.93,-21.5"/>
<text text-anchor="middle" x="302" y="-21.2" font-family="Inter,Arial" font-size="11.00" fill="#586e75">map(_, loop)</text>
</g>
<!-- cataA -->
<g id="node4" class="node">
<title>cataA</title>
<path fill="#ffffff" stroke="#586e75" d="M616,-36C616,-36 584,-36 584,-36 578,-36 572,-30 572,-24 572,-24 572,-12 572,-12 572,-6 578,0 584,0 584,0 616,0 616,0 622,0 628,-6 628,-12 628,-12 628,-24 628,-24 628,-30 622,-36 616,-36"/>
<text text-anchor="middle" x="600" y="-14.3" font-family="Inter,Arial" font-size="14.00" fill="#586e75">String</text>
</g>
<!-- cataFA&#45;&gt;cataA -->
<g id="edge3" class="edge">
<title>cataFA&#45;&gt;cataA</title>
<path fill="none" stroke="#586e75" d="M450.19,-18C484.58,-18 530.15,-18 561.76,-18"/>
<polygon fill="#586e75" stroke="#586e75" points="561.91,-21.5 571.91,-18 561.91,-14.5 561.91,-21.5"/>
<text text-anchor="middle" x="511" y="-21.2" font-family="Inter,Arial" font-size="11.00" fill="#586e75">mkStringAlgebra</text>
</g>
<!-- anaA -->
<g id="node3" class="node">
<title>anaA</title>
<path fill="#ffffff" stroke="#586e75" d="M42,-36C42,-36 12,-36 12,-36 6,-36 0,-30 0,-24 0,-24 0,-12 0,-12 0,-6 6,0 12,0 12,0 42,0 42,0 48,0 54,-6 54,-12 54,-12 54,-24 54,-24 54,-30 48,-36 42,-36"/>
<text text-anchor="middle" x="27" y="-14.3" font-family="Inter,Arial" font-size="14.00" fill="#586e75">Int</text>
</g>
<!-- anaA&#45;&gt;anaFA -->
<g id="edge1" class="edge">
<title>anaA&#45;&gt;anaFA</title>
<path fill="none" stroke="#586e75" d="M54.04,-18C82.7,-18 129.38,-18 164.67,-18"/>
<polygon fill="#586e75" stroke="#586e75" points="164.76,-21.5 174.76,-18 164.76,-14.5 164.76,-21.5"/>
<text text-anchor="middle" x="114.5" y="-21.2" font-family="Inter,Arial" font-size="11.00" fill="#586e75">rangeCoAlgebra</text>
</g>
</g>
</svg>
