<?xml version="1.0" encoding="UTF-8" standalone="no"?>
<!DOCTYPE svg PUBLIC "-//W3C//DTD SVG 1.1//EN"
 "http://www.w3.org/Graphics/SVG/1.1/DTD/svg11.dtd">
<!-- Generated by graphviz version 2.43.0 (0)
 -->
<!-- Title: %3 Pages: 1 -->
<svg width="629pt" height="56pt"
 viewBox="0.00 0.00 629.00 55.50" xmlns="http://www.w3.org/2000/svg" xmlns:xlink="http://www.w3.org/1999/xlink">
<g id="graph0" class="graph" transform="scale(1 1) rotate(0) translate(4 51.5)">
<title>%3</title>
<!-- String -->
<g id="node1" class="node disabled">
<title>String</title>
<path fill="#ffffff" stroke="#d0dce3" d="M44,-41.5C44,-41.5 12,-41.5 12,-41.5 6,-41.5 0,-35.5 0,-29.5 0,-29.5 0,-17.5 0,-17.5 0,-11.5 6,-5.5 12,-5.5 12,-5.5 44,-5.5 44,-5.5 50,-5.5 56,-11.5 56,-17.5 56,-17.5 56,-29.5 56,-29.5 56,-35.5 50,-41.5 44,-41.5"/>
<text text-anchor="middle" x="28" y="-19.8" font-family="Inter,Arial" font-size="14.00" fill="#d0dce3">String</text>
</g>
<!-- choice -->
<g id="node4" class="node predicate,disabled">
<title>choice</title>
<path fill="none" stroke="#d0dce3" stroke-dasharray="5,2" d="M153,-0.5C153,-0.5 183,-0.5 183,-0.5 189,-0.5 195,-6.5 195,-12.5 195,-12.5 195,-34.5 195,-34.5 195,-40.5 189,-46.5 183,-46.5 183,-46.5 153,-46.5 153,-46.5 147,-46.5 141,-40.5 141,-34.5 141,-34.5 141,-12.5 141,-12.5 141,-6.5 147,-0.5 153,-0.5"/>
<text text-anchor="middle" x="168" y="-31.3" font-family="Inter,Arial" font-size="14.00" fill="#d0dce3">true</text>
<polyline fill="none" stroke="#d0dce3" stroke-dasharray="5,2" points="141,-23.5 195,-23.5 "/>
<text text-anchor="middle" x="168" y="-8.3" font-family="Inter,Arial" font-size="14.00" fill="#d0dce3">false</text>
</g>
<!-- String&#45;&gt;choice -->
<g id="edge1" class="edge">
<title>String&#45;&gt;choice</title>
<path fill="none" stroke="#586e75" d="M56.26,-23.5C77.52,-23.5 107.23,-23.5 130.53,-23.5"/>
<polygon fill="#586e75" stroke="#586e75" points="130.73,-27 140.73,-23.5 130.73,-20 130.73,-27"/>
<text text-anchor="middle" x="98.5" y="-26.7" font-family="Inter,Arial" font-size="11.00" fill="#586e75">predicate</text>
</g>
<!-- ListStruct -->
<g id="node2" class="node disabled">
<title>ListStruct</title>
<path fill="#ffffff" stroke="#d0dce3" d="M450,-0.5C450,-0.5 491,-0.5 491,-0.5 497,-0.5 503,-6.5 503,-12.5 503,-12.5 503,-34.5 503,-34.5 503,-40.5 497,-46.5 491,-46.5 491,-46.5 450,-46.5 450,-46.5 444,-46.5 438,-40.5 438,-34.5 438,-34.5 438,-12.5 438,-12.5 438,-6.5 444,-0.5 450,-0.5"/>
<text text-anchor="middle" x="470.5" y="-31.3" font-family="Inter,Arial" font-size="14.00" fill="#d0dce3">Int, List</text>
<polyline fill="none" stroke="#d0dce3" points="438,-23.5 503,-23.5 "/>
<text text-anchor="middle" x="470.5" y="-8.3" font-family="Inter,Arial" font-size="14.00" fill="#d0dce3">∅</text>
</g>
<!-- List -->
<g id="node5" class="node disabled">
<title>List</title>
<path fill="#ffffff" stroke="#d0dce3" d="M609,-41.5C609,-41.5 579,-41.5 579,-41.5 573,-41.5 567,-35.5 567,-29.5 567,-29.5 567,-17.5 567,-17.5 567,-11.5 573,-5.5 579,-5.5 579,-5.5 609,-5.5 609,-5.5 615,-5.5 621,-11.5 621,-17.5 621,-17.5 621,-29.5 621,-29.5 621,-35.5 615,-41.5 609,-41.5"/>
<text text-anchor="middle" x="594" y="-19.8" font-family="Inter,Arial" font-size="14.00" fill="#d0dce3">List</text>
</g>
<!-- ListStruct&#45;&gt;List -->
<g id="edge6" class="edge pattern,disabled">
<title>ListStruct:cons&#45;&gt;List</title>
<path fill="none" stroke="#d0dce3" stroke-dasharray="5,2" d="M503,-35.5C503,-35.5 531.88,-31.65 556.92,-28.31"/>
<polygon fill="#d0dce3" stroke="#d0dce3" points="557.52,-31.76 566.97,-26.97 556.59,-24.82 557.52,-31.76"/>
<text text-anchor="middle" x="535" y="-35.7" font-family="Inter,Arial" font-size="11.00" fill="#d0dce3">Cons</text>
</g>
<!-- ListStruct&#45;&gt;List -->
<g id="edge7" class="edge pattern,disabled">
<title>ListStruct:nil&#45;&gt;List</title>
<path fill="none" stroke="#d0dce3" stroke-dasharray="5,2" d="M503,-11.5C503,-11.5 531.88,-15.35 556.92,-18.69"/>
<polygon fill="#d0dce3" stroke="#d0dce3" points="556.59,-22.18 566.97,-20.03 557.52,-15.24 556.59,-22.18"/>
<text text-anchor="middle" x="535" y="-16.7" font-family="Inter,Arial" font-size="11.00" fill="#d0dce3">Nil</text>
</g>
<!-- ListStruct2 -->
<g id="node3" class="node disabled">
<title>ListStruct2</title>
<path fill="#ffffff" stroke="#d0dce3" d="M294,-0.5C294,-0.5 350,-0.5 350,-0.5 356,-0.5 362,-6.5 362,-12.5 362,-12.5 362,-34.5 362,-34.5 362,-40.5 356,-46.5 350,-46.5 350,-46.5 294,-46.5 294,-46.5 288,-46.5 282,-40.5 282,-34.5 282,-34.5 282,-12.5 282,-12.5 282,-6.5 288,-0.5 294,-0.5"/>
<text text-anchor="middle" x="322" y="-31.3" font-family="Inter,Arial" font-size="14.00" fill="#d0dce3">Int, String</text>
<polyline fill="none" stroke="#d0dce3" points="282,-23.5 362,-23.5 "/>
<text text-anchor="middle" x="322" y="-8.3" font-family="Inter,Arial" font-size="14.00" fill="#d0dce3">∅</text>
</g>
<!-- ListStruct2&#45;&gt;ListStruct -->
<g id="edge4" class="edge disabled">
<title>ListStruct2:cons&#45;&gt;ListStruct:cons</title>
<path fill="none" stroke="#d0dce3" d="M362,-35.5C362,-35.5 407.01,-35.5 427.75,-35.5"/>
<polygon fill="#d0dce3" stroke="#d0dce3" points="428,-39 438,-35.5 428,-32 428,-39"/>
<text text-anchor="middle" x="400" y="-38.7" font-family="Inter,Arial" font-size="11.00" fill="#d0dce3">recurse</text>
</g>
<!-- ListStruct2&#45;&gt;ListStruct -->
<g id="edge5" class="edge disabled">
<title>ListStruct2:nil&#45;&gt;ListStruct:nil</title>
<path fill="none" stroke="#d0dce3" d="M362,-11.5C362,-11.5 407.01,-11.5 427.75,-11.5"/>
<polygon fill="#d0dce3" stroke="#d0dce3" points="428,-15 438,-11.5 428,-8 428,-15"/>
</g>
<!-- choice&#45;&gt;ListStruct2 -->
<g id="edge2" class="edge disabled">
<title>choice:true&#45;&gt;ListStruct2:cons</title>
<path fill="none" stroke="#d0dce3" d="M195,-35.5C195,-35.5 248.63,-35.5 271.68,-35.5"/>
<polygon fill="#d0dce3" stroke="#d0dce3" points="272,-39 282,-35.5 272,-32 272,-39"/>
<text text-anchor="middle" x="238.5" y="-38.7" font-family="Inter,Arial" font-size="11.00" fill="#d0dce3">head / tail</text>
</g>
<!-- choice&#45;&gt;ListStruct2 -->
<g id="edge3" class="edge disabled">
<title>choice:false&#45;&gt;ListStruct2:nil</title>
<path fill="none" stroke="#d0dce3" d="M195,-11.5C195,-11.5 248.63,-11.5 271.68,-11.5"/>
<polygon fill="#d0dce3" stroke="#d0dce3" points="272,-15 282,-11.5 272,-8 272,-15"/>
</g>
</g>
</svg>
