<?xml version="1.0" encoding="UTF-8" standalone="no"?>
<!DOCTYPE svg PUBLIC "-//W3C//DTD SVG 1.1//EN"
 "http://www.w3.org/Graphics/SVG/1.1/DTD/svg11.dtd">
<!-- Generated by graphviz version 2.43.0 (0)
 -->
<!-- Title: %3 Pages: 1 -->
<svg width="570pt" height="116pt"
 viewBox="0.00 0.00 570.00 116.00" xmlns="http://www.w3.org/2000/svg" xmlns:xlink="http://www.w3.org/1999/xlink">
<g id="graph0" class="graph" transform="scale(1 1) rotate(0) translate(4 112)">
<title>%3</title>
<!-- cons1 -->
<g id="node1" class="node start">
<title>cons1</title>
<path fill="#586e75" stroke="#586e75" d="M107.5,-108C107.5,-108 77.5,-108 77.5,-108 71.5,-108 65.5,-102 65.5,-96 65.5,-96 65.5,-84 65.5,-84 65.5,-78 71.5,-72 77.5,-72 77.5,-72 107.5,-72 107.5,-72 113.5,-72 119.5,-78 119.5,-84 119.5,-84 119.5,-96 119.5,-96 119.5,-102 113.5,-108 107.5,-108"/>
<text text-anchor="middle" x="92.5" y="-86.3" font-family="Inter,Arial" font-size="14.00" fill="#ffffff">::</text>
</g>
<!-- cons2 -->
<g id="node2" class="node">
<title>cons2</title>
<path fill="#ffffff" stroke="#586e75" d="M284,-108C284,-108 254,-108 254,-108 248,-108 242,-102 242,-96 242,-96 242,-84 242,-84 242,-78 248,-72 254,-72 254,-72 284,-72 284,-72 290,-72 296,-78 296,-84 296,-84 296,-96 296,-96 296,-102 290,-108 284,-108"/>
<text text-anchor="middle" x="269" y="-86.3" font-family="Inter,Arial" font-size="14.00" fill="#586e75">::</text>
</g>
<!-- cons1&#45;&gt;cons2 -->
<g id="edge1" class="edge">
<title>cons1&#45;&gt;cons2</title>
<path fill="none" stroke="#586e75" d="M119.62,-90C149.39,-90 198.24,-90 231.7,-90"/>
<polygon fill="#586e75" stroke="#586e75" points="231.98,-93.5 241.98,-90 231.98,-86.5 231.98,-93.5"/>
</g>
<!-- print1 -->
<g id="node5" class="node">
<title>print1</title>
<path fill="#ffffff" stroke="#586e75" d="M173,-36C173,-36 12,-36 12,-36 6,-36 0,-30 0,-24 0,-24 0,-12 0,-12 0,-6 6,0 12,0 12,0 173,0 173,0 179,0 185,-6 185,-12 185,-12 185,-24 185,-24 185,-30 179,-36 173,-36"/>
<text text-anchor="middle" x="92.5" y="-14.3" font-family="Inter,Arial" font-size="14.00" fill="#586e75">Print(&quot;What is your name?&quot;)</text>
</g>
<!-- cons1&#45;&gt;print1 -->
<g id="edge4" class="edge">
<title>cons1&#45;&gt;print1</title>
<path fill="none" stroke="#586e75" d="M92.5,-71.95C92.5,-63.41 92.5,-54.86 92.5,-46.31"/>
<polygon fill="#586e75" stroke="#586e75" points="96,-46.28 92.5,-36.28 89,-46.28 96,-46.28"/>
</g>
<!-- cons3 -->
<g id="node3" class="node">
<title>cons3</title>
<path fill="#ffffff" stroke="#586e75" d="M417,-108C417,-108 387,-108 387,-108 381,-108 375,-102 375,-96 375,-96 375,-84 375,-84 375,-78 381,-72 387,-72 387,-72 417,-72 417,-72 423,-72 429,-78 429,-84 429,-84 429,-96 429,-96 429,-102 423,-108 417,-108"/>
<text text-anchor="middle" x="402" y="-86.3" font-family="Inter,Arial" font-size="14.00" fill="#586e75">::</text>
</g>
<!-- cons2&#45;&gt;cons3 -->
<g id="edge2" class="edge">
<title>cons2&#45;&gt;cons3</title>
<path fill="none" stroke="#586e75" d="M296.19,-90C315.83,-90 342.94,-90 364.67,-90"/>
<polygon fill="#586e75" stroke="#586e75" points="364.85,-93.5 374.85,-90 364.85,-86.5 364.85,-93.5"/>
</g>
<!-- read -->
<g id="node6" class="node">
<title>read</title>
<path fill="#ffffff" stroke="#586e75" d="M284,-36C284,-36 254,-36 254,-36 248,-36 242,-30 242,-24 242,-24 242,-12 242,-12 242,-6 248,0 254,0 254,0 284,0 284,0 290,0 296,-6 296,-12 296,-12 296,-24 296,-24 296,-30 290,-36 284,-36"/>
<text text-anchor="middle" x="269" y="-14.3" font-family="Inter,Arial" font-size="14.00" fill="#586e75">Read</text>
</g>
<!-- cons2&#45;&gt;read -->
<g id="edge5" class="edge">
<title>cons2&#45;&gt;read</title>
<path fill="none" stroke="#586e75" d="M269,-71.95C269,-63.41 269,-54.86 269,-46.31"/>
<polygon fill="#586e75" stroke="#586e75" points="272.5,-46.28 269,-36.28 265.5,-46.28 272.5,-46.28"/>
</g>
<!-- nil -->
<g id="node4" class="node goal">
<title>nil</title>
<path fill="#586e75" stroke="#586e75" d="M550,-108C550,-108 520,-108 520,-108 514,-108 508,-102 508,-96 508,-96 508,-84 508,-84 508,-78 514,-72 520,-72 520,-72 550,-72 550,-72 556,-72 562,-78 562,-84 562,-84 562,-96 562,-96 562,-102 556,-108 550,-108"/>
<text text-anchor="middle" x="535" y="-86.3" font-family="Inter,Arial" font-size="14.00" fill="#ffffff">Nil</text>
</g>
<!-- cons3&#45;&gt;nil -->
<g id="edge3" class="edge">
<title>cons3&#45;&gt;nil</title>
<path fill="none" stroke="#586e75" d="M429.19,-90C448.83,-90 475.94,-90 497.67,-90"/>
<polygon fill="#586e75" stroke="#586e75" points="497.85,-93.5 507.85,-90 497.85,-86.5 497.85,-93.5"/>
</g>
<!-- print2 -->
<g id="node7" class="node">
<title>print2</title>
<path fill="#ffffff" stroke="#586e75" d="M439,-36C439,-36 365,-36 365,-36 359,-36 353,-30 353,-24 353,-24 353,-12 353,-12 353,-6 359,0 365,0 365,0 439,0 439,0 445,0 451,-6 451,-12 451,-12 451,-24 451,-24 451,-30 445,-36 439,-36"/>
<text text-anchor="middle" x="402" y="-14.3" font-family="Inter,Arial" font-size="14.00" fill="#586e75">Print(&quot;Hello!&quot;)</text>
</g>
<!-- cons3&#45;&gt;print2 -->
<g id="edge6" class="edge">
<title>cons3&#45;&gt;print2</title>
<path fill="none" stroke="#586e75" d="M402,-71.95C402,-63.41 402,-54.86 402,-46.31"/>
<polygon fill="#586e75" stroke="#586e75" points="405.5,-46.28 402,-36.28 398.5,-46.28 405.5,-46.28"/>
</g>
<!-- print1&#45;&gt;read -->
<!-- read&#45;&gt;print2 -->
<!-- stop -->
<!-- print2&#45;&gt;stop -->
</g>
</svg>
