<?xml version="1.0" encoding="UTF-8" standalone="no"?>
<!DOCTYPE svg PUBLIC "-//W3C//DTD SVG 1.1//EN"
 "http://www.w3.org/Graphics/SVG/1.1/DTD/svg11.dtd">
<!-- Generated by graphviz version 2.43.0 (0)
 -->
<!-- Title: %3 Pages: 1 -->
<svg width="380pt" height="116pt"
 viewBox="0.00 0.00 380.20 116.00" xmlns="http://www.w3.org/2000/svg" xmlns:xlink="http://www.w3.org/1999/xlink">
<g id="graph0" class="graph" transform="scale(1 1) rotate(0) translate(4 112)">
<title>%3</title>
<!-- Start -->
<!-- ChainString -->
<g id="node3" class="node start">
<title>ChainString</title>
<path fill="#586e75" stroke="#586e75" d="M123.6,-108C123.6,-108 52.6,-108 52.6,-108 46.6,-108 40.6,-102 40.6,-96 40.6,-96 40.6,-84 40.6,-84 40.6,-78 46.6,-72 52.6,-72 52.6,-72 123.6,-72 123.6,-72 129.6,-72 135.6,-78 135.6,-84 135.6,-84 135.6,-96 135.6,-96 135.6,-102 129.6,-108 123.6,-108"/>
<text text-anchor="middle" x="88.1" y="-86.3" font-family="Inter,Arial" font-size="14.00" fill="#ffffff">Chain[String]</text>
</g>
<!-- Start&#45;&gt;ChainString -->
<g id="edge4" class="edge start">
<title>Start&#45;&gt;ChainString</title>
<path fill="none" stroke="#586e75" stroke-width="2" d="M3.75,-90C6.92,-90 17.69,-90 30.49,-90"/>
<polygon fill="#586e75" stroke="#586e75" stroke-width="2" points="30.57,-93.5 40.57,-90 30.57,-86.5 30.57,-93.5"/>
</g>
<!-- Goal -->
<!-- String -->
<g id="node4" class="node">
<title>String</title>
<path fill="#ffffff" stroke="#586e75" d="M103.1,-36C103.1,-36 73.1,-36 73.1,-36 67.1,-36 61.1,-30 61.1,-24 61.1,-24 61.1,-12 61.1,-12 61.1,-6 67.1,0 73.1,0 73.1,0 103.1,0 103.1,0 109.1,0 115.1,-6 115.1,-12 115.1,-12 115.1,-24 115.1,-24 115.1,-30 109.1,-36 103.1,-36"/>
<text text-anchor="middle" x="88.1" y="-14.3" font-family="Inter,Arial" font-size="14.00" fill="#586e75">String</text>
</g>
<!-- ChainString&#45;&gt;String -->
<g id="edge1" class="edge lift">
<title>ChainString&#45;&gt;String</title>
<path fill="none" stroke="#586e75" stroke-dasharray="5,2" d="M88.1,-61.92C88.1,-53.37 88.1,-44.83 88.1,-36.28"/>
<polygon fill="#586e75" stroke="#586e75" points="84.6,-61.95 88.1,-71.95 91.6,-61.95 84.6,-61.95"/>
</g>
<!-- ChainUnit -->
<g id="node5" class="node goal">
<title>ChainUnit</title>
<path fill="#586e75" stroke="#586e75" d="M319.6,-36C319.6,-36 260.6,-36 260.6,-36 254.6,-36 248.6,-30 248.6,-24 248.6,-24 248.6,-12 248.6,-12 248.6,-6 254.6,0 260.6,0 260.6,0 319.6,0 319.6,0 325.6,0 331.6,-6 331.6,-12 331.6,-12 331.6,-24 331.6,-24 331.6,-30 325.6,-36 319.6,-36"/>
<text text-anchor="middle" x="290.1" y="-14.3" font-family="Inter,Arial" font-size="14.00" fill="#ffffff">Chain[Unit]</text>
</g>
<!-- ChainString&#45;&gt;ChainUnit -->
<g id="edge2" class="edge">
<title>ChainString&#45;&gt;ChainUnit</title>
<path fill="none" stroke="#586e75" d="M135.74,-73.21C166.7,-62.06 207.32,-47.44 238.97,-36.05"/>
<polygon fill="#586e75" stroke="#586e75" points="240.26,-39.3 248.49,-32.62 237.89,-32.71 240.26,-39.3"/>
<text text-anchor="middle" x="192.1" y="-69.2" font-family="Inter,Arial" font-size="11.00" fill="#586e75">_.flatMap(greet)</text>
</g>
<!-- String&#45;&gt;ChainUnit -->
<g id="edge3" class="edge">
<title>String&#45;&gt;ChainUnit</title>
<path fill="none" stroke="#586e75" d="M115.25,-18C146.35,-18 198.99,-18 238.22,-18"/>
<polygon fill="#586e75" stroke="#586e75" points="238.39,-21.5 248.39,-18 238.39,-14.5 238.39,-21.5"/>
<text text-anchor="middle" x="192.1" y="-21.2" font-family="Inter,Arial" font-size="11.00" fill="#586e75">greet</text>
</g>
<!-- ChainUnit&#45;&gt;Goal -->
<g id="edge5" class="edge goal">
<title>ChainUnit&#45;&gt;Goal</title>
<path fill="none" stroke="#586e75" stroke-width="2" d="M331.63,-18C341.55,-18 351.36,-18 358.49,-18"/>
<polygon fill="#586e75" stroke="#586e75" stroke-width="2" points="358.56,-21.5 368.56,-18 358.56,-14.5 358.56,-21.5"/>
</g>
</g>
</svg>
