<?xml version="1.0" encoding="UTF-8" standalone="no"?>
<!DOCTYPE svg PUBLIC "-//W3C//DTD SVG 1.1//EN"
 "http://www.w3.org/Graphics/SVG/1.1/DTD/svg11.dtd">
<!-- Generated by graphviz version 2.43.0 (0)
 -->
<!-- Title: %3 Pages: 1 -->
<svg width="368pt" height="44pt"
 viewBox="0.00 0.00 368.20 44.00" xmlns="http://www.w3.org/2000/svg" xmlns:xlink="http://www.w3.org/1999/xlink">
<g id="graph0" class="graph" transform="scale(1 1) rotate(0) translate(4 40)">
<title>%3</title>
<!-- Start -->
<!-- A -->
<g id="node3" class="node start">
<title>A</title>
<path fill="#586e75" stroke="#586e75" d="M82.6,-36C82.6,-36 52.6,-36 52.6,-36 46.6,-36 40.6,-30 40.6,-24 40.6,-24 40.6,-12 40.6,-12 40.6,-6 46.6,0 52.6,0 52.6,0 82.6,0 82.6,0 88.6,0 94.6,-6 94.6,-12 94.6,-12 94.6,-24 94.6,-24 94.6,-30 88.6,-36 82.6,-36"/>
<text text-anchor="middle" x="67.6" y="-14.3" font-family="Inter,Arial" font-size="14.00" fill="#ffffff">A</text>
</g>
<!-- Start&#45;&gt;A -->
<g id="edge3" class="edge start">
<title>Start&#45;&gt;A</title>
<path fill="none" stroke="#586e75" stroke-width="2" d="M3.91,-18C7.37,-18 18.49,-18 30.42,-18"/>
<polygon fill="#586e75" stroke="#586e75" stroke-width="2" points="30.48,-21.5 40.48,-18 30.48,-14.5 30.48,-21.5"/>
</g>
<!-- End -->
<!-- B -->
<g id="node4" class="node">
<title>B</title>
<path fill="#ffffff" stroke="#586e75" d="M176.6,-36C176.6,-36 146.6,-36 146.6,-36 140.6,-36 134.6,-30 134.6,-24 134.6,-24 134.6,-12 134.6,-12 134.6,-6 140.6,0 146.6,0 146.6,0 176.6,0 176.6,0 182.6,0 188.6,-6 188.6,-12 188.6,-12 188.6,-24 188.6,-24 188.6,-30 182.6,-36 176.6,-36"/>
<text text-anchor="middle" x="161.6" y="-14.3" font-family="Inter,Arial" font-size="14.00" fill="#586e75">B</text>
</g>
<!-- A&#45;&gt;B -->
<g id="edge1" class="edge">
<title>A&#45;&gt;B</title>
<path fill="none" stroke="#586e75" d="M94.72,-18C103.94,-18 114.49,-18 124.4,-18"/>
<polygon fill="#586e75" stroke="#586e75" points="124.42,-21.5 134.42,-18 124.42,-14.5 124.42,-21.5"/>
<text text-anchor="middle" x="114.6" y="-21.2" font-family="Inter,Arial" font-size="11.00" fill="#586e75">f</text>
</g>
<!-- ChainB -->
<g id="node5" class="node goal">
<title>ChainB</title>
<path fill="#586e75" stroke="#586e75" d="M307.6,-36C307.6,-36 263.6,-36 263.6,-36 257.6,-36 251.6,-30 251.6,-24 251.6,-24 251.6,-12 251.6,-12 251.6,-6 257.6,0 263.6,0 263.6,0 307.6,0 307.6,0 313.6,0 319.6,-6 319.6,-12 319.6,-12 319.6,-24 319.6,-24 319.6,-30 313.6,-36 307.6,-36"/>
<text text-anchor="middle" x="285.6" y="-14.3" font-family="Inter,Arial" font-size="14.00" fill="#ffffff">Chain[B]</text>
</g>
<!-- B&#45;&gt;ChainB -->
<!-- ChainB&#45;&gt;End -->
<g id="edge4" class="edge goal">
<title>ChainB&#45;&gt;End</title>
<path fill="none" stroke="#586e75" stroke-width="2" d="M319.93,-18C329.47,-18 339.21,-18 346.37,-18"/>
<polygon fill="#586e75" stroke="#586e75" stroke-width="2" points="346.54,-21.5 356.54,-18 346.54,-14.5 346.54,-21.5"/>
</g>
</g>
</svg>
