<?xml version="1.0" encoding="UTF-8" standalone="no"?>
<!DOCTYPE svg PUBLIC "-//W3C//DTD SVG 1.1//EN"
 "http://www.w3.org/Graphics/SVG/1.1/DTD/svg11.dtd">
<!-- Generated by graphviz version 2.43.0 (0)
 -->
<!-- Title: %3 Pages: 1 -->
<svg width="255pt" height="44pt"
 viewBox="0.00 0.00 255.20 44.00" xmlns="http://www.w3.org/2000/svg" xmlns:xlink="http://www.w3.org/1999/xlink">
<g id="graph0" class="graph" transform="scale(1 1) rotate(0) translate(4 40)">
<title>%3</title>
<!-- Start -->
<!-- A -->
<g id="node3" class="node start">
<title>A</title>
<path fill="#586e75" stroke="#586e75" d="M82.6,-36C82.6,-36 52.6,-36 52.6,-36 46.6,-36 40.6,-30 40.6,-24 40.6,-24 40.6,-12 40.6,-12 40.6,-6 46.6,0 52.6,0 52.6,0 82.6,0 82.6,0 88.6,0 94.6,-6 94.6,-12 94.6,-12 94.6,-24 94.6,-24 94.6,-30 88.6,-36 82.6,-36"/>
<text text-anchor="middle" x="67.6" y="-14.3" font-family="Inter,Arial" font-size="14.00" fill="#ffffff">A</text>
</g>
<!-- Start&#45;&gt;A -->
<g id="edge2" class="edge start">
<title>Start&#45;&gt;A</title>
<path fill="none" stroke="#586e75" stroke-width="2" d="M3.91,-18C7.37,-18 18.49,-18 30.42,-18"/>
<polygon fill="#586e75" stroke="#586e75" stroke-width="2" points="30.48,-21.5 40.48,-18 30.48,-14.5 30.48,-21.5"/>
</g>
<!-- Goal -->
<!-- GA -->
<g id="node4" class="node goal">
<title>GA</title>
<path fill="#586e75" stroke="#586e75" d="M194.6,-36C194.6,-36 164.6,-36 164.6,-36 158.6,-36 152.6,-30 152.6,-24 152.6,-24 152.6,-12 152.6,-12 152.6,-6 158.6,0 164.6,0 164.6,0 194.6,0 194.6,0 200.6,0 206.6,-6 206.6,-12 206.6,-12 206.6,-24 206.6,-24 206.6,-30 200.6,-36 194.6,-36"/>
<text text-anchor="middle" x="179.6" y="-14.3" font-family="Inter,Arial" font-size="14.00" fill="#ffffff">G[A]</text>
</g>
<!-- A&#45;&gt;GA -->
<!-- GA&#45;&gt;Goal -->
<g id="edge3" class="edge goal">
<title>GA&#45;&gt;Goal</title>
<path fill="none" stroke="#586e75" stroke-width="2" d="M206.92,-18C216.17,-18 226.07,-18 233.37,-18"/>
<polygon fill="#586e75" stroke="#586e75" stroke-width="2" points="233.51,-21.5 243.51,-18 233.51,-14.5 233.51,-21.5"/>
</g>
</g>
</svg>
