<?xml version="1.0" encoding="UTF-8" standalone="no"?>
<!DOCTYPE svg PUBLIC "-//W3C//DTD SVG 1.1//EN"
 "http://www.w3.org/Graphics/SVG/1.1/DTD/svg11.dtd">
<!-- Generated by graphviz version 2.43.0 (0)
 -->
<!-- Title: %3 Pages: 1 -->
<svg width="529pt" height="116pt"
 viewBox="0.00 0.00 529.20 116.00" xmlns="http://www.w3.org/2000/svg" xmlns:xlink="http://www.w3.org/1999/xlink">
<g id="graph0" class="graph" transform="scale(1 1) rotate(0) translate(4 112)">
<title>%3</title>
<!-- Start -->
<!-- FFreeFA -->
<g id="node5" class="node start">
<title>FFreeFA</title>
<path fill="#586e75" stroke="#586e75" d="M118.6,-108C118.6,-108 52.6,-108 52.6,-108 46.6,-108 40.6,-102 40.6,-96 40.6,-96 40.6,-84 40.6,-84 40.6,-78 46.6,-72 52.6,-72 52.6,-72 118.6,-72 118.6,-72 124.6,-72 130.6,-78 130.6,-84 130.6,-84 130.6,-96 130.6,-96 130.6,-102 124.6,-108 118.6,-108"/>
<text text-anchor="middle" x="85.6" y="-86.3" font-family="Inter,Arial" font-size="14.00" fill="#ffffff">F[Free[F, A]]</text>
</g>
<!-- Start&#45;&gt;FFreeFA -->
<g id="edge5" class="edge start">
<title>Start&#45;&gt;FFreeFA</title>
<path fill="none" stroke="#586e75" stroke-width="2" d="M3.72,-90C6.85,-90 17.63,-90 30.34,-90"/>
<polygon fill="#586e75" stroke="#586e75" stroke-width="2" points="30.35,-93.5 40.35,-90 30.35,-86.5 30.35,-93.5"/>
</g>
<!-- Goal -->
<!-- FreeFA -->
<g id="node3" class="node">
<title>FreeFA</title>
<path fill="#ffffff" stroke="#586e75" d="M275.1,-36C275.1,-36 225.1,-36 225.1,-36 219.1,-36 213.1,-30 213.1,-24 213.1,-24 213.1,-12 213.1,-12 213.1,-6 219.1,0 225.1,0 225.1,0 275.1,0 275.1,0 281.1,0 287.1,-6 287.1,-12 287.1,-12 287.1,-24 287.1,-24 287.1,-30 281.1,-36 275.1,-36"/>
<text text-anchor="middle" x="250.1" y="-14.3" font-family="Inter,Arial" font-size="14.00" fill="#586e75">Free[F, A]</text>
</g>
<!-- GA -->
<g id="node4" class="node goal">
<title>GA</title>
<path fill="#586e75" stroke="#586e75" d="M468.6,-108C468.6,-108 438.6,-108 438.6,-108 432.6,-108 426.6,-102 426.6,-96 426.6,-96 426.6,-84 426.6,-84 426.6,-78 432.6,-72 438.6,-72 438.6,-72 468.6,-72 468.6,-72 474.6,-72 480.6,-78 480.6,-84 480.6,-84 480.6,-96 480.6,-96 480.6,-102 474.6,-108 468.6,-108"/>
<text text-anchor="middle" x="453.6" y="-86.3" font-family="Inter,Arial" font-size="14.00" fill="#ffffff">G[A]</text>
</g>
<!-- FreeFA&#45;&gt;GA -->
<g id="edge4" class="edge">
<title>FreeFA&#45;&gt;GA</title>
<path fill="none" stroke="#586e75" d="M287.41,-30.83C319.35,-42.13 367.09,-59.07 408.6,-74 411.32,-74.98 414.14,-76 416.98,-77.02"/>
<polygon fill="#586e75" stroke="#586e75" points="415.96,-80.38 426.55,-80.49 418.34,-73.79 415.96,-80.38"/>
<text text-anchor="middle" x="361.6" y="-77.2" font-family="Inter,Arial" font-size="11.00" fill="#586e75">evalFree</text>
</g>
<!-- GA&#45;&gt;Goal -->
<g id="edge6" class="edge goal">
<title>GA&#45;&gt;Goal</title>
<path fill="none" stroke="#586e75" stroke-width="2" d="M480.92,-90C490.17,-90 500.07,-90 507.37,-90"/>
<polygon fill="#586e75" stroke="#586e75" stroke-width="2" points="507.51,-93.5 517.51,-90 507.51,-86.5 507.51,-93.5"/>
</g>
<!-- GFreeFA -->
<g id="node6" class="node">
<title>GFreeFA</title>
<path fill="#ffffff" stroke="#586e75" d="M284.6,-108C284.6,-108 215.6,-108 215.6,-108 209.6,-108 203.6,-102 203.6,-96 203.6,-96 203.6,-84 203.6,-84 203.6,-78 209.6,-72 215.6,-72 215.6,-72 284.6,-72 284.6,-72 290.6,-72 296.6,-78 296.6,-84 296.6,-84 296.6,-96 296.6,-96 296.6,-102 290.6,-108 284.6,-108"/>
<text text-anchor="middle" x="250.1" y="-86.3" font-family="Inter,Arial" font-size="14.00" fill="#586e75">G[Free[F, A]]</text>
</g>
<!-- FFreeFA&#45;&gt;GFreeFA -->
<!-- GFreeFA&#45;&gt;FreeFA -->
<g id="edge1" class="edge lift">
<title>GFreeFA&#45;&gt;FreeFA</title>
<path fill="none" stroke="#586e75" stroke-dasharray="5,2" d="M250.1,-61.92C250.1,-53.37 250.1,-44.83 250.1,-36.28"/>
<polygon fill="#586e75" stroke="#586e75" points="246.6,-61.95 250.1,-71.95 253.6,-61.95 246.6,-61.95"/>
</g>
<!-- GFreeFA&#45;&gt;GA -->
<g id="edge2" class="edge">
<title>GFreeFA&#45;&gt;GA</title>
<path fill="none" stroke="#586e75" d="M296.82,-90C332.97,-90 382.75,-90 416.22,-90"/>
<polygon fill="#586e75" stroke="#586e75" points="416.48,-93.5 426.48,-90 416.48,-86.5 416.48,-93.5"/>
<text text-anchor="middle" x="361.6" y="-93.2" font-family="Inter,Arial" font-size="11.00" fill="#586e75">_.flatMap(evalFree)</text>
</g>
</g>
</svg>
