<?xml version="1.0" encoding="UTF-8" standalone="no"?>
<!DOCTYPE svg PUBLIC "-//W3C//DTD SVG 1.1//EN"
 "http://www.w3.org/Graphics/SVG/1.1/DTD/svg11.dtd">
<!-- Generated by graphviz version 2.43.0 (0)
 -->
<!-- Title: %3 Pages: 1 -->
<svg width="477pt" height="44pt"
 viewBox="0.00 0.00 477.20 44.00" xmlns="http://www.w3.org/2000/svg" xmlns:xlink="http://www.w3.org/1999/xlink">
<g id="graph0" class="graph" transform="scale(1 1) rotate(0) translate(4 40)">
<title>%3</title>
<!-- Start -->
<!-- Console -->
<g id="node3" class="node start">
<title>Console</title>
<path fill="#586e75" stroke="#586e75" d="M153.6,-36C153.6,-36 52.6,-36 52.6,-36 46.6,-36 40.6,-30 40.6,-24 40.6,-24 40.6,-12 40.6,-12 40.6,-6 46.6,0 52.6,0 52.6,0 153.6,0 153.6,0 159.6,0 165.6,-6 165.6,-12 165.6,-12 165.6,-24 165.6,-24 165.6,-30 159.6,-36 153.6,-36"/>
<text text-anchor="middle" x="103.1" y="-14.3" font-family="Inter,Arial" font-size="14.00" fill="#ffffff">Console[Chain[A]]</text>
</g>
<!-- Start&#45;&gt;Console -->
<g id="edge3" class="edge start">
<title>Start&#45;&gt;Console</title>
<path fill="none" stroke="#586e75" stroke-width="2" d="M3.92,-18C7.23,-18 17.57,-18 30.38,-18"/>
<polygon fill="#586e75" stroke="#586e75" stroke-width="2" points="30.57,-21.5 40.57,-18 30.57,-14.5 30.57,-21.5"/>
</g>
<!-- Goal -->
<!-- Chain -->
<g id="node4" class="node">
<title>Chain</title>
<path fill="#ffffff" stroke="#586e75" d="M277.6,-36C277.6,-36 233.6,-36 233.6,-36 227.6,-36 221.6,-30 221.6,-24 221.6,-24 221.6,-12 221.6,-12 221.6,-6 227.6,0 233.6,0 233.6,0 277.6,0 277.6,0 283.6,0 289.6,-6 289.6,-12 289.6,-12 289.6,-24 289.6,-24 289.6,-30 283.6,-36 277.6,-36"/>
<text text-anchor="middle" x="255.6" y="-14.3" font-family="Inter,Arial" font-size="14.00" fill="#586e75">Chain[A]</text>
</g>
<!-- Console&#45;&gt;Chain -->
<!-- A -->
<g id="node5" class="node goal">
<title>A</title>
<path fill="#586e75" stroke="#586e75" d="M416.6,-36C416.6,-36 386.6,-36 386.6,-36 380.6,-36 374.6,-30 374.6,-24 374.6,-24 374.6,-12 374.6,-12 374.6,-6 380.6,0 386.6,0 386.6,0 416.6,0 416.6,0 422.6,0 428.6,-6 428.6,-12 428.6,-12 428.6,-24 428.6,-24 428.6,-30 422.6,-36 416.6,-36"/>
<text text-anchor="middle" x="401.6" y="-14.3" font-family="Inter,Arial" font-size="14.00" fill="#ffffff">A</text>
</g>
<!-- Chain&#45;&gt;A -->
<g id="edge2" class="edge">
<title>Chain&#45;&gt;A</title>
<path fill="none" stroke="#586e75" d="M289.64,-18C311.96,-18 341.43,-18 364.39,-18"/>
<polygon fill="#586e75" stroke="#586e75" points="364.43,-21.5 374.43,-18 364.43,-14.5 364.43,-21.5"/>
<text text-anchor="middle" x="332.1" y="-21.2" font-family="Inter,Arial" font-size="11.00" fill="#586e75">evalChain</text>
</g>
<!-- A&#45;&gt;Goal -->
<g id="edge4" class="edge goal">
<title>A&#45;&gt;Goal</title>
<path fill="none" stroke="#586e75" stroke-width="2" d="M428.92,-18C438.17,-18 448.07,-18 455.37,-18"/>
<polygon fill="#586e75" stroke="#586e75" stroke-width="2" points="455.51,-21.5 465.51,-18 455.51,-14.5 455.51,-21.5"/>
</g>
</g>
</svg>
