<?xml version="1.0" encoding="UTF-8" standalone="no"?>
<!DOCTYPE svg PUBLIC "-//W3C//DTD SVG 1.1//EN"
 "http://www.w3.org/Graphics/SVG/1.1/DTD/svg11.dtd">
<!-- Generated by graphviz version 2.43.0 (0)
 -->
<!-- Title: %3 Pages: 1 -->
<svg width="570pt" height="44pt"
 viewBox="0.00 0.00 570.00 44.00" xmlns="http://www.w3.org/2000/svg" xmlns:xlink="http://www.w3.org/1999/xlink">
<g id="graph0" class="graph" transform="scale(1 1) rotate(0) translate(4 40)">
<title>%3</title>
<!-- print1 -->
<g id="node1" class="node start">
<title>print1</title>
<path fill="#586e75" stroke="#586e75" d="M173,-36C173,-36 12,-36 12,-36 6,-36 0,-30 0,-24 0,-24 0,-12 0,-12 0,-6 6,0 12,0 12,0 173,0 173,0 179,0 185,-6 185,-12 185,-12 185,-24 185,-24 185,-30 179,-36 173,-36"/>
<text text-anchor="middle" x="92.5" y="-14.3" font-family="Inter,Arial" font-size="14.00" fill="#ffffff">Print(&quot;What is your name?&quot;)</text>
</g>
<!-- read -->
<g id="node2" class="node">
<title>read</title>
<path fill="#ffffff" stroke="#586e75" d="M284,-36C284,-36 254,-36 254,-36 248,-36 242,-30 242,-24 242,-24 242,-12 242,-12 242,-6 248,0 254,0 254,0 284,0 284,0 290,0 296,-6 296,-12 296,-12 296,-24 296,-24 296,-30 290,-36 284,-36"/>
<text text-anchor="middle" x="269" y="-14.3" font-family="Inter,Arial" font-size="14.00" fill="#586e75">Read</text>
</g>
<!-- print1&#45;&gt;read -->
<g id="edge1" class="edge">
<title>print1&#45;&gt;read</title>
<path fill="none" stroke="#586e75" d="M185.09,-18C201.59,-18 217.87,-18 231.58,-18"/>
<polygon fill="#586e75" stroke="#586e75" points="231.98,-21.5 241.98,-18 231.98,-14.5 231.98,-21.5"/>
<text text-anchor="middle" x="213.5" y="-21.2" font-family="Inter,Arial" font-size="11.00" fill="#586e75">next</text>
</g>
<!-- print2 -->
<g id="node3" class="node">
<title>print2</title>
<path fill="#ffffff" stroke="#586e75" d="M439,-36C439,-36 365,-36 365,-36 359,-36 353,-30 353,-24 353,-24 353,-12 353,-12 353,-6 359,0 365,0 365,0 439,0 439,0 445,0 451,-6 451,-12 451,-12 451,-24 451,-24 451,-30 445,-36 439,-36"/>
<text text-anchor="middle" x="402" y="-14.3" font-family="Inter,Arial" font-size="14.00" fill="#586e75">Print(&quot;Hello!&quot;)</text>
</g>
<!-- read&#45;&gt;print2 -->
<g id="edge2" class="edge">
<title>read&#45;&gt;print2</title>
<path fill="none" stroke="#586e75" d="M296.19,-18C309.61,-18 326.52,-18 342.82,-18"/>
<polygon fill="#586e75" stroke="#586e75" points="342.85,-21.5 352.85,-18 342.85,-14.5 342.85,-21.5"/>
<text text-anchor="middle" x="324.5" y="-21.2" font-family="Inter,Arial" font-size="11.00" fill="#586e75">next</text>
</g>
<!-- stop -->
<g id="node4" class="node goal">
<title>stop</title>
<path fill="#586e75" stroke="#586e75" d="M550,-36C550,-36 520,-36 520,-36 514,-36 508,-30 508,-24 508,-24 508,-12 508,-12 508,-6 514,0 520,0 520,0 550,0 550,0 556,0 562,-6 562,-12 562,-12 562,-24 562,-24 562,-30 556,-36 550,-36"/>
<text text-anchor="middle" x="535" y="-14.3" font-family="Inter,Arial" font-size="14.00" fill="#ffffff">Stop</text>
</g>
<!-- print2&#45;&gt;stop -->
<g id="edge3" class="edge">
<title>print2&#45;&gt;stop</title>
<path fill="none" stroke="#586e75" d="M451.04,-18C466.43,-18 483.21,-18 497.63,-18"/>
<polygon fill="#586e75" stroke="#586e75" points="497.66,-21.5 507.66,-18 497.66,-14.5 497.66,-21.5"/>
<text text-anchor="middle" x="479.5" y="-21.2" font-family="Inter,Arial" font-size="11.00" fill="#586e75">next</text>
</g>
</g>
</svg>
