<?xml version="1.0" encoding="UTF-8" standalone="no"?>
<!DOCTYPE svg PUBLIC "-//W3C//DTD SVG 1.1//EN"
 "http://www.w3.org/Graphics/SVG/1.1/DTD/svg11.dtd">
<!-- Generated by graphviz version 2.43.0 (0)
 -->
<!-- Title: %3 Pages: 1 -->
<svg width="621pt" height="116pt"
 viewBox="0.00 0.00 621.20 116.00" xmlns="http://www.w3.org/2000/svg" xmlns:xlink="http://www.w3.org/1999/xlink">
<g id="graph0" class="graph" transform="scale(1 1) rotate(0) translate(4 112)">
<title>%3</title>
<!-- Start -->
<!-- ConsoleChainChainA -->
<g id="node3" class="node start">
<title>ConsoleChainChainA</title>
<path fill="#586e75" stroke="#586e75" d="M196.6,-108C196.6,-108 52.6,-108 52.6,-108 46.6,-108 40.6,-102 40.6,-96 40.6,-96 40.6,-84 40.6,-84 40.6,-78 46.6,-72 52.6,-72 52.6,-72 196.6,-72 196.6,-72 202.6,-72 208.6,-78 208.6,-84 208.6,-84 208.6,-96 208.6,-96 208.6,-102 202.6,-108 196.6,-108"/>
<text text-anchor="middle" x="124.6" y="-86.3" font-family="Inter,Arial" font-size="14.00" fill="#ffffff">Console[Chain[Chain[A]]]</text>
</g>
<!-- Start&#45;&gt;ConsoleChainChainA -->
<g id="edge6" class="edge start">
<title>Start&#45;&gt;ConsoleChainChainA</title>
<path fill="none" stroke="#586e75" stroke-width="2" d="M4.16,-90C7.65,-90 17.57,-90 30.29,-90"/>
<polygon fill="#586e75" stroke="#586e75" stroke-width="2" points="30.5,-93.5 40.5,-90 30.5,-86.5 30.5,-93.5"/>
</g>
<!-- End -->
<!-- ChainChainA -->
<g id="node5" class="node">
<title>ChainChainA</title>
<path fill="#ffffff" stroke="#586e75" d="M168.1,-36C168.1,-36 81.1,-36 81.1,-36 75.1,-36 69.1,-30 69.1,-24 69.1,-24 69.1,-12 69.1,-12 69.1,-6 75.1,0 81.1,0 81.1,0 168.1,0 168.1,0 174.1,0 180.1,-6 180.1,-12 180.1,-12 180.1,-24 180.1,-24 180.1,-30 174.1,-36 168.1,-36"/>
<text text-anchor="middle" x="124.6" y="-14.3" font-family="Inter,Arial" font-size="14.00" fill="#586e75">Chain[Chain[A]]</text>
</g>
<!-- ConsoleChainChainA&#45;&gt;ChainChainA -->
<!-- ConsoleChainA -->
<g id="node7" class="node">
<title>ConsoleChainA</title>
<path fill="#ffffff" stroke="#586e75" d="M433.6,-108C433.6,-108 332.6,-108 332.6,-108 326.6,-108 320.6,-102 320.6,-96 320.6,-96 320.6,-84 320.6,-84 320.6,-78 326.6,-72 332.6,-72 332.6,-72 433.6,-72 433.6,-72 439.6,-72 445.6,-78 445.6,-84 445.6,-84 445.6,-96 445.6,-96 445.6,-102 439.6,-108 433.6,-108"/>
<text text-anchor="middle" x="383.1" y="-86.3" font-family="Inter,Arial" font-size="14.00" fill="#586e75">Console[Chain[A]]</text>
</g>
<!-- ConsoleChainChainA&#45;&gt;ConsoleChainA -->
<!-- ChainA -->
<g id="node4" class="node goal">
<title>ChainA</title>
<path fill="#586e75" stroke="#586e75" d="M560.6,-108C560.6,-108 516.6,-108 516.6,-108 510.6,-108 504.6,-102 504.6,-96 504.6,-96 504.6,-84 504.6,-84 504.6,-78 510.6,-72 516.6,-72 516.6,-72 560.6,-72 560.6,-72 566.6,-72 572.6,-78 572.6,-84 572.6,-84 572.6,-96 572.6,-96 572.6,-102 566.6,-108 560.6,-108"/>
<text text-anchor="middle" x="538.6" y="-86.3" font-family="Inter,Arial" font-size="14.00" fill="#ffffff">Chain[A]</text>
</g>
<!-- ChainA&#45;&gt;End -->
<g id="edge7" class="edge goal">
<title>ChainA&#45;&gt;End</title>
<path fill="none" stroke="#586e75" stroke-width="2" d="M572.93,-90C582.47,-90 592.21,-90 599.37,-90"/>
<polygon fill="#586e75" stroke="#586e75" stroke-width="2" points="599.54,-93.5 609.54,-90 599.54,-86.5 599.54,-93.5"/>
</g>
<!-- ChainA2 -->
<g id="node6" class="node">
<title>ChainA2</title>
<path fill="#ffffff" stroke="#586e75" d="M405.1,-36C405.1,-36 361.1,-36 361.1,-36 355.1,-36 349.1,-30 349.1,-24 349.1,-24 349.1,-12 349.1,-12 349.1,-6 355.1,0 361.1,0 361.1,0 405.1,0 405.1,0 411.1,0 417.1,-6 417.1,-12 417.1,-12 417.1,-24 417.1,-24 417.1,-30 411.1,-36 405.1,-36"/>
<text text-anchor="middle" x="383.1" y="-14.3" font-family="Inter,Arial" font-size="14.00" fill="#586e75">Chain[A]</text>
</g>
<!-- ChainChainA&#45;&gt;ChainA2 -->
<g id="edge1" class="edge">
<title>ChainChainA&#45;&gt;ChainA2</title>
<path fill="none" stroke="#586e75" d="M180.31,-18C227.71,-18 295.36,-18 339,-18"/>
<polygon fill="#586e75" stroke="#586e75" points="339.01,-21.5 349.01,-18 339.01,-14.5 339.01,-21.5"/>
<text text-anchor="middle" x="264.6" y="-21.2" font-family="Inter,Arial" font-size="11.00" fill="#586e75">flatten</text>
</g>
<!-- ConsoleChainA&#45;&gt;ChainA -->
<g id="edge3" class="edge">
<title>ConsoleChainA&#45;&gt;ChainA</title>
<path fill="none" stroke="#586e75" d="M445.65,-90C461.91,-90 479.13,-90 494.21,-90"/>
<polygon fill="#586e75" stroke="#586e75" points="494.27,-93.5 504.27,-90 494.27,-86.5 494.27,-93.5"/>
<text text-anchor="middle" x="475.1" y="-93.2" font-family="Inter,Arial" font-size="11.00" fill="#586e75">Next</text>
</g>
<!-- ConsoleChainA&#45;&gt;ChainA2 -->
</g>
</svg>
