<?xml version="1.0" encoding="UTF-8" standalone="no"?>
<!DOCTYPE svg PUBLIC "-//W3C//DTD SVG 1.1//EN"
 "http://www.w3.org/Graphics/SVG/1.1/DTD/svg11.dtd">
<!-- Generated by graphviz version 2.43.0 (0)
 -->
<!-- Title: %3 Pages: 1 -->
<svg width="155pt" height="44pt"
 viewBox="0.00 0.00 155.20 44.00" xmlns="http://www.w3.org/2000/svg" xmlns:xlink="http://www.w3.org/1999/xlink">
<g id="graph0" class="graph" transform="scale(1 1) rotate(0) translate(4 40)">
<title>%3</title>
<!-- Start -->
<!-- ChainA -->
<g id="node3" class="node start">
<title>ChainA</title>
<path fill="#586e75" stroke="#586e75" d="M95.6,-36C95.6,-36 51.6,-36 51.6,-36 45.6,-36 39.6,-30 39.6,-24 39.6,-24 39.6,-12 39.6,-12 39.6,-6 45.6,0 51.6,0 51.6,0 95.6,0 95.6,0 101.6,0 107.6,-6 107.6,-12 107.6,-12 107.6,-24 107.6,-24 107.6,-30 101.6,-36 95.6,-36"/>
<text text-anchor="middle" x="73.6" y="-14.3" font-family="Inter,Arial" font-size="14.00" fill="#ffffff">Chain[A]</text>
</g>
<!-- Start&#45;&gt;ChainA -->
<g id="edge1" class="edge start">
<title>Start&#45;&gt;ChainA</title>
<path fill="none" stroke="#586e75" stroke-width="2" d="M3.79,-18C6.97,-18 17.46,-18 29.32,-18"/>
<polygon fill="#586e75" stroke="#586e75" stroke-width="2" points="29.48,-21.5 39.48,-18 29.48,-14.5 29.48,-21.5"/>
</g>
<!-- End -->
<!-- ChainA&#45;&gt;End -->
<g id="edge2" class="edge goal">
<title>ChainA&#45;&gt;End</title>
<path fill="none" stroke="#586e75" stroke-width="2" d="M107.86,-18C117.08,-18 126.45,-18 133.39,-18"/>
<polygon fill="#586e75" stroke="#586e75" stroke-width="2" points="133.57,-21.5 143.57,-18 133.57,-14.5 133.57,-21.5"/>
</g>
</g>
</svg>
