<?xml version="1.0" encoding="UTF-8" standalone="no"?>
<!DOCTYPE svg PUBLIC "-//W3C//DTD SVG 1.1//EN"
 "http://www.w3.org/Graphics/SVG/1.1/DTD/svg11.dtd">
<!-- Generated by graphviz version 2.43.0 (0)
 -->
<!-- Title: %3 Pages: 1 -->
<svg width="581pt" height="188pt"
 viewBox="0.00 0.00 581.20 188.00" xmlns="http://www.w3.org/2000/svg" xmlns:xlink="http://www.w3.org/1999/xlink">
<g id="graph0" class="graph" transform="scale(1 1) rotate(0) translate(4 184)">
<title>%3</title>
<!-- Start -->
<!-- ConsoleConsoleFA -->
<g id="node6" class="node start">
<title>ConsoleConsoleFA</title>
<path fill="#586e75" stroke="#586e75" d="M153.6,-180C153.6,-180 52.6,-180 52.6,-180 46.6,-180 40.6,-174 40.6,-168 40.6,-168 40.6,-156 40.6,-156 40.6,-150 46.6,-144 52.6,-144 52.6,-144 153.6,-144 153.6,-144 159.6,-144 165.6,-150 165.6,-156 165.6,-156 165.6,-168 165.6,-168 165.6,-174 159.6,-180 153.6,-180"/>
<text text-anchor="middle" x="103.1" y="-158.3" font-family="Inter,Arial" font-size="14.00" fill="#ffffff">Console[Chain[A]]</text>
</g>
<!-- Start&#45;&gt;ConsoleConsoleFA -->
<g id="edge9" class="edge start">
<title>Start&#45;&gt;ConsoleConsoleFA</title>
<path fill="none" stroke="#586e75" stroke-width="2" d="M3.92,-162C7.23,-162 17.57,-162 30.38,-162"/>
<polygon fill="#586e75" stroke="#586e75" stroke-width="2" points="30.57,-165.5 40.57,-162 30.57,-158.5 30.57,-165.5"/>
</g>
<!-- End -->
<!-- ConsoleFB2 -->
<g id="node3" class="node goal">
<title>ConsoleFB2</title>
<path fill="#586e75" stroke="#586e75" d="M520.6,-180C520.6,-180 476.6,-180 476.6,-180 470.6,-180 464.6,-174 464.6,-168 464.6,-168 464.6,-156 464.6,-156 464.6,-150 470.6,-144 476.6,-144 476.6,-144 520.6,-144 520.6,-144 526.6,-144 532.6,-150 532.6,-156 532.6,-156 532.6,-168 532.6,-168 532.6,-174 526.6,-180 520.6,-180"/>
<text text-anchor="middle" x="498.6" y="-158.3" font-family="Inter,Arial" font-size="14.00" fill="#ffffff">Chain[B]</text>
</g>
<!-- ConsoleFB2&#45;&gt;End -->
<g id="edge10" class="edge goal">
<title>ConsoleFB2&#45;&gt;End</title>
<path fill="none" stroke="#586e75" stroke-width="2" d="M532.93,-162C542.47,-162 552.21,-162 559.37,-162"/>
<polygon fill="#586e75" stroke="#586e75" stroke-width="2" points="559.54,-165.5 569.54,-162 559.54,-158.5 559.54,-165.5"/>
</g>
<!-- ConsoleFA -->
<g id="node4" class="node">
<title>ConsoleFA</title>
<path fill="#ffffff" stroke="#586e75" d="M125.1,-108C125.1,-108 81.1,-108 81.1,-108 75.1,-108 69.1,-102 69.1,-96 69.1,-96 69.1,-84 69.1,-84 69.1,-78 75.1,-72 81.1,-72 81.1,-72 125.1,-72 125.1,-72 131.1,-72 137.1,-78 137.1,-84 137.1,-84 137.1,-96 137.1,-96 137.1,-102 131.1,-108 125.1,-108"/>
<text text-anchor="middle" x="103.1" y="-86.3" font-family="Inter,Arial" font-size="14.00" fill="#586e75">Chain[A]</text>
</g>
<!-- ConsoleFB -->
<g id="node5" class="node">
<title>ConsoleFB</title>
<path fill="#ffffff" stroke="#586e75" d="M365.1,-108C365.1,-108 321.1,-108 321.1,-108 315.1,-108 309.1,-102 309.1,-96 309.1,-96 309.1,-84 309.1,-84 309.1,-78 315.1,-72 321.1,-72 321.1,-72 365.1,-72 365.1,-72 371.1,-72 377.1,-78 377.1,-84 377.1,-84 377.1,-96 377.1,-96 377.1,-102 371.1,-108 365.1,-108"/>
<text text-anchor="middle" x="343.1" y="-86.3" font-family="Inter,Arial" font-size="14.00" fill="#586e75">Chain[B]</text>
</g>
<!-- ConsoleFA&#45;&gt;ConsoleFB -->
<g id="edge3" class="edge">
<title>ConsoleFA&#45;&gt;ConsoleFB</title>
<path fill="none" stroke="#586e75" d="M137.19,-90C179.35,-90 252.3,-90 298.83,-90"/>
<polygon fill="#586e75" stroke="#586e75" points="298.91,-93.5 308.91,-90 298.91,-86.5 298.91,-93.5"/>
<text text-anchor="middle" x="223.1" y="-93.2" font-family="Inter,Arial" font-size="11.00" fill="#586e75">_.map(f)</text>
</g>
<!-- A -->
<g id="node8" class="node">
<title>A</title>
<path fill="#ffffff" stroke="#586e75" d="M118.1,-36C118.1,-36 88.1,-36 88.1,-36 82.1,-36 76.1,-30 76.1,-24 76.1,-24 76.1,-12 76.1,-12 76.1,-6 82.1,0 88.1,0 88.1,0 118.1,0 118.1,0 124.1,0 130.1,-6 130.1,-12 130.1,-12 130.1,-24 130.1,-24 130.1,-30 124.1,-36 118.1,-36"/>
<text text-anchor="middle" x="103.1" y="-14.3" font-family="Inter,Arial" font-size="14.00" fill="#586e75">A</text>
</g>
<!-- ConsoleFA&#45;&gt;A -->
<g id="edge5" class="edge lift">
<title>ConsoleFA&#45;&gt;A</title>
<path fill="none" stroke="#586e75" stroke-dasharray="5,2" d="M103.1,-61.92C103.1,-53.37 103.1,-44.83 103.1,-36.28"/>
<polygon fill="#586e75" stroke="#586e75" points="99.6,-61.95 103.1,-71.95 106.6,-61.95 99.6,-61.95"/>
</g>
<!-- B -->
<g id="node9" class="node">
<title>B</title>
<path fill="#ffffff" stroke="#586e75" d="M358.1,-36C358.1,-36 328.1,-36 328.1,-36 322.1,-36 316.1,-30 316.1,-24 316.1,-24 316.1,-12 316.1,-12 316.1,-6 322.1,0 328.1,0 328.1,0 358.1,0 358.1,0 364.1,0 370.1,-6 370.1,-12 370.1,-12 370.1,-24 370.1,-24 370.1,-30 364.1,-36 358.1,-36"/>
<text text-anchor="middle" x="343.1" y="-14.3" font-family="Inter,Arial" font-size="14.00" fill="#586e75">B</text>
</g>
<!-- ConsoleFB&#45;&gt;B -->
<g id="edge7" class="edge lift">
<title>ConsoleFB&#45;&gt;B</title>
<path fill="none" stroke="#586e75" stroke-dasharray="5,2" d="M343.1,-61.92C343.1,-53.37 343.1,-44.83 343.1,-36.28"/>
<polygon fill="#586e75" stroke="#586e75" points="339.6,-61.95 343.1,-71.95 346.6,-61.95 339.6,-61.95"/>
</g>
<!-- ConsoleConsoleFA&#45;&gt;ConsoleFA -->
<!-- ConsoleConsoleFB -->
<g id="node7" class="node">
<title>ConsoleConsoleFB</title>
<path fill="#ffffff" stroke="#586e75" d="M393.6,-180C393.6,-180 292.6,-180 292.6,-180 286.6,-180 280.6,-174 280.6,-168 280.6,-168 280.6,-156 280.6,-156 280.6,-150 286.6,-144 292.6,-144 292.6,-144 393.6,-144 393.6,-144 399.6,-144 405.6,-150 405.6,-156 405.6,-156 405.6,-168 405.6,-168 405.6,-174 399.6,-180 393.6,-180"/>
<text text-anchor="middle" x="343.1" y="-158.3" font-family="Inter,Arial" font-size="14.00" fill="#586e75">Console[Chain[B]]</text>
</g>
<!-- ConsoleConsoleFA&#45;&gt;ConsoleConsoleFB -->
<!-- ConsoleConsoleFB&#45;&gt;ConsoleFB2 -->
<g id="edge2" class="edge">
<title>ConsoleConsoleFB&#45;&gt;ConsoleFB2</title>
<path fill="none" stroke="#586e75" d="M405.65,-162C421.91,-162 439.13,-162 454.21,-162"/>
<polygon fill="#586e75" stroke="#586e75" points="454.27,-165.5 464.27,-162 454.27,-158.5 454.27,-165.5"/>
<text text-anchor="middle" x="435.1" y="-165.2" font-family="Inter,Arial" font-size="11.00" fill="#586e75">Next</text>
</g>
<!-- ConsoleConsoleFB&#45;&gt;ConsoleFB -->
<!-- A&#45;&gt;B -->
<g id="edge1" class="edge">
<title>A&#45;&gt;B</title>
<path fill="none" stroke="#586e75" d="M130.48,-18C173.21,-18 257.65,-18 305.95,-18"/>
<polygon fill="#586e75" stroke="#586e75" points="305.97,-21.5 315.97,-18 305.97,-14.5 305.97,-21.5"/>
<text text-anchor="middle" x="223.1" y="-21.2" font-family="Inter,Arial" font-size="11.00" fill="#586e75">f</text>
</g>
</g>
</svg>
