<?xml version="1.0" encoding="UTF-8" standalone="no"?>
<!DOCTYPE svg PUBLIC "-//W3C//DTD SVG 1.1//EN"
 "http://www.w3.org/Graphics/SVG/1.1/DTD/svg11.dtd">
<!-- Generated by graphviz version 2.43.0 (0)
 -->
<!-- Title: %3 Pages: 1 -->
<svg width="274pt" height="44pt"
 viewBox="0.00 0.00 274.20 44.00" xmlns="http://www.w3.org/2000/svg" xmlns:xlink="http://www.w3.org/1999/xlink">
<g id="graph0" class="graph" transform="scale(1 1) rotate(0) translate(4 40)">
<title>%3</title>
<!-- Start -->
<!-- A -->
<g id="node4" class="node start">
<title>A</title>
<path fill="#586e75" stroke="#586e75" d="M82.6,-36C82.6,-36 52.6,-36 52.6,-36 46.6,-36 40.6,-30 40.6,-24 40.6,-24 40.6,-12 40.6,-12 40.6,-6 46.6,0 52.6,0 52.6,0 82.6,0 82.6,0 88.6,0 94.6,-6 94.6,-12 94.6,-12 94.6,-24 94.6,-24 94.6,-30 88.6,-36 82.6,-36"/>
<text text-anchor="middle" x="67.6" y="-14.3" font-family="Inter,Arial" font-size="14.00" fill="#ffffff">A</text>
</g>
<!-- Start&#45;&gt;A -->
<g id="edge2" class="edge start">
<title>Start&#45;&gt;A</title>
<path fill="none" stroke="#586e75" stroke-width="2" d="M3.91,-18C7.37,-18 18.49,-18 30.42,-18"/>
<polygon fill="#586e75" stroke="#586e75" stroke-width="2" points="30.48,-21.5 40.48,-18 30.48,-14.5 30.48,-21.5"/>
</g>
<!-- End -->
<!-- DoneA -->
<g id="node3" class="node goal">
<title>DoneA</title>
<path fill="#586e75" stroke="#586e75" d="M213.6,-36C213.6,-36 169.6,-36 169.6,-36 163.6,-36 157.6,-30 157.6,-24 157.6,-24 157.6,-12 157.6,-12 157.6,-6 163.6,0 169.6,0 169.6,0 213.6,0 213.6,0 219.6,0 225.6,-6 225.6,-12 225.6,-12 225.6,-24 225.6,-24 225.6,-30 219.6,-36 213.6,-36"/>
<text text-anchor="middle" x="191.6" y="-14.3" font-family="Inter,Arial" font-size="14.00" fill="#ffffff">Chain[A]</text>
</g>
<!-- DoneA&#45;&gt;End -->
<g id="edge3" class="edge goal">
<title>DoneA&#45;&gt;End</title>
<path fill="none" stroke="#586e75" stroke-width="2" d="M225.93,-18C235.47,-18 245.21,-18 252.37,-18"/>
<polygon fill="#586e75" stroke="#586e75" stroke-width="2" points="252.54,-21.5 262.54,-18 252.54,-14.5 252.54,-21.5"/>
</g>
<!-- A&#45;&gt;DoneA -->
<g id="edge1" class="edge">
<title>A&#45;&gt;DoneA</title>
<path fill="none" stroke="#586e75" d="M94.77,-18C110.11,-18 129.86,-18 147.44,-18"/>
<polygon fill="#586e75" stroke="#586e75" points="147.49,-21.5 157.49,-18 147.49,-14.5 147.49,-21.5"/>
<text text-anchor="middle" x="126.1" y="-21.2" font-family="Inter,Arial" font-size="11.00" fill="#586e75">Done</text>
</g>
</g>
</svg>
