<?xml version="1.0" encoding="UTF-8" standalone="no"?>
<!DOCTYPE svg PUBLIC "-//W3C//DTD SVG 1.1//EN"
 "http://www.w3.org/Graphics/SVG/1.1/DTD/svg11.dtd">
<!-- Generated by graphviz version 2.43.0 (0)
 -->
<!-- Title: %3 Pages: 1 -->
<svg width="358pt" height="116pt"
 viewBox="0.00 0.00 358.20 116.00" xmlns="http://www.w3.org/2000/svg" xmlns:xlink="http://www.w3.org/1999/xlink">
<g id="graph0" class="graph" transform="scale(1 1) rotate(0) translate(4 112)">
<title>%3</title>
<!-- Start -->
<!-- ChainUnit -->
<g id="node5" class="node start">
<title>ChainUnit</title>
<path fill="#586e75" stroke="#586e75" d="M111.6,-108C111.6,-108 52.6,-108 52.6,-108 46.6,-108 40.6,-102 40.6,-96 40.6,-96 40.6,-84 40.6,-84 40.6,-78 46.6,-72 52.6,-72 52.6,-72 111.6,-72 111.6,-72 117.6,-72 123.6,-78 123.6,-84 123.6,-84 123.6,-96 123.6,-96 123.6,-102 117.6,-108 111.6,-108"/>
<text text-anchor="middle" x="82.1" y="-86.3" font-family="Inter,Arial" font-size="14.00" fill="#ffffff">Chain[Unit]</text>
</g>
<!-- Start&#45;&gt;ChainUnit -->
<g id="edge4" class="edge start">
<title>Start&#45;&gt;ChainUnit</title>
<path fill="none" stroke="#586e75" stroke-width="2" d="M3.68,-90C6.76,-90 17.53,-90 30.1,-90"/>
<polygon fill="#586e75" stroke="#586e75" stroke-width="2" points="30.46,-93.5 40.46,-90 30.46,-86.5 30.46,-93.5"/>
</g>
<!-- Goal -->
<!-- Unit -->
<g id="node3" class="node">
<title>Unit</title>
<path fill="#ffffff" stroke="#586e75" d="M97.1,-36C97.1,-36 67.1,-36 67.1,-36 61.1,-36 55.1,-30 55.1,-24 55.1,-24 55.1,-12 55.1,-12 55.1,-6 61.1,0 67.1,0 67.1,0 97.1,0 97.1,0 103.1,0 109.1,-6 109.1,-12 109.1,-12 109.1,-24 109.1,-24 109.1,-30 103.1,-36 97.1,-36"/>
<text text-anchor="middle" x="82.1" y="-14.3" font-family="Inter,Arial" font-size="14.00" fill="#586e75">Unit</text>
</g>
<!-- ChainString -->
<g id="node4" class="node goal">
<title>ChainString</title>
<path fill="#586e75" stroke="#586e75" d="M297.6,-36C297.6,-36 226.6,-36 226.6,-36 220.6,-36 214.6,-30 214.6,-24 214.6,-24 214.6,-12 214.6,-12 214.6,-6 220.6,0 226.6,0 226.6,0 297.6,0 297.6,0 303.6,0 309.6,-6 309.6,-12 309.6,-12 309.6,-24 309.6,-24 309.6,-30 303.6,-36 297.6,-36"/>
<text text-anchor="middle" x="262.1" y="-14.3" font-family="Inter,Arial" font-size="14.00" fill="#ffffff">Chain[String]</text>
</g>
<!-- Unit&#45;&gt;ChainString -->
<g id="edge1" class="edge">
<title>Unit&#45;&gt;ChainString</title>
<path fill="none" stroke="#586e75" d="M109.36,-18C134.23,-18 172.4,-18 204.23,-18"/>
<polygon fill="#586e75" stroke="#586e75" points="204.32,-21.5 214.32,-18 204.32,-14.5 204.32,-21.5"/>
<text text-anchor="middle" x="169.1" y="-21.2" font-family="Inter,Arial" font-size="11.00" fill="#586e75">f</text>
</g>
<!-- ChainString&#45;&gt;Goal -->
<g id="edge5" class="edge goal">
<title>ChainString&#45;&gt;Goal</title>
<path fill="none" stroke="#586e75" stroke-width="2" d="M309.69,-18C319.68,-18 329.34,-18 336.38,-18"/>
<polygon fill="#586e75" stroke="#586e75" stroke-width="2" points="336.58,-21.5 346.58,-18 336.58,-14.5 336.58,-21.5"/>
</g>
<!-- ChainUnit&#45;&gt;Unit -->
<!-- ChainUnit&#45;&gt;ChainString -->
</g>
</svg>
