<?xml version="1.0" encoding="UTF-8" standalone="no"?>
<!DOCTYPE svg PUBLIC "-//W3C//DTD SVG 1.1//EN"
 "http://www.w3.org/Graphics/SVG/1.1/DTD/svg11.dtd">
<!-- Generated by graphviz version 2.43.0 (0)
 -->
<!-- Title: %3 Pages: 1 -->
<svg width="75pt" height="116pt"
 viewBox="0.00 0.00 75.00 116.00" xmlns="http://www.w3.org/2000/svg" xmlns:xlink="http://www.w3.org/1999/xlink">
<g id="graph0" class="graph" transform="scale(1 1) rotate(0) translate(4 112)">
<title>%3</title>
<!-- Functor -->
<g id="node1" class="node">
<title>Functor</title>
<path fill="#ffffff" stroke="#586e75" d="M55,-108C55,-108 12,-108 12,-108 6,-108 0,-102 0,-96 0,-96 0,-84 0,-84 0,-78 6,-72 12,-72 12,-72 55,-72 55,-72 61,-72 67,-78 67,-84 67,-84 67,-96 67,-96 67,-102 61,-108 55,-108"/>
<text text-anchor="middle" x="33.5" y="-86.3" font-family="Inter,Arial" font-size="14.00" fill="#586e75">Functor</text>
</g>
<!-- Apply -->
<g id="node2" class="node">
<title>Apply</title>
<path fill="#ffffff" stroke="#586e75" d="M48.5,-36C48.5,-36 18.5,-36 18.5,-36 12.5,-36 6.5,-30 6.5,-24 6.5,-24 6.5,-12 6.5,-12 6.5,-6 12.5,0 18.5,0 18.5,0 48.5,0 48.5,0 54.5,0 60.5,-6 60.5,-12 60.5,-12 60.5,-24 60.5,-24 60.5,-30 54.5,-36 48.5,-36"/>
<text text-anchor="middle" x="33.5" y="-14.3" font-family="Inter,Arial" font-size="14.00" fill="#586e75">Apply</text>
</g>
<!-- Functor&#45;&gt;Apply -->
<g id="edge1" class="edge">
<title>Functor&#45;&gt;Apply</title>
<path fill="none" stroke="#586e75" d="M33.5,-71.7C33.5,-63.98 33.5,-54.71 33.5,-46.11"/>
<polygon fill="#586e75" stroke="#586e75" points="37,-46.1 33.5,-36.1 30,-46.1 37,-46.1"/>
</g>
</g>
</svg>
