<?xml version="1.0" encoding="UTF-8" standalone="no"?>
<!DOCTYPE svg PUBLIC "-//W3C//DTD SVG 1.1//EN"
 "http://www.w3.org/Graphics/SVG/1.1/DTD/svg11.dtd">
<!-- Generated by graphviz version 2.43.0 (0)
 -->
<!-- Title: %3 Pages: 1 -->
<svg width="97pt" height="188pt"
 viewBox="0.00 0.00 97.00 188.00" xmlns="http://www.w3.org/2000/svg" xmlns:xlink="http://www.w3.org/1999/xlink">
<g id="graph0" class="graph" transform="scale(1 1) rotate(0) translate(4 184)">
<title>%3</title>
<!-- Functor -->
<g id="node1" class="node">
<title>Functor</title>
<path fill="#ffffff" stroke="#586e75" d="M66,-180C66,-180 23,-180 23,-180 17,-180 11,-174 11,-168 11,-168 11,-156 11,-156 11,-150 17,-144 23,-144 23,-144 66,-144 66,-144 72,-144 78,-150 78,-156 78,-156 78,-168 78,-168 78,-174 72,-180 66,-180"/>
<text text-anchor="middle" x="44.5" y="-158.3" font-family="Inter,Arial" font-size="14.00" fill="#586e75">Functor</text>
</g>
<!-- Apply -->
<g id="node2" class="node">
<title>Apply</title>
<path fill="#ffffff" stroke="#586e75" d="M59.5,-108C59.5,-108 29.5,-108 29.5,-108 23.5,-108 17.5,-102 17.5,-96 17.5,-96 17.5,-84 17.5,-84 17.5,-78 23.5,-72 29.5,-72 29.5,-72 59.5,-72 59.5,-72 65.5,-72 71.5,-78 71.5,-84 71.5,-84 71.5,-96 71.5,-96 71.5,-102 65.5,-108 59.5,-108"/>
<text text-anchor="middle" x="44.5" y="-86.3" font-family="Inter,Arial" font-size="14.00" fill="#586e75">Apply</text>
</g>
<!-- Functor&#45;&gt;Apply -->
<g id="edge1" class="edge">
<title>Functor&#45;&gt;Apply</title>
<path fill="none" stroke="#586e75" d="M44.5,-143.7C44.5,-135.98 44.5,-126.71 44.5,-118.11"/>
<polygon fill="#586e75" stroke="#586e75" points="48,-118.1 44.5,-108.1 41,-118.1 48,-118.1"/>
</g>
<!-- Applicative -->
<g id="node3" class="node">
<title>Applicative</title>
<path fill="#ffffff" stroke="#586e75" d="M77,-36C77,-36 12,-36 12,-36 6,-36 0,-30 0,-24 0,-24 0,-12 0,-12 0,-6 6,0 12,0 12,0 77,0 77,0 83,0 89,-6 89,-12 89,-12 89,-24 89,-24 89,-30 83,-36 77,-36"/>
<text text-anchor="middle" x="44.5" y="-14.3" font-family="Inter,Arial" font-size="14.00" fill="#586e75">Applicative</text>
</g>
<!-- Apply&#45;&gt;Applicative -->
<g id="edge2" class="edge">
<title>Apply&#45;&gt;Applicative</title>
<path fill="none" stroke="#586e75" d="M44.5,-71.7C44.5,-63.98 44.5,-54.71 44.5,-46.11"/>
<polygon fill="#586e75" stroke="#586e75" points="48,-46.1 44.5,-36.1 41,-46.1 48,-46.1"/>
</g>
</g>
</svg>
