<?xml version="1.0" encoding="UTF-8" standalone="no"?>
<!DOCTYPE svg PUBLIC "-//W3C//DTD SVG 1.1//EN"
 "http://www.w3.org/Graphics/SVG/1.1/DTD/svg11.dtd">
<!-- Generated by graphviz version 2.43.0 (0)
 -->
<!-- Title: %3 Pages: 1 -->
<svg width="186pt" height="188pt"
 viewBox="0.00 0.00 186.00 188.00" xmlns="http://www.w3.org/2000/svg" xmlns:xlink="http://www.w3.org/1999/xlink">
<g id="graph0" class="graph" transform="scale(1 1) rotate(0) translate(4 184)">
<title>%3</title>
<!-- Applicative -->
<g id="node1" class="node">
<title>Applicative</title>
<path fill="#ffffff" stroke="#586e75" d="M77,-36C77,-36 12,-36 12,-36 6,-36 0,-30 0,-24 0,-24 0,-12 0,-12 0,-6 6,0 12,0 12,0 77,0 77,0 83,0 89,-6 89,-12 89,-12 89,-24 89,-24 89,-30 83,-36 77,-36"/>
<text text-anchor="middle" x="44.5" y="-14.3" font-family="Inter,Arial" font-size="14.00" fill="#586e75">Applicative</text>
</g>
<!-- FlatMap -->
<g id="node2" class="node">
<title>FlatMap</title>
<path fill="#ffffff" stroke="#586e75" d="M166,-36C166,-36 119,-36 119,-36 113,-36 107,-30 107,-24 107,-24 107,-12 107,-12 107,-6 113,0 119,0 119,0 166,0 166,0 172,0 178,-6 178,-12 178,-12 178,-24 178,-24 178,-30 172,-36 166,-36"/>
<text text-anchor="middle" x="142.5" y="-14.3" font-family="Inter,Arial" font-size="14.00" fill="#586e75">FlatMap</text>
</g>
<!-- Functor -->
<g id="node3" class="node">
<title>Functor</title>
<path fill="#ffffff" stroke="#586e75" d="M115,-180C115,-180 72,-180 72,-180 66,-180 60,-174 60,-168 60,-168 60,-156 60,-156 60,-150 66,-144 72,-144 72,-144 115,-144 115,-144 121,-144 127,-150 127,-156 127,-156 127,-168 127,-168 127,-174 121,-180 115,-180"/>
<text text-anchor="middle" x="93.5" y="-158.3" font-family="Inter,Arial" font-size="14.00" fill="#586e75">Functor</text>
</g>
<!-- Apply -->
<g id="node4" class="node">
<title>Apply</title>
<path fill="#ffffff" stroke="#586e75" d="M108.5,-108C108.5,-108 78.5,-108 78.5,-108 72.5,-108 66.5,-102 66.5,-96 66.5,-96 66.5,-84 66.5,-84 66.5,-78 72.5,-72 78.5,-72 78.5,-72 108.5,-72 108.5,-72 114.5,-72 120.5,-78 120.5,-84 120.5,-84 120.5,-96 120.5,-96 120.5,-102 114.5,-108 108.5,-108"/>
<text text-anchor="middle" x="93.5" y="-86.3" font-family="Inter,Arial" font-size="14.00" fill="#586e75">Apply</text>
</g>
<!-- Functor&#45;&gt;Apply -->
<g id="edge1" class="edge">
<title>Functor&#45;&gt;Apply</title>
<path fill="none" stroke="#586e75" d="M93.5,-143.7C93.5,-135.98 93.5,-126.71 93.5,-118.11"/>
<polygon fill="#586e75" stroke="#586e75" points="97,-118.1 93.5,-108.1 90,-118.1 97,-118.1"/>
</g>
<!-- Apply&#45;&gt;Applicative -->
<g id="edge2" class="edge">
<title>Apply&#45;&gt;Applicative</title>
<path fill="none" stroke="#586e75" d="M81.39,-71.7C75.63,-63.47 68.64,-53.48 62.29,-44.42"/>
<polygon fill="#586e75" stroke="#586e75" points="65.08,-42.29 56.47,-36.1 59.34,-46.3 65.08,-42.29"/>
</g>
<!-- Apply&#45;&gt;FlatMap -->
<g id="edge3" class="edge">
<title>Apply&#45;&gt;FlatMap</title>
<path fill="none" stroke="#586e75" d="M105.61,-71.7C111.37,-63.47 118.36,-53.48 124.71,-44.42"/>
<polygon fill="#586e75" stroke="#586e75" points="127.66,-46.3 130.53,-36.1 121.92,-42.29 127.66,-46.3"/>
</g>
</g>
</svg>
