<?xml version="1.0" encoding="UTF-8" standalone="no"?>
<!DOCTYPE svg PUBLIC "-//W3C//DTD SVG 1.1//EN"
 "http://www.w3.org/Graphics/SVG/1.1/DTD/svg11.dtd">
<!-- Generated by graphviz version 2.43.0 (0)
 -->
<!-- Title: %3 Pages: 1 -->
<svg width="186pt" height="260pt"
 viewBox="0.00 0.00 186.00 260.00" xmlns="http://www.w3.org/2000/svg" xmlns:xlink="http://www.w3.org/1999/xlink">
<g id="graph0" class="graph" transform="scale(1 1) rotate(0) translate(4 256)">
<title>%3</title>
<!-- Applicative -->
<g id="node1" class="node">
<title>Applicative</title>
<path fill="#ffffff" stroke="#586e75" d="M77,-108C77,-108 12,-108 12,-108 6,-108 0,-102 0,-96 0,-96 0,-84 0,-84 0,-78 6,-72 12,-72 12,-72 77,-72 77,-72 83,-72 89,-78 89,-84 89,-84 89,-96 89,-96 89,-102 83,-108 77,-108"/>
<text text-anchor="middle" x="44.5" y="-86.3" font-family="Inter,Arial" font-size="14.00" fill="#586e75">Applicative</text>
</g>
<!-- Monad -->
<g id="node5" class="node">
<title>Monad</title>
<path fill="#ffffff" stroke="#586e75" d="M113,-36C113,-36 74,-36 74,-36 68,-36 62,-30 62,-24 62,-24 62,-12 62,-12 62,-6 68,0 74,0 74,0 113,0 113,0 119,0 125,-6 125,-12 125,-12 125,-24 125,-24 125,-30 119,-36 113,-36"/>
<text text-anchor="middle" x="93.5" y="-14.3" font-family="Inter,Arial" font-size="14.00" fill="#586e75">Monad</text>
</g>
<!-- Applicative&#45;&gt;Monad -->
<g id="edge4" class="edge">
<title>Applicative&#45;&gt;Monad</title>
<path fill="none" stroke="#586e75" d="M56.61,-71.7C62.37,-63.47 69.36,-53.48 75.71,-44.42"/>
<polygon fill="#586e75" stroke="#586e75" points="78.66,-46.3 81.53,-36.1 72.92,-42.29 78.66,-46.3"/>
</g>
<!-- FlatMap -->
<g id="node2" class="node">
<title>FlatMap</title>
<path fill="#ffffff" stroke="#586e75" d="M166,-108C166,-108 119,-108 119,-108 113,-108 107,-102 107,-96 107,-96 107,-84 107,-84 107,-78 113,-72 119,-72 119,-72 166,-72 166,-72 172,-72 178,-78 178,-84 178,-84 178,-96 178,-96 178,-102 172,-108 166,-108"/>
<text text-anchor="middle" x="142.5" y="-86.3" font-family="Inter,Arial" font-size="14.00" fill="#586e75">FlatMap</text>
</g>
<!-- FlatMap&#45;&gt;Monad -->
<g id="edge5" class="edge">
<title>FlatMap&#45;&gt;Monad</title>
<path fill="none" stroke="#586e75" d="M130.39,-71.7C124.63,-63.47 117.64,-53.48 111.29,-44.42"/>
<polygon fill="#586e75" stroke="#586e75" points="114.08,-42.29 105.47,-36.1 108.34,-46.3 114.08,-42.29"/>
</g>
<!-- Functor -->
<g id="node3" class="node">
<title>Functor</title>
<path fill="#ffffff" stroke="#586e75" d="M115,-252C115,-252 72,-252 72,-252 66,-252 60,-246 60,-240 60,-240 60,-228 60,-228 60,-222 66,-216 72,-216 72,-216 115,-216 115,-216 121,-216 127,-222 127,-228 127,-228 127,-240 127,-240 127,-246 121,-252 115,-252"/>
<text text-anchor="middle" x="93.5" y="-230.3" font-family="Inter,Arial" font-size="14.00" fill="#586e75">Functor</text>
</g>
<!-- Apply -->
<g id="node4" class="node">
<title>Apply</title>
<path fill="#ffffff" stroke="#586e75" d="M108.5,-180C108.5,-180 78.5,-180 78.5,-180 72.5,-180 66.5,-174 66.5,-168 66.5,-168 66.5,-156 66.5,-156 66.5,-150 72.5,-144 78.5,-144 78.5,-144 108.5,-144 108.5,-144 114.5,-144 120.5,-150 120.5,-156 120.5,-156 120.5,-168 120.5,-168 120.5,-174 114.5,-180 108.5,-180"/>
<text text-anchor="middle" x="93.5" y="-158.3" font-family="Inter,Arial" font-size="14.00" fill="#586e75">Apply</text>
</g>
<!-- Functor&#45;&gt;Apply -->
<g id="edge1" class="edge">
<title>Functor&#45;&gt;Apply</title>
<path fill="none" stroke="#586e75" d="M93.5,-215.7C93.5,-207.98 93.5,-198.71 93.5,-190.11"/>
<polygon fill="#586e75" stroke="#586e75" points="97,-190.1 93.5,-180.1 90,-190.1 97,-190.1"/>
</g>
<!-- Apply&#45;&gt;Applicative -->
<g id="edge2" class="edge">
<title>Apply&#45;&gt;Applicative</title>
<path fill="none" stroke="#586e75" d="M81.39,-143.7C75.63,-135.47 68.64,-125.48 62.29,-116.42"/>
<polygon fill="#586e75" stroke="#586e75" points="65.08,-114.29 56.47,-108.1 59.34,-118.3 65.08,-114.29"/>
</g>
<!-- Apply&#45;&gt;FlatMap -->
<g id="edge3" class="edge">
<title>Apply&#45;&gt;FlatMap</title>
<path fill="none" stroke="#586e75" d="M105.61,-143.7C111.37,-135.47 118.36,-125.48 124.71,-116.42"/>
<polygon fill="#586e75" stroke="#586e75" points="127.66,-118.3 130.53,-108.1 121.92,-114.29 127.66,-118.3"/>
</g>
</g>
</svg>
