<?xml version="1.0" encoding="UTF-8" standalone="no"?>
<!DOCTYPE svg PUBLIC "-//W3C//DTD SVG 1.1//EN"
 "http://www.w3.org/Graphics/SVG/1.1/DTD/svg11.dtd">
<!-- Generated by graphviz version 2.43.0 (0)
 -->
<!-- Title: %3 Pages: 1 -->
<svg width="405pt" height="356pt"
 viewBox="0.00 0.00 405.20 356.00" xmlns="http://www.w3.org/2000/svg" xmlns:xlink="http://www.w3.org/1999/xlink">
<g id="graph0" class="graph" transform="scale(1 1) rotate(0) translate(4 352)">
<title>%3</title>
<!-- Start -->
<!-- FAFB -->
<g id="node3" class="node start,disabled">
<title>FAFB</title>
<path fill="#d0dce3" stroke="#d0dce3" d="M82.6,-348C82.6,-348 52.6,-348 52.6,-348 46.6,-348 40.6,-342 40.6,-336 40.6,-336 40.6,-308 40.6,-308 40.6,-302 46.6,-296 52.6,-296 52.6,-296 82.6,-296 82.6,-296 88.6,-296 94.6,-302 94.6,-308 94.6,-308 94.6,-336 94.6,-336 94.6,-342 88.6,-348 82.6,-348"/>
<text text-anchor="start" x="53.6" y="-328.8" font-family="Inter,Arial" font-size="14.00" fill="#ffffff">F[A]</text>
<text text-anchor="start" x="54.1" y="-307.8" font-family="Inter,Arial" font-size="14.00" fill="#ffffff">F[B]</text>
</g>
<!-- Start&#45;&gt;FAFB -->
<g id="edge13" class="edge start,disabled">
<title>Start&#45;&gt;FAFB</title>
<path fill="none" stroke="#d0dce3" stroke-width="2" d="M3.91,-322C7.37,-322 18.49,-322 30.42,-322"/>
<polygon fill="#d0dce3" stroke="#d0dce3" stroke-width="2" points="30.48,-325.5 40.48,-322 30.48,-318.5 30.48,-325.5"/>
</g>
<!-- Goal -->
<!-- FC -->
<g id="node4" class="node goal">
<title>FC</title>
<path fill="#586e75" stroke="#586e75" d="M328.1,-340C328.1,-340 298.1,-340 298.1,-340 292.1,-340 286.1,-334 286.1,-328 286.1,-328 286.1,-316 286.1,-316 286.1,-310 292.1,-304 298.1,-304 298.1,-304 328.1,-304 328.1,-304 334.1,-304 340.1,-310 340.1,-316 340.1,-316 340.1,-328 340.1,-328 340.1,-334 334.1,-340 328.1,-340"/>
<text text-anchor="middle" x="313.1" y="-318.3" font-family="Inter,Arial" font-size="14.00" fill="#ffffff">F[C]</text>
</g>
<!-- FAFB&#45;&gt;FC -->
<!-- FA -->
<!-- FAFB&#45;&gt;FA -->
<!-- FC&#45;&gt;Goal -->
<g id="edge14" class="edge goal">
<title>FC&#45;&gt;Goal</title>
<path fill="none" stroke="#586e75" stroke-width="2" d="M340.39,-322C354.8,-322 371.92,-322 382.97,-322"/>
<polygon fill="#586e75" stroke="#586e75" stroke-width="2" points="383.04,-325.5 393.04,-322 383.04,-318.5 383.04,-325.5"/>
</g>
<!-- FB2FC -->
<!-- FC&#45;&gt;FB2FC -->
<!-- AB -->
<!-- C -->
<!-- AB&#45;&gt;C -->
<!-- A -->
<!-- A&#45;&gt;AB -->
<!-- B2C -->
<!-- A&#45;&gt;B2C -->
<!-- B2C&#45;&gt;C -->
<!-- FA&#45;&gt;A -->
<!-- FB2C -->
<!-- FA&#45;&gt;FB2C -->
<!-- FA&#45;&gt;FB2FC -->
<!-- FB2C&#45;&gt;B2C -->
<!-- FB2FC&#45;&gt;FB2C -->
</g>
</svg>
