<?xml version="1.0" encoding="UTF-8" standalone="no"?>
<!DOCTYPE svg PUBLIC "-//W3C//DTD SVG 1.1//EN"
 "http://www.w3.org/Graphics/SVG/1.1/DTD/svg11.dtd">
<!-- Generated by graphviz version 2.43.0 (0)
 -->
<!-- Title: %3 Pages: 1 -->
<svg width="405pt" height="356pt"
 viewBox="0.00 0.00 405.20 356.00" xmlns="http://www.w3.org/2000/svg" xmlns:xlink="http://www.w3.org/1999/xlink">
<g id="graph0" class="graph" transform="scale(1 1) rotate(0) translate(4 352)">
<title>%3</title>
<!-- Start -->
<!-- FAFB -->
<g id="node3" class="node start,disabled">
<title>FAFB</title>
<path fill="#d0dce3" stroke="#d0dce3" d="M82.6,-348C82.6,-348 52.6,-348 52.6,-348 46.6,-348 40.6,-342 40.6,-336 40.6,-336 40.6,-308 40.6,-308 40.6,-302 46.6,-296 52.6,-296 52.6,-296 82.6,-296 82.6,-296 88.6,-296 94.6,-302 94.6,-308 94.6,-308 94.6,-336 94.6,-336 94.6,-342 88.6,-348 82.6,-348"/>
<text text-anchor="start" x="53.6" y="-328.8" font-family="Inter,Arial" font-size="14.00" fill="#ffffff">F[A]</text>
<text text-anchor="start" x="54.1" y="-307.8" font-family="Inter,Arial" font-size="14.00" fill="#ffffff">F[B]</text>
</g>
<!-- Start&#45;&gt;FAFB -->
<g id="edge13" class="edge start,disabled">
<title>Start&#45;&gt;FAFB</title>
<path fill="none" stroke="#d0dce3" stroke-width="2" d="M3.91,-322C7.37,-322 18.49,-322 30.42,-322"/>
<polygon fill="#d0dce3" stroke="#d0dce3" stroke-width="2" points="30.48,-325.5 40.48,-322 30.48,-318.5 30.48,-325.5"/>
</g>
<!-- Goal -->
<!-- FC -->
<g id="node4" class="node goal,disabled">
<title>FC</title>
<path fill="#d0dce3" stroke="#d0dce3" d="M328.1,-340C328.1,-340 298.1,-340 298.1,-340 292.1,-340 286.1,-334 286.1,-328 286.1,-328 286.1,-316 286.1,-316 286.1,-310 292.1,-304 298.1,-304 298.1,-304 328.1,-304 328.1,-304 334.1,-304 340.1,-310 340.1,-316 340.1,-316 340.1,-328 340.1,-328 340.1,-334 334.1,-340 328.1,-340"/>
<text text-anchor="middle" x="313.1" y="-318.3" font-family="Inter,Arial" font-size="14.00" fill="#ffffff">F[C]</text>
</g>
<!-- FAFB&#45;&gt;FC -->
<!-- FA -->
<!-- FAFB&#45;&gt;FA -->
<!-- FC&#45;&gt;Goal -->
<g id="edge14" class="edge goal,disabled">
<title>FC&#45;&gt;Goal</title>
<path fill="none" stroke="#d0dce3" stroke-width="2" d="M340.39,-322C354.8,-322 371.92,-322 382.97,-322"/>
<polygon fill="#d0dce3" stroke="#d0dce3" stroke-width="2" points="383.04,-325.5 393.04,-322 383.04,-318.5 383.04,-325.5"/>
</g>
<!-- FB2FC -->
<!-- FC&#45;&gt;FB2FC -->
<!-- AB -->
<g id="node5" class="node">
<title>AB</title>
<path fill="#ffffff" stroke="#586e75" d="M82.6,-52C82.6,-52 52.6,-52 52.6,-52 46.6,-52 40.6,-46 40.6,-40 40.6,-40 40.6,-12 40.6,-12 40.6,-6 46.6,0 52.6,0 52.6,0 82.6,0 82.6,0 88.6,0 94.6,-6 94.6,-12 94.6,-12 94.6,-40 94.6,-40 94.6,-46 88.6,-52 82.6,-52"/>
<text text-anchor="start" x="62.6" y="-32.8" font-family="Inter,Arial" font-size="14.00" fill="#586e75">A</text>
<text text-anchor="start" x="62.6" y="-11.8" font-family="Inter,Arial" font-size="14.00" fill="#586e75">B</text>
</g>
<!-- C -->
<g id="node6" class="node">
<title>C</title>
<path fill="#ffffff" stroke="#586e75" d="M328.1,-44C328.1,-44 298.1,-44 298.1,-44 292.1,-44 286.1,-38 286.1,-32 286.1,-32 286.1,-20 286.1,-20 286.1,-14 292.1,-8 298.1,-8 298.1,-8 328.1,-8 328.1,-8 334.1,-8 340.1,-14 340.1,-20 340.1,-20 340.1,-32 340.1,-32 340.1,-38 334.1,-44 328.1,-44"/>
<text text-anchor="middle" x="313.1" y="-22.3" font-family="Inter,Arial" font-size="14.00" fill="#586e75">C</text>
</g>
<!-- AB&#45;&gt;C -->
<g id="edge2" class="edge">
<title>AB&#45;&gt;C</title>
<path fill="none" stroke="#586e75" d="M94.66,-26C138.21,-26 225.88,-26 275.57,-26"/>
<polygon fill="#586e75" stroke="#586e75" points="275.86,-29.5 285.86,-26 275.86,-22.5 275.86,-29.5"/>
<text text-anchor="middle" x="182.1" y="-29.2" font-family="Inter,Arial" font-size="11.00" fill="#586e75">f</text>
</g>
<!-- A -->
<!-- A&#45;&gt;AB -->
<!-- B2C -->
<!-- A&#45;&gt;B2C -->
<!-- B2C&#45;&gt;C -->
<!-- FA&#45;&gt;A -->
<!-- FB2C -->
<!-- FA&#45;&gt;FB2C -->
<!-- FA&#45;&gt;FB2FC -->
<!-- FB2C&#45;&gt;B2C -->
<!-- FB2FC&#45;&gt;FB2C -->
</g>
</svg>
