<?xml version="1.0" encoding="UTF-8" standalone="no"?>
<!DOCTYPE svg PUBLIC "-//W3C//DTD SVG 1.1//EN"
 "http://www.w3.org/Graphics/SVG/1.1/DTD/svg11.dtd">
<!-- Generated by graphviz version 2.43.0 (0)
 -->
<!-- Title: %3 Pages: 1 -->
<svg width="405pt" height="356pt"
 viewBox="0.00 0.00 405.20 356.00" xmlns="http://www.w3.org/2000/svg" xmlns:xlink="http://www.w3.org/1999/xlink">
<g id="graph0" class="graph" transform="scale(1 1) rotate(0) translate(4 352)">
<title>%3</title>
<!-- Start -->
<!-- FAFB -->
<g id="node3" class="node start">
<title>FAFB</title>
<path fill="#586e75" stroke="#586e75" d="M82.6,-348C82.6,-348 52.6,-348 52.6,-348 46.6,-348 40.6,-342 40.6,-336 40.6,-336 40.6,-308 40.6,-308 40.6,-302 46.6,-296 52.6,-296 52.6,-296 82.6,-296 82.6,-296 88.6,-296 94.6,-302 94.6,-308 94.6,-308 94.6,-336 94.6,-336 94.6,-342 88.6,-348 82.6,-348"/>
<text text-anchor="start" x="53.6" y="-328.8" font-family="Inter,Arial" font-size="14.00" fill="#ffffff">F[A]</text>
<text text-anchor="start" x="54.1" y="-307.8" font-family="Inter,Arial" font-size="14.00" fill="#ffffff">F[B]</text>
</g>
<!-- Start&#45;&gt;FAFB -->
<g id="edge13" class="edge start,disabled">
<title>Start&#45;&gt;FAFB</title>
<path fill="none" stroke="#d0dce3" stroke-width="2" d="M3.91,-322C7.37,-322 18.49,-322 30.42,-322"/>
<polygon fill="#d0dce3" stroke="#d0dce3" stroke-width="2" points="30.48,-325.5 40.48,-322 30.48,-318.5 30.48,-325.5"/>
</g>
<!-- Goal -->
<!-- FC -->
<g id="node4" class="node goal">
<title>FC</title>
<path fill="#586e75" stroke="#586e75" d="M328.1,-340C328.1,-340 298.1,-340 298.1,-340 292.1,-340 286.1,-334 286.1,-328 286.1,-328 286.1,-316 286.1,-316 286.1,-310 292.1,-304 298.1,-304 298.1,-304 328.1,-304 328.1,-304 334.1,-304 340.1,-310 340.1,-316 340.1,-316 340.1,-328 340.1,-328 340.1,-334 334.1,-340 328.1,-340"/>
<text text-anchor="middle" x="313.1" y="-318.3" font-family="Inter,Arial" font-size="14.00" fill="#ffffff">F[C]</text>
</g>
<!-- FAFB&#45;&gt;FC -->
<g id="edge1" class="edge">
<title>FAFB&#45;&gt;FC</title>
<path fill="none" stroke="#586e75" d="M94.66,-322C138.21,-322 225.88,-322 275.57,-322"/>
<polygon fill="#586e75" stroke="#586e75" points="275.86,-325.5 285.86,-322 275.86,-318.5 275.86,-325.5"/>
<text text-anchor="middle" x="182.1" y="-325.2" font-family="Inter,Arial" font-size="11.00" fill="#586e75">uncurried(f.curried.lift⨾split)</text>
</g>
<!-- FA -->
<g id="node9" class="node">
<title>FA</title>
<path fill="#ffffff" stroke="#586e75" d="M82.6,-196C82.6,-196 52.6,-196 52.6,-196 46.6,-196 40.6,-190 40.6,-184 40.6,-184 40.6,-172 40.6,-172 40.6,-166 46.6,-160 52.6,-160 52.6,-160 82.6,-160 82.6,-160 88.6,-160 94.6,-166 94.6,-172 94.6,-172 94.6,-184 94.6,-184 94.6,-190 88.6,-196 82.6,-196"/>
<text text-anchor="middle" x="67.6" y="-174.3" font-family="Inter,Arial" font-size="14.00" fill="#586e75">F[A]</text>
</g>
<!-- FAFB&#45;&gt;FA -->
<g id="edge3" class="edge lift">
<title>FAFB&#45;&gt;FA</title>
<path fill="none" stroke="#586e75" stroke-dasharray="5,2" d="M67.6,-285.85C67.6,-255.99 67.6,-226.14 67.6,-196.28"/>
<polygon fill="#586e75" stroke="#586e75" points="64.1,-285.97 67.6,-295.97 71.1,-285.97 64.1,-285.97"/>
<text text-anchor="middle" x="42.6" y="-237.16" font-family="Inter,Arial" font-size="11.00" fill="#586e75">uncurried</text>
</g>
<!-- FC&#45;&gt;Goal -->
<g id="edge14" class="edge goal,disabled">
<title>FC&#45;&gt;Goal</title>
<path fill="none" stroke="#d0dce3" stroke-width="2" d="M340.39,-322C354.8,-322 371.92,-322 382.97,-322"/>
<polygon fill="#d0dce3" stroke="#d0dce3" stroke-width="2" points="383.04,-325.5 393.04,-322 383.04,-318.5 383.04,-325.5"/>
</g>
<!-- FB2FC -->
<g id="node11" class="node">
<title>FB2FC</title>
<path fill="#ffffff" stroke="#586e75" d="M344.6,-268C344.6,-268 281.6,-268 281.6,-268 275.6,-268 269.6,-262 269.6,-256 269.6,-256 269.6,-244 269.6,-244 269.6,-238 275.6,-232 281.6,-232 281.6,-232 344.6,-232 344.6,-232 350.6,-232 356.6,-238 356.6,-244 356.6,-244 356.6,-256 356.6,-256 356.6,-262 350.6,-268 344.6,-268"/>
<text text-anchor="middle" x="313.1" y="-246.3" font-family="Inter,Arial" font-size="14.00" fill="#586e75">F[B]=&gt;F[C]</text>
</g>
<!-- FC&#45;&gt;FB2FC -->
<g id="edge6" class="edge lift">
<title>FC&#45;&gt;FB2FC</title>
<path fill="none" stroke="#586e75" stroke-dasharray="5,2" d="M313.1,-293.92C313.1,-285.37 313.1,-276.83 313.1,-268.28"/>
<polygon fill="#586e75" stroke="#586e75" points="309.6,-293.95 313.1,-303.95 316.6,-293.95 309.6,-293.95"/>
<text text-anchor="middle" x="288.1" y="-277.51" font-family="Inter,Arial" font-size="11.00" fill="#586e75">uncurried</text>
</g>
<!-- AB -->
<g id="node5" class="node disabled">
<title>AB</title>
<path fill="#ffffff" stroke="#d0dce3" d="M82.6,-52C82.6,-52 52.6,-52 52.6,-52 46.6,-52 40.6,-46 40.6,-40 40.6,-40 40.6,-12 40.6,-12 40.6,-6 46.6,0 52.6,0 52.6,0 82.6,0 82.6,0 88.6,0 94.6,-6 94.6,-12 94.6,-12 94.6,-40 94.6,-40 94.6,-46 88.6,-52 82.6,-52"/>
<text text-anchor="start" x="62.6" y="-32.8" font-family="Inter,Arial" font-size="14.00" fill="#d0dce3">A</text>
<text text-anchor="start" x="62.6" y="-11.8" font-family="Inter,Arial" font-size="14.00" fill="#d0dce3">B</text>
</g>
<!-- C -->
<g id="node6" class="node disabled">
<title>C</title>
<path fill="#ffffff" stroke="#d0dce3" d="M328.1,-44C328.1,-44 298.1,-44 298.1,-44 292.1,-44 286.1,-38 286.1,-32 286.1,-32 286.1,-20 286.1,-20 286.1,-14 292.1,-8 298.1,-8 298.1,-8 328.1,-8 328.1,-8 334.1,-8 340.1,-14 340.1,-20 340.1,-20 340.1,-32 340.1,-32 340.1,-38 334.1,-44 328.1,-44"/>
<text text-anchor="middle" x="313.1" y="-22.3" font-family="Inter,Arial" font-size="14.00" fill="#d0dce3">C</text>
</g>
<!-- AB&#45;&gt;C -->
<g id="edge2" class="edge disabled">
<title>AB&#45;&gt;C</title>
<path fill="none" stroke="#d0dce3" d="M94.66,-26C138.21,-26 225.88,-26 275.57,-26"/>
<polygon fill="#d0dce3" stroke="#d0dce3" points="275.86,-29.5 285.86,-26 275.86,-22.5 275.86,-29.5"/>
<text text-anchor="middle" x="182.1" y="-29.2" font-family="Inter,Arial" font-size="11.00" fill="#d0dce3">f</text>
</g>
<!-- A -->
<g id="node7" class="node disabled">
<title>A</title>
<path fill="#ffffff" stroke="#d0dce3" d="M82.6,-124C82.6,-124 52.6,-124 52.6,-124 46.6,-124 40.6,-118 40.6,-112 40.6,-112 40.6,-100 40.6,-100 40.6,-94 46.6,-88 52.6,-88 52.6,-88 82.6,-88 82.6,-88 88.6,-88 94.6,-94 94.6,-100 94.6,-100 94.6,-112 94.6,-112 94.6,-118 88.6,-124 82.6,-124"/>
<text text-anchor="middle" x="67.6" y="-102.3" font-family="Inter,Arial" font-size="14.00" fill="#d0dce3">A</text>
</g>
<!-- A&#45;&gt;AB -->
<g id="edge5" class="edge lift,disabled">
<title>A&#45;&gt;AB</title>
<path fill="none" stroke="#d0dce3" stroke-dasharray="5,2" d="M67.6,-77.9C67.6,-69.35 67.6,-60.8 67.6,-52.25"/>
<polygon fill="#d0dce3" stroke="#d0dce3" points="64.1,-77.94 67.6,-87.94 71.1,-77.94 64.1,-77.94"/>
<text text-anchor="middle" x="49.1" y="-61.49" font-family="Inter,Arial" font-size="11.00" fill="#d0dce3">curried</text>
</g>
<!-- B2C -->
<g id="node8" class="node disabled">
<title>B2C</title>
<path fill="#ffffff" stroke="#d0dce3" d="M328.1,-124C328.1,-124 298.1,-124 298.1,-124 292.1,-124 286.1,-118 286.1,-112 286.1,-112 286.1,-100 286.1,-100 286.1,-94 292.1,-88 298.1,-88 298.1,-88 328.1,-88 328.1,-88 334.1,-88 340.1,-94 340.1,-100 340.1,-100 340.1,-112 340.1,-112 340.1,-118 334.1,-124 328.1,-124"/>
<text text-anchor="middle" x="313.1" y="-102.3" font-family="Inter,Arial" font-size="14.00" fill="#d0dce3">B=&gt;C</text>
</g>
<!-- A&#45;&gt;B2C -->
<g id="edge10" class="edge disabled">
<title>A&#45;&gt;B2C</title>
<path fill="none" stroke="#d0dce3" d="M94.66,-106C138.21,-106 225.88,-106 275.57,-106"/>
<polygon fill="#d0dce3" stroke="#d0dce3" points="275.86,-109.5 285.86,-106 275.86,-102.5 275.86,-109.5"/>
<text text-anchor="middle" x="182.1" y="-109.2" font-family="Inter,Arial" font-size="11.00" fill="#d0dce3">f.curried</text>
</g>
<!-- B2C&#45;&gt;C -->
<g id="edge9" class="edge lift,disabled">
<title>B2C&#45;&gt;C</title>
<path fill="none" stroke="#d0dce3" stroke-dasharray="5,2" d="M313.1,-77.43C313.1,-66.33 313.1,-55.23 313.1,-44.12"/>
<polygon fill="#d0dce3" stroke="#d0dce3" points="309.6,-77.63 313.1,-87.63 316.6,-77.63 309.6,-77.63"/>
<text text-anchor="middle" x="294.6" y="-57.18" font-family="Inter,Arial" font-size="11.00" fill="#d0dce3">curried</text>
</g>
<!-- FA&#45;&gt;A -->
<g id="edge4" class="edge lift,disabled">
<title>FA&#45;&gt;A</title>
<path fill="none" stroke="#d0dce3" stroke-dasharray="5,2" d="M67.6,-149.92C67.6,-141.37 67.6,-132.83 67.6,-124.28"/>
<polygon fill="#d0dce3" stroke="#d0dce3" points="64.1,-149.95 67.6,-159.95 71.1,-149.95 64.1,-149.95"/>
<text text-anchor="middle" x="61.1" y="-133.51" font-family="Inter,Arial" font-size="11.00" fill="#d0dce3">lift</text>
</g>
<!-- FB2C -->
<g id="node10" class="node disabled">
<title>FB2C</title>
<path fill="#ffffff" stroke="#d0dce3" d="M335.1,-196C335.1,-196 291.1,-196 291.1,-196 285.1,-196 279.1,-190 279.1,-184 279.1,-184 279.1,-172 279.1,-172 279.1,-166 285.1,-160 291.1,-160 291.1,-160 335.1,-160 335.1,-160 341.1,-160 347.1,-166 347.1,-172 347.1,-172 347.1,-184 347.1,-184 347.1,-190 341.1,-196 335.1,-196"/>
<text text-anchor="middle" x="313.1" y="-174.3" font-family="Inter,Arial" font-size="14.00" fill="#d0dce3">F[B=&gt;C]</text>
</g>
<!-- FA&#45;&gt;FB2C -->
<g id="edge11" class="edge disabled">
<title>FA&#45;&gt;FB2C</title>
<path fill="none" stroke="#d0dce3" d="M94.66,-178C136.24,-178 218.04,-178 268.6,-178"/>
<polygon fill="#d0dce3" stroke="#d0dce3" points="268.89,-181.5 278.89,-178 268.89,-174.5 268.89,-181.5"/>
<text text-anchor="middle" x="182.1" y="-181.2" font-family="Inter,Arial" font-size="11.00" fill="#d0dce3">f.curried.lift</text>
</g>
<!-- FA&#45;&gt;FB2FC -->
<g id="edge12" class="edge">
<title>FA&#45;&gt;FB2FC</title>
<path fill="none" stroke="#586e75" d="M95.01,-187.97C100.78,-190.04 106.87,-192.16 112.6,-194 162.01,-209.89 219.09,-225.66 259.5,-236.39"/>
<polygon fill="#586e75" stroke="#586e75" points="258.84,-239.84 269.4,-239.01 260.63,-233.07 258.84,-239.84"/>
<text text-anchor="middle" x="182.1" y="-236.2" font-family="Inter,Arial" font-size="11.00" fill="#586e75">f.curried.lift⨾split</text>
</g>
<!-- FB2C&#45;&gt;B2C -->
<g id="edge8" class="edge lift,disabled">
<title>FB2C&#45;&gt;B2C</title>
<path fill="none" stroke="#d0dce3" stroke-dasharray="5,2" d="M313.1,-149.92C313.1,-141.37 313.1,-132.83 313.1,-124.28"/>
<polygon fill="#d0dce3" stroke="#d0dce3" points="309.6,-149.95 313.1,-159.95 316.6,-149.95 309.6,-149.95"/>
<text text-anchor="middle" x="306.6" y="-133.51" font-family="Inter,Arial" font-size="11.00" fill="#d0dce3">lift</text>
</g>
<!-- FB2FC&#45;&gt;FB2C -->
<g id="edge7" class="edge disabled">
<title>FB2FC&#45;&gt;FB2C</title>
<path fill="none" stroke="#d0dce3" d="M313.1,-221.92C313.1,-213.37 313.1,-204.83 313.1,-196.28"/>
<polygon fill="#d0dce3" stroke="#d0dce3" points="309.6,-221.95 313.1,-231.95 316.6,-221.95 309.6,-221.95"/>
<text text-anchor="middle" x="302.1" y="-205.51" font-family="Inter,Arial" font-size="11.00" fill="#d0dce3">split</text>
</g>
</g>
</svg>
