<?xml version="1.0" encoding="UTF-8" standalone="no"?>
<!DOCTYPE svg PUBLIC "-//W3C//DTD SVG 1.1//EN"
 "http://www.w3.org/Graphics/SVG/1.1/DTD/svg11.dtd">
<!-- Generated by graphviz version 2.43.0 (0)
 -->
<!-- Title: %3 Pages: 1 -->
<svg width="366pt" height="116pt"
 viewBox="0.00 0.00 366.20 116.00" xmlns="http://www.w3.org/2000/svg" xmlns:xlink="http://www.w3.org/1999/xlink">
<g id="graph0" class="graph" transform="scale(1 1) rotate(0) translate(4 112)">
<title>%3</title>
<!-- Start -->
<!-- FItem -->
<g id="node3" class="node start">
<title>FItem</title>
<path fill="#586e75" stroke="#586e75" d="M93.6,-108C93.6,-108 52.6,-108 52.6,-108 46.6,-108 40.6,-102 40.6,-96 40.6,-96 40.6,-84 40.6,-84 40.6,-78 46.6,-72 52.6,-72 52.6,-72 93.6,-72 93.6,-72 99.6,-72 105.6,-78 105.6,-84 105.6,-84 105.6,-96 105.6,-96 105.6,-102 99.6,-108 93.6,-108"/>
<text text-anchor="middle" x="73.1" y="-86.3" font-family="Inter,Arial" font-size="14.00" fill="#ffffff">F[Item]</text>
</g>
<!-- Start&#45;&gt;FItem -->
<g id="edge7" class="edge start">
<title>Start&#45;&gt;FItem</title>
<path fill="none" stroke="#586e75" stroke-width="2" d="M3.78,-90C7.02,-90 17.87,-90 30,-90"/>
<polygon fill="#586e75" stroke="#586e75" stroke-width="2" points="30.35,-93.5 40.35,-90 30.35,-86.5 30.35,-93.5"/>
</g>
<!-- Goal -->
<!-- FFSeller -->
<!-- FItem&#45;&gt;FFSeller -->
<!-- FSeller -->
<g id="node5" class="node goal">
<title>FSeller</title>
<path fill="#586e75" stroke="#586e75" d="M296.1,-36C296.1,-36 248.1,-36 248.1,-36 242.1,-36 236.1,-30 236.1,-24 236.1,-24 236.1,-12 236.1,-12 236.1,-6 242.1,0 248.1,0 248.1,0 296.1,0 296.1,0 302.1,0 308.1,-6 308.1,-12 308.1,-12 308.1,-24 308.1,-24 308.1,-30 302.1,-36 296.1,-36"/>
<text text-anchor="middle" x="272.1" y="-14.3" font-family="Inter,Arial" font-size="14.00" fill="#ffffff">F[Seller]</text>
</g>
<!-- FItem&#45;&gt;FSeller -->
<g id="edge4" class="edge">
<title>FItem&#45;&gt;FSeller</title>
<path fill="none" stroke="#586e75" d="M105.75,-78.43C138.4,-66.5 189.6,-47.79 226.38,-34.35"/>
<polygon fill="#586e75" stroke="#586e75" points="227.68,-37.6 235.87,-30.88 225.27,-31.02 227.68,-37.6"/>
<text text-anchor="middle" x="166.1" y="-74.2" font-family="Inter,Arial" font-size="11.00" fill="#586e75">itemSeller.liftFlat</text>
</g>
<!-- Item -->
<g id="node6" class="node disabled">
<title>Item</title>
<path fill="#ffffff" stroke="#d0dce3" d="M88.1,-36C88.1,-36 58.1,-36 58.1,-36 52.1,-36 46.1,-30 46.1,-24 46.1,-24 46.1,-12 46.1,-12 46.1,-6 52.1,0 58.1,0 58.1,0 88.1,0 88.1,0 94.1,0 100.1,-6 100.1,-12 100.1,-12 100.1,-24 100.1,-24 100.1,-30 94.1,-36 88.1,-36"/>
<text text-anchor="middle" x="73.1" y="-14.3" font-family="Inter,Arial" font-size="14.00" fill="#d0dce3">Item</text>
</g>
<!-- FItem&#45;&gt;Item -->
<g id="edge1" class="edge lift,disabled">
<title>FItem&#45;&gt;Item</title>
<path fill="none" stroke="#d0dce3" stroke-dasharray="5,2" d="M73.1,-61.92C73.1,-53.37 73.1,-44.83 73.1,-36.28"/>
<polygon fill="#d0dce3" stroke="#d0dce3" points="69.6,-61.95 73.1,-71.95 76.6,-61.95 69.6,-61.95"/>
<text text-anchor="middle" x="57.6" y="-45.51" font-family="Inter,Arial" font-size="11.00" fill="#d0dce3">liftFlat</text>
</g>
<!-- FFSeller&#45;&gt;FSeller -->
<!-- FFSeller&#45;&gt;FSeller -->
<!-- FSeller&#45;&gt;Goal -->
<g id="edge8" class="edge goal">
<title>FSeller&#45;&gt;Goal</title>
<path fill="none" stroke="#586e75" stroke-width="2" d="M308.48,-18C321.29,-18 334.86,-18 344.09,-18"/>
<polygon fill="#586e75" stroke="#586e75" stroke-width="2" points="344.3,-21.5 354.3,-18 344.3,-14.5 344.3,-21.5"/>
</g>
<!-- Item&#45;&gt;FSeller -->
<g id="edge3" class="edge disabled">
<title>Item&#45;&gt;FSeller</title>
<path fill="none" stroke="#d0dce3" d="M100.26,-18C132.25,-18 186.94,-18 225.82,-18"/>
<polygon fill="#d0dce3" stroke="#d0dce3" points="225.84,-21.5 235.84,-18 225.84,-14.5 225.84,-21.5"/>
<text text-anchor="middle" x="166.1" y="-21.2" font-family="Inter,Arial" font-size="11.00" fill="#d0dce3">itemSeller</text>
</g>
</g>
</svg>
