<?xml version="1.0" encoding="UTF-8" standalone="no"?>
<!DOCTYPE svg PUBLIC "-//W3C//DTD SVG 1.1//EN"
 "http://www.w3.org/Graphics/SVG/1.1/DTD/svg11.dtd">
<!-- Generated by graphviz version 2.43.0 (0)
 -->
<!-- Title: %3 Pages: 1 -->
<svg width="384pt" height="116pt"
 viewBox="0.00 0.00 384.20 116.00" xmlns="http://www.w3.org/2000/svg" xmlns:xlink="http://www.w3.org/1999/xlink">
<g id="graph0" class="graph" transform="scale(1 1) rotate(0) translate(4 112)">
<title>%3</title>
<!-- Start -->
<!-- FItem -->
<g id="node3" class="node start">
<title>FItem</title>
<path fill="#586e75" stroke="#586e75" d="M93.6,-108C93.6,-108 52.6,-108 52.6,-108 46.6,-108 40.6,-102 40.6,-96 40.6,-96 40.6,-84 40.6,-84 40.6,-78 46.6,-72 52.6,-72 52.6,-72 93.6,-72 93.6,-72 99.6,-72 105.6,-78 105.6,-84 105.6,-84 105.6,-96 105.6,-96 105.6,-102 99.6,-108 93.6,-108"/>
<text text-anchor="middle" x="73.1" y="-86.3" font-family="Inter,Arial" font-size="14.00" fill="#ffffff">F[Item]</text>
</g>
<!-- Start&#45;&gt;FItem -->
<g id="edge7" class="edge start">
<title>Start&#45;&gt;FItem</title>
<path fill="none" stroke="#586e75" stroke-width="2" d="M3.78,-90C7.02,-90 17.87,-90 30,-90"/>
<polygon fill="#586e75" stroke="#586e75" stroke-width="2" points="30.35,-93.5 40.35,-90 30.35,-86.5 30.35,-93.5"/>
</g>
<!-- Goal -->
<!-- FFSeller -->
<!-- FItem&#45;&gt;FFSeller -->
<!-- FSeller -->
<g id="node5" class="node goal">
<title>FSeller</title>
<path fill="#586e75" stroke="#586e75" d="M314.1,-36C314.1,-36 266.1,-36 266.1,-36 260.1,-36 254.1,-30 254.1,-24 254.1,-24 254.1,-12 254.1,-12 254.1,-6 260.1,0 266.1,0 266.1,0 314.1,0 314.1,0 320.1,0 326.1,-6 326.1,-12 326.1,-12 326.1,-24 326.1,-24 326.1,-30 320.1,-36 314.1,-36"/>
<text text-anchor="middle" x="290.1" y="-14.3" font-family="Inter,Arial" font-size="14.00" fill="#ffffff">F[Seller]</text>
</g>
<!-- FItem&#45;&gt;FSeller -->
<!-- Item -->
<g id="node6" class="node">
<title>Item</title>
<path fill="#ffffff" stroke="#586e75" d="M88.1,-36C88.1,-36 58.1,-36 58.1,-36 52.1,-36 46.1,-30 46.1,-24 46.1,-24 46.1,-12 46.1,-12 46.1,-6 52.1,0 58.1,0 58.1,0 88.1,0 88.1,0 94.1,0 100.1,-6 100.1,-12 100.1,-12 100.1,-24 100.1,-24 100.1,-30 94.1,-36 88.1,-36"/>
<text text-anchor="middle" x="73.1" y="-14.3" font-family="Inter,Arial" font-size="14.00" fill="#586e75">Item</text>
</g>
<!-- FItem&#45;&gt;Item -->
<g id="edge1" class="edge lift">
<title>FItem&#45;&gt;Item</title>
<path fill="none" stroke="#586e75" stroke-dasharray="5,2" d="M73.1,-61.58C73.1,-53.03 73.1,-43.87 73.1,-36.17"/>
<polygon fill="#586e75" stroke="#586e75" points="69.6,-61.59 73.1,-71.59 76.6,-61.59 69.6,-61.59"/>
<text text-anchor="middle" x="64.1" y="-51.2" font-family="Inter,Arial" font-size="11.00" fill="#586e75">lift</text>
</g>
<!-- FFSeller&#45;&gt;FSeller -->
<g id="edge2" class="edge lift">
<title>FFSeller&#45;&gt;FSeller</title>
<path fill="none" stroke="#586e75" stroke-dasharray="5,2" d="M290.1,-61.58C290.1,-53.03 290.1,-43.87 290.1,-36.17"/>
<polygon fill="#586e75" stroke="#586e75" points="286.6,-61.59 290.1,-71.59 293.6,-61.59 286.6,-61.59"/>
<text text-anchor="middle" x="281.1" y="-51.2" font-family="Inter,Arial" font-size="11.00" fill="#586e75">lift</text>
</g>
<!-- FFSeller&#45;&gt;FSeller -->
<!-- FSeller&#45;&gt;Goal -->
<g id="edge8" class="edge goal">
<title>FSeller&#45;&gt;Goal</title>
<path fill="none" stroke="#586e75" stroke-width="2" d="M326.48,-18C339.29,-18 352.86,-18 362.09,-18"/>
<polygon fill="#586e75" stroke="#586e75" stroke-width="2" points="362.3,-21.5 372.3,-18 362.3,-14.5 362.3,-21.5"/>
</g>
<!-- Item&#45;&gt;FSeller -->
<g id="edge3" class="edge">
<title>Item&#45;&gt;FSeller</title>
<path fill="none" stroke="#586e75" d="M100.46,-18C136.17,-18 200.44,-18 243.93,-18"/>
<polygon fill="#586e75" stroke="#586e75" points="243.96,-21.5 253.96,-18 243.96,-14.5 243.96,-21.5"/>
<text text-anchor="middle" x="175.1" y="-21.2" font-family="Inter,Arial" font-size="11.00" fill="#586e75">itemSeller</text>
</g>
</g>
</svg>
