<?xml version="1.0" encoding="UTF-8" standalone="no"?>
<!DOCTYPE svg PUBLIC "-//W3C//DTD SVG 1.1//EN"
 "http://www.w3.org/Graphics/SVG/1.1/DTD/svg11.dtd">
<!-- Generated by graphviz version 2.43.0 (0)
 -->
<!-- Title: %3 Pages: 1 -->
<svg width="442pt" height="116pt"
 viewBox="0.00 0.00 442.20 116.00" xmlns="http://www.w3.org/2000/svg" xmlns:xlink="http://www.w3.org/1999/xlink">
<g id="graph0" class="graph" transform="scale(1 1) rotate(0) translate(4 112)">
<title>%3</title>
<!-- Start -->
<!-- Item -->
<g id="node5" class="node start">
<title>Item</title>
<path fill="#586e75" stroke="#586e75" d="M82.6,-108C82.6,-108 52.6,-108 52.6,-108 46.6,-108 40.6,-102 40.6,-96 40.6,-96 40.6,-84 40.6,-84 40.6,-78 46.6,-72 52.6,-72 52.6,-72 82.6,-72 82.6,-72 88.6,-72 94.6,-78 94.6,-84 94.6,-84 94.6,-96 94.6,-96 94.6,-102 88.6,-108 82.6,-108"/>
<text text-anchor="middle" x="67.6" y="-86.3" font-family="Inter,Arial" font-size="14.00" fill="#ffffff">Item</text>
</g>
<!-- Start&#45;&gt;Item -->
<g id="edge5" class="edge start">
<title>Start&#45;&gt;Item</title>
<path fill="none" stroke="#586e75" stroke-width="2" d="M3.91,-90C7.37,-90 18.49,-90 30.42,-90"/>
<polygon fill="#586e75" stroke="#586e75" stroke-width="2" points="30.48,-93.5 40.48,-90 30.48,-86.5 30.48,-93.5"/>
</g>
<!-- Goal -->
<!-- Seller -->
<!-- FSeller -->
<g id="node4" class="node goal">
<title>FSeller</title>
<path fill="#586e75" stroke="#586e75" d="M381.6,-36C381.6,-36 333.6,-36 333.6,-36 327.6,-36 321.6,-30 321.6,-24 321.6,-24 321.6,-12 321.6,-12 321.6,-6 327.6,0 333.6,0 333.6,0 381.6,0 381.6,0 387.6,0 393.6,-6 393.6,-12 393.6,-12 393.6,-24 393.6,-24 393.6,-30 387.6,-36 381.6,-36"/>
<text text-anchor="middle" x="357.6" y="-14.3" font-family="Inter,Arial" font-size="14.00" fill="#ffffff">F[Seller]</text>
</g>
<!-- Seller&#45;&gt;FSeller -->
<!-- FSeller&#45;&gt;Goal -->
<g id="edge6" class="edge goal">
<title>FSeller&#45;&gt;Goal</title>
<path fill="none" stroke="#586e75" stroke-width="2" d="M393.72,-18C403.39,-18 413.18,-18 420.36,-18"/>
<polygon fill="#586e75" stroke="#586e75" stroke-width="2" points="420.54,-21.5 430.54,-18 420.54,-14.5 420.54,-21.5"/>
</g>
<!-- UUID -->
<g id="node6" class="node">
<title>UUID</title>
<path fill="#ffffff" stroke="#586e75" d="M222.6,-108C222.6,-108 180.6,-108 180.6,-108 174.6,-108 168.6,-102 168.6,-96 168.6,-96 168.6,-84 168.6,-84 168.6,-78 174.6,-72 180.6,-72 180.6,-72 222.6,-72 222.6,-72 228.6,-72 234.6,-78 234.6,-84 234.6,-84 234.6,-96 234.6,-96 234.6,-102 228.6,-108 222.6,-108"/>
<text text-anchor="middle" x="201.6" y="-86.3" font-family="Inter,Arial" font-size="14.00" fill="#586e75">SellerId</text>
</g>
<!-- Item&#45;&gt;UUID -->
<g id="edge2" class="edge">
<title>Item&#45;&gt;UUID</title>
<path fill="none" stroke="#586e75" d="M94.68,-90C112.8,-90 137.36,-90 158.27,-90"/>
<polygon fill="#586e75" stroke="#586e75" points="158.51,-93.5 168.51,-90 158.51,-86.5 158.51,-93.5"/>
<text text-anchor="middle" x="131.6" y="-93.2" font-family="Inter,Arial" font-size="11.00" fill="#586e75">sellerId</text>
</g>
<!-- UUID&#45;&gt;Seller -->
<!-- UUID&#45;&gt;FSeller -->
<g id="edge4" class="edge">
<title>UUID&#45;&gt;FSeller</title>
<path fill="none" stroke="#586e75" d="M234.88,-74.91C257.33,-64.41 287.53,-50.29 312.24,-38.74"/>
<polygon fill="#586e75" stroke="#586e75" points="313.83,-41.86 321.41,-34.45 310.87,-35.52 313.83,-41.86"/>
<text text-anchor="middle" x="278.1" y="-67.2" font-family="Inter,Arial" font-size="11.00" fill="#586e75">loadSeller</text>
</g>
</g>
</svg>
