<?xml version="1.0" encoding="UTF-8" standalone="no"?>
<!DOCTYPE svg PUBLIC "-//W3C//DTD SVG 1.1//EN"
 "http://www.w3.org/Graphics/SVG/1.1/DTD/svg11.dtd">
<!-- Generated by graphviz version 2.43.0 (0)
 -->
<!-- Title: %3 Pages: 1 -->
<svg width="368pt" height="152pt"
 viewBox="0.00 0.00 368.00 152.00" xmlns="http://www.w3.org/2000/svg" xmlns:xlink="http://www.w3.org/1999/xlink">
<g id="graph0" class="graph" transform="scale(1 1) rotate(0) translate(4 148)">
<title>%3</title>
<!-- Item -->
<g id="node1" class="node">
<title>Item</title>
<path fill="#ffffff" stroke="#586e75" d="M178,-90C178,-90 148,-90 148,-90 142,-90 136,-84 136,-78 136,-78 136,-66 136,-66 136,-60 142,-54 148,-54 148,-54 178,-54 178,-54 184,-54 190,-60 190,-66 190,-66 190,-78 190,-78 190,-84 184,-90 178,-90"/>
<text text-anchor="middle" x="163" y="-68.3" font-family="Inter,Arial" font-size="14.00" fill="#586e75">Item</text>
</g>
<!-- Try -->
<!-- Item&#45;&gt;Try -->
<!-- Either -->
<!-- Item&#45;&gt;Either -->
<!-- Etc -->
<!-- Item&#45;&gt;Etc -->
<!-- Option -->
<g id="node2" class="node goal">
<title>Option</title>
<path fill="#586e75" stroke="#586e75" d="M88,-117C88,-117 12,-117 12,-117 6,-117 0,-111 0,-105 0,-105 0,-93 0,-93 0,-87 6,-81 12,-81 12,-81 88,-81 88,-81 94,-81 100,-87 100,-93 100,-93 100,-105 100,-105 100,-111 94,-117 88,-117"/>
<text text-anchor="middle" x="50" y="-95.3" font-family="Inter,Arial" font-size="14.00" fill="#ffffff">Option[Item]</text>
</g>
<!-- Option&#45;&gt;Item -->
<g id="edge1" class="edge">
<title>Option&#45;&gt;Item</title>
<path fill="none" stroke="#586e75" d="M109.87,-84.68C118.95,-82.47 127.91,-80.29 135.77,-78.38"/>
<polygon fill="#586e75" stroke="#586e75" points="108.9,-81.31 100.01,-87.08 110.55,-88.12 108.9,-81.31"/>
</g>
<!-- Future -->
<g id="node3" class="node goal">
<title>Future</title>
<path fill="#586e75" stroke="#586e75" d="M87.5,-63C87.5,-63 12.5,-63 12.5,-63 6.5,-63 0.5,-57 0.5,-51 0.5,-51 0.5,-39 0.5,-39 0.5,-33 6.5,-27 12.5,-27 12.5,-27 87.5,-27 87.5,-27 93.5,-27 99.5,-33 99.5,-39 99.5,-39 99.5,-51 99.5,-51 99.5,-57 93.5,-63 87.5,-63"/>
<text text-anchor="middle" x="50" y="-41.3" font-family="Inter,Arial" font-size="14.00" fill="#ffffff">Future[Item]</text>
</g>
<!-- Future&#45;&gt;Item -->
<g id="edge2" class="edge">
<title>Future&#45;&gt;Item</title>
<path fill="none" stroke="#586e75" d="M109.67,-59.27C118.87,-61.51 127.96,-63.72 135.91,-65.65"/>
<polygon fill="#586e75" stroke="#586e75" points="110.23,-55.81 99.69,-56.84 108.58,-62.61 110.23,-55.81"/>
</g>
</g>
</svg>
