<?xml version="1.0" encoding="UTF-8" standalone="no"?>
<!DOCTYPE svg PUBLIC "-//W3C//DTD SVG 1.1//EN"
 "http://www.w3.org/Graphics/SVG/1.1/DTD/svg11.dtd">
<!-- Generated by graphviz version 2.43.0 (0)
 -->
<!-- Title: %3 Pages: 1 -->
<svg width="368pt" height="152pt"
 viewBox="0.00 0.00 368.00 152.00" xmlns="http://www.w3.org/2000/svg" xmlns:xlink="http://www.w3.org/1999/xlink">
<g id="graph0" class="graph" transform="scale(1 1) rotate(0) translate(4 148)">
<title>%3</title>
<!-- Item -->
<g id="node1" class="node disabled">
<title>Item</title>
<path fill="#ffffff" stroke="#d0dce3" d="M178,-90C178,-90 148,-90 148,-90 142,-90 136,-84 136,-78 136,-78 136,-66 136,-66 136,-60 142,-54 148,-54 148,-54 178,-54 178,-54 184,-54 190,-60 190,-66 190,-66 190,-78 190,-78 190,-84 184,-90 178,-90"/>
<text text-anchor="middle" x="163" y="-68.3" font-family="Inter,Arial" font-size="14.00" fill="#d0dce3">Item</text>
</g>
<!-- Try -->
<g id="node4" class="node goal">
<title>Try</title>
<path fill="#586e75" stroke="#586e75" d="M319.5,-144C319.5,-144 266.5,-144 266.5,-144 260.5,-144 254.5,-138 254.5,-132 254.5,-132 254.5,-120 254.5,-120 254.5,-114 260.5,-108 266.5,-108 266.5,-108 319.5,-108 319.5,-108 325.5,-108 331.5,-114 331.5,-120 331.5,-120 331.5,-132 331.5,-132 331.5,-138 325.5,-144 319.5,-144"/>
<text text-anchor="middle" x="293" y="-122.3" font-family="Inter,Arial" font-size="14.00" fill="#ffffff">Try[Item]</text>
</g>
<!-- Item&#45;&gt;Try -->
<g id="edge3" class="edge disabled">
<title>Item&#45;&gt;Try</title>
<path fill="none" stroke="#d0dce3" d="M190.19,-83.56C201.22,-88.39 214.21,-94.02 226,-99 232.13,-101.59 238.6,-104.28 244.99,-106.92"/>
<polygon fill="#d0dce3" stroke="#d0dce3" points="243.67,-110.16 254.25,-110.72 246.33,-103.68 243.67,-110.16"/>
</g>
<!-- Either -->
<g id="node5" class="node goal,disabled">
<title>Either</title>
<path fill="#d0dce3" stroke="#d0dce3" d="M348,-90C348,-90 238,-90 238,-90 232,-90 226,-84 226,-78 226,-78 226,-66 226,-66 226,-60 232,-54 238,-54 238,-54 348,-54 348,-54 354,-54 360,-60 360,-66 360,-66 360,-78 360,-78 360,-84 354,-90 348,-90"/>
<text text-anchor="middle" x="293" y="-68.3" font-family="Inter,Arial" font-size="14.00" fill="#ffffff">Either[Error, Item]</text>
</g>
<!-- Item&#45;&gt;Either -->
<g id="edge4" class="edge disabled">
<title>Item&#45;&gt;Either</title>
<path fill="none" stroke="#d0dce3" d="M190.21,-72C197.89,-72 206.7,-72 215.86,-72"/>
<polygon fill="#d0dce3" stroke="#d0dce3" points="215.89,-75.5 225.89,-72 215.89,-68.5 215.89,-75.5"/>
</g>
<!-- Etc -->
<g id="node6" class="node goal,disabled">
<title>Etc</title>
<path fill="#d0dce3" stroke="#d0dce3" d="M308,-36C308,-36 278,-36 278,-36 272,-36 266,-30 266,-24 266,-24 266,-12 266,-12 266,-6 272,0 278,0 278,0 308,0 308,0 314,0 320,-6 320,-12 320,-12 320,-24 320,-24 320,-30 314,-36 308,-36"/>
<text text-anchor="middle" x="293" y="-14.3" font-family="Inter,Arial" font-size="14.00" fill="#ffffff">...</text>
</g>
<!-- Item&#45;&gt;Etc -->
<g id="edge5" class="edge disabled">
<title>Item&#45;&gt;Etc</title>
<path fill="none" stroke="#d0dce3" d="M190.19,-60.44C201.22,-55.61 214.21,-49.98 226,-45 235.84,-40.85 246.54,-36.43 256.4,-32.39"/>
<polygon fill="#d0dce3" stroke="#d0dce3" points="257.99,-35.53 265.93,-28.51 255.35,-29.04 257.99,-35.53"/>
</g>
<!-- Option -->
<g id="node2" class="node goal,disabled">
<title>Option</title>
<path fill="#d0dce3" stroke="#d0dce3" d="M88,-117C88,-117 12,-117 12,-117 6,-117 0,-111 0,-105 0,-105 0,-93 0,-93 0,-87 6,-81 12,-81 12,-81 88,-81 88,-81 94,-81 100,-87 100,-93 100,-93 100,-105 100,-105 100,-111 94,-117 88,-117"/>
<text text-anchor="middle" x="50" y="-95.3" font-family="Inter,Arial" font-size="14.00" fill="#ffffff">Option[Item]</text>
</g>
<!-- Option&#45;&gt;Item -->
<g id="edge1" class="edge disabled">
<title>Option&#45;&gt;Item</title>
<path fill="none" stroke="#d0dce3" d="M109.87,-84.68C118.95,-82.47 127.91,-80.29 135.77,-78.38"/>
<polygon fill="#d0dce3" stroke="#d0dce3" points="108.9,-81.31 100.01,-87.08 110.55,-88.12 108.9,-81.31"/>
</g>
<!-- Future -->
<g id="node3" class="node goal,disabled">
<title>Future</title>
<path fill="#d0dce3" stroke="#d0dce3" d="M87.5,-63C87.5,-63 12.5,-63 12.5,-63 6.5,-63 0.5,-57 0.5,-51 0.5,-51 0.5,-39 0.5,-39 0.5,-33 6.5,-27 12.5,-27 12.5,-27 87.5,-27 87.5,-27 93.5,-27 99.5,-33 99.5,-39 99.5,-39 99.5,-51 99.5,-51 99.5,-57 93.5,-63 87.5,-63"/>
<text text-anchor="middle" x="50" y="-41.3" font-family="Inter,Arial" font-size="14.00" fill="#ffffff">Future[Item]</text>
</g>
<!-- Future&#45;&gt;Item -->
<g id="edge2" class="edge disabled">
<title>Future&#45;&gt;Item</title>
<path fill="none" stroke="#d0dce3" d="M109.67,-59.27C118.87,-61.51 127.96,-63.72 135.91,-65.65"/>
<polygon fill="#d0dce3" stroke="#d0dce3" points="110.23,-55.81 99.69,-56.84 108.58,-62.61 110.23,-55.81"/>
</g>
</g>
</svg>
