<?xml version="1.0" encoding="UTF-8" standalone="no"?>
<!DOCTYPE svg PUBLIC "-//W3C//DTD SVG 1.1//EN"
 "http://www.w3.org/Graphics/SVG/1.1/DTD/svg11.dtd">
<!-- Generated by graphviz version 2.43.0 (0)
 -->
<!-- Title: %3 Pages: 1 -->
<svg width="334pt" height="148pt"
 viewBox="0.00 0.00 334.20 148.00" xmlns="http://www.w3.org/2000/svg" xmlns:xlink="http://www.w3.org/1999/xlink">
<g id="graph0" class="graph" transform="scale(1 1) rotate(0) translate(4 144)">
<title>%3</title>
<!-- Start -->
<!-- FAB -->
<g id="node3" class="node start,disabled">
<title>FAB</title>
<path fill="#d0dce3" stroke="#d0dce3" d="M101.6,-140C101.6,-140 52.6,-140 52.6,-140 46.6,-140 40.6,-134 40.6,-128 40.6,-128 40.6,-100 40.6,-100 40.6,-94 46.6,-88 52.6,-88 52.6,-88 101.6,-88 101.6,-88 107.6,-88 113.6,-94 113.6,-100 113.6,-100 113.6,-128 113.6,-128 113.6,-134 107.6,-140 101.6,-140"/>
<text text-anchor="start" x="53.1" y="-120.8" font-family="Inter,Arial" font-size="14.00" fill="#ffffff">F[Item]</text>
<text text-anchor="start" x="53.1" y="-99.8" font-family="Inter,Arial" font-size="14.00" fill="#ffffff">F[Item]</text>
</g>
<!-- Start&#45;&gt;FAB -->
<g id="edge5" class="edge start,disabled">
<title>Start&#45;&gt;FAB</title>
<path fill="none" stroke="#d0dce3" stroke-width="2" d="M3.62,-114C6.65,-114 17.65,-114 30.2,-114"/>
<polygon fill="#d0dce3" stroke="#d0dce3" stroke-width="2" points="30.47,-117.5 40.47,-114 30.47,-110.5 30.47,-117.5"/>
</g>
<!-- Goal -->
<!-- FC -->
<g id="node4" class="node goal">
<title>FC</title>
<path fill="#586e75" stroke="#586e75" d="M273.6,-132C273.6,-132 232.6,-132 232.6,-132 226.6,-132 220.6,-126 220.6,-120 220.6,-120 220.6,-108 220.6,-108 220.6,-102 226.6,-96 232.6,-96 232.6,-96 273.6,-96 273.6,-96 279.6,-96 285.6,-102 285.6,-108 285.6,-108 285.6,-120 285.6,-120 285.6,-126 279.6,-132 273.6,-132"/>
<text text-anchor="middle" x="253.1" y="-110.3" font-family="Inter,Arial" font-size="14.00" fill="#ffffff">F[Item]</text>
</g>
<!-- FAB&#45;&gt;FC -->
<!-- AB -->
<!-- FAB&#45;&gt;AB -->
<!-- FC&#45;&gt;Goal -->
<g id="edge6" class="edge goal">
<title>FC&#45;&gt;Goal</title>
<path fill="none" stroke="#586e75" stroke-width="2" d="M285.91,-114C295.38,-114 305.12,-114 312.31,-114"/>
<polygon fill="#586e75" stroke="#586e75" stroke-width="2" points="312.54,-117.5 322.54,-114 312.54,-110.5 312.54,-117.5"/>
</g>
<!-- C -->
<!-- FC&#45;&gt;C -->
<!-- AB&#45;&gt;C -->
</g>
</svg>
