<?xml version="1.0" encoding="UTF-8" standalone="no"?>
<!DOCTYPE svg PUBLIC "-//W3C//DTD SVG 1.1//EN"
 "http://www.w3.org/Graphics/SVG/1.1/DTD/svg11.dtd">
<!-- Generated by graphviz version 2.43.0 (0)
 -->
<!-- Title: %3 Pages: 1 -->
<svg width="347pt" height="116pt"
 viewBox="0.00 0.00 347.20 116.00" xmlns="http://www.w3.org/2000/svg" xmlns:xlink="http://www.w3.org/1999/xlink">
<g id="graph0" class="graph" transform="scale(1 1) rotate(0) translate(4 112)">
<title>%3</title>
<!-- Start -->
<!-- FA -->
<g id="node3" class="node start">
<title>FA</title>
<path fill="#586e75" stroke="#586e75" d="M93.6,-108C93.6,-108 52.6,-108 52.6,-108 46.6,-108 40.6,-102 40.6,-96 40.6,-96 40.6,-84 40.6,-84 40.6,-78 46.6,-72 52.6,-72 52.6,-72 93.6,-72 93.6,-72 99.6,-72 105.6,-78 105.6,-84 105.6,-84 105.6,-96 105.6,-96 105.6,-102 99.6,-108 93.6,-108"/>
<text text-anchor="middle" x="73.1" y="-86.3" font-family="Inter,Arial" font-size="14.00" fill="#ffffff">F[Item]</text>
</g>
<!-- Start&#45;&gt;FA -->
<g id="edge5" class="edge start">
<title>Start&#45;&gt;FA</title>
<path fill="none" stroke="#586e75" stroke-width="2" d="M3.78,-90C7.02,-90 17.87,-90 30,-90"/>
<polygon fill="#586e75" stroke="#586e75" stroke-width="2" points="30.35,-93.5 40.35,-90 30.35,-86.5 30.35,-93.5"/>
</g>
<!-- Goal -->
<!-- FB -->
<g id="node4" class="node goal">
<title>FB</title>
<path fill="#586e75" stroke="#586e75" d="M286.6,-108C286.6,-108 221.6,-108 221.6,-108 215.6,-108 209.6,-102 209.6,-96 209.6,-96 209.6,-84 209.6,-84 209.6,-78 215.6,-72 221.6,-72 221.6,-72 286.6,-72 286.6,-72 292.6,-72 298.6,-78 298.6,-84 298.6,-84 298.6,-96 298.6,-96 298.6,-102 292.6,-108 286.6,-108"/>
<text text-anchor="middle" x="254.1" y="-86.3" font-family="Inter,Arial" font-size="14.00" fill="#ffffff">F[Boolean]</text>
</g>
<!-- FA&#45;&gt;FB -->
<!-- A -->
<g id="node5" class="node">
<title>A</title>
<path fill="#ffffff" stroke="#586e75" d="M88.1,-36C88.1,-36 58.1,-36 58.1,-36 52.1,-36 46.1,-30 46.1,-24 46.1,-24 46.1,-12 46.1,-12 46.1,-6 52.1,0 58.1,0 58.1,0 88.1,0 88.1,0 94.1,0 100.1,-6 100.1,-12 100.1,-12 100.1,-24 100.1,-24 100.1,-30 94.1,-36 88.1,-36"/>
<text text-anchor="middle" x="73.1" y="-14.3" font-family="Inter,Arial" font-size="14.00" fill="#586e75">Item</text>
</g>
<!-- FA&#45;&gt;A -->
<!-- FB&#45;&gt;Goal -->
<g id="edge6" class="edge goal">
<title>FB&#45;&gt;Goal</title>
<path fill="none" stroke="#586e75" stroke-width="2" d="M298.61,-90C308.65,-90 318.46,-90 325.56,-90"/>
<polygon fill="#586e75" stroke="#586e75" stroke-width="2" points="325.57,-93.5 335.57,-90 325.57,-86.5 325.57,-93.5"/>
</g>
<!-- B -->
<g id="node6" class="node">
<title>B</title>
<path fill="#ffffff" stroke="#586e75" d="M277.1,-36C277.1,-36 231.1,-36 231.1,-36 225.1,-36 219.1,-30 219.1,-24 219.1,-24 219.1,-12 219.1,-12 219.1,-6 225.1,0 231.1,0 231.1,0 277.1,0 277.1,0 283.1,0 289.1,-6 289.1,-12 289.1,-12 289.1,-24 289.1,-24 289.1,-30 283.1,-36 277.1,-36"/>
<text text-anchor="middle" x="254.1" y="-14.3" font-family="Inter,Arial" font-size="14.00" fill="#586e75">Boolean</text>
</g>
<!-- FB&#45;&gt;B -->
<!-- A&#45;&gt;B -->
<g id="edge3" class="edge">
<title>A&#45;&gt;B</title>
<path fill="none" stroke="#586e75" d="M100.13,-18C128.6,-18 174.72,-18 208.89,-18"/>
<polygon fill="#586e75" stroke="#586e75" points="209.08,-21.5 219.08,-18 209.08,-14.5 209.08,-21.5"/>
<text text-anchor="middle" x="157.6" y="-21.2" font-family="Inter,Arial" font-size="11.00" fill="#586e75">affordable</text>
</g>
</g>
</svg>
