<?xml version="1.0" encoding="UTF-8" standalone="no"?>
<!DOCTYPE svg PUBLIC "-//W3C//DTD SVG 1.1//EN"
 "http://www.w3.org/Graphics/SVG/1.1/DTD/svg11.dtd">
<!-- Generated by graphviz version 2.43.0 (0)
 -->
<!-- Title: %3 Pages: 1 -->
<svg width="334pt" height="148pt"
 viewBox="0.00 0.00 334.20 148.00" xmlns="http://www.w3.org/2000/svg" xmlns:xlink="http://www.w3.org/1999/xlink">
<g id="graph0" class="graph" transform="scale(1 1) rotate(0) translate(4 144)">
<title>%3</title>
<!-- Start -->
<!-- FAB -->
<g id="node3" class="node start,disabled">
<title>FAB</title>
<path fill="#d0dce3" stroke="#d0dce3" d="M101.6,-140C101.6,-140 52.6,-140 52.6,-140 46.6,-140 40.6,-134 40.6,-128 40.6,-128 40.6,-100 40.6,-100 40.6,-94 46.6,-88 52.6,-88 52.6,-88 101.6,-88 101.6,-88 107.6,-88 113.6,-94 113.6,-100 113.6,-100 113.6,-128 113.6,-128 113.6,-134 107.6,-140 101.6,-140"/>
<text text-anchor="start" x="53.1" y="-120.8" font-family="Inter,Arial" font-size="14.00" fill="#ffffff">F[Item]</text>
<text text-anchor="start" x="53.1" y="-99.8" font-family="Inter,Arial" font-size="14.00" fill="#ffffff">F[Item]</text>
</g>
<!-- Start&#45;&gt;FAB -->
<g id="edge5" class="edge start,disabled">
<title>Start&#45;&gt;FAB</title>
<path fill="none" stroke="#d0dce3" stroke-width="2" d="M3.62,-114C6.65,-114 17.65,-114 30.2,-114"/>
<polygon fill="#d0dce3" stroke="#d0dce3" stroke-width="2" points="30.47,-117.5 40.47,-114 30.47,-110.5 30.47,-117.5"/>
</g>
<!-- Goal -->
<!-- FC -->
<g id="node4" class="node goal,disabled">
<title>FC</title>
<path fill="#d0dce3" stroke="#d0dce3" d="M273.6,-132C273.6,-132 232.6,-132 232.6,-132 226.6,-132 220.6,-126 220.6,-120 220.6,-120 220.6,-108 220.6,-108 220.6,-102 226.6,-96 232.6,-96 232.6,-96 273.6,-96 273.6,-96 279.6,-96 285.6,-102 285.6,-108 285.6,-108 285.6,-120 285.6,-120 285.6,-126 279.6,-132 273.6,-132"/>
<text text-anchor="middle" x="253.1" y="-110.3" font-family="Inter,Arial" font-size="14.00" fill="#ffffff">F[Item]</text>
</g>
<!-- FAB&#45;&gt;FC -->
<!-- AB -->
<g id="node5" class="node">
<title>AB</title>
<path fill="#ffffff" stroke="#586e75" d="M92.1,-52C92.1,-52 62.1,-52 62.1,-52 56.1,-52 50.1,-46 50.1,-40 50.1,-40 50.1,-12 50.1,-12 50.1,-6 56.1,0 62.1,0 62.1,0 92.1,0 92.1,0 98.1,0 104.1,-6 104.1,-12 104.1,-12 104.1,-40 104.1,-40 104.1,-46 98.1,-52 92.1,-52"/>
<text text-anchor="start" x="62.1" y="-32.8" font-family="Inter,Arial" font-size="14.00" fill="#586e75">Item</text>
<text text-anchor="start" x="62.1" y="-11.8" font-family="Inter,Arial" font-size="14.00" fill="#586e75">Item</text>
</g>
<!-- FAB&#45;&gt;AB -->
<!-- FC&#45;&gt;Goal -->
<g id="edge6" class="edge goal,disabled">
<title>FC&#45;&gt;Goal</title>
<path fill="none" stroke="#d0dce3" stroke-width="2" d="M285.91,-114C295.38,-114 305.12,-114 312.31,-114"/>
<polygon fill="#d0dce3" stroke="#d0dce3" stroke-width="2" points="312.54,-117.5 322.54,-114 312.54,-110.5 312.54,-117.5"/>
</g>
<!-- C -->
<g id="node6" class="node">
<title>C</title>
<path fill="#ffffff" stroke="#586e75" d="M268.1,-44C268.1,-44 238.1,-44 238.1,-44 232.1,-44 226.1,-38 226.1,-32 226.1,-32 226.1,-20 226.1,-20 226.1,-14 232.1,-8 238.1,-8 238.1,-8 268.1,-8 268.1,-8 274.1,-8 280.1,-14 280.1,-20 280.1,-20 280.1,-32 280.1,-32 280.1,-38 274.1,-44 268.1,-44"/>
<text text-anchor="middle" x="253.1" y="-22.3" font-family="Inter,Arial" font-size="14.00" fill="#586e75">Item</text>
</g>
<!-- FC&#45;&gt;C -->
<!-- AB&#45;&gt;C -->
<g id="edge3" class="edge">
<title>AB&#45;&gt;C</title>
<path fill="none" stroke="#586e75" d="M104.15,-26C133.75,-26 182.26,-26 215.62,-26"/>
<polygon fill="#586e75" stroke="#586e75" points="215.87,-29.5 225.87,-26 215.87,-22.5 215.87,-29.5"/>
<text text-anchor="middle" x="167.1" y="-29.2" font-family="Inter,Arial" font-size="11.00" fill="#586e75">cheapest</text>
</g>
</g>
</svg>
