<?xml version="1.0" encoding="UTF-8" standalone="no"?>
<!DOCTYPE svg PUBLIC "-//W3C//DTD SVG 1.1//EN"
 "http://www.w3.org/Graphics/SVG/1.1/DTD/svg11.dtd">
<!-- Generated by graphviz version 2.43.0 (0)
 -->
<!-- Title: %3 Pages: 1 -->
<svg width="492pt" height="116pt"
 viewBox="0.00 0.00 492.20 116.00" xmlns="http://www.w3.org/2000/svg" xmlns:xlink="http://www.w3.org/1999/xlink">
<g id="graph0" class="graph" transform="scale(1 1) rotate(0) translate(4 112)">
<title>%3</title>
<!-- Start -->
<!-- FAs -->
<g id="node5" class="node start">
<title>FAs</title>
<path fill="#586e75" stroke="#586e75" d="M127.6,-108C127.6,-108 52.6,-108 52.6,-108 46.6,-108 40.6,-102 40.6,-96 40.6,-96 40.6,-84 40.6,-84 40.6,-78 46.6,-72 52.6,-72 52.6,-72 127.6,-72 127.6,-72 133.6,-72 139.6,-78 139.6,-84 139.6,-84 139.6,-96 139.6,-96 139.6,-102 133.6,-108 127.6,-108"/>
<text text-anchor="middle" x="90.1" y="-86.3" font-family="Inter,Arial" font-size="14.00" fill="#ffffff">List[F[Item]]</text>
</g>
<!-- Start&#45;&gt;FAs -->
<g id="edge6" class="edge start">
<title>Start&#45;&gt;FAs</title>
<path fill="none" stroke="#586e75" stroke-width="2" d="M3.77,-90C6.96,-90 17.64,-90 30.43,-90"/>
<polygon fill="#586e75" stroke="#586e75" stroke-width="2" points="30.53,-93.5 40.53,-90 30.53,-86.5 30.53,-93.5"/>
</g>
<!-- Goal -->
<!-- FInt -->
<g id="node3" class="node goal">
<title>FInt</title>
<path fill="#586e75" stroke="#586e75" d="M431.6,-108C431.6,-108 401.6,-108 401.6,-108 395.6,-108 389.6,-102 389.6,-96 389.6,-96 389.6,-84 389.6,-84 389.6,-78 395.6,-72 401.6,-72 401.6,-72 431.6,-72 431.6,-72 437.6,-72 443.6,-78 443.6,-84 443.6,-84 443.6,-96 443.6,-96 443.6,-102 437.6,-108 431.6,-108"/>
<text text-anchor="middle" x="416.6" y="-86.3" font-family="Inter,Arial" font-size="14.00" fill="#ffffff">F[Int]</text>
</g>
<!-- FInt&#45;&gt;Goal -->
<g id="edge7" class="edge goal">
<title>FInt&#45;&gt;Goal</title>
<path fill="none" stroke="#586e75" stroke-width="2" d="M443.92,-90C453.17,-90 463.07,-90 470.37,-90"/>
<polygon fill="#586e75" stroke="#586e75" stroke-width="2" points="470.51,-93.5 480.51,-90 470.51,-86.5 470.51,-93.5"/>
</g>
<!-- Int -->
<g id="node7" class="node">
<title>Int</title>
<path fill="#ffffff" stroke="#586e75" d="M431.6,-36C431.6,-36 401.6,-36 401.6,-36 395.6,-36 389.6,-30 389.6,-24 389.6,-24 389.6,-12 389.6,-12 389.6,-6 395.6,0 401.6,0 401.6,0 431.6,0 431.6,0 437.6,0 443.6,-6 443.6,-12 443.6,-12 443.6,-24 443.6,-24 443.6,-30 437.6,-36 431.6,-36"/>
<text text-anchor="middle" x="416.6" y="-14.3" font-family="Inter,Arial" font-size="14.00" fill="#586e75">Int</text>
</g>
<!-- FInt&#45;&gt;Int -->
<g id="edge1" class="edge lift">
<title>FInt&#45;&gt;Int</title>
<path fill="none" stroke="#586e75" stroke-dasharray="5,2" d="M416.6,-61.58C416.6,-53.03 416.6,-43.87 416.6,-36.17"/>
<polygon fill="#586e75" stroke="#586e75" points="413.1,-61.59 416.6,-71.59 420.1,-61.59 413.1,-61.59"/>
<text text-anchor="middle" x="407.6" y="-51.2" font-family="Inter,Arial" font-size="11.00" fill="#586e75">lift</text>
</g>
<!-- FList -->
<g id="node4" class="node">
<title>FList</title>
<path fill="#ffffff" stroke="#586e75" d="M278.6,-108C278.6,-108 203.6,-108 203.6,-108 197.6,-108 191.6,-102 191.6,-96 191.6,-96 191.6,-84 191.6,-84 191.6,-78 197.6,-72 203.6,-72 203.6,-72 278.6,-72 278.6,-72 284.6,-72 290.6,-78 290.6,-84 290.6,-84 290.6,-96 290.6,-96 290.6,-102 284.6,-108 278.6,-108"/>
<text text-anchor="middle" x="241.1" y="-86.3" font-family="Inter,Arial" font-size="14.00" fill="#586e75">F[List[Item]]</text>
</g>
<!-- FList&#45;&gt;FInt -->
<g id="edge5" class="edge">
<title>FList&#45;&gt;FInt</title>
<path fill="none" stroke="#586e75" d="M290.89,-90C318.9,-90 353.5,-90 379.14,-90"/>
<polygon fill="#586e75" stroke="#586e75" points="379.18,-93.5 389.18,-90 379.18,-86.5 379.18,-93.5"/>
<text text-anchor="middle" x="340.1" y="-93.2" font-family="Inter,Arial" font-size="11.00" fill="#586e75">totalCost.lift</text>
</g>
<!-- As -->
<g id="node6" class="node">
<title>As</title>
<path fill="#ffffff" stroke="#586e75" d="M269.1,-36C269.1,-36 213.1,-36 213.1,-36 207.1,-36 201.1,-30 201.1,-24 201.1,-24 201.1,-12 201.1,-12 201.1,-6 207.1,0 213.1,0 213.1,0 269.1,0 269.1,0 275.1,0 281.1,-6 281.1,-12 281.1,-12 281.1,-24 281.1,-24 281.1,-30 275.1,-36 269.1,-36"/>
<text text-anchor="middle" x="241.1" y="-14.3" font-family="Inter,Arial" font-size="14.00" fill="#586e75">List[Item]</text>
</g>
<!-- FList&#45;&gt;As -->
<g id="edge2" class="edge lift">
<title>FList&#45;&gt;As</title>
<path fill="none" stroke="#586e75" stroke-dasharray="5,2" d="M241.1,-61.58C241.1,-53.03 241.1,-43.87 241.1,-36.17"/>
<polygon fill="#586e75" stroke="#586e75" points="237.6,-61.59 241.1,-71.59 244.6,-61.59 237.6,-61.59"/>
<text text-anchor="middle" x="232.1" y="-51.2" font-family="Inter,Arial" font-size="11.00" fill="#586e75">lift</text>
</g>
<!-- FAs&#45;&gt;FList -->
<g id="edge4" class="edge">
<title>FAs&#45;&gt;FList</title>
<path fill="none" stroke="#586e75" d="M139.89,-90C153.08,-90 167.49,-90 181.17,-90"/>
<polygon fill="#586e75" stroke="#586e75" points="181.46,-93.5 191.46,-90 181.46,-86.5 181.46,-93.5"/>
<text text-anchor="middle" x="165.6" y="-93.2" font-family="Inter,Arial" font-size="11.00" fill="#586e75">flip</text>
</g>
<!-- As&#45;&gt;Int -->
<g id="edge3" class="edge">
<title>As&#45;&gt;Int</title>
<path fill="none" stroke="#586e75" d="M281.47,-18C310.81,-18 350.59,-18 379.2,-18"/>
<polygon fill="#586e75" stroke="#586e75" points="379.57,-21.5 389.57,-18 379.57,-14.5 379.57,-21.5"/>
<text text-anchor="middle" x="340.1" y="-21.2" font-family="Inter,Arial" font-size="11.00" fill="#586e75">totalCost</text>
</g>
</g>
</svg>
