<?xml version="1.0" encoding="UTF-8" standalone="no"?>
<!DOCTYPE svg PUBLIC "-//W3C//DTD SVG 1.1//EN"
 "http://www.w3.org/Graphics/SVG/1.1/DTD/svg11.dtd">
<!-- Generated by graphviz version 2.43.0 (0)
 -->
<!-- Title: %3 Pages: 1 -->
<svg width="492pt" height="116pt"
 viewBox="0.00 0.00 492.20 116.00" xmlns="http://www.w3.org/2000/svg" xmlns:xlink="http://www.w3.org/1999/xlink">
<g id="graph0" class="graph" transform="scale(1 1) rotate(0) translate(4 112)">
<title>%3</title>
<!-- Start -->
<!-- FAs -->
<g id="node5" class="node start,disabled">
<title>FAs</title>
<path fill="#d0dce3" stroke="#d0dce3" d="M127.6,-108C127.6,-108 52.6,-108 52.6,-108 46.6,-108 40.6,-102 40.6,-96 40.6,-96 40.6,-84 40.6,-84 40.6,-78 46.6,-72 52.6,-72 52.6,-72 127.6,-72 127.6,-72 133.6,-72 139.6,-78 139.6,-84 139.6,-84 139.6,-96 139.6,-96 139.6,-102 133.6,-108 127.6,-108"/>
<text text-anchor="middle" x="90.1" y="-86.3" font-family="Inter,Arial" font-size="14.00" fill="#ffffff">List[F[Item]]</text>
</g>
<!-- Start&#45;&gt;FAs -->
<g id="edge6" class="edge start,disabled">
<title>Start&#45;&gt;FAs</title>
<path fill="none" stroke="#d0dce3" stroke-width="2" d="M3.77,-90C6.96,-90 17.64,-90 30.43,-90"/>
<polygon fill="#d0dce3" stroke="#d0dce3" stroke-width="2" points="30.53,-93.5 40.53,-90 30.53,-86.5 30.53,-93.5"/>
</g>
<!-- Goal -->
<!-- FInt -->
<g id="node3" class="node goal,disabled">
<title>FInt</title>
<path fill="#d0dce3" stroke="#d0dce3" d="M431.6,-108C431.6,-108 401.6,-108 401.6,-108 395.6,-108 389.6,-102 389.6,-96 389.6,-96 389.6,-84 389.6,-84 389.6,-78 395.6,-72 401.6,-72 401.6,-72 431.6,-72 431.6,-72 437.6,-72 443.6,-78 443.6,-84 443.6,-84 443.6,-96 443.6,-96 443.6,-102 437.6,-108 431.6,-108"/>
<text text-anchor="middle" x="416.6" y="-86.3" font-family="Inter,Arial" font-size="14.00" fill="#ffffff">F[Int]</text>
</g>
<!-- FInt&#45;&gt;Goal -->
<g id="edge7" class="edge goal,disabled">
<title>FInt&#45;&gt;Goal</title>
<path fill="none" stroke="#d0dce3" stroke-width="2" d="M443.92,-90C453.17,-90 463.07,-90 470.37,-90"/>
<polygon fill="#d0dce3" stroke="#d0dce3" stroke-width="2" points="470.51,-93.5 480.51,-90 470.51,-86.5 470.51,-93.5"/>
</g>
<!-- Int -->
<g id="node7" class="node">
<title>Int</title>
<path fill="#ffffff" stroke="#586e75" d="M431.6,-36C431.6,-36 401.6,-36 401.6,-36 395.6,-36 389.6,-30 389.6,-24 389.6,-24 389.6,-12 389.6,-12 389.6,-6 395.6,0 401.6,0 401.6,0 431.6,0 431.6,0 437.6,0 443.6,-6 443.6,-12 443.6,-12 443.6,-24 443.6,-24 443.6,-30 437.6,-36 431.6,-36"/>
<text text-anchor="middle" x="416.6" y="-14.3" font-family="Inter,Arial" font-size="14.00" fill="#586e75">Int</text>
</g>
<!-- FInt&#45;&gt;Int -->
<!-- FList -->
<!-- FList&#45;&gt;FInt -->
<!-- As -->
<g id="node6" class="node">
<title>As</title>
<path fill="#ffffff" stroke="#586e75" d="M269.1,-36C269.1,-36 213.1,-36 213.1,-36 207.1,-36 201.1,-30 201.1,-24 201.1,-24 201.1,-12 201.1,-12 201.1,-6 207.1,0 213.1,0 213.1,0 269.1,0 269.1,0 275.1,0 281.1,-6 281.1,-12 281.1,-12 281.1,-24 281.1,-24 281.1,-30 275.1,-36 269.1,-36"/>
<text text-anchor="middle" x="241.1" y="-14.3" font-family="Inter,Arial" font-size="14.00" fill="#586e75">List[Item]</text>
</g>
<!-- FList&#45;&gt;As -->
<!-- FAs&#45;&gt;FList -->
<!-- As&#45;&gt;Int -->
<g id="edge3" class="edge">
<title>As&#45;&gt;Int</title>
<path fill="none" stroke="#586e75" d="M281.47,-18C310.81,-18 350.59,-18 379.2,-18"/>
<polygon fill="#586e75" stroke="#586e75" points="379.57,-21.5 389.57,-18 379.57,-14.5 379.57,-21.5"/>
<text text-anchor="middle" x="340.1" y="-21.2" font-family="Inter,Arial" font-size="11.00" fill="#586e75">totalCost</text>
</g>
</g>
</svg>
