<?xml version="1.0" encoding="UTF-8" standalone="no"?>
<!DOCTYPE svg PUBLIC "-//W3C//DTD SVG 1.1//EN"
 "http://www.w3.org/Graphics/SVG/1.1/DTD/svg11.dtd">
<!-- Generated by graphviz version 2.43.0 (0)
 -->
<!-- Title: %3 Pages: 1 -->
<svg width="492pt" height="116pt"
 viewBox="0.00 0.00 492.20 116.00" xmlns="http://www.w3.org/2000/svg" xmlns:xlink="http://www.w3.org/1999/xlink">
<g id="graph0" class="graph" transform="scale(1 1) rotate(0) translate(4 112)">
<title>%3</title>
<!-- Start -->
<!-- FAs -->
<g id="node5" class="node start">
<title>FAs</title>
<path fill="#586e75" stroke="#586e75" d="M127.6,-108C127.6,-108 52.6,-108 52.6,-108 46.6,-108 40.6,-102 40.6,-96 40.6,-96 40.6,-84 40.6,-84 40.6,-78 46.6,-72 52.6,-72 52.6,-72 127.6,-72 127.6,-72 133.6,-72 139.6,-78 139.6,-84 139.6,-84 139.6,-96 139.6,-96 139.6,-102 133.6,-108 127.6,-108"/>
<text text-anchor="middle" x="90.1" y="-86.3" font-family="Inter,Arial" font-size="14.00" fill="#ffffff">List[F[Item]]</text>
</g>
<!-- Start&#45;&gt;FAs -->
<g id="edge6" class="edge start">
<title>Start&#45;&gt;FAs</title>
<path fill="none" stroke="#586e75" stroke-width="2" d="M3.77,-90C6.96,-90 17.64,-90 30.43,-90"/>
<polygon fill="#586e75" stroke="#586e75" stroke-width="2" points="30.53,-93.5 40.53,-90 30.53,-86.5 30.53,-93.5"/>
</g>
<!-- Goal -->
<!-- FInt -->
<!-- FInt&#45;&gt;Goal -->
<!-- Int -->
<!-- FInt&#45;&gt;Int -->
<!-- FList -->
<!-- FList&#45;&gt;FInt -->
<!-- As -->
<!-- FList&#45;&gt;As -->
<!-- FAs&#45;&gt;FList -->
<!-- As&#45;&gt;Int -->
</g>
</svg>
