<?xml version="1.0" encoding="UTF-8" standalone="no"?>
<!DOCTYPE svg PUBLIC "-//W3C//DTD SVG 1.1//EN"
 "http://www.w3.org/Graphics/SVG/1.1/DTD/svg11.dtd">
<!-- Generated by graphviz version 2.43.0 (0)
 -->
<!-- Title: %3 Pages: 1 -->
<svg width="1232pt" height="188pt"
 viewBox="0.00 0.00 1232.20 188.00" xmlns="http://www.w3.org/2000/svg" xmlns:xlink="http://www.w3.org/1999/xlink">
<g id="graph0" class="graph" transform="scale(1 1) rotate(0) translate(4 184)">
<title>%3</title>
<!-- Start -->
<!-- FItem -->
<g id="node3" class="node start">
<title>FItem</title>
<path fill="#586e75" stroke="#586e75" d="M93.6,-180C93.6,-180 52.6,-180 52.6,-180 46.6,-180 40.6,-174 40.6,-168 40.6,-168 40.6,-156 40.6,-156 40.6,-150 46.6,-144 52.6,-144 52.6,-144 93.6,-144 93.6,-144 99.6,-144 105.6,-150 105.6,-156 105.6,-156 105.6,-168 105.6,-168 105.6,-174 99.6,-180 93.6,-180"/>
<text text-anchor="middle" x="73.1" y="-158.3" font-family="Inter,Arial" font-size="14.00" fill="#ffffff">F[Item]</text>
</g>
<!-- Start&#45;&gt;FItem -->
<g id="edge16" class="edge start">
<title>Start&#45;&gt;FItem</title>
<path fill="none" stroke="#586e75" stroke-width="2" d="M3.78,-162C7.02,-162 17.87,-162 30,-162"/>
<polygon fill="#586e75" stroke="#586e75" stroke-width="2" points="30.35,-165.5 40.35,-162 30.35,-158.5 30.35,-165.5"/>
</g>
<!-- Goal -->
<!-- FSeller -->
<g id="node4" class="node">
<title>FSeller</title>
<path fill="#ffffff" stroke="#586e75" d="M392.6,-180C392.6,-180 344.6,-180 344.6,-180 338.6,-180 332.6,-174 332.6,-168 332.6,-168 332.6,-156 332.6,-156 332.6,-150 338.6,-144 344.6,-144 344.6,-144 392.6,-144 392.6,-144 398.6,-144 404.6,-150 404.6,-156 404.6,-156 404.6,-168 404.6,-168 404.6,-174 398.6,-180 392.6,-180"/>
<text text-anchor="middle" x="368.6" y="-158.3" font-family="Inter,Arial" font-size="14.00" fill="#586e75">F[Seller]</text>
</g>
<!-- FItem&#45;&gt;FSeller -->
<!-- Item -->
<g id="node7" class="node">
<title>Item</title>
<path fill="#ffffff" stroke="#586e75" d="M88.1,-108C88.1,-108 58.1,-108 58.1,-108 52.1,-108 46.1,-102 46.1,-96 46.1,-96 46.1,-84 46.1,-84 46.1,-78 52.1,-72 58.1,-72 58.1,-72 88.1,-72 88.1,-72 94.1,-72 100.1,-78 100.1,-84 100.1,-84 100.1,-96 100.1,-96 100.1,-102 94.1,-108 88.1,-108"/>
<text text-anchor="middle" x="73.1" y="-86.3" font-family="Inter,Arial" font-size="14.00" fill="#586e75">Item</text>
</g>
<!-- FItem&#45;&gt;Item -->
<!-- FListReview -->
<!-- FSeller&#45;&gt;FListReview -->
<!-- Seller -->
<g id="node9" class="node">
<title>Seller</title>
<path fill="#ffffff" stroke="#586e75" d="M383.6,-108C383.6,-108 353.6,-108 353.6,-108 347.6,-108 341.6,-102 341.6,-96 341.6,-96 341.6,-84 341.6,-84 341.6,-78 347.6,-72 353.6,-72 353.6,-72 383.6,-72 383.6,-72 389.6,-72 395.6,-78 395.6,-84 395.6,-84 395.6,-96 395.6,-96 395.6,-102 389.6,-108 383.6,-108"/>
<text text-anchor="middle" x="368.6" y="-86.3" font-family="Inter,Arial" font-size="14.00" fill="#586e75">Seller</text>
</g>
<!-- FSeller&#45;&gt;Seller -->
<!-- FBoolean -->
<g id="node5" class="node goal">
<title>FBoolean</title>
<path fill="#586e75" stroke="#586e75" d="M1171.6,-180C1171.6,-180 1106.6,-180 1106.6,-180 1100.6,-180 1094.6,-174 1094.6,-168 1094.6,-168 1094.6,-156 1094.6,-156 1094.6,-150 1100.6,-144 1106.6,-144 1106.6,-144 1171.6,-144 1171.6,-144 1177.6,-144 1183.6,-150 1183.6,-156 1183.6,-156 1183.6,-168 1183.6,-168 1183.6,-174 1177.6,-180 1171.6,-180"/>
<text text-anchor="middle" x="1139.1" y="-158.3" font-family="Inter,Arial" font-size="14.00" fill="#ffffff">F[Boolean]</text>
</g>
<!-- FBoolean&#45;&gt;Goal -->
<g id="edge17" class="edge goal">
<title>FBoolean&#45;&gt;Goal</title>
<path fill="none" stroke="#586e75" stroke-width="2" d="M1183.61,-162C1193.65,-162 1203.46,-162 1210.56,-162"/>
<polygon fill="#586e75" stroke="#586e75" stroke-width="2" points="1210.57,-165.5 1220.57,-162 1210.57,-158.5 1210.57,-165.5"/>
</g>
<!-- Boolean -->
<g id="node12" class="node">
<title>Boolean</title>
<path fill="#ffffff" stroke="#586e75" d="M1162.1,-108C1162.1,-108 1116.1,-108 1116.1,-108 1110.1,-108 1104.1,-102 1104.1,-96 1104.1,-96 1104.1,-84 1104.1,-84 1104.1,-78 1110.1,-72 1116.1,-72 1116.1,-72 1162.1,-72 1162.1,-72 1168.1,-72 1174.1,-78 1174.1,-84 1174.1,-84 1174.1,-96 1174.1,-96 1174.1,-102 1168.1,-108 1162.1,-108"/>
<text text-anchor="middle" x="1139.1" y="-86.3" font-family="Inter,Arial" font-size="14.00" fill="#586e75">Boolean</text>
</g>
<!-- FBoolean&#45;&gt;Boolean -->
<!-- FListReview&#45;&gt;FBoolean -->
<!-- ListReview -->
<g id="node13" class="node">
<title>ListReview</title>
<path fill="#ffffff" stroke="#586e75" d="M951.1,-108C951.1,-108 877.1,-108 877.1,-108 871.1,-108 865.1,-102 865.1,-96 865.1,-96 865.1,-84 865.1,-84 865.1,-78 871.1,-72 877.1,-72 877.1,-72 951.1,-72 951.1,-72 957.1,-72 963.1,-78 963.1,-84 963.1,-84 963.1,-96 963.1,-96 963.1,-102 957.1,-108 951.1,-108"/>
<text text-anchor="middle" x="914.1" y="-86.3" font-family="Inter,Arial" font-size="14.00" fill="#586e75">List[Review]</text>
</g>
<!-- FListReview&#45;&gt;ListReview -->
<!-- SellerId -->
<g id="node8" class="node">
<title>SellerId</title>
<path fill="#ffffff" stroke="#586e75" d="M233.6,-108C233.6,-108 191.6,-108 191.6,-108 185.6,-108 179.6,-102 179.6,-96 179.6,-96 179.6,-84 179.6,-84 179.6,-78 185.6,-72 191.6,-72 191.6,-72 233.6,-72 233.6,-72 239.6,-72 245.6,-78 245.6,-84 245.6,-84 245.6,-96 245.6,-96 245.6,-102 239.6,-108 233.6,-108"/>
<text text-anchor="middle" x="212.6" y="-86.3" font-family="Inter,Arial" font-size="14.00" fill="#586e75">SellerId</text>
</g>
<!-- Item&#45;&gt;SellerId -->
<g id="edge9" class="edge">
<title>Item&#45;&gt;SellerId</title>
<path fill="none" stroke="#586e75" d="M100.29,-90C119.66,-90 146.47,-90 168.92,-90"/>
<polygon fill="#586e75" stroke="#586e75" points="169.21,-93.5 179.21,-90 169.21,-86.5 169.21,-93.5"/>
<text text-anchor="middle" x="142.6" y="-93.2" font-family="Inter,Arial" font-size="11.00" fill="#586e75">sellerId</text>
</g>
<!-- SellerId&#45;&gt;FSeller -->
<g id="edge10" class="edge">
<title>SellerId&#45;&gt;FSeller</title>
<path fill="none" stroke="#586e75" d="M246,-104.47C265.87,-113.42 291.78,-125.21 314.6,-136 317.38,-137.32 320.24,-138.68 323.12,-140.07"/>
<polygon fill="#586e75" stroke="#586e75" points="321.79,-143.31 332.32,-144.52 324.84,-137.01 321.79,-143.31"/>
<text text-anchor="middle" x="289.1" y="-139.2" font-family="Inter,Arial" font-size="11.00" fill="#586e75">loadSeller</text>
</g>
<!-- ListReviewId -->
<g id="node10" class="node">
<title>ListReviewId</title>
<path fill="#ffffff" stroke="#586e75" d="M579.6,-108C579.6,-108 492.6,-108 492.6,-108 486.6,-108 480.6,-102 480.6,-96 480.6,-96 480.6,-84 480.6,-84 480.6,-78 486.6,-72 492.6,-72 492.6,-72 579.6,-72 579.6,-72 585.6,-72 591.6,-78 591.6,-84 591.6,-84 591.6,-96 591.6,-96 591.6,-102 585.6,-108 579.6,-108"/>
<text text-anchor="middle" x="536.1" y="-86.3" font-family="Inter,Arial" font-size="14.00" fill="#586e75">List[ReviewId]</text>
</g>
<!-- Seller&#45;&gt;ListReviewId -->
<g id="edge19" class="edge">
<title>Seller&#45;&gt;ListReviewId</title>
<path fill="none" stroke="#586e75" d="M395.82,-90C415.86,-90 444.36,-90 470.37,-90"/>
<polygon fill="#586e75" stroke="#586e75" points="470.57,-93.5 480.57,-90 470.57,-86.5 470.57,-93.5"/>
<text text-anchor="middle" x="442.6" y="-93.2" font-family="Inter,Arial" font-size="11.00" fill="#586e75">reviews</text>
</g>
<!-- ListFReview -->
<!-- ListReviewId&#45;&gt;ListFReview -->
<!-- ReviewId -->
<g id="node14" class="node">
<title>ReviewId</title>
<path fill="#ffffff" stroke="#586e75" d="M562.6,-36C562.6,-36 509.6,-36 509.6,-36 503.6,-36 497.6,-30 497.6,-24 497.6,-24 497.6,-12 497.6,-12 497.6,-6 503.6,0 509.6,0 509.6,0 562.6,0 562.6,0 568.6,0 574.6,-6 574.6,-12 574.6,-12 574.6,-24 574.6,-24 574.6,-30 568.6,-36 562.6,-36"/>
<text text-anchor="middle" x="536.1" y="-14.3" font-family="Inter,Arial" font-size="14.00" fill="#586e75">ReviewId</text>
</g>
<!-- ListReviewId&#45;&gt;ReviewId -->
<!-- ListFReview&#45;&gt;FListReview -->
<!-- ListFReview&#45;&gt;ListReview -->
<!-- FReview -->
<g id="node15" class="node">
<title>FReview</title>
<path fill="#ffffff" stroke="#586e75" d="M774.6,-36C774.6,-36 715.6,-36 715.6,-36 709.6,-36 703.6,-30 703.6,-24 703.6,-24 703.6,-12 703.6,-12 703.6,-6 709.6,0 715.6,0 715.6,0 774.6,0 774.6,0 780.6,0 786.6,-6 786.6,-12 786.6,-12 786.6,-24 786.6,-24 786.6,-30 780.6,-36 774.6,-36"/>
<text text-anchor="middle" x="745.1" y="-14.3" font-family="Inter,Arial" font-size="14.00" fill="#586e75">F[Review]</text>
</g>
<!-- ListFReview&#45;&gt;FReview -->
<!-- ListReview&#45;&gt;Boolean -->
<g id="edge1" class="edge">
<title>ListReview&#45;&gt;Boolean</title>
<path fill="none" stroke="#586e75" d="M963.21,-90C1001.95,-90 1055.98,-90 1093.69,-90"/>
<polygon fill="#586e75" stroke="#586e75" points="1093.87,-93.5 1103.87,-90 1093.87,-86.5 1093.87,-93.5"/>
<text text-anchor="middle" x="1033.6" y="-93.2" font-family="Inter,Arial" font-size="11.00" fill="#586e75">scammyReviews</text>
</g>
<!-- ReviewId&#45;&gt;FReview -->
<g id="edge18" class="edge">
<title>ReviewId&#45;&gt;FReview</title>
<path fill="none" stroke="#586e75" d="M575.07,-18C608.21,-18 656.59,-18 693.1,-18"/>
<polygon fill="#586e75" stroke="#586e75" points="693.54,-21.5 703.54,-18 693.54,-14.5 693.54,-21.5"/>
<text text-anchor="middle" x="639.1" y="-21.2" font-family="Inter,Arial" font-size="11.00" fill="#586e75">loadReview</text>
</g>
</g>
</svg>
