<?xml version="1.0" encoding="UTF-8" standalone="no"?>
<!DOCTYPE svg PUBLIC "-//W3C//DTD SVG 1.1//EN"
 "http://www.w3.org/Graphics/SVG/1.1/DTD/svg11.dtd">
<!-- Generated by graphviz version 2.43.0 (0)
 -->
<!-- Title: %3 Pages: 1 -->
<svg width="419pt" height="116pt"
 viewBox="0.00 0.00 419.20 116.00" xmlns="http://www.w3.org/2000/svg" xmlns:xlink="http://www.w3.org/1999/xlink">
<g id="graph0" class="graph" transform="scale(1 1) rotate(0) translate(4 112)">
<title>%3</title>
<!-- Start -->
<!-- FSeller -->
<g id="node3" class="node start">
<title>FSeller</title>
<path fill="#586e75" stroke="#586e75" d="M100.6,-108C100.6,-108 52.6,-108 52.6,-108 46.6,-108 40.6,-102 40.6,-96 40.6,-96 40.6,-84 40.6,-84 40.6,-78 46.6,-72 52.6,-72 52.6,-72 100.6,-72 100.6,-72 106.6,-72 112.6,-78 112.6,-84 112.6,-84 112.6,-96 112.6,-96 112.6,-102 106.6,-108 100.6,-108"/>
<text text-anchor="middle" x="76.6" y="-86.3" font-family="Inter,Arial" font-size="14.00" fill="#ffffff">F[Seller]</text>
</g>
<!-- Start&#45;&gt;FSeller -->
<g id="edge2" class="edge start">
<title>Start&#45;&gt;FSeller</title>
<path fill="none" stroke="#586e75" stroke-width="2" d="M3.62,-90C6.63,-90 17.55,-90 30.01,-90"/>
<polygon fill="#586e75" stroke="#586e75" stroke-width="2" points="30.21,-93.5 40.21,-90 30.21,-86.5 30.21,-93.5"/>
</g>
<!-- Goal -->
<!-- Seller -->
<!-- FSeller&#45;&gt;Seller -->
<!-- FListReview -->
<!-- FSeller&#45;&gt;FListReview -->
<!-- Seller&#45;&gt;FListReview -->
<!-- FListReview&#45;&gt;Goal -->
</g>
</svg>
