<?xml version="1.0" encoding="UTF-8" standalone="no"?>
<!DOCTYPE svg PUBLIC "-//W3C//DTD SVG 1.1//EN"
 "http://www.w3.org/Graphics/SVG/1.1/DTD/svg11.dtd">
<!-- Generated by graphviz version 2.43.0 (0)
 -->
<!-- Title: %3 Pages: 1 -->
<svg width="725pt" height="116pt"
 viewBox="0.00 0.00 725.20 116.00" xmlns="http://www.w3.org/2000/svg" xmlns:xlink="http://www.w3.org/1999/xlink">
<g id="graph0" class="graph" transform="scale(1 1) rotate(0) translate(4 112)">
<title>%3</title>
<!-- Start -->
<!-- Seller -->
<g id="node3" class="node start,disabled">
<title>Seller</title>
<path fill="#d0dce3" stroke="#d0dce3" d="M82.6,-108C82.6,-108 52.6,-108 52.6,-108 46.6,-108 40.6,-102 40.6,-96 40.6,-96 40.6,-84 40.6,-84 40.6,-78 46.6,-72 52.6,-72 52.6,-72 82.6,-72 82.6,-72 88.6,-72 94.6,-78 94.6,-84 94.6,-84 94.6,-96 94.6,-96 94.6,-102 88.6,-108 82.6,-108"/>
<text text-anchor="middle" x="67.6" y="-86.3" font-family="Inter,Arial" font-size="14.00" fill="#ffffff">Seller</text>
</g>
<!-- Start&#45;&gt;Seller -->
<g id="edge4" class="edge start,disabled">
<title>Start&#45;&gt;Seller</title>
<path fill="none" stroke="#d0dce3" stroke-width="2" d="M3.91,-90C7.37,-90 18.49,-90 30.42,-90"/>
<polygon fill="#d0dce3" stroke="#d0dce3" stroke-width="2" points="30.48,-93.5 40.48,-90 30.48,-86.5 30.48,-93.5"/>
</g>
<!-- Goal -->
<!-- ListUUID -->
<g id="node4" class="node disabled">
<title>ListUUID</title>
<path fill="#ffffff" stroke="#d0dce3" d="M269.6,-108C269.6,-108 182.6,-108 182.6,-108 176.6,-108 170.6,-102 170.6,-96 170.6,-96 170.6,-84 170.6,-84 170.6,-78 176.6,-72 182.6,-72 182.6,-72 269.6,-72 269.6,-72 275.6,-72 281.6,-78 281.6,-84 281.6,-84 281.6,-96 281.6,-96 281.6,-102 275.6,-108 269.6,-108"/>
<text text-anchor="middle" x="226.1" y="-86.3" font-family="Inter,Arial" font-size="14.00" fill="#d0dce3">List[ReviewId]</text>
</g>
<!-- Seller&#45;&gt;ListUUID -->
<g id="edge7" class="edge disabled">
<title>Seller&#45;&gt;ListUUID</title>
<path fill="none" stroke="#d0dce3" d="M94.79,-90C112.76,-90 137.42,-90 160.46,-90"/>
<polygon fill="#d0dce3" stroke="#d0dce3" points="160.56,-93.5 170.56,-90 160.56,-86.5 160.56,-93.5"/>
<text text-anchor="middle" x="132.6" y="-93.2" font-family="Inter,Arial" font-size="11.00" fill="#d0dce3">reviews</text>
</g>
<!-- ListFReview -->
<!-- ListUUID&#45;&gt;ListFReview -->
<!-- UUID -->
<g id="node8" class="node">
<title>UUID</title>
<path fill="#ffffff" stroke="#586e75" d="M252.6,-36C252.6,-36 199.6,-36 199.6,-36 193.6,-36 187.6,-30 187.6,-24 187.6,-24 187.6,-12 187.6,-12 187.6,-6 193.6,0 199.6,0 199.6,0 252.6,0 252.6,0 258.6,0 264.6,-6 264.6,-12 264.6,-12 264.6,-24 264.6,-24 264.6,-30 258.6,-36 252.6,-36"/>
<text text-anchor="middle" x="226.1" y="-14.3" font-family="Inter,Arial" font-size="14.00" fill="#586e75">ReviewId</text>
</g>
<!-- ListUUID&#45;&gt;UUID -->
<!-- FListReview -->
<!-- ListFReview&#45;&gt;FListReview -->
<!-- ListReview -->
<g id="node7" class="node goal,disabled">
<title>ListReview</title>
<path fill="#d0dce3" stroke="#d0dce3" d="M655.1,-108C655.1,-108 581.1,-108 581.1,-108 575.1,-108 569.1,-102 569.1,-96 569.1,-96 569.1,-84 569.1,-84 569.1,-78 575.1,-72 581.1,-72 581.1,-72 655.1,-72 655.1,-72 661.1,-72 667.1,-78 667.1,-84 667.1,-84 667.1,-96 667.1,-96 667.1,-102 661.1,-108 655.1,-108"/>
<text text-anchor="middle" x="618.1" y="-86.3" font-family="Inter,Arial" font-size="14.00" fill="#ffffff">List[Review]</text>
</g>
<!-- ListFReview&#45;&gt;ListReview -->
<!-- FReview -->
<g id="node9" class="node">
<title>FReview</title>
<path fill="#ffffff" stroke="#586e75" d="M478.6,-36C478.6,-36 419.6,-36 419.6,-36 413.6,-36 407.6,-30 407.6,-24 407.6,-24 407.6,-12 407.6,-12 407.6,-6 413.6,0 419.6,0 419.6,0 478.6,0 478.6,0 484.6,0 490.6,-6 490.6,-12 490.6,-12 490.6,-24 490.6,-24 490.6,-30 484.6,-36 478.6,-36"/>
<text text-anchor="middle" x="449.1" y="-14.3" font-family="Inter,Arial" font-size="14.00" fill="#586e75">F[Review]</text>
</g>
<!-- ListFReview&#45;&gt;FReview -->
<!-- ListReview&#45;&gt;Goal -->
<g id="edge5" class="edge goal,disabled">
<title>ListReview&#45;&gt;Goal</title>
<path fill="none" stroke="#d0dce3" stroke-width="2" d="M667.31,-90C680.72,-90 694.07,-90 703.12,-90"/>
<polygon fill="#d0dce3" stroke="#d0dce3" stroke-width="2" points="703.35,-93.5 713.35,-90 703.35,-86.5 703.35,-93.5"/>
</g>
<!-- ListReview&#45;&gt;FListReview -->
<!-- UUID&#45;&gt;FReview -->
<g id="edge6" class="edge required">
<title>UUID&#45;&gt;FReview</title>
<path fill="none" stroke="#586e75" stroke-dasharray="1,5" d="M264.84,-18C301.36,-18 356.96,-18 397.34,-18"/>
<polygon fill="#586e75" stroke="#586e75" points="397.52,-21.5 407.52,-18 397.52,-14.5 397.52,-21.5"/>
<text text-anchor="middle" x="336.1" y="-21.2" font-family="Inter,Arial" font-size="11.00" fill="#586e75">loadReview</text>
</g>
</g>
</svg>
