<?xml version="1.0" encoding="UTF-8" standalone="no"?>
<!DOCTYPE svg PUBLIC "-//W3C//DTD SVG 1.1//EN"
 "http://www.w3.org/Graphics/SVG/1.1/DTD/svg11.dtd">
<!-- Generated by graphviz version 2.43.0 (0)
 -->
<!-- Title: %3 Pages: 1 -->
<svg width="419pt" height="116pt"
 viewBox="0.00 0.00 419.20 116.00" xmlns="http://www.w3.org/2000/svg" xmlns:xlink="http://www.w3.org/1999/xlink">
<g id="graph0" class="graph" transform="scale(1 1) rotate(0) translate(4 112)">
<title>%3</title>
<!-- Start -->
<!-- FSeller -->
<g id="node3" class="node start,disabled">
<title>FSeller</title>
<path fill="#d0dce3" stroke="#d0dce3" d="M100.6,-108C100.6,-108 52.6,-108 52.6,-108 46.6,-108 40.6,-102 40.6,-96 40.6,-96 40.6,-84 40.6,-84 40.6,-78 46.6,-72 52.6,-72 52.6,-72 100.6,-72 100.6,-72 106.6,-72 112.6,-78 112.6,-84 112.6,-84 112.6,-96 112.6,-96 112.6,-102 106.6,-108 100.6,-108"/>
<text text-anchor="middle" x="76.6" y="-86.3" font-family="Inter,Arial" font-size="14.00" fill="#ffffff">F[Seller]</text>
</g>
<!-- Start&#45;&gt;FSeller -->
<g id="edge2" class="edge start,disabled">
<title>Start&#45;&gt;FSeller</title>
<path fill="none" stroke="#d0dce3" stroke-width="2" d="M3.62,-90C6.63,-90 17.55,-90 30.01,-90"/>
<polygon fill="#d0dce3" stroke="#d0dce3" stroke-width="2" points="30.21,-93.5 40.21,-90 30.21,-86.5 30.21,-93.5"/>
</g>
<!-- Goal -->
<!-- Seller -->
<!-- FSeller&#45;&gt;Seller -->
<!-- FListReview -->
<g id="node5" class="node goal">
<title>FListReview</title>
<path fill="#586e75" stroke="#586e75" d="M358.6,-36C358.6,-36 265.6,-36 265.6,-36 259.6,-36 253.6,-30 253.6,-24 253.6,-24 253.6,-12 253.6,-12 253.6,-6 259.6,0 265.6,0 265.6,0 358.6,0 358.6,0 364.6,0 370.6,-6 370.6,-12 370.6,-12 370.6,-24 370.6,-24 370.6,-30 364.6,-36 358.6,-36"/>
<text text-anchor="middle" x="312.1" y="-14.3" font-family="Inter,Arial" font-size="14.00" fill="#ffffff">F[List[Review]]</text>
</g>
<!-- FSeller&#45;&gt;FListReview -->
<!-- Seller&#45;&gt;FListReview -->
<!-- FListReview&#45;&gt;Goal -->
<g id="edge3" class="edge goal">
<title>FListReview&#45;&gt;Goal</title>
<path fill="none" stroke="#586e75" stroke-width="2" d="M370.73,-18C380.84,-18 390.32,-18 397.24,-18"/>
<polygon fill="#586e75" stroke="#586e75" stroke-width="2" points="397.4,-21.5 407.4,-18 397.4,-14.5 397.4,-21.5"/>
</g>
</g>
</svg>
