<?xml version="1.0" encoding="UTF-8" standalone="no"?>
<!DOCTYPE svg PUBLIC "-//W3C//DTD SVG 1.1//EN"
 "http://www.w3.org/Graphics/SVG/1.1/DTD/svg11.dtd">
<!-- Generated by graphviz version 2.43.0 (0)
 -->
<!-- Title: %3 Pages: 1 -->
<svg width="725pt" height="116pt"
 viewBox="0.00 0.00 725.20 116.00" xmlns="http://www.w3.org/2000/svg" xmlns:xlink="http://www.w3.org/1999/xlink">
<g id="graph0" class="graph" transform="scale(1 1) rotate(0) translate(4 112)">
<title>%3</title>
<!-- Start -->
<!-- Seller -->
<g id="node3" class="node start">
<title>Seller</title>
<path fill="#586e75" stroke="#586e75" d="M82.6,-108C82.6,-108 52.6,-108 52.6,-108 46.6,-108 40.6,-102 40.6,-96 40.6,-96 40.6,-84 40.6,-84 40.6,-78 46.6,-72 52.6,-72 52.6,-72 82.6,-72 82.6,-72 88.6,-72 94.6,-78 94.6,-84 94.6,-84 94.6,-96 94.6,-96 94.6,-102 88.6,-108 82.6,-108"/>
<text text-anchor="middle" x="67.6" y="-86.3" font-family="Inter,Arial" font-size="14.00" fill="#ffffff">Seller</text>
</g>
<!-- Start&#45;&gt;Seller -->
<g id="edge4" class="edge start">
<title>Start&#45;&gt;Seller</title>
<path fill="none" stroke="#586e75" stroke-width="2" d="M3.91,-90C7.37,-90 18.49,-90 30.42,-90"/>
<polygon fill="#586e75" stroke="#586e75" stroke-width="2" points="30.48,-93.5 40.48,-90 30.48,-86.5 30.48,-93.5"/>
</g>
<!-- Goal -->
<!-- ListUUID -->
<!-- Seller&#45;&gt;ListUUID -->
<!-- ListFReview -->
<!-- ListUUID&#45;&gt;ListFReview -->
<!-- UUID -->
<!-- ListUUID&#45;&gt;UUID -->
<!-- FListReview -->
<!-- ListFReview&#45;&gt;FListReview -->
<!-- ListReview -->
<!-- ListFReview&#45;&gt;ListReview -->
<!-- FReview -->
<!-- ListFReview&#45;&gt;FReview -->
<!-- FListReview&#45;&gt;Goal -->
<!-- ListReview&#45;&gt;FListReview -->
<!-- UUID&#45;&gt;FReview -->
</g>
</svg>
