<?xml version="1.0" encoding="UTF-8" standalone="no"?>
<!DOCTYPE svg PUBLIC "-//W3C//DTD SVG 1.1//EN"
 "http://www.w3.org/Graphics/SVG/1.1/DTD/svg11.dtd">
<!-- Generated by graphviz version 2.43.0 (0)
 -->
<!-- Title: %3 Pages: 1 -->
<svg width="419pt" height="116pt"
 viewBox="0.00 0.00 419.20 116.00" xmlns="http://www.w3.org/2000/svg" xmlns:xlink="http://www.w3.org/1999/xlink">
<g id="graph0" class="graph" transform="scale(1 1) rotate(0) translate(4 112)">
<title>%3</title>
<!-- Start -->
<!-- FSeller -->
<g id="node3" class="node start">
<title>FSeller</title>
<path fill="#586e75" stroke="#586e75" d="M100.6,-108C100.6,-108 52.6,-108 52.6,-108 46.6,-108 40.6,-102 40.6,-96 40.6,-96 40.6,-84 40.6,-84 40.6,-78 46.6,-72 52.6,-72 52.6,-72 100.6,-72 100.6,-72 106.6,-72 112.6,-78 112.6,-84 112.6,-84 112.6,-96 112.6,-96 112.6,-102 106.6,-108 100.6,-108"/>
<text text-anchor="middle" x="76.6" y="-86.3" font-family="Inter,Arial" font-size="14.00" fill="#ffffff">F[Seller]</text>
</g>
<!-- Start&#45;&gt;FSeller -->
<g id="edge2" class="edge start">
<title>Start&#45;&gt;FSeller</title>
<path fill="none" stroke="#586e75" stroke-width="2" d="M3.62,-90C6.63,-90 17.55,-90 30.01,-90"/>
<polygon fill="#586e75" stroke="#586e75" stroke-width="2" points="30.21,-93.5 40.21,-90 30.21,-86.5 30.21,-93.5"/>
</g>
<!-- Goal -->
<!-- Seller -->
<g id="node4" class="node">
<title>Seller</title>
<path fill="#ffffff" stroke="#586e75" d="M91.6,-36C91.6,-36 61.6,-36 61.6,-36 55.6,-36 49.6,-30 49.6,-24 49.6,-24 49.6,-12 49.6,-12 49.6,-6 55.6,0 61.6,0 61.6,0 91.6,0 91.6,0 97.6,0 103.6,-6 103.6,-12 103.6,-12 103.6,-24 103.6,-24 103.6,-30 97.6,-36 91.6,-36"/>
<text text-anchor="middle" x="76.6" y="-14.3" font-family="Inter,Arial" font-size="14.00" fill="#586e75">Seller</text>
</g>
<!-- FSeller&#45;&gt;Seller -->
<g id="edge1" class="edge lift">
<title>FSeller&#45;&gt;Seller</title>
<path fill="none" stroke="#586e75" stroke-dasharray="5,2" d="M76.6,-61.92C76.6,-53.37 76.6,-44.83 76.6,-36.28"/>
<polygon fill="#586e75" stroke="#586e75" points="73.1,-61.95 76.6,-71.95 80.1,-61.95 73.1,-61.95"/>
<text text-anchor="middle" x="61.1" y="-45.51" font-family="Inter,Arial" font-size="11.00" fill="#586e75">liftFlat</text>
</g>
<!-- FListReview -->
<g id="node5" class="node goal">
<title>FListReview</title>
<path fill="#586e75" stroke="#586e75" d="M358.6,-36C358.6,-36 265.6,-36 265.6,-36 259.6,-36 253.6,-30 253.6,-24 253.6,-24 253.6,-12 253.6,-12 253.6,-6 259.6,0 265.6,0 265.6,0 358.6,0 358.6,0 364.6,0 370.6,-6 370.6,-12 370.6,-12 370.6,-24 370.6,-24 370.6,-30 364.6,-36 358.6,-36"/>
<text text-anchor="middle" x="312.1" y="-14.3" font-family="Inter,Arial" font-size="14.00" fill="#ffffff">F[List[Review]]</text>
</g>
<!-- FSeller&#45;&gt;FListReview -->
<g id="edge5" class="edge">
<title>FSeller&#45;&gt;FListReview</title>
<path fill="none" stroke="#586e75" d="M112.81,-79.14C147.32,-68.5 200.83,-52 243.56,-38.83"/>
<polygon fill="#586e75" stroke="#586e75" points="244.81,-42.1 253.34,-35.81 242.75,-35.41 244.81,-42.1"/>
<text text-anchor="middle" x="183.1" y="-75.2" font-family="Inter,Arial" font-size="11.00" fill="#586e75">sellerReviews.liftFlat</text>
</g>
<!-- Seller&#45;&gt;FListReview -->
<g id="edge4" class="edge">
<title>Seller&#45;&gt;FListReview</title>
<path fill="none" stroke="#586e75" d="M103.93,-18C137.49,-18 196.72,-18 243.28,-18"/>
<polygon fill="#586e75" stroke="#586e75" points="243.31,-21.5 253.31,-18 243.31,-14.5 243.31,-21.5"/>
<text text-anchor="middle" x="183.1" y="-21.2" font-family="Inter,Arial" font-size="11.00" fill="#586e75">sellerReviews</text>
</g>
<!-- FListReview&#45;&gt;Goal -->
<g id="edge3" class="edge goal">
<title>FListReview&#45;&gt;Goal</title>
<path fill="none" stroke="#586e75" stroke-width="2" d="M370.73,-18C380.84,-18 390.32,-18 397.24,-18"/>
<polygon fill="#586e75" stroke="#586e75" stroke-width="2" points="397.4,-21.5 407.4,-18 397.4,-14.5 397.4,-21.5"/>
</g>
</g>
</svg>
