<?xml version="1.0" encoding="UTF-8" standalone="no"?>
<!DOCTYPE svg PUBLIC "-//W3C//DTD SVG 1.1//EN"
 "http://www.w3.org/Graphics/SVG/1.1/DTD/svg11.dtd">
<!-- Generated by graphviz version 2.43.0 (0)
 -->
<!-- Title: %3 Pages: 1 -->
<svg width="478pt" height="44pt"
 viewBox="0.00 0.00 478.00 44.00" xmlns="http://www.w3.org/2000/svg" xmlns:xlink="http://www.w3.org/1999/xlink">
<g id="graph0" class="graph" transform="scale(1 1) rotate(0) translate(4 40)">
<title>%3</title>
<!-- ListFA -->
<g id="node1" class="node">
<title>ListFA</title>
<path fill="#b2ebf2" stroke="#2980b9" d="M183,-36C183,-36 153,-36 153,-36 147,-36 141,-30 141,-24 141,-24 141,-12 141,-12 141,-6 147,0 153,0 153,0 183,0 183,0 189,0 195,-6 195,-12 195,-12 195,-24 195,-24 195,-30 189,-36 183,-36"/>
<text text-anchor="middle" x="168" y="-14.3" font-family="Segoe UI,Roboto,Helvetica,Arial,sans-serif" font-size="14.00" fill="#000000">F[A]</text>
</g>
<!-- ListFList -->
<g id="node2" class="node">
<title>ListFList</title>
<path fill="#b2ebf2" stroke="#2980b9" d="M334,-36C334,-36 304,-36 304,-36 298,-36 292,-30 292,-24 292,-24 292,-12 292,-12 292,-6 298,0 304,0 304,0 334,0 334,0 340,0 346,-6 346,-12 346,-12 346,-24 346,-24 346,-30 340,-36 334,-36"/>
<text text-anchor="middle" x="319" y="-14.3" font-family="Segoe UI,Roboto,Helvetica,Arial,sans-serif" font-size="14.00" fill="#000000">F[B]</text>
</g>
<!-- ListFA&#45;&gt;ListFList -->
<g id="edge2" class="edge">
<title>ListFA&#45;&gt;ListFList</title>
<path fill="none" stroke="#2980b9" d="M195.3,-18C219.34,-18 255.12,-18 281.85,-18"/>
<polygon fill="#2980b9" stroke="#2980b9" points="281.97,-21.5 291.97,-18 281.97,-14.5 281.97,-21.5"/>
<text text-anchor="middle" x="243.5" y="-21.2" font-family="Segoe UI,Roboto,Helvetica,Arial,sans-serif" font-size="11.00" fill="#000000">map(_, loop)</text>
</g>
<!-- B -->
<g id="node4" class="node">
<title>B</title>
<path fill="#b2ebf2" stroke="#2980b9" d="M458,-36C458,-36 428,-36 428,-36 422,-36 416,-30 416,-24 416,-24 416,-12 416,-12 416,-6 422,0 428,0 428,0 458,0 458,0 464,0 470,-6 470,-12 470,-12 470,-24 470,-24 470,-30 464,-36 458,-36"/>
<text text-anchor="middle" x="443" y="-14.3" font-family="Segoe UI,Roboto,Helvetica,Arial,sans-serif" font-size="14.00" fill="#000000">B</text>
</g>
<!-- ListFList&#45;&gt;B -->
<g id="edge3" class="edge">
<title>ListFList&#45;&gt;B</title>
<path fill="none" stroke="#2980b9" d="M346.17,-18C363.54,-18 386.57,-18 405.7,-18"/>
<polygon fill="#2980b9" stroke="#2980b9" points="405.87,-21.5 415.87,-18 405.87,-14.5 405.87,-21.5"/>
<text text-anchor="middle" x="381" y="-21.2" font-family="Segoe UI,Roboto,Helvetica,Arial,sans-serif" font-size="11.00" fill="#000000">embed</text>
</g>
<!-- A -->
<g id="node3" class="node">
<title>A</title>
<path fill="#b2ebf2" stroke="#2980b9" d="M42,-36C42,-36 12,-36 12,-36 6,-36 0,-30 0,-24 0,-24 0,-12 0,-12 0,-6 6,0 12,0 12,0 42,0 42,0 48,0 54,-6 54,-12 54,-12 54,-24 54,-24 54,-30 48,-36 42,-36"/>
<text text-anchor="middle" x="27" y="-14.3" font-family="Segoe UI,Roboto,Helvetica,Arial,sans-serif" font-size="14.00" fill="#000000">A</text>
</g>
<!-- A&#45;&gt;ListFA -->
<g id="edge1" class="edge">
<title>A&#45;&gt;ListFA</title>
<path fill="none" stroke="#2980b9" d="M54.14,-18C75.79,-18 106.78,-18 130.81,-18"/>
<polygon fill="#2980b9" stroke="#2980b9" points="130.97,-21.5 140.97,-18 130.97,-14.5 130.97,-21.5"/>
<text text-anchor="middle" x="97.5" y="-21.2" font-family="Segoe UI,Roboto,Helvetica,Arial,sans-serif" font-size="11.00" fill="#000000">coAlgebra</text>
</g>
</g>
</svg>
