<?xml version="1.0" encoding="UTF-8" standalone="no"?>
<!DOCTYPE svg PUBLIC "-//W3C//DTD SVG 1.1//EN"
 "http://www.w3.org/Graphics/SVG/1.1/DTD/svg11.dtd">
<!-- Generated by graphviz version 2.43.0 (0)
 -->
<!-- Title: %3 Pages: 1 -->
<svg width="474pt" height="44pt"
 viewBox="0.00 0.00 474.00 44.00" xmlns="http://www.w3.org/2000/svg" xmlns:xlink="http://www.w3.org/1999/xlink">
<g id="graph0" class="graph" transform="scale(1 1) rotate(0) translate(4 40)">
<title>%3</title>
<!-- ListFA -->
<g id="node1" class="node">
<title>ListFA</title>
<path fill="#b2ebf2" stroke="#2980b9" d="M155,-36C155,-36 115,-36 115,-36 109,-36 103,-30 103,-24 103,-24 103,-12 103,-12 103,-6 109,0 115,0 115,0 155,0 155,0 161,0 167,-6 167,-12 167,-12 167,-24 167,-24 167,-30 161,-36 155,-36"/>
<text text-anchor="middle" x="135" y="-14.3" font-family="Segoe UI,Roboto,Helvetica,Arial,sans-serif" font-size="14.00" fill="#000000">ListF[A]</text>
</g>
<!-- ListFList -->
<g id="node2" class="node">
<title>ListFList</title>
<path fill="#b2ebf2" stroke="#2980b9" d="M330,-36C330,-36 276,-36 276,-36 270,-36 264,-30 264,-24 264,-24 264,-12 264,-12 264,-6 270,0 276,0 276,0 330,0 330,0 336,0 342,-6 342,-12 342,-12 342,-24 342,-24 342,-30 336,-36 330,-36"/>
<text text-anchor="middle" x="303" y="-14.3" font-family="Segoe UI,Roboto,Helvetica,Arial,sans-serif" font-size="14.00" fill="#000000">ListF[List]</text>
</g>
<!-- ListFA&#45;&gt;ListFList -->
<g id="edge2" class="edge">
<title>ListFA&#45;&gt;ListFList</title>
<path fill="none" stroke="#dddddd" d="M167.22,-18C191.54,-18 225.73,-18 253.59,-18"/>
<polygon fill="#dddddd" stroke="#dddddd" points="253.92,-21.5 263.92,-18 253.92,-14.5 253.92,-21.5"/>
<text text-anchor="middle" x="215.5" y="-21.2" font-family="Segoe UI,Roboto,Helvetica,Arial,sans-serif" font-size="11.00" fill="#dddddd">map(_, loop)</text>
</g>
<!-- List -->
<g id="node4" class="node">
<title>List</title>
<path fill="#b2ebf2" stroke="#dddddd" d="M454,-36C454,-36 424,-36 424,-36 418,-36 412,-30 412,-24 412,-24 412,-12 412,-12 412,-6 418,0 424,0 424,0 454,0 454,0 460,0 466,-6 466,-12 466,-12 466,-24 466,-24 466,-30 460,-36 454,-36"/>
<text text-anchor="middle" x="439" y="-14.3" font-family="Segoe UI,Roboto,Helvetica,Arial,sans-serif" font-size="14.00" fill="#dddddd">List</text>
</g>
<!-- ListFList&#45;&gt;List -->
<g id="edge3" class="edge">
<title>ListFList&#45;&gt;List</title>
<path fill="none" stroke="#dddddd" d="M342.04,-18C360.76,-18 383.2,-18 401.68,-18"/>
<polygon fill="#dddddd" stroke="#dddddd" points="401.77,-21.5 411.77,-18 401.77,-14.5 401.77,-21.5"/>
<text text-anchor="middle" x="377" y="-21.2" font-family="Segoe UI,Roboto,Helvetica,Arial,sans-serif" font-size="11.00" fill="#dddddd">embed</text>
</g>
<!-- A -->
<g id="node3" class="node">
<title>A</title>
<path fill="#b2ebf2" stroke="#dddddd" d="M42,-36C42,-36 12,-36 12,-36 6,-36 0,-30 0,-24 0,-24 0,-12 0,-12 0,-6 6,0 12,0 12,0 42,0 42,0 48,0 54,-6 54,-12 54,-12 54,-24 54,-24 54,-30 48,-36 42,-36"/>
<text text-anchor="middle" x="27" y="-14.3" font-family="Segoe UI,Roboto,Helvetica,Arial,sans-serif" font-size="14.00" fill="#dddddd">A</text>
</g>
<!-- A&#45;&gt;ListFA -->
<g id="edge1" class="edge">
<title>A&#45;&gt;ListFA</title>
<path fill="none" stroke="#dddddd" d="M54.2,-18C65.81,-18 79.75,-18 92.71,-18"/>
<polygon fill="#dddddd" stroke="#dddddd" points="92.82,-21.5 102.82,-18 92.82,-14.5 92.82,-21.5"/>
<text text-anchor="middle" x="78.5" y="-21.2" font-family="Segoe UI,Roboto,Helvetica,Arial,sans-serif" font-size="11.00" fill="#dddddd">op</text>
</g>
</g>
</svg>
