<?xml version="1.0" encoding="UTF-8" standalone="no"?>
<!DOCTYPE svg PUBLIC "-//W3C//DTD SVG 1.1//EN"
 "http://www.w3.org/Graphics/SVG/1.1/DTD/svg11.dtd">
<!-- Generated by graphviz version 2.43.0 (0)
 -->
<!-- Title: %3 Pages: 1 -->
<svg width="452pt" height="44pt"
 viewBox="0.00 0.00 452.00 44.00" xmlns="http://www.w3.org/2000/svg" xmlns:xlink="http://www.w3.org/1999/xlink">
<g id="graph0" class="graph" transform="scale(1 1) rotate(0) translate(4 40)">
<title>%3</title>
<!-- A -->
<g id="node1" class="node disabled">
<title>A</title>
<path fill="#ffffff" stroke="#d0dce3" d="M42,-36C42,-36 12,-36 12,-36 6,-36 0,-30 0,-24 0,-24 0,-12 0,-12 0,-6 6,0 12,0 12,0 42,0 42,0 48,0 54,-6 54,-12 54,-12 54,-24 54,-24 54,-30 48,-36 42,-36"/>
<text text-anchor="middle" x="27" y="-14.3" font-family="Inter,Arial" font-size="14.00" fill="#d0dce3">A</text>
</g>
<!-- ListFA -->
<g id="node2" class="node disabled">
<title>ListFA</title>
<path fill="#ffffff" stroke="#d0dce3" d="M146,-36C146,-36 116,-36 116,-36 110,-36 104,-30 104,-24 104,-24 104,-12 104,-12 104,-6 110,0 116,0 116,0 146,0 146,0 152,0 158,-6 158,-12 158,-12 158,-24 158,-24 158,-30 152,-36 146,-36"/>
<text text-anchor="middle" x="131" y="-14.3" font-family="Inter,Arial" font-size="14.00" fill="#d0dce3">F[A]</text>
</g>
<!-- A&#45;&gt;ListFA -->
<g id="edge1" class="edge disabled">
<title>A&#45;&gt;ListFA</title>
<path fill="none" stroke="#d0dce3" d="M54,-18C66.02,-18 80.49,-18 93.57,-18"/>
<polygon fill="#d0dce3" stroke="#d0dce3" points="93.69,-21.5 103.69,-18 93.69,-14.5 93.69,-21.5"/>
<text text-anchor="middle" x="79" y="-21.2" font-family="Inter,Arial" font-size="11.00" fill="#d0dce3">op</text>
</g>
<!-- ListFList -->
<g id="node3" class="node">
<title>ListFList</title>
<path fill="#ffffff" stroke="#586e75" d="M305,-36C305,-36 270,-36 270,-36 264,-36 258,-30 258,-24 258,-24 258,-12 258,-12 258,-6 264,0 270,0 270,0 305,0 305,0 311,0 317,-6 317,-12 317,-12 317,-24 317,-24 317,-30 311,-36 305,-36"/>
<text text-anchor="middle" x="287.5" y="-14.3" font-family="Inter,Arial" font-size="14.00" fill="#586e75">F[List]</text>
</g>
<!-- ListFA&#45;&gt;ListFList -->
<g id="edge2" class="edge disabled">
<title>ListFA&#45;&gt;ListFList</title>
<path fill="none" stroke="#d0dce3" d="M158.21,-18C182.71,-18 219.62,-18 247.57,-18"/>
<polygon fill="#d0dce3" stroke="#d0dce3" points="247.8,-21.5 257.8,-18 247.8,-14.5 247.8,-21.5"/>
<text text-anchor="middle" x="208" y="-21.2" font-family="Inter,Arial" font-size="11.00" fill="#d0dce3">map(_, loop)</text>
</g>
<!-- List -->
<g id="node4" class="node">
<title>List</title>
<path fill="#ffffff" stroke="#586e75" d="M432,-36C432,-36 402,-36 402,-36 396,-36 390,-30 390,-24 390,-24 390,-12 390,-12 390,-6 396,0 402,0 402,0 432,0 432,0 438,0 444,-6 444,-12 444,-12 444,-24 444,-24 444,-30 438,-36 432,-36"/>
<text text-anchor="middle" x="417" y="-14.3" font-family="Inter,Arial" font-size="14.00" fill="#586e75">List</text>
</g>
<!-- ListFList&#45;&gt;List -->
<g id="edge3" class="edge disabled">
<title>ListFList&#45;&gt;List</title>
<path fill="none" stroke="#d0dce3" d="M317.11,-18C335.54,-18 359.65,-18 379.45,-18"/>
<polygon fill="#d0dce3" stroke="#d0dce3" points="379.65,-21.5 389.65,-18 379.65,-14.5 379.65,-21.5"/>
<text text-anchor="middle" x="353.5" y="-21.2" font-family="Inter,Arial" font-size="11.00" fill="#d0dce3">embed</text>
</g>
</g>
</svg>
