<?xml version="1.0" encoding="UTF-8" standalone="no"?>
<!DOCTYPE svg PUBLIC "-//W3C//DTD SVG 1.1//EN"
 "http://www.w3.org/Graphics/SVG/1.1/DTD/svg11.dtd">
<!-- Generated by graphviz version 2.43.0 (0)
 -->
<!-- Title: %3 Pages: 1 -->
<svg width="440pt" height="44pt"
 viewBox="0.00 0.00 440.00 44.00" xmlns="http://www.w3.org/2000/svg" xmlns:xlink="http://www.w3.org/1999/xlink">
<g id="graph0" class="graph" transform="scale(1 1) rotate(0) translate(4 40)">
<title>%3</title>
<!-- ListFA -->
<g id="node1" class="node">
<title>ListFA</title>
<path fill="#b2ebf2" stroke="#dddddd" d="M145,-36C145,-36 115,-36 115,-36 109,-36 103,-30 103,-24 103,-24 103,-12 103,-12 103,-6 109,0 115,0 115,0 145,0 145,0 151,0 157,-6 157,-12 157,-12 157,-24 157,-24 157,-30 151,-36 145,-36"/>
<text text-anchor="middle" x="130" y="-14.3" font-family="Segoe UI,Roboto,Helvetica,Arial,sans-serif" font-size="14.00" fill="#dddddd">F[A]</text>
</g>
<!-- ListFList -->
<g id="node2" class="node">
<title>ListFList</title>
<path fill="#b2ebf2" stroke="#2980b9" d="M296,-36C296,-36 266,-36 266,-36 260,-36 254,-30 254,-24 254,-24 254,-12 254,-12 254,-6 260,0 266,0 266,0 296,0 296,0 302,0 308,-6 308,-12 308,-12 308,-24 308,-24 308,-30 302,-36 296,-36"/>
<text text-anchor="middle" x="281" y="-14.3" font-family="Segoe UI,Roboto,Helvetica,Arial,sans-serif" font-size="14.00" fill="#000000">F[B]</text>
</g>
<!-- ListFA&#45;&gt;ListFList -->
<g id="edge2" class="edge">
<title>ListFA&#45;&gt;ListFList</title>
<path fill="none" stroke="#dddddd" d="M157.3,-18C181.34,-18 217.12,-18 243.85,-18"/>
<polygon fill="#dddddd" stroke="#dddddd" points="243.97,-21.5 253.97,-18 243.97,-14.5 243.97,-21.5"/>
<text text-anchor="middle" x="205.5" y="-21.2" font-family="Segoe UI,Roboto,Helvetica,Arial,sans-serif" font-size="11.00" fill="#dddddd">map(_, loop)</text>
</g>
<!-- B -->
<g id="node3" class="node">
<title>B</title>
<path fill="#b2ebf2" stroke="#2980b9" d="M420,-36C420,-36 390,-36 390,-36 384,-36 378,-30 378,-24 378,-24 378,-12 378,-12 378,-6 384,0 390,0 390,0 420,0 420,0 426,0 432,-6 432,-12 432,-12 432,-24 432,-24 432,-30 426,-36 420,-36"/>
<text text-anchor="middle" x="405" y="-14.3" font-family="Segoe UI,Roboto,Helvetica,Arial,sans-serif" font-size="14.00" fill="#000000">B</text>
</g>
<!-- ListFList&#45;&gt;B -->
<g id="edge3" class="edge">
<title>ListFList&#45;&gt;B</title>
<path fill="none" stroke="#dddddd" d="M308.17,-18C325.54,-18 348.57,-18 367.7,-18"/>
<polygon fill="#dddddd" stroke="#dddddd" points="367.87,-21.5 377.87,-18 367.87,-14.5 367.87,-21.5"/>
<text text-anchor="middle" x="343" y="-21.2" font-family="Segoe UI,Roboto,Helvetica,Arial,sans-serif" font-size="11.00" fill="#dddddd">embed</text>
</g>
<!-- A -->
<g id="node4" class="node">
<title>A</title>
<path fill="#b2ebf2" stroke="#dddddd" d="M42,-36C42,-36 12,-36 12,-36 6,-36 0,-30 0,-24 0,-24 0,-12 0,-12 0,-6 6,0 12,0 12,0 42,0 42,0 48,0 54,-6 54,-12 54,-12 54,-24 54,-24 54,-30 48,-36 42,-36"/>
<text text-anchor="middle" x="27" y="-14.3" font-family="Segoe UI,Roboto,Helvetica,Arial,sans-serif" font-size="14.00" fill="#dddddd">A</text>
</g>
<!-- A&#45;&gt;ListFA -->
<g id="edge1" class="edge">
<title>A&#45;&gt;ListFA</title>
<path fill="none" stroke="#dddddd" d="M54.01,-18C65.7,-18 79.7,-18 92.42,-18"/>
<polygon fill="#dddddd" stroke="#dddddd" points="92.73,-21.5 102.73,-18 92.73,-14.5 92.73,-21.5"/>
<text text-anchor="middle" x="78.5" y="-21.2" font-family="Segoe UI,Roboto,Helvetica,Arial,sans-serif" font-size="11.00" fill="#dddddd">op</text>
</g>
</g>
</svg>
