<?xml version="1.0" encoding="UTF-8" standalone="no"?>
<!DOCTYPE svg PUBLIC "-//W3C//DTD SVG 1.1//EN"
 "http://www.w3.org/Graphics/SVG/1.1/DTD/svg11.dtd">
<!-- Generated by graphviz version 2.43.0 (0)
 -->
<!-- Title: %3 Pages: 1 -->
<svg width="447pt" height="44pt"
 viewBox="0.00 0.00 447.00 44.00" xmlns="http://www.w3.org/2000/svg" xmlns:xlink="http://www.w3.org/1999/xlink">
<g id="graph0" class="graph" transform="scale(1 1) rotate(0) translate(4 40)">
<title>%3</title>
<!-- A -->
<g id="node1" class="node disabled">
<title>A</title>
<path fill="#ffffff" stroke="#d0dce3" d="M42,-36C42,-36 12,-36 12,-36 6,-36 0,-30 0,-24 0,-24 0,-12 0,-12 0,-6 6,0 12,0 12,0 42,0 42,0 48,0 54,-6 54,-12 54,-12 54,-24 54,-24 54,-30 48,-36 42,-36"/>
<text text-anchor="middle" x="27" y="-14.3" font-family="Inter,Arial" font-size="14.00" fill="#d0dce3">A</text>
</g>
<!-- ListFA -->
<g id="node2" class="node disabled">
<title>ListFA</title>
<path fill="#ffffff" stroke="#d0dce3" d="M146,-36C146,-36 116,-36 116,-36 110,-36 104,-30 104,-24 104,-24 104,-12 104,-12 104,-6 110,0 116,0 116,0 146,0 146,0 152,0 158,-6 158,-12 158,-12 158,-24 158,-24 158,-30 152,-36 146,-36"/>
<text text-anchor="middle" x="131" y="-14.3" font-family="Inter,Arial" font-size="14.00" fill="#d0dce3">F[A]</text>
</g>
<!-- A&#45;&gt;ListFA -->
<g id="edge1" class="edge disabled">
<title>A&#45;&gt;ListFA</title>
<path fill="none" stroke="#d0dce3" d="M54,-18C66.02,-18 80.49,-18 93.57,-18"/>
<polygon fill="#d0dce3" stroke="#d0dce3" points="93.69,-21.5 103.69,-18 93.69,-14.5 93.69,-21.5"/>
<text text-anchor="middle" x="79" y="-21.2" font-family="Inter,Arial" font-size="11.00" fill="#d0dce3">op</text>
</g>
<!-- ListFList -->
<g id="node3" class="node">
<title>ListFList</title>
<path fill="#ffffff" stroke="#586e75" d="M300,-36C300,-36 270,-36 270,-36 264,-36 258,-30 258,-24 258,-24 258,-12 258,-12 258,-6 264,0 270,0 270,0 300,0 300,0 306,0 312,-6 312,-12 312,-12 312,-24 312,-24 312,-30 306,-36 300,-36"/>
<text text-anchor="middle" x="285" y="-14.3" font-family="Inter,Arial" font-size="14.00" fill="#586e75">F[B]</text>
</g>
<!-- ListFA&#45;&gt;ListFList -->
<g id="edge2" class="edge disabled">
<title>ListFA&#45;&gt;ListFList</title>
<path fill="none" stroke="#d0dce3" d="M158.13,-18C182.89,-18 220.3,-18 247.9,-18"/>
<polygon fill="#d0dce3" stroke="#d0dce3" points="247.96,-21.5 257.96,-18 247.96,-14.5 247.96,-21.5"/>
<text text-anchor="middle" x="208" y="-21.2" font-family="Inter,Arial" font-size="11.00" fill="#d0dce3">map(_, loop)</text>
</g>
<!-- List -->
<g id="node4" class="node">
<title>List</title>
<path fill="#ffffff" stroke="#586e75" d="M427,-36C427,-36 397,-36 397,-36 391,-36 385,-30 385,-24 385,-24 385,-12 385,-12 385,-6 391,0 397,0 397,0 427,0 427,0 433,0 439,-6 439,-12 439,-12 439,-24 439,-24 439,-30 433,-36 427,-36"/>
<text text-anchor="middle" x="412" y="-14.3" font-family="Inter,Arial" font-size="14.00" fill="#586e75">B</text>
</g>
<!-- ListFList&#45;&gt;List -->
<g id="edge3" class="edge disabled">
<title>ListFList&#45;&gt;List</title>
<path fill="none" stroke="#d0dce3" d="M312.2,-18C330.37,-18 354.8,-18 374.82,-18"/>
<polygon fill="#d0dce3" stroke="#d0dce3" points="374.83,-21.5 384.83,-18 374.83,-14.5 374.83,-21.5"/>
<text text-anchor="middle" x="348.5" y="-21.2" font-family="Inter,Arial" font-size="11.00" fill="#d0dce3">embed</text>
</g>
</g>
</svg>
