<?xml version="1.0" encoding="UTF-8" standalone="no"?>
<!DOCTYPE svg PUBLIC "-//W3C//DTD SVG 1.1//EN"
 "http://www.w3.org/Graphics/SVG/1.1/DTD/svg11.dtd">
<!-- Generated by graphviz version 2.43.0 (0)
 -->
<!-- Title: %3 Pages: 1 -->
<svg width="441pt" height="44pt"
 viewBox="0.00 0.00 441.00 44.00" xmlns="http://www.w3.org/2000/svg" xmlns:xlink="http://www.w3.org/1999/xlink">
<g id="graph0" class="graph" transform="scale(1 1) rotate(0) translate(4 40)">
<title>%3</title>
<!-- ListFA -->
<g id="node1" class="node">
<title>ListFA</title>
<path fill="#b2ebf2" stroke="#dddddd" d="M145,-36C145,-36 115,-36 115,-36 109,-36 103,-30 103,-24 103,-24 103,-12 103,-12 103,-6 109,0 115,0 115,0 145,0 145,0 151,0 157,-6 157,-12 157,-12 157,-24 157,-24 157,-30 151,-36 145,-36"/>
<text text-anchor="middle" x="130" y="-14.3" font-family="Segoe UI,Roboto,Helvetica,Arial,sans-serif" font-size="14.00" fill="#dddddd">F[A]</text>
</g>
<!-- ListFList -->
<g id="node2" class="node">
<title>ListFList</title>
<path fill="#b2ebf2" stroke="#2980b9" d="M297,-36C297,-36 266,-36 266,-36 260,-36 254,-30 254,-24 254,-24 254,-12 254,-12 254,-6 260,0 266,0 266,0 297,0 297,0 303,0 309,-6 309,-12 309,-12 309,-24 309,-24 309,-30 303,-36 297,-36"/>
<text text-anchor="middle" x="281.5" y="-14.3" font-family="Segoe UI,Roboto,Helvetica,Arial,sans-serif" font-size="14.00" fill="#000000">F[List]</text>
</g>
<!-- ListFA&#45;&gt;ListFList -->
<g id="edge2" class="edge">
<title>ListFA&#45;&gt;ListFList</title>
<path fill="none" stroke="#dddddd" d="M157.04,-18C180.97,-18 216.69,-18 243.57,-18"/>
<polygon fill="#dddddd" stroke="#dddddd" points="243.75,-21.5 253.75,-18 243.75,-14.5 243.75,-21.5"/>
<text text-anchor="middle" x="205.5" y="-21.2" font-family="Segoe UI,Roboto,Helvetica,Arial,sans-serif" font-size="11.00" fill="#dddddd">map(_, loop)</text>
</g>
<!-- List -->
<g id="node3" class="node">
<title>List</title>
<path fill="#b2ebf2" stroke="#2980b9" d="M421,-36C421,-36 391,-36 391,-36 385,-36 379,-30 379,-24 379,-24 379,-12 379,-12 379,-6 385,0 391,0 391,0 421,0 421,0 427,0 433,-6 433,-12 433,-12 433,-24 433,-24 433,-30 427,-36 421,-36"/>
<text text-anchor="middle" x="406" y="-14.3" font-family="Segoe UI,Roboto,Helvetica,Arial,sans-serif" font-size="14.00" fill="#000000">List</text>
</g>
<!-- ListFList&#45;&gt;List -->
<g id="edge3" class="edge">
<title>ListFList&#45;&gt;List</title>
<path fill="none" stroke="#dddddd" d="M309.08,-18C326.54,-18 349.59,-18 368.73,-18"/>
<polygon fill="#dddddd" stroke="#dddddd" points="368.89,-21.5 378.89,-18 368.89,-14.5 368.89,-21.5"/>
<text text-anchor="middle" x="344" y="-21.2" font-family="Segoe UI,Roboto,Helvetica,Arial,sans-serif" font-size="11.00" fill="#dddddd">embed</text>
</g>
<!-- A -->
<g id="node4" class="node">
<title>A</title>
<path fill="#b2ebf2" stroke="#dddddd" d="M42,-36C42,-36 12,-36 12,-36 6,-36 0,-30 0,-24 0,-24 0,-12 0,-12 0,-6 6,0 12,0 12,0 42,0 42,0 48,0 54,-6 54,-12 54,-12 54,-24 54,-24 54,-30 48,-36 42,-36"/>
<text text-anchor="middle" x="27" y="-14.3" font-family="Segoe UI,Roboto,Helvetica,Arial,sans-serif" font-size="14.00" fill="#dddddd">A</text>
</g>
<!-- A&#45;&gt;ListFA -->
<g id="edge1" class="edge">
<title>A&#45;&gt;ListFA</title>
<path fill="none" stroke="#dddddd" d="M54.01,-18C65.7,-18 79.7,-18 92.42,-18"/>
<polygon fill="#dddddd" stroke="#dddddd" points="92.73,-21.5 102.73,-18 92.73,-14.5 92.73,-21.5"/>
<text text-anchor="middle" x="78.5" y="-21.2" font-family="Segoe UI,Roboto,Helvetica,Arial,sans-serif" font-size="11.00" fill="#dddddd">op</text>
</g>
</g>
</svg>
