<?xml version="1.0" encoding="UTF-8" standalone="no"?>
<!DOCTYPE svg PUBLIC "-//W3C//DTD SVG 1.1//EN"
 "http://www.w3.org/Graphics/SVG/1.1/DTD/svg11.dtd">
<!-- Generated by graphviz version 2.43.0 (0)
 -->
<!-- Title: %3 Pages: 1 -->
<svg width="472pt" height="44pt"
 viewBox="0.00 0.00 472.00 44.00" xmlns="http://www.w3.org/2000/svg" xmlns:xlink="http://www.w3.org/1999/xlink">
<g id="graph0" class="graph" transform="scale(1 1) rotate(0) translate(4 40)">
<title>%3</title>
<!-- B -->
<g id="node1" class="node">
<title>B</title>
<path fill="#ffffff" stroke="#586e75" d="M42,-36C42,-36 12,-36 12,-36 6,-36 0,-30 0,-24 0,-24 0,-12 0,-12 0,-6 6,0 12,0 12,0 42,0 42,0 48,0 54,-6 54,-12 54,-12 54,-24 54,-24 54,-30 48,-36 42,-36"/>
<text text-anchor="middle" x="27" y="-14.3" font-family="Inter,Arial" font-size="14.00" fill="#586e75">B</text>
</g>
<!-- ListFList -->
<g id="node2" class="node">
<title>ListFList</title>
<path fill="#ffffff" stroke="#586e75" d="M169,-36C169,-36 139,-36 139,-36 133,-36 127,-30 127,-24 127,-24 127,-12 127,-12 127,-6 133,0 139,0 139,0 169,0 169,0 175,0 181,-6 181,-12 181,-12 181,-24 181,-24 181,-30 175,-36 169,-36"/>
<text text-anchor="middle" x="154" y="-14.3" font-family="Inter,Arial" font-size="14.00" fill="#586e75">F[B]</text>
</g>
<!-- B&#45;&gt;ListFList -->
<g id="edge1" class="edge disabled">
<title>B&#45;&gt;ListFList</title>
<path fill="none" stroke="#d0dce3" d="M54.2,-18C72.37,-18 96.8,-18 116.82,-18"/>
<polygon fill="#d0dce3" stroke="#d0dce3" points="116.83,-21.5 126.83,-18 116.83,-14.5 116.83,-21.5"/>
<text text-anchor="middle" x="90.5" y="-21.2" font-family="Inter,Arial" font-size="11.00" fill="#d0dce3">project</text>
</g>
<!-- ListFA -->
<g id="node3" class="node disabled">
<title>ListFA</title>
<path fill="#ffffff" stroke="#d0dce3" d="M323,-36C323,-36 293,-36 293,-36 287,-36 281,-30 281,-24 281,-24 281,-12 281,-12 281,-6 287,0 293,0 293,0 323,0 323,0 329,0 335,-6 335,-12 335,-12 335,-24 335,-24 335,-30 329,-36 323,-36"/>
<text text-anchor="middle" x="308" y="-14.3" font-family="Inter,Arial" font-size="14.00" fill="#d0dce3">F[A]</text>
</g>
<!-- ListFList&#45;&gt;ListFA -->
<g id="edge2" class="edge disabled">
<title>ListFList&#45;&gt;ListFA</title>
<path fill="none" stroke="#d0dce3" d="M181.13,-18C205.89,-18 243.3,-18 270.9,-18"/>
<polygon fill="#d0dce3" stroke="#d0dce3" points="270.96,-21.5 280.96,-18 270.96,-14.5 270.96,-21.5"/>
<text text-anchor="middle" x="231" y="-21.2" font-family="Inter,Arial" font-size="11.00" fill="#d0dce3">map(_, loop)</text>
</g>
<!-- A -->
<g id="node4" class="node disabled">
<title>A</title>
<path fill="#ffffff" stroke="#d0dce3" d="M452,-36C452,-36 422,-36 422,-36 416,-36 410,-30 410,-24 410,-24 410,-12 410,-12 410,-6 416,0 422,0 422,0 452,0 452,0 458,0 464,-6 464,-12 464,-12 464,-24 464,-24 464,-30 458,-36 452,-36"/>
<text text-anchor="middle" x="437" y="-14.3" font-family="Inter,Arial" font-size="14.00" fill="#d0dce3">A</text>
</g>
<!-- ListFA&#45;&gt;A -->
<g id="edge3" class="edge disabled">
<title>ListFA&#45;&gt;A</title>
<path fill="none" stroke="#d0dce3" d="M335.01,-18C353.63,-18 378.96,-18 399.59,-18"/>
<polygon fill="#d0dce3" stroke="#d0dce3" points="399.59,-21.5 409.59,-18 399.59,-14.5 399.59,-21.5"/>
<text text-anchor="middle" x="372.5" y="-21.2" font-family="Inter,Arial" font-size="11.00" fill="#d0dce3">algebra</text>
</g>
</g>
</svg>
