<?xml version="1.0" encoding="UTF-8" standalone="no"?>
<!DOCTYPE svg PUBLIC "-//W3C//DTD SVG 1.1//EN"
 "http://www.w3.org/Graphics/SVG/1.1/DTD/svg11.dtd">
<!-- Generated by graphviz version 2.43.0 (0)
 -->
<!-- Title: %3 Pages: 1 -->
<svg width="572pt" height="44pt"
 viewBox="0.00 0.00 572.00 44.00" xmlns="http://www.w3.org/2000/svg" xmlns:xlink="http://www.w3.org/1999/xlink">
<g id="graph0" class="graph" transform="scale(1 1) rotate(0) translate(4 40)">
<title>%3</title>
<!-- ListFList -->
<g id="node1" class="node">
<title>ListFList</title>
<path fill="#b2ebf2" stroke="#dddddd" d="M221,-36C221,-36 159,-36 159,-36 153,-36 147,-30 147,-24 147,-24 147,-12 147,-12 147,-6 153,0 159,0 159,0 221,0 221,0 227,0 233,-6 233,-12 233,-12 233,-24 233,-24 233,-30 227,-36 221,-36"/>
<text text-anchor="middle" x="190" y="-14.3" font-family="Segoe UI,Roboto,Helvetica,Arial,sans-serif" font-size="14.00" fill="#dddddd">TreeF[Tree]</text>
</g>
<!-- ListFA -->
<g id="node2" class="node">
<title>ListFA</title>
<path fill="#b2ebf2" stroke="#2980b9" d="M392,-36C392,-36 342,-36 342,-36 336,-36 330,-30 330,-24 330,-24 330,-12 330,-12 330,-6 336,0 342,0 342,0 392,0 392,0 398,0 404,-6 404,-12 404,-12 404,-24 404,-24 404,-30 398,-36 392,-36"/>
<text text-anchor="middle" x="367" y="-14.3" font-family="Segoe UI,Roboto,Helvetica,Arial,sans-serif" font-size="14.00" fill="#000000">TreeF[Int]</text>
</g>
<!-- ListFList&#45;&gt;ListFA -->
<g id="edge2" class="edge">
<title>ListFList&#45;&gt;ListFA</title>
<path fill="none" stroke="#dddddd" d="M233.36,-18C259.44,-18 292.88,-18 319.66,-18"/>
<polygon fill="#dddddd" stroke="#dddddd" points="319.94,-21.5 329.94,-18 319.94,-14.5 319.94,-21.5"/>
<text text-anchor="middle" x="281.5" y="-21.2" font-family="Segoe UI,Roboto,Helvetica,Arial,sans-serif" font-size="11.00" fill="#dddddd">map(_, loop)</text>
</g>
<!-- A -->
<g id="node4" class="node">
<title>A</title>
<path fill="#b2ebf2" stroke="#2980b9" d="M552,-36C552,-36 522,-36 522,-36 516,-36 510,-30 510,-24 510,-24 510,-12 510,-12 510,-6 516,0 522,0 522,0 552,0 552,0 558,0 564,-6 564,-12 564,-12 564,-24 564,-24 564,-30 558,-36 552,-36"/>
<text text-anchor="middle" x="537" y="-14.3" font-family="Segoe UI,Roboto,Helvetica,Arial,sans-serif" font-size="14.00" fill="#000000">Int</text>
</g>
<!-- ListFA&#45;&gt;A -->
<g id="edge3" class="edge">
<title>ListFA&#45;&gt;A</title>
<path fill="none" stroke="#2980b9" d="M404.04,-18C432.25,-18 471.32,-18 499.62,-18"/>
<polygon fill="#2980b9" stroke="#2980b9" points="499.89,-21.5 509.89,-18 499.89,-14.5 499.89,-21.5"/>
<text text-anchor="middle" x="457" y="-21.2" font-family="Segoe UI,Roboto,Helvetica,Arial,sans-serif" font-size="11.00" fill="#000000">heightAlgebra</text>
</g>
<!-- B -->
<g id="node3" class="node">
<title>B</title>
<path fill="#b2ebf2" stroke="#dddddd" d="M42,-36C42,-36 12,-36 12,-36 6,-36 0,-30 0,-24 0,-24 0,-12 0,-12 0,-6 6,0 12,0 12,0 42,0 42,0 48,0 54,-6 54,-12 54,-12 54,-24 54,-24 54,-30 48,-36 42,-36"/>
<text text-anchor="middle" x="27" y="-14.3" font-family="Segoe UI,Roboto,Helvetica,Arial,sans-serif" font-size="14.00" fill="#dddddd">Tree</text>
</g>
<!-- B&#45;&gt;ListFList -->
<g id="edge1" class="edge">
<title>B&#45;&gt;ListFList</title>
<path fill="none" stroke="#dddddd" d="M54.23,-18C76.43,-18 108.94,-18 136.47,-18"/>
<polygon fill="#dddddd" stroke="#dddddd" points="136.74,-21.5 146.74,-18 136.74,-14.5 136.74,-21.5"/>
<text text-anchor="middle" x="100.5" y="-21.2" font-family="Segoe UI,Roboto,Helvetica,Arial,sans-serif" font-size="11.00" fill="#dddddd">projectTree</text>
</g>
</g>
</svg>
