<?xml version="1.0" encoding="UTF-8" standalone="no"?>
<!DOCTYPE svg PUBLIC "-//W3C//DTD SVG 1.1//EN"
 "http://www.w3.org/Graphics/SVG/1.1/DTD/svg11.dtd">
<!-- Generated by graphviz version 2.43.0 (0)
 -->
<!-- Title: %3 Pages: 1 -->
<svg width="483pt" height="44pt"
 viewBox="0.00 0.00 483.00 44.00" xmlns="http://www.w3.org/2000/svg" xmlns:xlink="http://www.w3.org/1999/xlink">
<g id="graph0" class="graph" transform="scale(1 1) rotate(0) translate(4 40)">
<title>%3</title>
<!-- B -->
<g id="node1" class="node">
<title>B</title>
<path fill="#ffffff" stroke="#586e75" d="M42,-36C42,-36 12,-36 12,-36 6,-36 0,-30 0,-24 0,-24 0,-12 0,-12 0,-6 6,0 12,0 12,0 42,0 42,0 48,0 54,-6 54,-12 54,-12 54,-24 54,-24 54,-30 48,-36 42,-36"/>
<text text-anchor="middle" x="27" y="-14.3" font-family="Inter,Arial" font-size="14.00" fill="#586e75">Tree</text>
</g>
<!-- ListFList -->
<g id="node2" class="node">
<title>ListFList</title>
<path fill="#ffffff" stroke="#586e75" d="M180,-36C180,-36 139,-36 139,-36 133,-36 127,-30 127,-24 127,-24 127,-12 127,-12 127,-6 133,0 139,0 139,0 180,0 180,0 186,0 192,-6 192,-12 192,-12 192,-24 192,-24 192,-30 186,-36 180,-36"/>
<text text-anchor="middle" x="159.5" y="-14.3" font-family="Inter,Arial" font-size="14.00" fill="#586e75">F[Tree]</text>
</g>
<!-- B&#45;&gt;ListFList -->
<g id="edge1" class="edge disabled">
<title>B&#45;&gt;ListFList</title>
<path fill="none" stroke="#d0dce3" d="M54.09,-18C72.04,-18 96.25,-18 116.84,-18"/>
<polygon fill="#d0dce3" stroke="#d0dce3" points="116.92,-21.5 126.92,-18 116.92,-14.5 116.92,-21.5"/>
<text text-anchor="middle" x="90.5" y="-21.2" font-family="Inter,Arial" font-size="11.00" fill="#d0dce3">project</text>
</g>
<!-- ListFA -->
<g id="node3" class="node disabled">
<title>ListFA</title>
<path fill="#ffffff" stroke="#d0dce3" d="M334,-36C334,-36 304,-36 304,-36 298,-36 292,-30 292,-24 292,-24 292,-12 292,-12 292,-6 298,0 304,0 304,0 334,0 334,0 340,0 346,-6 346,-12 346,-12 346,-24 346,-24 346,-30 340,-36 334,-36"/>
<text text-anchor="middle" x="319" y="-14.3" font-family="Inter,Arial" font-size="14.00" fill="#d0dce3">F[A]</text>
</g>
<!-- ListFList&#45;&gt;ListFA -->
<g id="edge2" class="edge disabled">
<title>ListFList&#45;&gt;ListFA</title>
<path fill="none" stroke="#d0dce3" d="M192.37,-18C218.24,-18 254.72,-18 281.71,-18"/>
<polygon fill="#d0dce3" stroke="#d0dce3" points="281.91,-21.5 291.91,-18 281.91,-14.5 281.91,-21.5"/>
<text text-anchor="middle" x="242" y="-21.2" font-family="Inter,Arial" font-size="11.00" fill="#d0dce3">map(_, loop)</text>
</g>
<!-- A -->
<g id="node4" class="node disabled">
<title>A</title>
<path fill="#ffffff" stroke="#d0dce3" d="M463,-36C463,-36 433,-36 433,-36 427,-36 421,-30 421,-24 421,-24 421,-12 421,-12 421,-6 427,0 433,0 433,0 463,0 463,0 469,0 475,-6 475,-12 475,-12 475,-24 475,-24 475,-30 469,-36 463,-36"/>
<text text-anchor="middle" x="448" y="-14.3" font-family="Inter,Arial" font-size="14.00" fill="#d0dce3">A</text>
</g>
<!-- ListFA&#45;&gt;A -->
<g id="edge3" class="edge disabled">
<title>ListFA&#45;&gt;A</title>
<path fill="none" stroke="#d0dce3" d="M346.01,-18C364.63,-18 389.96,-18 410.59,-18"/>
<polygon fill="#d0dce3" stroke="#d0dce3" points="410.59,-21.5 420.59,-18 410.59,-14.5 410.59,-21.5"/>
<text text-anchor="middle" x="383.5" y="-21.2" font-family="Inter,Arial" font-size="11.00" fill="#d0dce3">algebra</text>
</g>
</g>
</svg>
