<?xml version="1.0" encoding="UTF-8" standalone="no"?>
<!DOCTYPE svg PUBLIC "-//W3C//DTD SVG 1.1//EN"
 "http://www.w3.org/Graphics/SVG/1.1/DTD/svg11.dtd">
<!-- Generated by graphviz version 2.43.0 (0)
 -->
<!-- Title: %3 Pages: 1 -->
<svg width="703pt" height="56pt"
 viewBox="0.00 0.00 703.00 55.50" xmlns="http://www.w3.org/2000/svg" xmlns:xlink="http://www.w3.org/1999/xlink">
<g id="graph0" class="graph" transform="scale(1 1) rotate(0) translate(4 51.5)">
<title>%3</title>
<!-- ListStruct -->
<g id="node1" class="node">
<title>ListStruct</title>
<path fill="#ffffff" stroke="#586e75" d="M289,-0.5C289,-0.5 330,-0.5 330,-0.5 336,-0.5 342,-6.5 342,-12.5 342,-12.5 342,-34.5 342,-34.5 342,-40.5 336,-46.5 330,-46.5 330,-46.5 289,-46.5 289,-46.5 283,-46.5 277,-40.5 277,-34.5 277,-34.5 277,-12.5 277,-12.5 277,-6.5 283,-0.5 289,-0.5"/>
<text text-anchor="middle" x="309.5" y="-31.3" font-family="Inter,Arial" font-size="14.00" fill="#586e75">Int, List</text>
<polyline fill="none" stroke="#586e75" points="277,-23.5 342,-23.5 "/>
<text text-anchor="middle" x="309.5" y="-8.3" font-family="Inter,Arial" font-size="14.00" fill="#586e75">∅</text>
</g>
<!-- ListStruct2 -->
<g id="node2" class="node">
<title>ListStruct2</title>
<path fill="#ffffff" stroke="#586e75" d="M413,-0.5C413,-0.5 443,-0.5 443,-0.5 449,-0.5 455,-6.5 455,-12.5 455,-12.5 455,-34.5 455,-34.5 455,-40.5 449,-46.5 443,-46.5 443,-46.5 413,-46.5 413,-46.5 407,-46.5 401,-40.5 401,-34.5 401,-34.5 401,-12.5 401,-12.5 401,-6.5 407,-0.5 413,-0.5"/>
<text text-anchor="middle" x="428" y="-31.3" font-family="Inter,Arial" font-size="14.00" fill="#586e75">Int, A</text>
<polyline fill="none" stroke="#586e75" points="401,-23.5 455,-23.5 "/>
<text text-anchor="middle" x="428" y="-8.3" font-family="Inter,Arial" font-size="14.00" fill="#586e75">∅</text>
</g>
<!-- ListStruct&#45;&gt;ListStruct2 -->
<g id="edge4" class="edge">
<title>ListStruct:cons&#45;&gt;ListStruct2:cons</title>
<path fill="none" stroke="#586e75" d="M342,-35.5C342,-35.5 374.16,-35.5 390.99,-35.5"/>
<polygon fill="#586e75" stroke="#586e75" points="391,-39 401,-35.5 391,-32 391,-39"/>
<text text-anchor="middle" x="371.5" y="-38.7" font-family="Inter,Arial" font-size="11.00" fill="#586e75">loop</text>
</g>
<!-- ListStruct&#45;&gt;ListStruct2 -->
<g id="edge5" class="edge">
<title>ListStruct:nil&#45;&gt;ListStruct2:nil</title>
<path fill="none" stroke="#586e75" d="M342,-11.5C342,-11.5 374.16,-11.5 390.99,-11.5"/>
<polygon fill="#586e75" stroke="#586e75" points="391,-15 401,-11.5 391,-8 391,-15"/>
</g>
<!-- ListFA -->
<g id="node4" class="node">
<title>ListFA</title>
<path fill="#ffffff" stroke="#586e75" d="M579,-41.5C579,-41.5 534,-41.5 534,-41.5 528,-41.5 522,-35.5 522,-29.5 522,-29.5 522,-17.5 522,-17.5 522,-11.5 528,-5.5 534,-5.5 534,-5.5 579,-5.5 579,-5.5 585,-5.5 591,-11.5 591,-17.5 591,-17.5 591,-29.5 591,-29.5 591,-35.5 585,-41.5 579,-41.5"/>
<text text-anchor="middle" x="556.5" y="-19.8" font-family="Inter,Arial" font-size="14.00" fill="#586e75">ListF[A]</text>
</g>
<!-- ListStruct2&#45;&gt;ListFA -->
<g id="edge6" class="edge pattern">
<title>ListStruct2:cons&#45;&gt;ListFA</title>
<path fill="none" stroke="#586e75" stroke-dasharray="5,2" d="M455,-35.5C455,-35.5 484.53,-31.97 511.58,-28.74"/>
<polygon fill="#586e75" stroke="#586e75" points="512.24,-32.19 521.76,-27.53 511.41,-25.24 512.24,-32.19"/>
<text text-anchor="middle" x="488.5" y="-35.7" font-family="Inter,Arial" font-size="11.00" fill="#586e75">Some</text>
</g>
<!-- ListStruct2&#45;&gt;ListFA -->
<g id="edge7" class="edge pattern">
<title>ListStruct2:nil&#45;&gt;ListFA</title>
<path fill="none" stroke="#586e75" stroke-dasharray="5,2" d="M455,-11.5C455,-11.5 484.53,-15.03 511.58,-18.26"/>
<polygon fill="#586e75" stroke="#586e75" points="511.41,-21.76 521.76,-19.47 512.24,-14.81 511.41,-21.76"/>
<text text-anchor="middle" x="488.5" y="-16.7" font-family="Inter,Arial" font-size="11.00" fill="#586e75">None</text>
</g>
<!-- ListFList -->
<g id="node3" class="node">
<title>ListFList</title>
<path fill="#ffffff" stroke="#586e75" d="M198,-41.5C198,-41.5 139,-41.5 139,-41.5 133,-41.5 127,-35.5 127,-29.5 127,-29.5 127,-17.5 127,-17.5 127,-11.5 133,-5.5 139,-5.5 139,-5.5 198,-5.5 198,-5.5 204,-5.5 210,-11.5 210,-17.5 210,-17.5 210,-29.5 210,-29.5 210,-35.5 204,-41.5 198,-41.5"/>
<text text-anchor="middle" x="168.5" y="-19.8" font-family="Inter,Arial" font-size="14.00" fill="#586e75">ListF[List]</text>
</g>
<!-- ListFList&#45;&gt;ListStruct -->
<g id="edge2" class="edge pattern">
<title>ListFList&#45;&gt;ListStruct:cons</title>
<path fill="none" stroke="#586e75" stroke-dasharray="5,2" d="M210.14,-28.04C230.59,-30.32 253.74,-32.9 266.74,-34.35"/>
<polygon fill="#586e75" stroke="#586e75" points="266.67,-37.87 277,-35.5 267.45,-30.91 266.67,-37.87"/>
<text text-anchor="middle" x="243.5" y="-35.7" font-family="Inter,Arial" font-size="11.00" fill="#586e75">Some</text>
</g>
<!-- ListFList&#45;&gt;ListStruct -->
<g id="edge3" class="edge pattern">
<title>ListFList&#45;&gt;ListStruct:nil</title>
<path fill="none" stroke="#586e75" stroke-dasharray="5,2" d="M210.14,-18.96C230.59,-16.68 253.74,-14.1 266.74,-12.65"/>
<polygon fill="#586e75" stroke="#586e75" points="267.45,-16.09 277,-11.5 266.67,-9.13 267.45,-16.09"/>
<text text-anchor="middle" x="243.5" y="-16.7" font-family="Inter,Arial" font-size="11.00" fill="#586e75">None</text>
</g>
<!-- A -->
<g id="node6" class="node disabled">
<title>A</title>
<path fill="#ffffff" stroke="#d0dce3" d="M683,-41.5C683,-41.5 653,-41.5 653,-41.5 647,-41.5 641,-35.5 641,-29.5 641,-29.5 641,-17.5 641,-17.5 641,-11.5 647,-5.5 653,-5.5 653,-5.5 683,-5.5 683,-5.5 689,-5.5 695,-11.5 695,-17.5 695,-17.5 695,-29.5 695,-29.5 695,-35.5 689,-41.5 683,-41.5"/>
<text text-anchor="middle" x="668" y="-19.8" font-family="Inter,Arial" font-size="14.00" fill="#d0dce3">A</text>
</g>
<!-- ListFA&#45;&gt;A -->
<g id="edge8" class="edge disabled">
<title>ListFA&#45;&gt;A</title>
<path fill="none" stroke="#d0dce3" d="M591.25,-23.5C603.72,-23.5 617.9,-23.5 630.59,-23.5"/>
<polygon fill="#d0dce3" stroke="#d0dce3" points="630.84,-27 640.84,-23.5 630.84,-20 630.84,-27"/>
<text text-anchor="middle" x="616" y="-26.7" font-family="Inter,Arial" font-size="11.00" fill="#d0dce3">op</text>
</g>
<!-- List -->
<g id="node5" class="node disabled">
<title>List</title>
<path fill="#ffffff" stroke="#d0dce3" d="M42,-41.5C42,-41.5 12,-41.5 12,-41.5 6,-41.5 0,-35.5 0,-29.5 0,-29.5 0,-17.5 0,-17.5 0,-11.5 6,-5.5 12,-5.5 12,-5.5 42,-5.5 42,-5.5 48,-5.5 54,-11.5 54,-17.5 54,-17.5 54,-29.5 54,-29.5 54,-35.5 48,-41.5 42,-41.5"/>
<text text-anchor="middle" x="27" y="-19.8" font-family="Inter,Arial" font-size="14.00" fill="#d0dce3">List</text>
</g>
<!-- List&#45;&gt;ListFList -->
<g id="edge1" class="edge disabled">
<title>List&#45;&gt;ListFList</title>
<path fill="none" stroke="#d0dce3" d="M54.24,-23.5C71.81,-23.5 95.5,-23.5 116.68,-23.5"/>
<polygon fill="#d0dce3" stroke="#d0dce3" points="116.84,-27 126.84,-23.5 116.84,-20 116.84,-27"/>
<text text-anchor="middle" x="90.5" y="-26.7" font-family="Inter,Arial" font-size="11.00" fill="#d0dce3">project</text>
</g>
</g>
</svg>
