<?xml version="1.0" encoding="UTF-8" standalone="no"?>
<!DOCTYPE svg PUBLIC "-//W3C//DTD SVG 1.1//EN"
 "http://www.w3.org/Graphics/SVG/1.1/DTD/svg11.dtd">
<!-- Generated by graphviz version 2.43.0 (0)
 -->
<!-- Title: %3 Pages: 1 -->
<svg width="465pt" height="44pt"
 viewBox="0.00 0.00 465.00 44.00" xmlns="http://www.w3.org/2000/svg" xmlns:xlink="http://www.w3.org/1999/xlink">
<g id="graph0" class="graph" transform="scale(1 1) rotate(0) translate(4 40)">
<title>%3</title>
<!-- ListFList -->
<g id="node1" class="node">
<title>ListFList</title>
<path fill="#b2ebf2" stroke="#2980b9" d="M167,-36C167,-36 137,-36 137,-36 131,-36 125,-30 125,-24 125,-24 125,-12 125,-12 125,-6 131,0 137,0 137,0 167,0 167,0 173,0 179,-6 179,-12 179,-12 179,-24 179,-24 179,-30 173,-36 167,-36"/>
<text text-anchor="middle" x="152" y="-14.3" font-family="Segoe UI,Roboto,Helvetica,Arial,sans-serif" font-size="14.00" fill="#000000">F[B]</text>
</g>
<!-- ListFA -->
<g id="node2" class="node">
<title>ListFA</title>
<path fill="#b2ebf2" stroke="#2980b9" d="M318,-36C318,-36 288,-36 288,-36 282,-36 276,-30 276,-24 276,-24 276,-12 276,-12 276,-6 282,0 288,0 288,0 318,0 318,0 324,0 330,-6 330,-12 330,-12 330,-24 330,-24 330,-30 324,-36 318,-36"/>
<text text-anchor="middle" x="303" y="-14.3" font-family="Segoe UI,Roboto,Helvetica,Arial,sans-serif" font-size="14.00" fill="#000000">F[A]</text>
</g>
<!-- ListFList&#45;&gt;ListFA -->
<g id="edge2" class="edge">
<title>ListFList&#45;&gt;ListFA</title>
<path fill="none" stroke="#2980b9" d="M179.3,-18C203.34,-18 239.12,-18 265.85,-18"/>
<polygon fill="#2980b9" stroke="#2980b9" points="265.97,-21.5 275.97,-18 265.97,-14.5 265.97,-21.5"/>
<text text-anchor="middle" x="227.5" y="-21.2" font-family="Segoe UI,Roboto,Helvetica,Arial,sans-serif" font-size="11.00" fill="#000000">map(_, loop)</text>
</g>
<!-- A -->
<g id="node4" class="node">
<title>A</title>
<path fill="#b2ebf2" stroke="#2980b9" d="M445,-36C445,-36 415,-36 415,-36 409,-36 403,-30 403,-24 403,-24 403,-12 403,-12 403,-6 409,0 415,0 415,0 445,0 445,0 451,0 457,-6 457,-12 457,-12 457,-24 457,-24 457,-30 451,-36 445,-36"/>
<text text-anchor="middle" x="430" y="-14.3" font-family="Segoe UI,Roboto,Helvetica,Arial,sans-serif" font-size="14.00" fill="#000000">A</text>
</g>
<!-- ListFA&#45;&gt;A -->
<g id="edge3" class="edge">
<title>ListFA&#45;&gt;A</title>
<path fill="none" stroke="#2980b9" d="M330.2,-18C348.37,-18 372.8,-18 392.82,-18"/>
<polygon fill="#2980b9" stroke="#2980b9" points="392.83,-21.5 402.83,-18 392.83,-14.5 392.83,-21.5"/>
<text text-anchor="middle" x="366.5" y="-21.2" font-family="Segoe UI,Roboto,Helvetica,Arial,sans-serif" font-size="11.00" fill="#000000">algebra</text>
</g>
<!-- B -->
<g id="node3" class="node">
<title>B</title>
<path fill="#b2ebf2" stroke="#2980b9" d="M42,-36C42,-36 12,-36 12,-36 6,-36 0,-30 0,-24 0,-24 0,-12 0,-12 0,-6 6,0 12,0 12,0 42,0 42,0 48,0 54,-6 54,-12 54,-12 54,-24 54,-24 54,-30 48,-36 42,-36"/>
<text text-anchor="middle" x="27" y="-14.3" font-family="Segoe UI,Roboto,Helvetica,Arial,sans-serif" font-size="14.00" fill="#000000">B</text>
</g>
<!-- B&#45;&gt;ListFList -->
<g id="edge1" class="edge">
<title>B&#45;&gt;ListFList</title>
<path fill="none" stroke="#2980b9" d="M54.09,-18C71.78,-18 95.4,-18 114.9,-18"/>
<polygon fill="#2980b9" stroke="#2980b9" points="114.95,-21.5 124.95,-18 114.95,-14.5 114.95,-21.5"/>
<text text-anchor="middle" x="89.5" y="-21.2" font-family="Segoe UI,Roboto,Helvetica,Arial,sans-serif" font-size="11.00" fill="#000000">project</text>
</g>
</g>
</svg>
