<?xml version="1.0" encoding="UTF-8" standalone="no"?>
<!DOCTYPE svg PUBLIC "-//W3C//DTD SVG 1.1//EN"
 "http://www.w3.org/Graphics/SVG/1.1/DTD/svg11.dtd">
<!-- Generated by graphviz version 2.43.0 (0)
 -->
<!-- Title: %3 Pages: 1 -->
<svg width="481pt" height="98pt"
 viewBox="0.00 0.00 481.00 98.00" xmlns="http://www.w3.org/2000/svg" xmlns:xlink="http://www.w3.org/1999/xlink">
<g id="graph0" class="graph" transform="scale(1 1) rotate(0) translate(4 94)">
<title>%3</title>
<!-- anaA -->
<g id="node1" class="node">
<title>anaA</title>
<path fill="#b2ebf2" stroke="#2980b9" d="M42,-36C42,-36 12,-36 12,-36 6,-36 0,-30 0,-24 0,-24 0,-12 0,-12 0,-6 6,0 12,0 12,0 42,0 42,0 48,0 54,-6 54,-12 54,-12 54,-24 54,-24 54,-30 48,-36 42,-36"/>
<text text-anchor="middle" x="27" y="-14.3" font-family="Segoe UI,Roboto,Helvetica,Arial,sans-serif" font-size="14.00" fill="#000000">A</text>
</g>
<!-- anaFA -->
<g id="node3" class="node">
<title>anaFA</title>
<path fill="#b2ebf2" stroke="#2980b9" d="M183,-36C183,-36 153,-36 153,-36 147,-36 141,-30 141,-24 141,-24 141,-12 141,-12 141,-6 147,0 153,0 153,0 183,0 183,0 189,0 195,-6 195,-12 195,-12 195,-24 195,-24 195,-30 189,-36 183,-36"/>
<text text-anchor="middle" x="168" y="-14.3" font-family="Segoe UI,Roboto,Helvetica,Arial,sans-serif" font-size="14.00" fill="#000000">F[A]</text>
</g>
<!-- anaA&#45;&gt;anaFA -->
<g id="edge4" class="edge">
<title>anaA&#45;&gt;anaFA</title>
<path fill="none" stroke="#2980b9" d="M54.14,-18C75.79,-18 106.78,-18 130.81,-18"/>
<polygon fill="#2980b9" stroke="#2980b9" points="130.97,-21.5 140.97,-18 130.97,-14.5 130.97,-21.5"/>
<text text-anchor="middle" x="97.5" y="-21.2" font-family="Segoe UI,Roboto,Helvetica,Arial,sans-serif" font-size="11.00" fill="#000000">coAlgebra</text>
</g>
<!-- cataB -->
<g id="node2" class="node">
<title>cataB</title>
<path fill="#b2ebf2" stroke="#2980b9" d="M42,-90C42,-90 12,-90 12,-90 6,-90 0,-84 0,-78 0,-78 0,-66 0,-66 0,-60 6,-54 12,-54 12,-54 42,-54 42,-54 48,-54 54,-60 54,-66 54,-66 54,-78 54,-78 54,-84 48,-90 42,-90"/>
<text text-anchor="middle" x="27" y="-68.3" font-family="Segoe UI,Roboto,Helvetica,Arial,sans-serif" font-size="14.00" fill="#000000">B</text>
</g>
<!-- cataFB -->
<g id="node4" class="node">
<title>cataFB</title>
<path fill="#b2ebf2" stroke="#2980b9" d="M183,-90C183,-90 153,-90 153,-90 147,-90 141,-84 141,-78 141,-78 141,-66 141,-66 141,-60 147,-54 153,-54 153,-54 183,-54 183,-54 189,-54 195,-60 195,-66 195,-66 195,-78 195,-78 195,-84 189,-90 183,-90"/>
<text text-anchor="middle" x="168" y="-68.3" font-family="Segoe UI,Roboto,Helvetica,Arial,sans-serif" font-size="14.00" fill="#000000">F[B]</text>
</g>
<!-- cataB&#45;&gt;cataFB -->
<g id="edge1" class="edge">
<title>cataB&#45;&gt;cataFB</title>
<path fill="none" stroke="#2980b9" d="M54.14,-72C75.79,-72 106.78,-72 130.81,-72"/>
<polygon fill="#2980b9" stroke="#2980b9" points="130.97,-75.5 140.97,-72 130.97,-68.5 130.97,-75.5"/>
<text text-anchor="middle" x="97.5" y="-75.2" font-family="Segoe UI,Roboto,Helvetica,Arial,sans-serif" font-size="11.00" fill="#000000">project</text>
</g>
<!-- anaFB -->
<g id="node5" class="node">
<title>anaFB</title>
<path fill="#b2ebf2" stroke="#2980b9" d="M334,-36C334,-36 304,-36 304,-36 298,-36 292,-30 292,-24 292,-24 292,-12 292,-12 292,-6 298,0 304,0 304,0 334,0 334,0 340,0 346,-6 346,-12 346,-12 346,-24 346,-24 346,-30 340,-36 334,-36"/>
<text text-anchor="middle" x="319" y="-14.3" font-family="Segoe UI,Roboto,Helvetica,Arial,sans-serif" font-size="14.00" fill="#000000">F[B]</text>
</g>
<!-- anaFA&#45;&gt;anaFB -->
<g id="edge5" class="edge">
<title>anaFA&#45;&gt;anaFB</title>
<path fill="none" stroke="#2980b9" d="M195.3,-18C219.34,-18 255.12,-18 281.85,-18"/>
<polygon fill="#2980b9" stroke="#2980b9" points="281.97,-21.5 291.97,-18 281.97,-14.5 281.97,-21.5"/>
<text text-anchor="middle" x="243.5" y="-21.2" font-family="Segoe UI,Roboto,Helvetica,Arial,sans-serif" font-size="11.00" fill="#000000">map(_, loop)</text>
</g>
<!-- cataFA -->
<g id="node6" class="node">
<title>cataFA</title>
<path fill="#b2ebf2" stroke="#2980b9" d="M334,-90C334,-90 304,-90 304,-90 298,-90 292,-84 292,-78 292,-78 292,-66 292,-66 292,-60 298,-54 304,-54 304,-54 334,-54 334,-54 340,-54 346,-60 346,-66 346,-66 346,-78 346,-78 346,-84 340,-90 334,-90"/>
<text text-anchor="middle" x="319" y="-68.3" font-family="Segoe UI,Roboto,Helvetica,Arial,sans-serif" font-size="14.00" fill="#000000">F[A]</text>
</g>
<!-- cataFB&#45;&gt;cataFA -->
<g id="edge2" class="edge">
<title>cataFB&#45;&gt;cataFA</title>
<path fill="none" stroke="#2980b9" d="M195.3,-72C219.34,-72 255.12,-72 281.85,-72"/>
<polygon fill="#2980b9" stroke="#2980b9" points="281.97,-75.5 291.97,-72 281.97,-68.5 281.97,-75.5"/>
<text text-anchor="middle" x="243.5" y="-75.2" font-family="Segoe UI,Roboto,Helvetica,Arial,sans-serif" font-size="11.00" fill="#000000">map(_, loop)</text>
</g>
<!-- anaB -->
<g id="node7" class="node">
<title>anaB</title>
<path fill="#b2ebf2" stroke="#2980b9" d="M461,-36C461,-36 431,-36 431,-36 425,-36 419,-30 419,-24 419,-24 419,-12 419,-12 419,-6 425,0 431,0 431,0 461,0 461,0 467,0 473,-6 473,-12 473,-12 473,-24 473,-24 473,-30 467,-36 461,-36"/>
<text text-anchor="middle" x="446" y="-14.3" font-family="Segoe UI,Roboto,Helvetica,Arial,sans-serif" font-size="14.00" fill="#000000">B</text>
</g>
<!-- anaFB&#45;&gt;anaB -->
<g id="edge6" class="edge">
<title>anaFB&#45;&gt;anaB</title>
<path fill="none" stroke="#2980b9" d="M346.2,-18C364.37,-18 388.8,-18 408.82,-18"/>
<polygon fill="#2980b9" stroke="#2980b9" points="408.83,-21.5 418.83,-18 408.83,-14.5 408.83,-21.5"/>
<text text-anchor="middle" x="382.5" y="-21.2" font-family="Segoe UI,Roboto,Helvetica,Arial,sans-serif" font-size="11.00" fill="#000000">embed</text>
</g>
<!-- cataA -->
<g id="node8" class="node">
<title>cataA</title>
<path fill="#b2ebf2" stroke="#2980b9" d="M461,-90C461,-90 431,-90 431,-90 425,-90 419,-84 419,-78 419,-78 419,-66 419,-66 419,-60 425,-54 431,-54 431,-54 461,-54 461,-54 467,-54 473,-60 473,-66 473,-66 473,-78 473,-78 473,-84 467,-90 461,-90"/>
<text text-anchor="middle" x="446" y="-68.3" font-family="Segoe UI,Roboto,Helvetica,Arial,sans-serif" font-size="14.00" fill="#000000">A</text>
</g>
<!-- cataFA&#45;&gt;cataA -->
<g id="edge3" class="edge">
<title>cataFA&#45;&gt;cataA</title>
<path fill="none" stroke="#2980b9" d="M346.2,-72C364.37,-72 388.8,-72 408.82,-72"/>
<polygon fill="#2980b9" stroke="#2980b9" points="408.83,-75.5 418.83,-72 408.83,-68.5 408.83,-75.5"/>
<text text-anchor="middle" x="382.5" y="-75.2" font-family="Segoe UI,Roboto,Helvetica,Arial,sans-serif" font-size="11.00" fill="#000000">algebra</text>
</g>
</g>
</svg>
