<?xml version="1.0" encoding="UTF-8" standalone="no"?>
<!DOCTYPE svg PUBLIC "-//W3C//DTD SVG 1.1//EN"
 "http://www.w3.org/Graphics/SVG/1.1/DTD/svg11.dtd">
<!-- Generated by graphviz version 2.43.0 (0)
 -->
<!-- Title: %3 Pages: 1 -->
<svg width="420pt" height="56pt"
 viewBox="0.00 0.00 420.00 55.50" xmlns="http://www.w3.org/2000/svg" xmlns:xlink="http://www.w3.org/1999/xlink">
<g id="graph0" class="graph" transform="scale(1 1) rotate(0) translate(4 51.5)">
<title>%3</title>
<!-- List -->
<g id="node1" class="node">
<title>List</title>
<path fill="#ffffff" stroke="#586e75" d="M42,-41.5C42,-41.5 12,-41.5 12,-41.5 6,-41.5 0,-35.5 0,-29.5 0,-29.5 0,-17.5 0,-17.5 0,-11.5 6,-5.5 12,-5.5 12,-5.5 42,-5.5 42,-5.5 48,-5.5 54,-11.5 54,-17.5 54,-17.5 54,-29.5 54,-29.5 54,-35.5 48,-41.5 42,-41.5"/>
<text text-anchor="middle" x="27" y="-19.8" font-family="Inter,Arial" font-size="14.00" fill="#586e75">List</text>
</g>
<!-- ListStruct -->
<g id="node2" class="node">
<title>ListStruct</title>
<path fill="#ffffff" stroke="#586e75" d="M130,-0.5C130,-0.5 171,-0.5 171,-0.5 177,-0.5 183,-6.5 183,-12.5 183,-12.5 183,-34.5 183,-34.5 183,-40.5 177,-46.5 171,-46.5 171,-46.5 130,-46.5 130,-46.5 124,-46.5 118,-40.5 118,-34.5 118,-34.5 118,-12.5 118,-12.5 118,-6.5 124,-0.5 130,-0.5"/>
<text text-anchor="middle" x="150.5" y="-31.3" font-family="Inter,Arial" font-size="14.00" fill="#586e75">Int, List</text>
<polyline fill="none" stroke="#586e75" points="118,-23.5 183,-23.5 "/>
<text text-anchor="middle" x="150.5" y="-8.3" font-family="Inter,Arial" font-size="14.00" fill="#586e75">∅</text>
</g>
<!-- List&#45;&gt;ListStruct -->
<g id="edge1" class="edge pattern">
<title>List&#45;&gt;ListStruct:cons</title>
<path fill="none" stroke="#586e75" stroke-dasharray="5,2" d="M54.03,-26.97C72.1,-29.38 95.16,-32.45 108.08,-34.18"/>
<polygon fill="#586e75" stroke="#586e75" points="107.63,-37.65 118,-35.5 108.55,-30.71 107.63,-37.65"/>
<text text-anchor="middle" x="86" y="-35.7" font-family="Inter,Arial" font-size="11.00" fill="#586e75">Cons</text>
</g>
<!-- List&#45;&gt;ListStruct -->
<g id="edge2" class="edge pattern">
<title>List&#45;&gt;ListStruct:nil</title>
<path fill="none" stroke="#586e75" stroke-dasharray="5,2" d="M54.03,-20.03C72.1,-17.62 95.16,-14.55 108.08,-12.82"/>
<polygon fill="#586e75" stroke="#586e75" points="108.55,-16.29 118,-11.5 107.63,-9.35 108.55,-16.29"/>
<text text-anchor="middle" x="86" y="-16.7" font-family="Inter,Arial" font-size="11.00" fill="#586e75">Nil</text>
</g>
<!-- ListStruct2 -->
<g id="node3" class="node disabled">
<title>ListStruct2</title>
<path fill="#ffffff" stroke="#d0dce3" d="M254,-0.5C254,-0.5 284,-0.5 284,-0.5 290,-0.5 296,-6.5 296,-12.5 296,-12.5 296,-34.5 296,-34.5 296,-40.5 290,-46.5 284,-46.5 284,-46.5 254,-46.5 254,-46.5 248,-46.5 242,-40.5 242,-34.5 242,-34.5 242,-12.5 242,-12.5 242,-6.5 248,-0.5 254,-0.5"/>
<text text-anchor="middle" x="269" y="-31.3" font-family="Inter,Arial" font-size="14.00" fill="#d0dce3">Int, A</text>
<polyline fill="none" stroke="#d0dce3" points="242,-23.5 296,-23.5 "/>
<text text-anchor="middle" x="269" y="-8.3" font-family="Inter,Arial" font-size="14.00" fill="#d0dce3">∅</text>
</g>
<!-- ListStruct&#45;&gt;ListStruct2 -->
<g id="edge3" class="edge disabled">
<title>ListStruct:cons&#45;&gt;ListStruct2:cons</title>
<path fill="none" stroke="#d0dce3" d="M183,-35.5C183,-35.5 215.16,-35.5 231.99,-35.5"/>
<polygon fill="#d0dce3" stroke="#d0dce3" points="232,-39 242,-35.5 232,-32 232,-39"/>
<text text-anchor="middle" x="212.5" y="-38.7" font-family="Inter,Arial" font-size="11.00" fill="#d0dce3">loop</text>
</g>
<!-- ListStruct&#45;&gt;ListStruct2 -->
<g id="edge4" class="edge disabled">
<title>ListStruct:nil&#45;&gt;ListStruct2:nil</title>
<path fill="none" stroke="#d0dce3" d="M183,-11.5C183,-11.5 215.16,-11.5 231.99,-11.5"/>
<polygon fill="#d0dce3" stroke="#d0dce3" points="232,-15 242,-11.5 232,-8 232,-15"/>
</g>
<!-- String -->
<g id="node4" class="node disabled">
<title>String</title>
<path fill="#ffffff" stroke="#d0dce3" d="M400,-41.5C400,-41.5 370,-41.5 370,-41.5 364,-41.5 358,-35.5 358,-29.5 358,-29.5 358,-17.5 358,-17.5 358,-11.5 364,-5.5 370,-5.5 370,-5.5 400,-5.5 400,-5.5 406,-5.5 412,-11.5 412,-17.5 412,-17.5 412,-29.5 412,-29.5 412,-35.5 406,-41.5 400,-41.5"/>
<text text-anchor="middle" x="385" y="-19.8" font-family="Inter,Arial" font-size="14.00" fill="#d0dce3">A</text>
</g>
<!-- ListStruct2&#45;&gt;String -->
<g id="edge5" class="edge disabled">
<title>ListStruct2:cons&#45;&gt;String</title>
<path fill="none" stroke="#d0dce3" d="M296,-35.5C296,-35.5 323.31,-31.78 347.51,-28.48"/>
<polygon fill="#d0dce3" stroke="#d0dce3" points="348.16,-31.92 357.6,-27.1 347.22,-24.98 348.16,-31.92"/>
<text text-anchor="middle" x="327" y="-35.7" font-family="Inter,Arial" font-size="11.00" fill="#d0dce3">step</text>
</g>
<!-- ListStruct2&#45;&gt;String -->
<g id="edge6" class="edge disabled">
<title>ListStruct2:nil&#45;&gt;String</title>
<path fill="none" stroke="#d0dce3" d="M296,-11.5C296,-11.5 323.31,-15.22 347.51,-18.52"/>
<polygon fill="#d0dce3" stroke="#d0dce3" points="347.22,-22.02 357.6,-19.9 348.16,-15.08 347.22,-22.02"/>
<text text-anchor="middle" x="327" y="-16.7" font-family="Inter,Arial" font-size="11.00" fill="#d0dce3">base</text>
</g>
</g>
</svg>
