<?xml version="1.0" encoding="UTF-8" standalone="no"?>
<!DOCTYPE svg PUBLIC "-//W3C//DTD SVG 1.1//EN"
 "http://www.w3.org/Graphics/SVG/1.1/DTD/svg11.dtd">
<!-- Generated by graphviz version 2.43.0 (0)
 -->
<!-- Title: %3 Pages: 1 -->
<svg width="491pt" height="44pt"
 viewBox="0.00 0.00 491.00 44.00" xmlns="http://www.w3.org/2000/svg" xmlns:xlink="http://www.w3.org/1999/xlink">
<g id="graph0" class="graph" transform="scale(1 1) rotate(0) translate(4 40)">
<title>%3</title>
<!-- List -->
<g id="node1" class="node disabled">
<title>List</title>
<path fill="#ffffff" stroke="#d0dce3" d="M42,-36C42,-36 12,-36 12,-36 6,-36 0,-30 0,-24 0,-24 0,-12 0,-12 0,-6 6,0 12,0 12,0 42,0 42,0 48,0 54,-6 54,-12 54,-12 54,-24 54,-24 54,-30 48,-36 42,-36"/>
<text text-anchor="middle" x="27" y="-14.3" font-family="Inter,Arial" font-size="14.00" fill="#d0dce3">List</text>
</g>
<!-- ListFList -->
<g id="node2" class="node">
<title>ListFList</title>
<path fill="#ffffff" stroke="#586e75" d="M198,-36C198,-36 139,-36 139,-36 133,-36 127,-30 127,-24 127,-24 127,-12 127,-12 127,-6 133,0 139,0 139,0 198,0 198,0 204,0 210,-6 210,-12 210,-12 210,-24 210,-24 210,-30 204,-36 198,-36"/>
<text text-anchor="middle" x="168.5" y="-14.3" font-family="Inter,Arial" font-size="14.00" fill="#586e75">ListF[List]</text>
</g>
<!-- List&#45;&gt;ListFList -->
<g id="edge1" class="edge disabled">
<title>List&#45;&gt;ListFList</title>
<path fill="none" stroke="#d0dce3" d="M54.24,-18C71.81,-18 95.5,-18 116.68,-18"/>
<polygon fill="#d0dce3" stroke="#d0dce3" points="116.84,-21.5 126.84,-18 116.84,-14.5 116.84,-21.5"/>
<text text-anchor="middle" x="90.5" y="-21.2" font-family="Inter,Arial" font-size="11.00" fill="#d0dce3">project</text>
</g>
<!-- ListFA -->
<g id="node3" class="node">
<title>ListFA</title>
<path fill="#ffffff" stroke="#586e75" d="M367,-36C367,-36 322,-36 322,-36 316,-36 310,-30 310,-24 310,-24 310,-12 310,-12 310,-6 316,0 322,0 322,0 367,0 367,0 373,0 379,-6 379,-12 379,-12 379,-24 379,-24 379,-30 373,-36 367,-36"/>
<text text-anchor="middle" x="344.5" y="-14.3" font-family="Inter,Arial" font-size="14.00" fill="#586e75">ListF[A]</text>
</g>
<!-- ListFList&#45;&gt;ListFA -->
<g id="edge2" class="edge">
<title>ListFList&#45;&gt;ListFA</title>
<path fill="none" stroke="#586e75" d="M210.3,-18C237.19,-18 272.39,-18 299.85,-18"/>
<polygon fill="#586e75" stroke="#586e75" points="299.97,-21.5 309.97,-18 299.97,-14.5 299.97,-21.5"/>
<text text-anchor="middle" x="260" y="-21.2" font-family="Inter,Arial" font-size="11.00" fill="#586e75">map(_, loop)</text>
</g>
<!-- A -->
<g id="node4" class="node disabled">
<title>A</title>
<path fill="#ffffff" stroke="#d0dce3" d="M471,-36C471,-36 441,-36 441,-36 435,-36 429,-30 429,-24 429,-24 429,-12 429,-12 429,-6 435,0 441,0 441,0 471,0 471,0 477,0 483,-6 483,-12 483,-12 483,-24 483,-24 483,-30 477,-36 471,-36"/>
<text text-anchor="middle" x="456" y="-14.3" font-family="Inter,Arial" font-size="14.00" fill="#d0dce3">A</text>
</g>
<!-- ListFA&#45;&gt;A -->
<g id="edge3" class="edge disabled">
<title>ListFA&#45;&gt;A</title>
<path fill="none" stroke="#d0dce3" d="M379.25,-18C391.72,-18 405.9,-18 418.59,-18"/>
<polygon fill="#d0dce3" stroke="#d0dce3" points="418.84,-21.5 428.84,-18 418.84,-14.5 418.84,-21.5"/>
<text text-anchor="middle" x="404" y="-21.2" font-family="Inter,Arial" font-size="11.00" fill="#d0dce3">op</text>
</g>
</g>
</svg>
