<?xml version="1.0" encoding="UTF-8" standalone="no"?>
<!DOCTYPE svg PUBLIC "-//W3C//DTD SVG 1.1//EN"
 "http://www.w3.org/Graphics/SVG/1.1/DTD/svg11.dtd">
<!-- Generated by graphviz version 2.43.0 (0)
 -->
<!-- Title: %3 Pages: 1 -->
<svg width="600pt" height="44pt"
 viewBox="0.00 0.00 600.00 44.00" xmlns="http://www.w3.org/2000/svg" xmlns:xlink="http://www.w3.org/1999/xlink">
<g id="graph0" class="graph" transform="scale(1 1) rotate(0) translate(4 40)">
<title>%3</title>
<!-- B -->
<g id="node1" class="node disabled">
<title>B</title>
<path fill="#ffffff" stroke="#d0dce3" d="M42,-36C42,-36 12,-36 12,-36 6,-36 0,-30 0,-24 0,-24 0,-12 0,-12 0,-6 6,0 12,0 12,0 42,0 42,0 48,0 54,-6 54,-12 54,-12 54,-24 54,-24 54,-30 48,-36 42,-36"/>
<text text-anchor="middle" x="27" y="-14.3" font-family="Inter,Arial" font-size="14.00" fill="#d0dce3">Tree</text>
</g>
<!-- ListFList -->
<g id="node2" class="node disabled">
<title>ListFList</title>
<path fill="#ffffff" stroke="#d0dce3" d="M234,-36C234,-36 163,-36 163,-36 157,-36 151,-30 151,-24 151,-24 151,-12 151,-12 151,-6 157,0 163,0 163,0 234,0 234,0 240,0 246,-6 246,-12 246,-12 246,-24 246,-24 246,-30 240,-36 234,-36"/>
<text text-anchor="middle" x="198.5" y="-14.3" font-family="Inter,Arial" font-size="14.00" fill="#d0dce3">TreeF[Tree]</text>
</g>
<!-- B&#45;&gt;ListFList -->
<g id="edge1" class="edge disabled">
<title>B&#45;&gt;ListFList</title>
<path fill="none" stroke="#d0dce3" d="M54.11,-18C77.12,-18 111.44,-18 140.74,-18"/>
<polygon fill="#d0dce3" stroke="#d0dce3" points="140.87,-21.5 150.87,-18 140.87,-14.5 140.87,-21.5"/>
<text text-anchor="middle" x="102.5" y="-21.2" font-family="Inter,Arial" font-size="11.00" fill="#d0dce3">projectTree</text>
</g>
<!-- ListFA -->
<g id="node3" class="node">
<title>ListFA</title>
<path fill="#ffffff" stroke="#586e75" d="M417,-36C417,-36 358,-36 358,-36 352,-36 346,-30 346,-24 346,-24 346,-12 346,-12 346,-6 352,0 358,0 358,0 417,0 417,0 423,0 429,-6 429,-12 429,-12 429,-24 429,-24 429,-30 423,-36 417,-36"/>
<text text-anchor="middle" x="387.5" y="-14.3" font-family="Inter,Arial" font-size="14.00" fill="#586e75">TreeF[Int]</text>
</g>
<!-- ListFList&#45;&gt;ListFA -->
<g id="edge2" class="edge disabled">
<title>ListFList&#45;&gt;ListFA</title>
<path fill="none" stroke="#d0dce3" d="M246.21,-18C273.35,-18 307.59,-18 335.45,-18"/>
<polygon fill="#d0dce3" stroke="#d0dce3" points="335.78,-21.5 345.78,-18 335.78,-14.5 335.78,-21.5"/>
<text text-anchor="middle" x="296" y="-21.2" font-family="Inter,Arial" font-size="11.00" fill="#d0dce3">map(_, loop)</text>
</g>
<!-- A -->
<g id="node4" class="node">
<title>A</title>
<path fill="#ffffff" stroke="#586e75" d="M580,-36C580,-36 550,-36 550,-36 544,-36 538,-30 538,-24 538,-24 538,-12 538,-12 538,-6 544,0 550,0 550,0 580,0 580,0 586,0 592,-6 592,-12 592,-12 592,-24 592,-24 592,-30 586,-36 580,-36"/>
<text text-anchor="middle" x="565" y="-14.3" font-family="Inter,Arial" font-size="14.00" fill="#586e75">Int</text>
</g>
<!-- ListFA&#45;&gt;A -->
<g id="edge3" class="edge">
<title>ListFA&#45;&gt;A</title>
<path fill="none" stroke="#586e75" d="M429.2,-18C459.06,-18 499.22,-18 527.92,-18"/>
<polygon fill="#586e75" stroke="#586e75" points="527.94,-21.5 537.94,-18 527.94,-14.5 527.94,-21.5"/>
<text text-anchor="middle" x="483.5" y="-21.2" font-family="Inter,Arial" font-size="11.00" fill="#586e75">heightAlgebra</text>
</g>
</g>
</svg>
