<?xml version="1.0" encoding="UTF-8" standalone="no"?>
<!DOCTYPE svg PUBLIC "-//W3C//DTD SVG 1.1//EN"
 "http://www.w3.org/Graphics/SVG/1.1/DTD/svg11.dtd">
<!-- Generated by graphviz version 2.43.0 (0)
 -->
<!-- Title: %3 Pages: 1 -->
<svg width="780pt" height="48pt"
 viewBox="0.00 0.00 780.30 48.30" xmlns="http://www.w3.org/2000/svg" xmlns:xlink="http://www.w3.org/1999/xlink">
<g id="graph0" class="graph" transform="scale(1 1) rotate(0) translate(4 44.3)">
<title>%3</title>
<!-- l1 -->
<g id="node1" class="node">
<title>l1</title>
<polygon fill="#ffffff" stroke="#2980b9" points="27,-38.15 0,-20.15 27,-2.15 54,-20.15 27,-38.15"/>
</g>
<!-- p1 -->
<g id="node5" class="node">
<title>p1</title>
<ellipse fill="#b2ebf2" stroke="#2980b9" cx="135" cy="-20.15" rx="18" ry="18"/>
<text text-anchor="middle" x="135" y="-16.45" font-family="Segoe UI,Roboto,Helvetica,Arial,sans-serif" font-size="14.00" fill="#000000">3</text>
</g>
<!-- l1&#45;&gt;p1 -->
<g id="edge1" class="edge">
<title>l1&#45;&gt;p1</title>
<path fill="none" stroke="#2980b9" d="M54.2,-20.15C70.04,-20.15 90.22,-20.15 106.32,-20.15"/>
<polygon fill="#2980b9" stroke="#2980b9" points="106.71,-23.65 116.71,-20.15 106.71,-16.65 106.71,-23.65"/>
<text text-anchor="middle" x="85.5" y="-23.35" font-family="Segoe UI,Roboto,Helvetica,Arial,sans-serif" font-size="11.00" fill="#000000">value</text>
</g>
<!-- l2 -->
<g id="node2" class="node">
<title>l2</title>
<polygon fill="#ffffff" stroke="#2980b9" points="232,-38.15 205,-20.15 232,-2.15 259,-20.15 232,-38.15"/>
</g>
<!-- p2 -->
<g id="node6" class="node">
<title>p2</title>
<ellipse fill="#b2ebf2" stroke="#2980b9" cx="340" cy="-20.15" rx="18" ry="18"/>
<text text-anchor="middle" x="340" y="-16.45" font-family="Segoe UI,Roboto,Helvetica,Arial,sans-serif" font-size="14.00" fill="#000000">2</text>
</g>
<!-- l2&#45;&gt;p2 -->
<g id="edge3" class="edge">
<title>l2&#45;&gt;p2</title>
<path fill="none" stroke="#2980b9" d="M259.2,-20.15C275.04,-20.15 295.22,-20.15 311.32,-20.15"/>
<polygon fill="#2980b9" stroke="#2980b9" points="311.71,-23.65 321.71,-20.15 311.71,-16.65 311.71,-23.65"/>
<text text-anchor="middle" x="290.5" y="-23.35" font-family="Segoe UI,Roboto,Helvetica,Arial,sans-serif" font-size="11.00" fill="#000000">value</text>
</g>
<!-- l3 -->
<g id="node3" class="node">
<title>l3</title>
<polygon fill="#ffffff" stroke="#2980b9" points="437,-38.15 410,-20.15 437,-2.15 464,-20.15 437,-38.15"/>
</g>
<!-- p3 -->
<g id="node7" class="node">
<title>p3</title>
<ellipse fill="#b2ebf2" stroke="#2980b9" cx="545" cy="-20.15" rx="18" ry="18"/>
<text text-anchor="middle" x="545" y="-16.45" font-family="Segoe UI,Roboto,Helvetica,Arial,sans-serif" font-size="14.00" fill="#000000">1</text>
</g>
<!-- l3&#45;&gt;p3 -->
<g id="edge5" class="edge">
<title>l3&#45;&gt;p3</title>
<path fill="none" stroke="#2980b9" d="M464.2,-20.15C480.04,-20.15 500.22,-20.15 516.32,-20.15"/>
<polygon fill="#2980b9" stroke="#2980b9" points="516.71,-23.65 526.71,-20.15 516.71,-16.65 516.71,-23.65"/>
<text text-anchor="middle" x="495.5" y="-23.35" font-family="Segoe UI,Roboto,Helvetica,Arial,sans-serif" font-size="11.00" fill="#000000">value</text>
</g>
<!-- l4 -->
<g id="node4" class="node">
<title>l4</title>
<polygon fill="#ffffff" stroke="#2980b9" points="642,-38.15 615,-20.15 642,-2.15 669,-20.15 642,-38.15"/>
</g>
<!-- nil -->
<g id="node8" class="node">
<title>nil</title>
<ellipse fill="#ffffff" stroke="#2980b9" cx="752.15" cy="-20.15" rx="20.3" ry="20.3"/>
<text text-anchor="middle" x="752.15" y="-16.45" font-family="Segoe UI,Roboto,Helvetica,Arial,sans-serif" font-size="14.00" fill="#000000">∅</text>
</g>
<!-- l4&#45;&gt;nil -->
<g id="edge7" class="edge">
<title>l4&#45;&gt;nil</title>
<path fill="none" stroke="#2980b9" d="M669.18,-20.15C685.08,-20.15 705.4,-20.15 721.84,-20.15"/>
<polygon fill="#2980b9" stroke="#2980b9" points="721.99,-23.65 731.99,-20.15 721.99,-16.65 721.99,-23.65"/>
<text text-anchor="middle" x="700.5" y="-23.35" font-family="Segoe UI,Roboto,Helvetica,Arial,sans-serif" font-size="11.00" fill="#000000">value</text>
</g>
<!-- p1&#45;&gt;l2 -->
<g id="edge2" class="edge">
<title>p1&#45;&gt;l2</title>
<path fill="none" stroke="#2980b9" d="M153.42,-20.15C164.86,-20.15 180.26,-20.15 194.32,-20.15"/>
<polygon fill="#2980b9" stroke="#2980b9" points="194.72,-23.65 204.72,-20.15 194.72,-16.65 194.72,-23.65"/>
<text text-anchor="middle" x="179" y="-23.35" font-family="Segoe UI,Roboto,Helvetica,Arial,sans-serif" font-size="11.00" fill="#000000">tail</text>
</g>
<!-- p2&#45;&gt;l3 -->
<g id="edge4" class="edge">
<title>p2&#45;&gt;l3</title>
<path fill="none" stroke="#2980b9" d="M358.42,-20.15C369.86,-20.15 385.26,-20.15 399.32,-20.15"/>
<polygon fill="#2980b9" stroke="#2980b9" points="399.72,-23.65 409.72,-20.15 399.72,-16.65 399.72,-23.65"/>
<text text-anchor="middle" x="384" y="-23.35" font-family="Segoe UI,Roboto,Helvetica,Arial,sans-serif" font-size="11.00" fill="#000000">tail</text>
</g>
<!-- p3&#45;&gt;l4 -->
<g id="edge6" class="edge">
<title>p3&#45;&gt;l4</title>
<path fill="none" stroke="#2980b9" d="M563.42,-20.15C574.86,-20.15 590.26,-20.15 604.32,-20.15"/>
<polygon fill="#2980b9" stroke="#2980b9" points="604.72,-23.65 614.72,-20.15 604.72,-16.65 604.72,-23.65"/>
<text text-anchor="middle" x="589" y="-23.35" font-family="Segoe UI,Roboto,Helvetica,Arial,sans-serif" font-size="11.00" fill="#000000">tail</text>
</g>
</g>
</svg>
