<?xml version="1.0" encoding="UTF-8" standalone="no"?>
<!DOCTYPE svg PUBLIC "-//W3C//DTD SVG 1.1//EN"
 "http://www.w3.org/Graphics/SVG/1.1/DTD/svg11.dtd">
<!-- Generated by graphviz version 2.43.0 (0)
 -->
<!-- Title: %3 Pages: 1 -->
<svg width="594pt" height="98pt"
 viewBox="0.00 0.00 594.00 98.00" xmlns="http://www.w3.org/2000/svg" xmlns:xlink="http://www.w3.org/1999/xlink">
<g id="graph0" class="graph dual" transform="scale(1 1) rotate(0) translate(4 94)">
<title>%3</title>
<!-- B -->
<g id="node1" class="node disabled">
<title>B</title>
<path fill="#ffffff" stroke="#d0dce3" d="M42,-62C42,-62 12,-62 12,-62 6,-62 0,-56 0,-50 0,-50 0,-38 0,-38 0,-32 6,-26 12,-26 12,-26 42,-26 42,-26 48,-26 54,-32 54,-38 54,-38 54,-50 54,-50 54,-56 48,-62 42,-62"/>
<text text-anchor="middle" x="27" y="-40.3" font-family="Inter,Arial" font-size="14.00" fill="#d0dce3">List</text>
</g>
<!-- cataFB -->
<g id="node3" class="node disabled">
<title>cataFB</title>
<path fill="#ffffff" stroke="#d0dce3" d="M198,-90C198,-90 139,-90 139,-90 133,-90 127,-84 127,-78 127,-78 127,-66 127,-66 127,-60 133,-54 139,-54 139,-54 198,-54 198,-54 204,-54 210,-60 210,-66 210,-66 210,-78 210,-78 210,-84 204,-90 198,-90"/>
<text text-anchor="middle" x="168.5" y="-68.3" font-family="Inter,Arial" font-size="14.00" fill="#d0dce3">ListF[List]</text>
</g>
<!-- B&#45;&gt;cataFB -->
<g id="edge1" class="edge disabled">
<title>B&#45;&gt;cataFB</title>
<path fill="none" stroke="#d0dce3" d="M54.24,-49.27C71.89,-52.81 95.72,-57.59 116.97,-61.86"/>
<polygon fill="#d0dce3" stroke="#d0dce3" points="116.35,-65.3 126.84,-63.84 117.72,-58.44 116.35,-65.3"/>
<text text-anchor="middle" x="90.5" y="-62.2" font-family="Inter,Arial" font-size="11.00" fill="#d0dce3">project</text>
</g>
<!-- anaFB -->
<g id="node2" class="node disabled">
<title>anaFB</title>
<path fill="#ffffff" stroke="#d0dce3" d="M198,-36C198,-36 139,-36 139,-36 133,-36 127,-30 127,-24 127,-24 127,-12 127,-12 127,-6 133,0 139,0 139,0 198,0 198,0 204,0 210,-6 210,-12 210,-12 210,-24 210,-24 210,-30 204,-36 198,-36"/>
<text text-anchor="middle" x="168.5" y="-14.3" font-family="Inter,Arial" font-size="14.00" fill="#d0dce3">ListF[List]</text>
</g>
<!-- anaFB&#45;&gt;B -->
<g id="edge6" class="edge">
<title>anaFB&#45;&gt;B</title>
<path fill="none" stroke="#586e75" d="M126.84,-25.58C106.99,-29.28 83.31,-33.69 64.11,-37.27"/>
<polygon fill="#586e75" stroke="#586e75" points="63.43,-33.84 54.24,-39.11 64.71,-40.72 63.43,-33.84"/>
<text text-anchor="middle" x="90.5" y="-36.2" font-family="Inter,Arial" font-size="11.00" fill="#586e75">embed</text>
</g>
<!-- cataFA -->
<g id="node5" class="node disabled">
<title>cataFA</title>
<path fill="#ffffff" stroke="#d0dce3" d="M396,-90C396,-90 322,-90 322,-90 316,-90 310,-84 310,-78 310,-78 310,-66 310,-66 310,-60 316,-54 322,-54 322,-54 396,-54 396,-54 402,-54 408,-60 408,-66 408,-66 408,-78 408,-78 408,-84 402,-90 396,-90"/>
<text text-anchor="middle" x="359" y="-68.3" font-family="Inter,Arial" font-size="14.00" fill="#d0dce3">ListF[String]</text>
</g>
<!-- cataFB&#45;&gt;cataFA -->
<g id="edge2" class="edge disabled">
<title>cataFB&#45;&gt;cataFA</title>
<path fill="none" stroke="#d0dce3" d="M210.4,-72C236.44,-72 270.58,-72 299.46,-72"/>
<polygon fill="#d0dce3" stroke="#d0dce3" points="299.84,-75.5 309.84,-72 299.84,-68.5 299.84,-75.5"/>
<text text-anchor="middle" x="260" y="-75.2" font-family="Inter,Arial" font-size="11.00" fill="#d0dce3">map(_, loop)</text>
</g>
<!-- anaFA -->
<g id="node4" class="node disabled">
<title>anaFA</title>
<path fill="#ffffff" stroke="#d0dce3" d="M385.5,-36C385.5,-36 332.5,-36 332.5,-36 326.5,-36 320.5,-30 320.5,-24 320.5,-24 320.5,-12 320.5,-12 320.5,-6 326.5,0 332.5,0 332.5,0 385.5,0 385.5,0 391.5,0 397.5,-6 397.5,-12 397.5,-12 397.5,-24 397.5,-24 397.5,-30 391.5,-36 385.5,-36"/>
<text text-anchor="middle" x="359" y="-14.3" font-family="Inter,Arial" font-size="14.00" fill="#d0dce3">ListF[Int]</text>
</g>
<!-- anaFA&#45;&gt;anaFB -->
<g id="edge5" class="edge disabled">
<title>anaFA&#45;&gt;anaFB</title>
<path fill="none" stroke="#d0dce3" d="M320.38,-18C291.81,-18 252.2,-18 220.73,-18"/>
<polygon fill="#d0dce3" stroke="#d0dce3" points="220.4,-14.5 210.4,-18 220.4,-21.5 220.4,-14.5"/>
<text text-anchor="middle" x="260" y="-21.2" font-family="Inter,Arial" font-size="11.00" fill="#d0dce3">map(_, loop)</text>
</g>
<!-- cataA -->
<g id="node7" class="node disabled">
<title>cataA</title>
<path fill="#ffffff" stroke="#d0dce3" d="M574,-90C574,-90 542,-90 542,-90 536,-90 530,-84 530,-78 530,-78 530,-66 530,-66 530,-60 536,-54 542,-54 542,-54 574,-54 574,-54 580,-54 586,-60 586,-66 586,-66 586,-78 586,-78 586,-84 580,-90 574,-90"/>
<text text-anchor="middle" x="558" y="-68.3" font-family="Inter,Arial" font-size="14.00" fill="#d0dce3">String</text>
</g>
<!-- cataFA&#45;&gt;cataA -->
<g id="edge3" class="edge disabled">
<title>cataFA&#45;&gt;cataA</title>
<path fill="none" stroke="#d0dce3" d="M408.19,-72C442.58,-72 488.15,-72 519.76,-72"/>
<polygon fill="#d0dce3" stroke="#d0dce3" points="519.91,-75.5 529.91,-72 519.91,-68.5 519.91,-75.5"/>
<text text-anchor="middle" x="469" y="-75.2" font-family="Inter,Arial" font-size="11.00" fill="#d0dce3">mkStringAlgebra</text>
</g>
<!-- anaA -->
<g id="node6" class="node disabled">
<title>anaA</title>
<path fill="#ffffff" stroke="#d0dce3" d="M573,-36C573,-36 543,-36 543,-36 537,-36 531,-30 531,-24 531,-24 531,-12 531,-12 531,-6 537,0 543,0 543,0 573,0 573,0 579,0 585,-6 585,-12 585,-12 585,-24 585,-24 585,-30 579,-36 573,-36"/>
<text text-anchor="middle" x="558" y="-14.3" font-family="Inter,Arial" font-size="14.00" fill="#d0dce3">Int</text>
</g>
<!-- anaA&#45;&gt;anaFA -->
<g id="edge4" class="edge disabled">
<title>anaA&#45;&gt;anaFA</title>
<path fill="none" stroke="#d0dce3" d="M530.94,-18C499.57,-18 446.29,-18 407.53,-18"/>
<polygon fill="#d0dce3" stroke="#d0dce3" points="407.52,-14.5 397.52,-18 407.52,-21.5 407.52,-14.5"/>
<text text-anchor="middle" x="469" y="-21.2" font-family="Inter,Arial" font-size="11.00" fill="#d0dce3">rangeCoAlgebra</text>
</g>
</g>
</svg>
