<?xml version="1.0" encoding="UTF-8" standalone="no"?>
<!DOCTYPE svg PUBLIC "-//W3C//DTD SVG 1.1//EN"
 "http://www.w3.org/Graphics/SVG/1.1/DTD/svg11.dtd">
<!-- Generated by graphviz version 2.43.0 (0)
 -->
<!-- Title: %3 Pages: 1 -->
<svg width="487pt" height="44pt"
 viewBox="0.00 0.00 487.00 44.00" xmlns="http://www.w3.org/2000/svg" xmlns:xlink="http://www.w3.org/1999/xlink">
<g id="graph0" class="graph" transform="scale(1 1) rotate(0) translate(4 40)">
<title>%3</title>
<!-- anaFA -->
<g id="node1" class="node">
<title>anaFA</title>
<path fill="#ffffff" stroke="#586e75" d="M184,-36C184,-36 154,-36 154,-36 148,-36 142,-30 142,-24 142,-24 142,-12 142,-12 142,-6 148,0 154,0 154,0 184,0 184,0 190,0 196,-6 196,-12 196,-12 196,-24 196,-24 196,-30 190,-36 184,-36"/>
<text text-anchor="middle" x="169" y="-14.3" font-family="Inter,Arial" font-size="14.00" fill="#586e75">F[A]</text>
</g>
<!-- cataFA -->
<g id="node2" class="node">
<title>cataFA</title>
<path fill="#ffffff" stroke="#586e75" d="M338,-36C338,-36 308,-36 308,-36 302,-36 296,-30 296,-24 296,-24 296,-12 296,-12 296,-6 302,0 308,0 308,0 338,0 338,0 344,0 350,-6 350,-12 350,-12 350,-24 350,-24 350,-30 344,-36 338,-36"/>
<text text-anchor="middle" x="323" y="-14.3" font-family="Inter,Arial" font-size="14.00" fill="#586e75">F[B]</text>
</g>
<!-- anaFA&#45;&gt;cataFA -->
<g id="edge2" class="edge">
<title>anaFA&#45;&gt;cataFA</title>
<path fill="none" stroke="#586e75" d="M196.13,-18C220.89,-18 258.3,-18 285.9,-18"/>
<polygon fill="#586e75" stroke="#586e75" points="285.96,-21.5 295.96,-18 285.96,-14.5 285.96,-21.5"/>
<text text-anchor="middle" x="246" y="-21.2" font-family="Inter,Arial" font-size="11.00" fill="#586e75">map(_, loop)</text>
</g>
<!-- cataA -->
<g id="node4" class="node">
<title>cataA</title>
<path fill="#ffffff" stroke="#586e75" d="M467,-36C467,-36 437,-36 437,-36 431,-36 425,-30 425,-24 425,-24 425,-12 425,-12 425,-6 431,0 437,0 437,0 467,0 467,0 473,0 479,-6 479,-12 479,-12 479,-24 479,-24 479,-30 473,-36 467,-36"/>
<text text-anchor="middle" x="452" y="-14.3" font-family="Inter,Arial" font-size="14.00" fill="#586e75">B</text>
</g>
<!-- cataFA&#45;&gt;cataA -->
<g id="edge3" class="edge">
<title>cataFA&#45;&gt;cataA</title>
<path fill="none" stroke="#586e75" d="M350.01,-18C368.63,-18 393.96,-18 414.59,-18"/>
<polygon fill="#586e75" stroke="#586e75" points="414.59,-21.5 424.59,-18 414.59,-14.5 414.59,-21.5"/>
<text text-anchor="middle" x="387.5" y="-21.2" font-family="Inter,Arial" font-size="11.00" fill="#586e75">algebra</text>
</g>
<!-- anaA -->
<g id="node3" class="node">
<title>anaA</title>
<path fill="#ffffff" stroke="#586e75" d="M42,-36C42,-36 12,-36 12,-36 6,-36 0,-30 0,-24 0,-24 0,-12 0,-12 0,-6 6,0 12,0 12,0 42,0 42,0 48,0 54,-6 54,-12 54,-12 54,-24 54,-24 54,-30 48,-36 42,-36"/>
<text text-anchor="middle" x="27" y="-14.3" font-family="Inter,Arial" font-size="14.00" fill="#586e75">A</text>
</g>
<!-- anaA&#45;&gt;anaFA -->
<g id="edge1" class="edge">
<title>anaA&#45;&gt;anaFA</title>
<path fill="none" stroke="#586e75" d="M54,-18C75.77,-18 107.08,-18 131.38,-18"/>
<polygon fill="#586e75" stroke="#586e75" points="131.66,-21.5 141.66,-18 131.66,-14.5 131.66,-21.5"/>
<text text-anchor="middle" x="98" y="-21.2" font-family="Inter,Arial" font-size="11.00" fill="#586e75">coAlgebra</text>
</g>
</g>
</svg>
