<?xml version="1.0" encoding="UTF-8" standalone="no"?>
<!DOCTYPE svg PUBLIC "-//W3C//DTD SVG 1.1//EN"
 "http://www.w3.org/Graphics/SVG/1.1/DTD/svg11.dtd">
<!-- Generated by graphviz version 2.43.0 (0)
 -->
<!-- Title: %3 Pages: 1 -->
<svg width="572pt" height="98pt"
 viewBox="0.00 0.00 572.00 98.00" xmlns="http://www.w3.org/2000/svg" xmlns:xlink="http://www.w3.org/1999/xlink">
<g id="graph0" class="graph" transform="scale(1 1) rotate(0) translate(4 94)">
<title>%3</title>
<!-- List -->
<g id="node1" class="node">
<title>List</title>
<path fill="#b2ebf2" stroke="#dddddd" d="M42,-62C42,-62 12,-62 12,-62 6,-62 0,-56 0,-50 0,-50 0,-38 0,-38 0,-32 6,-26 12,-26 12,-26 42,-26 42,-26 48,-26 54,-32 54,-38 54,-38 54,-50 54,-50 54,-56 48,-62 42,-62"/>
<text text-anchor="middle" x="27" y="-40.3" font-family="Segoe UI,Roboto,Helvetica,Arial,sans-serif" font-size="14.00" fill="#dddddd">List</text>
</g>
<!-- cataFB -->
<g id="node3" class="node">
<title>cataFB</title>
<path fill="#b2ebf2" stroke="#dddddd" d="M191,-90C191,-90 137,-90 137,-90 131,-90 125,-84 125,-78 125,-78 125,-66 125,-66 125,-60 131,-54 137,-54 137,-54 191,-54 191,-54 197,-54 203,-60 203,-66 203,-66 203,-78 203,-78 203,-84 197,-90 191,-90"/>
<text text-anchor="middle" x="164" y="-68.3" font-family="Segoe UI,Roboto,Helvetica,Arial,sans-serif" font-size="14.00" fill="#dddddd">ListF[List]</text>
</g>
<!-- List&#45;&gt;cataFB -->
<g id="edge1" class="edge">
<title>List&#45;&gt;cataFB</title>
<path fill="none" stroke="#dddddd" d="M54.03,-49.4C71.28,-52.98 94.43,-57.78 114.96,-62.04"/>
<polygon fill="#dddddd" stroke="#dddddd" points="114.29,-65.47 124.79,-64.07 115.71,-58.62 114.29,-65.47"/>
<text text-anchor="middle" x="89.5" y="-62.2" font-family="Segoe UI,Roboto,Helvetica,Arial,sans-serif" font-size="11.00" fill="#dddddd">project</text>
</g>
<!-- anaFB -->
<g id="node2" class="node">
<title>anaFB</title>
<path fill="#b2ebf2" stroke="#dddddd" d="M191,-36C191,-36 137,-36 137,-36 131,-36 125,-30 125,-24 125,-24 125,-12 125,-12 125,-6 131,0 137,0 137,0 191,0 191,0 197,0 203,-6 203,-12 203,-12 203,-24 203,-24 203,-30 197,-36 191,-36"/>
<text text-anchor="middle" x="164" y="-14.3" font-family="Segoe UI,Roboto,Helvetica,Arial,sans-serif" font-size="14.00" fill="#dddddd">ListF[List]</text>
</g>
<!-- anaFB&#45;&gt;List -->
<g id="edge6" class="edge">
<title>anaFB&#45;&gt;List</title>
<path fill="none" stroke="#dddddd" d="M124.79,-25.36C105.7,-29.04 82.74,-33.46 63.97,-37.07"/>
<polygon fill="#dddddd" stroke="#dddddd" points="63.19,-33.66 54.03,-38.99 64.51,-40.53 63.19,-33.66"/>
<text text-anchor="middle" x="89.5" y="-36.2" font-family="Segoe UI,Roboto,Helvetica,Arial,sans-serif" font-size="11.00" fill="#dddddd">embed</text>
</g>
<!-- cataFA -->
<g id="node5" class="node">
<title>cataFA</title>
<path fill="#b2ebf2" stroke="#dddddd" d="M379,-90C379,-90 312,-90 312,-90 306,-90 300,-84 300,-78 300,-78 300,-66 300,-66 300,-60 306,-54 312,-54 312,-54 379,-54 379,-54 385,-54 391,-60 391,-66 391,-66 391,-78 391,-78 391,-84 385,-90 379,-90"/>
<text text-anchor="middle" x="345.5" y="-68.3" font-family="Segoe UI,Roboto,Helvetica,Arial,sans-serif" font-size="14.00" fill="#dddddd">ListF[String]</text>
</g>
<!-- cataFB&#45;&gt;cataFA -->
<g id="edge2" class="edge">
<title>cataFB&#45;&gt;cataFA</title>
<path fill="none" stroke="#dddddd" d="M203.07,-72C228.27,-72 261.73,-72 289.77,-72"/>
<polygon fill="#dddddd" stroke="#dddddd" points="289.83,-75.5 299.83,-72 289.83,-68.5 289.83,-75.5"/>
<text text-anchor="middle" x="251.5" y="-75.2" font-family="Segoe UI,Roboto,Helvetica,Arial,sans-serif" font-size="11.00" fill="#dddddd">map(_, loop)</text>
</g>
<!-- anaFA -->
<g id="node4" class="node">
<title>anaFA</title>
<path fill="#b2ebf2" stroke="#dddddd" d="M369,-36C369,-36 322,-36 322,-36 316,-36 310,-30 310,-24 310,-24 310,-12 310,-12 310,-6 316,0 322,0 322,0 369,0 369,0 375,0 381,-6 381,-12 381,-12 381,-24 381,-24 381,-30 375,-36 369,-36"/>
<text text-anchor="middle" x="345.5" y="-14.3" font-family="Segoe UI,Roboto,Helvetica,Arial,sans-serif" font-size="14.00" fill="#dddddd">ListF[Int]</text>
</g>
<!-- anaFA&#45;&gt;anaFB -->
<g id="edge5" class="edge">
<title>anaFA&#45;&gt;anaFB</title>
<path fill="none" stroke="#dddddd" d="M309.83,-18C282.45,-18 243.9,-18 213.46,-18"/>
<polygon fill="#dddddd" stroke="#dddddd" points="213.07,-14.5 203.07,-18 213.07,-21.5 213.07,-14.5"/>
<text text-anchor="middle" x="251.5" y="-21.2" font-family="Segoe UI,Roboto,Helvetica,Arial,sans-serif" font-size="11.00" fill="#dddddd">map(_, loop)</text>
</g>
<!-- cataA -->
<g id="node7" class="node">
<title>cataA</title>
<path fill="#b2ebf2" stroke="#dddddd" d="M552,-90C552,-90 522,-90 522,-90 516,-90 510,-84 510,-78 510,-78 510,-66 510,-66 510,-60 516,-54 522,-54 522,-54 552,-54 552,-54 558,-54 564,-60 564,-66 564,-66 564,-78 564,-78 564,-84 558,-90 552,-90"/>
<text text-anchor="middle" x="537" y="-68.3" font-family="Segoe UI,Roboto,Helvetica,Arial,sans-serif" font-size="14.00" fill="#dddddd">String</text>
</g>
<!-- cataFA&#45;&gt;cataA -->
<g id="edge3" class="edge">
<title>cataFA&#45;&gt;cataA</title>
<path fill="none" stroke="#dddddd" d="M391.41,-72C424.4,-72 468.67,-72 499.5,-72"/>
<polygon fill="#dddddd" stroke="#dddddd" points="499.8,-75.5 509.8,-72 499.8,-68.5 499.8,-75.5"/>
<text text-anchor="middle" x="450.5" y="-75.2" font-family="Segoe UI,Roboto,Helvetica,Arial,sans-serif" font-size="11.00" fill="#dddddd">mkStringAlgebra</text>
</g>
<!-- anaA -->
<g id="node6" class="node">
<title>anaA</title>
<path fill="#b2ebf2" stroke="#dddddd" d="M552,-36C552,-36 522,-36 522,-36 516,-36 510,-30 510,-24 510,-24 510,-12 510,-12 510,-6 516,0 522,0 522,0 552,0 552,0 558,0 564,-6 564,-12 564,-12 564,-24 564,-24 564,-30 558,-36 552,-36"/>
<text text-anchor="middle" x="537" y="-14.3" font-family="Segoe UI,Roboto,Helvetica,Arial,sans-serif" font-size="14.00" fill="#dddddd">Int</text>
</g>
<!-- anaA&#45;&gt;anaFA -->
<g id="edge4" class="edge">
<title>anaA&#45;&gt;anaFA</title>
<path fill="none" stroke="#2980b9" d="M509.99,-18C479.44,-18 428.25,-18 391.28,-18"/>
<polygon fill="#2980b9" stroke="#2980b9" points="391.26,-14.5 381.26,-18 391.26,-21.5 391.26,-14.5"/>
<text text-anchor="middle" x="450.5" y="-21.2" font-family="Segoe UI,Roboto,Helvetica,Arial,sans-serif" font-size="11.00" fill="#000000">rangeCoAlgebra</text>
</g>
</g>
</svg>
