<?xml version="1.0" encoding="UTF-8" standalone="no"?>
<!DOCTYPE svg PUBLIC "-//W3C//DTD SVG 1.1//EN"
 "http://www.w3.org/Graphics/SVG/1.1/DTD/svg11.dtd">
<!-- Generated by graphviz version 2.43.0 (0)
 -->
<!-- Title: %3 Pages: 1 -->
<svg width="206pt" height="296pt"
 viewBox="0.00 0.00 206.00 296.00" xmlns="http://www.w3.org/2000/svg" xmlns:xlink="http://www.w3.org/1999/xlink">
<g id="graph0" class="graph tree" transform="scale(1 1) rotate(0) translate(4 292)">
<title>%3</title>
<!-- n1 -->
<g id="node1" class="node cell">
<title>n1</title>
<ellipse fill="#586e75" stroke="#586e75" cx="133" cy="-270" rx="18" ry="18"/>
<text text-anchor="middle" x="133" y="-266.3" font-family="Inter,Arial" font-size="14.00" fill="#ffffff">4</text>
</g>
<!-- n2 -->
<g id="node2" class="node cell,disabled">
<title>n2</title>
<ellipse fill="#d0dce3" stroke="#d0dce3" cx="99" cy="-186" rx="18" ry="18"/>
<text text-anchor="middle" x="99" y="-182.3" font-family="Inter,Arial" font-size="14.00" fill="#ffffff">2</text>
</g>
<!-- n1&#45;&gt;n2 -->
<g id="edge1" class="edge">
<title>n1&#45;&gt;n2</title>
<path fill="none" stroke="#586e75" d="M126.44,-253.19C121.68,-241.69 115.12,-225.88 109.61,-212.6"/>
<polygon fill="#586e75" stroke="#586e75" points="112.71,-210.94 105.65,-203.04 106.25,-213.62 112.71,-210.94"/>
<text text-anchor="middle" x="126.5" y="-225.2" font-family="Inter,Arial" font-size="11.00" fill="#586e75">left</text>
</g>
<!-- l1 -->
<g id="node5" class="node nil,disabled">
<title>l1</title>
<ellipse fill="#ffffff" stroke="#d0dce3" cx="153" cy="-186" rx="18" ry="18"/>
<text text-anchor="middle" x="153" y="-182.3" font-family="Inter,Arial" font-size="14.00" fill="#d0dce3">∅</text>
</g>
<!-- n1&#45;&gt;l1 -->
<g id="edge2" class="edge">
<title>n1&#45;&gt;l1</title>
<path fill="none" stroke="#586e75" d="M137.05,-252.41C139.76,-241.29 143.39,-226.41 146.5,-213.66"/>
<polygon fill="#586e75" stroke="#586e75" points="149.99,-214.11 148.96,-203.57 143.19,-212.46 149.99,-214.11"/>
<text text-anchor="middle" x="156" y="-225.2" font-family="Inter,Arial" font-size="11.00" fill="#586e75">right</text>
</g>
<!-- n3 -->
<g id="node3" class="node cell,disabled">
<title>n3</title>
<ellipse fill="#d0dce3" stroke="#d0dce3" cx="72" cy="-102" rx="18" ry="18"/>
<text text-anchor="middle" x="72" y="-98.3" font-family="Inter,Arial" font-size="14.00" fill="#ffffff">1</text>
</g>
<!-- n2&#45;&gt;n3 -->
<g id="edge3" class="edge disabled">
<title>n2&#45;&gt;n3</title>
<path fill="none" stroke="#d0dce3" d="M93.67,-168.8C89.95,-157.53 84.93,-142.26 80.65,-129.26"/>
<polygon fill="#d0dce3" stroke="#d0dce3" points="83.87,-127.85 77.42,-119.45 77.22,-130.04 83.87,-127.85"/>
<text text-anchor="middle" x="91.5" y="-141.2" font-family="Inter,Arial" font-size="11.00" fill="#d0dce3">left</text>
</g>
<!-- n4 -->
<g id="node4" class="node cell,disabled">
<title>n4</title>
<ellipse fill="#d0dce3" stroke="#d0dce3" cx="126" cy="-102" rx="18" ry="18"/>
<text text-anchor="middle" x="126" y="-98.3" font-family="Inter,Arial" font-size="14.00" fill="#ffffff">3</text>
</g>
<!-- n2&#45;&gt;n4 -->
<g id="edge4" class="edge disabled">
<title>n2&#45;&gt;n4</title>
<path fill="none" stroke="#d0dce3" d="M104.33,-168.8C108.05,-157.53 113.07,-142.26 117.35,-129.26"/>
<polygon fill="#d0dce3" stroke="#d0dce3" points="120.78,-130.04 120.58,-119.45 114.13,-127.85 120.78,-130.04"/>
<text text-anchor="middle" x="126" y="-141.2" font-family="Inter,Arial" font-size="11.00" fill="#d0dce3">right</text>
</g>
<!-- l2 -->
<g id="node6" class="node nil,disabled">
<title>l2</title>
<ellipse fill="#ffffff" stroke="#d0dce3" cx="18" cy="-18" rx="18" ry="18"/>
<text text-anchor="middle" x="18" y="-14.3" font-family="Inter,Arial" font-size="14.00" fill="#d0dce3">∅</text>
</g>
<!-- n3&#45;&gt;l2 -->
<g id="edge5" class="edge disabled">
<title>n3&#45;&gt;l2</title>
<path fill="none" stroke="#d0dce3" d="M62.35,-86.34C54.28,-74.1 42.64,-56.42 33.31,-42.25"/>
<polygon fill="#d0dce3" stroke="#d0dce3" points="35.99,-39.96 27.57,-33.53 30.15,-43.81 35.99,-39.96"/>
<text text-anchor="middle" x="57.5" y="-57.2" font-family="Inter,Arial" font-size="11.00" fill="#d0dce3">left</text>
</g>
<!-- l3 -->
<g id="node7" class="node nil,disabled">
<title>l3</title>
<ellipse fill="#ffffff" stroke="#d0dce3" cx="72" cy="-18" rx="18" ry="18"/>
<text text-anchor="middle" x="72" y="-14.3" font-family="Inter,Arial" font-size="14.00" fill="#d0dce3">∅</text>
</g>
<!-- n3&#45;&gt;l3 -->
<g id="edge6" class="edge disabled">
<title>n3&#45;&gt;l3</title>
<path fill="none" stroke="#d0dce3" d="M72,-83.61C72,-72.77 72,-58.6 72,-46.29"/>
<polygon fill="#d0dce3" stroke="#d0dce3" points="75.5,-46.08 72,-36.08 68.5,-46.08 75.5,-46.08"/>
<text text-anchor="middle" x="84" y="-57.2" font-family="Inter,Arial" font-size="11.00" fill="#d0dce3">right</text>
</g>
<!-- l4 -->
<g id="node8" class="node nil,disabled">
<title>l4</title>
<ellipse fill="#ffffff" stroke="#d0dce3" cx="126" cy="-18" rx="18" ry="18"/>
<text text-anchor="middle" x="126" y="-14.3" font-family="Inter,Arial" font-size="14.00" fill="#d0dce3">∅</text>
</g>
<!-- n4&#45;&gt;l4 -->
<g id="edge7" class="edge disabled">
<title>n4&#45;&gt;l4</title>
<path fill="none" stroke="#d0dce3" d="M126,-83.61C126,-72.77 126,-58.6 126,-46.29"/>
<polygon fill="#d0dce3" stroke="#d0dce3" points="129.5,-46.08 126,-36.08 122.5,-46.08 129.5,-46.08"/>
<text text-anchor="middle" x="134.5" y="-57.2" font-family="Inter,Arial" font-size="11.00" fill="#d0dce3">left</text>
</g>
<!-- l5 -->
<g id="node9" class="node nil,disabled">
<title>l5</title>
<ellipse fill="#ffffff" stroke="#d0dce3" cx="180" cy="-18" rx="18" ry="18"/>
<text text-anchor="middle" x="180" y="-14.3" font-family="Inter,Arial" font-size="14.00" fill="#d0dce3">∅</text>
</g>
<!-- n4&#45;&gt;l5 -->
<g id="edge8" class="edge disabled">
<title>n4&#45;&gt;l5</title>
<path fill="none" stroke="#d0dce3" d="M135.65,-86.34C143.72,-74.1 155.36,-56.42 164.69,-42.25"/>
<polygon fill="#d0dce3" stroke="#d0dce3" points="167.85,-43.81 170.43,-33.53 162.01,-39.96 167.85,-43.81"/>
<text text-anchor="middle" x="168" y="-57.2" font-family="Inter,Arial" font-size="11.00" fill="#d0dce3">right</text>
</g>
</g>
</svg>
