<?xml version="1.0" encoding="UTF-8" standalone="no"?>
<!DOCTYPE svg PUBLIC "-//W3C//DTD SVG 1.1//EN"
 "http://www.w3.org/Graphics/SVG/1.1/DTD/svg11.dtd">
<!-- Generated by graphviz version 2.43.0 (0)
 -->
<!-- Title: %3 Pages: 1 -->
<svg width="587pt" height="56pt"
 viewBox="0.00 0.00 587.00 55.50" xmlns="http://www.w3.org/2000/svg" xmlns:xlink="http://www.w3.org/1999/xlink">
<g id="graph0" class="graph" transform="scale(1 1) rotate(0) translate(4 51.5)">
<title>%3</title>
<!-- String -->
<g id="node1" class="node">
<title>String</title>
<path fill="#ffffff" stroke="#586e75" d="M42,-41.5C42,-41.5 12,-41.5 12,-41.5 6,-41.5 0,-35.5 0,-29.5 0,-29.5 0,-17.5 0,-17.5 0,-11.5 6,-5.5 12,-5.5 12,-5.5 42,-5.5 42,-5.5 48,-5.5 54,-11.5 54,-17.5 54,-17.5 54,-29.5 54,-29.5 54,-35.5 48,-41.5 42,-41.5"/>
<text text-anchor="middle" x="27" y="-19.8" font-family="Inter,Arial" font-size="14.00" fill="#586e75">A</text>
</g>
<!-- choice -->
<g id="node4" class="node predicate,disabled">
<title>choice</title>
<path fill="none" stroke="#d0dce3" stroke-dasharray="5,2" d="M151,-0.5C151,-0.5 181,-0.5 181,-0.5 187,-0.5 193,-6.5 193,-12.5 193,-12.5 193,-34.5 193,-34.5 193,-40.5 187,-46.5 181,-46.5 181,-46.5 151,-46.5 151,-46.5 145,-46.5 139,-40.5 139,-34.5 139,-34.5 139,-12.5 139,-12.5 139,-6.5 145,-0.5 151,-0.5"/>
<text text-anchor="middle" x="166" y="-31.3" font-family="Inter,Arial" font-size="14.00" fill="#d0dce3">true</text>
<polyline fill="none" stroke="#d0dce3" stroke-dasharray="5,2" points="139,-23.5 193,-23.5 "/>
<text text-anchor="middle" x="166" y="-8.3" font-family="Inter,Arial" font-size="14.00" fill="#d0dce3">false</text>
</g>
<!-- String&#45;&gt;choice -->
<g id="edge1" class="edge disabled">
<title>String&#45;&gt;choice</title>
<path fill="none" stroke="#d0dce3" d="M54.09,-23.5C75.1,-23.5 104.87,-23.5 128.28,-23.5"/>
<polygon fill="#d0dce3" stroke="#d0dce3" points="128.54,-27 138.54,-23.5 128.54,-20 128.54,-27"/>
<text text-anchor="middle" x="96.5" y="-26.7" font-family="Inter,Arial" font-size="11.00" fill="#d0dce3">predicate</text>
</g>
<!-- ListStruct -->
<g id="node2" class="node disabled">
<title>ListStruct</title>
<path fill="#ffffff" stroke="#d0dce3" d="M408,-0.5C408,-0.5 449,-0.5 449,-0.5 455,-0.5 461,-6.5 461,-12.5 461,-12.5 461,-34.5 461,-34.5 461,-40.5 455,-46.5 449,-46.5 449,-46.5 408,-46.5 408,-46.5 402,-46.5 396,-40.5 396,-34.5 396,-34.5 396,-12.5 396,-12.5 396,-6.5 402,-0.5 408,-0.5"/>
<text text-anchor="middle" x="428.5" y="-31.3" font-family="Inter,Arial" font-size="14.00" fill="#d0dce3">Int, List</text>
<polyline fill="none" stroke="#d0dce3" points="396,-23.5 461,-23.5 "/>
<text text-anchor="middle" x="428.5" y="-8.3" font-family="Inter,Arial" font-size="14.00" fill="#d0dce3">∅</text>
</g>
<!-- List -->
<g id="node5" class="node disabled">
<title>List</title>
<path fill="#ffffff" stroke="#d0dce3" d="M567,-41.5C567,-41.5 537,-41.5 537,-41.5 531,-41.5 525,-35.5 525,-29.5 525,-29.5 525,-17.5 525,-17.5 525,-11.5 531,-5.5 537,-5.5 537,-5.5 567,-5.5 567,-5.5 573,-5.5 579,-11.5 579,-17.5 579,-17.5 579,-29.5 579,-29.5 579,-35.5 573,-41.5 567,-41.5"/>
<text text-anchor="middle" x="552" y="-19.8" font-family="Inter,Arial" font-size="14.00" fill="#d0dce3">List</text>
</g>
<!-- ListStruct&#45;&gt;List -->
<g id="edge6" class="edge pattern,disabled">
<title>ListStruct:cons&#45;&gt;List</title>
<path fill="none" stroke="#d0dce3" stroke-dasharray="5,2" d="M461,-35.5C461,-35.5 489.88,-31.65 514.92,-28.31"/>
<polygon fill="#d0dce3" stroke="#d0dce3" points="515.52,-31.76 524.97,-26.97 514.59,-24.82 515.52,-31.76"/>
<text text-anchor="middle" x="493" y="-35.7" font-family="Inter,Arial" font-size="11.00" fill="#d0dce3">Cons</text>
</g>
<!-- ListStruct&#45;&gt;List -->
<g id="edge7" class="edge pattern,disabled">
<title>ListStruct:nil&#45;&gt;List</title>
<path fill="none" stroke="#d0dce3" stroke-dasharray="5,2" d="M461,-11.5C461,-11.5 489.88,-15.35 514.92,-18.69"/>
<polygon fill="#d0dce3" stroke="#d0dce3" points="514.59,-22.18 524.97,-20.03 515.52,-15.24 514.59,-22.18"/>
<text text-anchor="middle" x="493" y="-16.7" font-family="Inter,Arial" font-size="11.00" fill="#d0dce3">Nil</text>
</g>
<!-- ListStruct2 -->
<g id="node3" class="node">
<title>ListStruct2</title>
<path fill="#ffffff" stroke="#586e75" d="M278,-0.5C278,-0.5 308,-0.5 308,-0.5 314,-0.5 320,-6.5 320,-12.5 320,-12.5 320,-34.5 320,-34.5 320,-40.5 314,-46.5 308,-46.5 308,-46.5 278,-46.5 278,-46.5 272,-46.5 266,-40.5 266,-34.5 266,-34.5 266,-12.5 266,-12.5 266,-6.5 272,-0.5 278,-0.5"/>
<text text-anchor="middle" x="293" y="-31.3" font-family="Inter,Arial" font-size="14.00" fill="#586e75">Int, A</text>
<polyline fill="none" stroke="#586e75" points="266,-23.5 320,-23.5 "/>
<text text-anchor="middle" x="293" y="-8.3" font-family="Inter,Arial" font-size="14.00" fill="#586e75">∅</text>
</g>
<!-- ListStruct2&#45;&gt;ListStruct -->
<g id="edge4" class="edge disabled">
<title>ListStruct2:cons&#45;&gt;ListStruct:cons</title>
<path fill="none" stroke="#d0dce3" d="M320,-35.5C320,-35.5 365.01,-35.5 385.75,-35.5"/>
<polygon fill="#d0dce3" stroke="#d0dce3" points="386,-39 396,-35.5 386,-32 386,-39"/>
<text text-anchor="middle" x="358" y="-38.7" font-family="Inter,Arial" font-size="11.00" fill="#d0dce3">recurse</text>
</g>
<!-- ListStruct2&#45;&gt;ListStruct -->
<g id="edge5" class="edge disabled">
<title>ListStruct2:nil&#45;&gt;ListStruct:nil</title>
<path fill="none" stroke="#d0dce3" d="M320,-11.5C320,-11.5 365.01,-11.5 385.75,-11.5"/>
<polygon fill="#d0dce3" stroke="#d0dce3" points="386,-15 396,-11.5 386,-8 386,-15"/>
</g>
<!-- choice&#45;&gt;ListStruct2 -->
<g id="edge2" class="edge disabled">
<title>choice:true&#45;&gt;ListStruct2:cons</title>
<path fill="none" stroke="#d0dce3" d="M193,-35.5C193,-35.5 235.79,-35.5 255.85,-35.5"/>
<polygon fill="#d0dce3" stroke="#d0dce3" points="256,-39 266,-35.5 256,-32 256,-39"/>
<text text-anchor="middle" x="229.5" y="-38.7" font-family="Inter,Arial" font-size="11.00" fill="#d0dce3">update</text>
</g>
<!-- choice&#45;&gt;ListStruct2 -->
<g id="edge3" class="edge disabled">
<title>choice:false&#45;&gt;ListStruct2:nil</title>
<path fill="none" stroke="#d0dce3" d="M193,-11.5C193,-11.5 235.79,-11.5 255.85,-11.5"/>
<polygon fill="#d0dce3" stroke="#d0dce3" points="256,-15 266,-11.5 256,-8 256,-15"/>
</g>
</g>
</svg>
