<?xml version="1.0" encoding="UTF-8" standalone="no"?>
<!DOCTYPE svg PUBLIC "-//W3C//DTD SVG 1.1//EN"
 "http://www.w3.org/Graphics/SVG/1.1/DTD/svg11.dtd">
<!-- Generated by graphviz version 2.43.0 (0)
 -->
<!-- Title: %3 Pages: 1 -->
<svg width="634pt" height="56pt"
 viewBox="0.00 0.00 634.00 55.50" xmlns="http://www.w3.org/2000/svg" xmlns:xlink="http://www.w3.org/1999/xlink">
<g id="graph0" class="graph" transform="scale(1 1) rotate(0) translate(4 51.5)">
<title>%3</title>
<!-- String -->
<g id="node1" class="node">
<title>String</title>
<path fill="#ffffff" stroke="#586e75" d="M44,-41.5C44,-41.5 12,-41.5 12,-41.5 6,-41.5 0,-35.5 0,-29.5 0,-29.5 0,-17.5 0,-17.5 0,-11.5 6,-5.5 12,-5.5 12,-5.5 44,-5.5 44,-5.5 50,-5.5 56,-11.5 56,-17.5 56,-17.5 56,-29.5 56,-29.5 56,-35.5 50,-41.5 44,-41.5"/>
<text text-anchor="middle" x="28" y="-19.8" font-family="Inter,Arial" font-size="14.00" fill="#586e75">String</text>
</g>
<!-- choice -->
<g id="node4" class="node predicate">
<title>choice</title>
<path fill="none" stroke="#586e75" stroke-dasharray="5,2" d="M158,-0.5C158,-0.5 188,-0.5 188,-0.5 194,-0.5 200,-6.5 200,-12.5 200,-12.5 200,-34.5 200,-34.5 200,-40.5 194,-46.5 188,-46.5 188,-46.5 158,-46.5 158,-46.5 152,-46.5 146,-40.5 146,-34.5 146,-34.5 146,-12.5 146,-12.5 146,-6.5 152,-0.5 158,-0.5"/>
<text text-anchor="middle" x="173" y="-31.3" font-family="Inter,Arial" font-size="14.00" fill="#586e75">true</text>
<polyline fill="none" stroke="#586e75" stroke-dasharray="5,2" points="146,-23.5 200,-23.5 "/>
<text text-anchor="middle" x="173" y="-8.3" font-family="Inter,Arial" font-size="14.00" fill="#586e75">false</text>
</g>
<!-- String&#45;&gt;choice -->
<g id="edge1" class="edge">
<title>String&#45;&gt;choice</title>
<path fill="none" stroke="#586e75" d="M56.23,-23.5C78.78,-23.5 111.01,-23.5 135.74,-23.5"/>
<polygon fill="#586e75" stroke="#586e75" points="135.83,-27 145.83,-23.5 135.83,-20 135.83,-27"/>
<text text-anchor="middle" x="101" y="-26.7" font-family="Inter,Arial" font-size="11.00" fill="#586e75">nonEmpty</text>
</g>
<!-- ListStruct -->
<g id="node2" class="node">
<title>ListStruct</title>
<path fill="#ffffff" stroke="#586e75" d="M455,-0.5C455,-0.5 496,-0.5 496,-0.5 502,-0.5 508,-6.5 508,-12.5 508,-12.5 508,-34.5 508,-34.5 508,-40.5 502,-46.5 496,-46.5 496,-46.5 455,-46.5 455,-46.5 449,-46.5 443,-40.5 443,-34.5 443,-34.5 443,-12.5 443,-12.5 443,-6.5 449,-0.5 455,-0.5"/>
<text text-anchor="middle" x="475.5" y="-31.3" font-family="Inter,Arial" font-size="14.00" fill="#586e75">Int, List</text>
<polyline fill="none" stroke="#586e75" points="443,-23.5 508,-23.5 "/>
<text text-anchor="middle" x="475.5" y="-8.3" font-family="Inter,Arial" font-size="14.00" fill="#586e75">∅</text>
</g>
<!-- List -->
<g id="node5" class="node">
<title>List</title>
<path fill="#ffffff" stroke="#586e75" d="M614,-41.5C614,-41.5 584,-41.5 584,-41.5 578,-41.5 572,-35.5 572,-29.5 572,-29.5 572,-17.5 572,-17.5 572,-11.5 578,-5.5 584,-5.5 584,-5.5 614,-5.5 614,-5.5 620,-5.5 626,-11.5 626,-17.5 626,-17.5 626,-29.5 626,-29.5 626,-35.5 620,-41.5 614,-41.5"/>
<text text-anchor="middle" x="599" y="-19.8" font-family="Inter,Arial" font-size="14.00" fill="#586e75">List</text>
</g>
<!-- ListStruct&#45;&gt;List -->
<g id="edge6" class="edge pattern">
<title>ListStruct:cons&#45;&gt;List</title>
<path fill="none" stroke="#586e75" stroke-dasharray="5,2" d="M508,-35.5C508,-35.5 536.88,-31.65 561.92,-28.31"/>
<polygon fill="#586e75" stroke="#586e75" points="562.52,-31.76 571.97,-26.97 561.59,-24.82 562.52,-31.76"/>
<text text-anchor="middle" x="540" y="-35.7" font-family="Inter,Arial" font-size="11.00" fill="#586e75">Cons</text>
</g>
<!-- ListStruct&#45;&gt;List -->
<g id="edge7" class="edge pattern">
<title>ListStruct:nil&#45;&gt;List</title>
<path fill="none" stroke="#586e75" stroke-dasharray="5,2" d="M508,-11.5C508,-11.5 536.88,-15.35 561.92,-18.69"/>
<polygon fill="#586e75" stroke="#586e75" points="561.59,-22.18 571.97,-20.03 562.52,-15.24 561.59,-22.18"/>
<text text-anchor="middle" x="540" y="-16.7" font-family="Inter,Arial" font-size="11.00" fill="#586e75">Nil</text>
</g>
<!-- ListStruct2 -->
<g id="node3" class="node">
<title>ListStruct2</title>
<path fill="#ffffff" stroke="#586e75" d="M299,-0.5C299,-0.5 355,-0.5 355,-0.5 361,-0.5 367,-6.5 367,-12.5 367,-12.5 367,-34.5 367,-34.5 367,-40.5 361,-46.5 355,-46.5 355,-46.5 299,-46.5 299,-46.5 293,-46.5 287,-40.5 287,-34.5 287,-34.5 287,-12.5 287,-12.5 287,-6.5 293,-0.5 299,-0.5"/>
<text text-anchor="middle" x="327" y="-31.3" font-family="Inter,Arial" font-size="14.00" fill="#586e75">Int, String</text>
<polyline fill="none" stroke="#586e75" points="287,-23.5 367,-23.5 "/>
<text text-anchor="middle" x="327" y="-8.3" font-family="Inter,Arial" font-size="14.00" fill="#586e75">∅</text>
</g>
<!-- ListStruct2&#45;&gt;ListStruct -->
<g id="edge4" class="edge">
<title>ListStruct2:cons&#45;&gt;ListStruct:cons</title>
<path fill="none" stroke="#586e75" d="M367,-35.5C367,-35.5 412.01,-35.5 432.75,-35.5"/>
<polygon fill="#586e75" stroke="#586e75" points="433,-39 443,-35.5 433,-32 433,-39"/>
<text text-anchor="middle" x="405" y="-38.7" font-family="Inter,Arial" font-size="11.00" fill="#586e75">recurse</text>
</g>
<!-- ListStruct2&#45;&gt;ListStruct -->
<g id="edge5" class="edge">
<title>ListStruct2:nil&#45;&gt;ListStruct:nil</title>
<path fill="none" stroke="#586e75" d="M367,-11.5C367,-11.5 412.01,-11.5 432.75,-11.5"/>
<polygon fill="#586e75" stroke="#586e75" points="433,-15 443,-11.5 433,-8 433,-15"/>
</g>
<!-- choice&#45;&gt;ListStruct2 -->
<g id="edge2" class="edge">
<title>choice:true&#45;&gt;ListStruct2:cons</title>
<path fill="none" stroke="#586e75" d="M200,-35.5C200,-35.5 253.63,-35.5 276.68,-35.5"/>
<polygon fill="#586e75" stroke="#586e75" points="277,-39 287,-35.5 277,-32 277,-39"/>
<text text-anchor="middle" x="243.5" y="-38.7" font-family="Inter,Arial" font-size="11.00" fill="#586e75">head / tail</text>
</g>
<!-- choice&#45;&gt;ListStruct2 -->
<g id="edge3" class="edge">
<title>choice:false&#45;&gt;ListStruct2:nil</title>
<path fill="none" stroke="#586e75" d="M200,-11.5C200,-11.5 253.63,-11.5 276.68,-11.5"/>
<polygon fill="#586e75" stroke="#586e75" points="277,-15 287,-11.5 277,-8 277,-15"/>
</g>
</g>
</svg>
