<?xml version="1.0" encoding="UTF-8" standalone="no"?>
<!DOCTYPE svg PUBLIC "-//W3C//DTD SVG 1.1//EN"
 "http://www.w3.org/Graphics/SVG/1.1/DTD/svg11.dtd">
<!-- Generated by graphviz version 2.43.0 (0)
 -->
<!-- Title: %3 Pages: 1 -->
<svg width="615pt" height="56pt"
 viewBox="0.00 0.00 615.00 55.50" xmlns="http://www.w3.org/2000/svg" xmlns:xlink="http://www.w3.org/1999/xlink">
<g id="graph0" class="graph" transform="scale(1 1) rotate(0) translate(4 51.5)">
<title>%3</title>
<!-- ListStruct -->
<g id="node1" class="node">
<title>ListStruct</title>
<path fill="#b2ebf2" stroke="#2980b9" d="M441,-0.5C441,-0.5 479,-0.5 479,-0.5 485,-0.5 491,-6.5 491,-12.5 491,-12.5 491,-34.5 491,-34.5 491,-40.5 485,-46.5 479,-46.5 479,-46.5 441,-46.5 441,-46.5 435,-46.5 429,-40.5 429,-34.5 429,-34.5 429,-12.5 429,-12.5 429,-6.5 435,-0.5 441,-0.5"/>
<text text-anchor="middle" x="460" y="-31.3" font-family="Segoe UI,Roboto,Helvetica,Arial,sans-serif" font-size="14.00" fill="#000000">Int, List</text>
<polyline fill="none" stroke="#2980b9" points="429,-23.5 491,-23.5 "/>
<text text-anchor="middle" x="460" y="-8.3" font-family="Segoe UI,Roboto,Helvetica,Arial,sans-serif" font-size="14.00" fill="#000000">∅</text>
</g>
<!-- List -->
<g id="node5" class="node">
<title>List</title>
<path fill="#b2ebf2" stroke="#2980b9" d="M595,-41.5C595,-41.5 565,-41.5 565,-41.5 559,-41.5 553,-35.5 553,-29.5 553,-29.5 553,-17.5 553,-17.5 553,-11.5 559,-5.5 565,-5.5 565,-5.5 595,-5.5 595,-5.5 601,-5.5 607,-11.5 607,-17.5 607,-17.5 607,-29.5 607,-29.5 607,-35.5 601,-41.5 595,-41.5"/>
<text text-anchor="middle" x="580" y="-19.8" font-family="Segoe UI,Roboto,Helvetica,Arial,sans-serif" font-size="14.00" fill="#000000">List</text>
</g>
<!-- ListStruct&#45;&gt;List -->
<g id="edge6" class="edge">
<title>ListStruct:cons&#45;&gt;List</title>
<path fill="none" stroke="#2980b9" stroke-dasharray="5,2" d="M491,-35.5C491,-35.5 518.31,-31.78 542.51,-28.48"/>
<polygon fill="#2980b9" stroke="#2980b9" points="543.16,-31.92 552.6,-27.1 542.22,-24.98 543.16,-31.92"/>
<text text-anchor="middle" x="522" y="-35.7" font-family="Segoe UI,Roboto,Helvetica,Arial,sans-serif" font-size="11.00" fill="#000000">Cons</text>
</g>
<!-- ListStruct&#45;&gt;List -->
<g id="edge7" class="edge">
<title>ListStruct:nil&#45;&gt;List</title>
<path fill="none" stroke="#2980b9" stroke-dasharray="5,2" d="M491,-11.5C491,-11.5 518.31,-15.22 542.51,-18.52"/>
<polygon fill="#2980b9" stroke="#2980b9" points="542.22,-22.02 552.6,-19.9 543.16,-15.08 542.22,-22.02"/>
<text text-anchor="middle" x="522" y="-16.7" font-family="Segoe UI,Roboto,Helvetica,Arial,sans-serif" font-size="11.00" fill="#000000">Nil</text>
</g>
<!-- ListStruct2 -->
<g id="node2" class="node">
<title>ListStruct2</title>
<path fill="#b2ebf2" stroke="#2980b9" d="M292,-0.5C292,-0.5 343,-0.5 343,-0.5 349,-0.5 355,-6.5 355,-12.5 355,-12.5 355,-34.5 355,-34.5 355,-40.5 349,-46.5 343,-46.5 343,-46.5 292,-46.5 292,-46.5 286,-46.5 280,-40.5 280,-34.5 280,-34.5 280,-12.5 280,-12.5 280,-6.5 286,-0.5 292,-0.5"/>
<text text-anchor="middle" x="317.5" y="-31.3" font-family="Segoe UI,Roboto,Helvetica,Arial,sans-serif" font-size="14.00" fill="#000000">Int, String</text>
<polyline fill="none" stroke="#2980b9" points="280,-23.5 355,-23.5 "/>
<text text-anchor="middle" x="317.5" y="-8.3" font-family="Segoe UI,Roboto,Helvetica,Arial,sans-serif" font-size="14.00" fill="#000000">∅</text>
</g>
<!-- ListStruct2&#45;&gt;ListStruct -->
<g id="edge4" class="edge">
<title>ListStruct2:cons&#45;&gt;ListStruct:cons</title>
<path fill="none" stroke="#2980b9" d="M355,-35.5C355,-35.5 398.38,-35.5 418.71,-35.5"/>
<polygon fill="#2980b9" stroke="#2980b9" points="419,-39 429,-35.5 419,-32 419,-39"/>
<text text-anchor="middle" x="392" y="-38.7" font-family="Segoe UI,Roboto,Helvetica,Arial,sans-serif" font-size="11.00" fill="#000000">recurse</text>
</g>
<!-- ListStruct2&#45;&gt;ListStruct -->
<g id="edge5" class="edge">
<title>ListStruct2:nil&#45;&gt;ListStruct:nil</title>
<path fill="none" stroke="#2980b9" d="M355,-11.5C355,-11.5 398.38,-11.5 418.71,-11.5"/>
<polygon fill="#2980b9" stroke="#2980b9" points="419,-15 429,-11.5 419,-8 419,-15"/>
</g>
<!-- choice -->
<g id="node3" class="node">
<title>choice</title>
<path fill="none" stroke="#2980b9" stroke-dasharray="5,2" d="M151,-0.5C151,-0.5 181,-0.5 181,-0.5 187,-0.5 193,-6.5 193,-12.5 193,-12.5 193,-34.5 193,-34.5 193,-40.5 187,-46.5 181,-46.5 181,-46.5 151,-46.5 151,-46.5 145,-46.5 139,-40.5 139,-34.5 139,-34.5 139,-12.5 139,-12.5 139,-6.5 145,-0.5 151,-0.5"/>
<text text-anchor="middle" x="166" y="-31.3" font-family="Segoe UI,Roboto,Helvetica,Arial,sans-serif" font-size="14.00" fill="#000000">true</text>
<polyline fill="none" stroke="#2980b9" stroke-dasharray="5,2" points="139,-23.5 193,-23.5 "/>
<text text-anchor="middle" x="166" y="-8.3" font-family="Segoe UI,Roboto,Helvetica,Arial,sans-serif" font-size="14.00" fill="#000000">false</text>
</g>
<!-- choice&#45;&gt;ListStruct2 -->
<g id="edge2" class="edge">
<title>choice:true&#45;&gt;ListStruct2:cons</title>
<path fill="none" stroke="#2980b9" d="M193,-35.5C193,-35.5 246.63,-35.5 269.68,-35.5"/>
<polygon fill="#2980b9" stroke="#2980b9" points="270,-39 280,-35.5 270,-32 270,-39"/>
<text text-anchor="middle" x="236.5" y="-38.7" font-family="Segoe UI,Roboto,Helvetica,Arial,sans-serif" font-size="11.00" fill="#000000">head / tail</text>
</g>
<!-- choice&#45;&gt;ListStruct2 -->
<g id="edge3" class="edge">
<title>choice:false&#45;&gt;ListStruct2:nil</title>
<path fill="none" stroke="#2980b9" d="M193,-11.5C193,-11.5 246.63,-11.5 269.68,-11.5"/>
<polygon fill="#2980b9" stroke="#2980b9" points="270,-15 280,-11.5 270,-8 270,-15"/>
</g>
<!-- String -->
<g id="node4" class="node">
<title>String</title>
<path fill="#b2ebf2" stroke="#2980b9" d="M42,-41.5C42,-41.5 12,-41.5 12,-41.5 6,-41.5 0,-35.5 0,-29.5 0,-29.5 0,-17.5 0,-17.5 0,-11.5 6,-5.5 12,-5.5 12,-5.5 42,-5.5 42,-5.5 48,-5.5 54,-11.5 54,-17.5 54,-17.5 54,-29.5 54,-29.5 54,-35.5 48,-41.5 42,-41.5"/>
<text text-anchor="middle" x="27" y="-19.8" font-family="Segoe UI,Roboto,Helvetica,Arial,sans-serif" font-size="14.00" fill="#000000">String</text>
</g>
<!-- String&#45;&gt;choice -->
<g id="edge1" class="edge">
<title>String&#45;&gt;choice</title>
<path fill="none" stroke="#2980b9" d="M54.09,-23.5C75.1,-23.5 104.87,-23.5 128.28,-23.5"/>
<polygon fill="#2980b9" stroke="#2980b9" points="128.54,-27 138.54,-23.5 128.54,-20 128.54,-27"/>
<text text-anchor="middle" x="96.5" y="-26.7" font-family="Segoe UI,Roboto,Helvetica,Arial,sans-serif" font-size="11.00" fill="#000000">nonEmpty</text>
</g>
</g>
</svg>
