<?xml version="1.0" encoding="UTF-8" standalone="no"?>
<!DOCTYPE svg PUBLIC "-//W3C//DTD SVG 1.1//EN"
 "http://www.w3.org/Graphics/SVG/1.1/DTD/svg11.dtd">
<!-- Generated by graphviz version 2.43.0 (0)
 -->
<!-- Title: %3 Pages: 1 -->
<svg width="596pt" height="56pt"
 viewBox="0.00 0.00 596.00 55.50" xmlns="http://www.w3.org/2000/svg" xmlns:xlink="http://www.w3.org/1999/xlink">
<g id="graph0" class="graph" transform="scale(1 1) rotate(0) translate(4 51.5)">
<title>%3</title>
<!-- ListStruct -->
<g id="node1" class="node">
<title>ListStruct</title>
<path fill="#b2ebf2" stroke="#dddddd" d="M422,-0.5C422,-0.5 460,-0.5 460,-0.5 466,-0.5 472,-6.5 472,-12.5 472,-12.5 472,-34.5 472,-34.5 472,-40.5 466,-46.5 460,-46.5 460,-46.5 422,-46.5 422,-46.5 416,-46.5 410,-40.5 410,-34.5 410,-34.5 410,-12.5 410,-12.5 410,-6.5 416,-0.5 422,-0.5"/>
<text text-anchor="middle" x="441" y="-31.3" font-family="Segoe UI,Roboto,Helvetica,Arial,sans-serif" font-size="14.00" fill="#dddddd">Int, List</text>
<polyline fill="none" stroke="#dddddd" points="410,-23.5 472,-23.5 "/>
<text text-anchor="middle" x="441" y="-8.3" font-family="Segoe UI,Roboto,Helvetica,Arial,sans-serif" font-size="14.00" fill="#dddddd">∅</text>
</g>
<!-- List -->
<g id="node5" class="node">
<title>List</title>
<path fill="#b2ebf2" stroke="#dddddd" d="M576,-41.5C576,-41.5 546,-41.5 546,-41.5 540,-41.5 534,-35.5 534,-29.5 534,-29.5 534,-17.5 534,-17.5 534,-11.5 540,-5.5 546,-5.5 546,-5.5 576,-5.5 576,-5.5 582,-5.5 588,-11.5 588,-17.5 588,-17.5 588,-29.5 588,-29.5 588,-35.5 582,-41.5 576,-41.5"/>
<text text-anchor="middle" x="561" y="-19.8" font-family="Segoe UI,Roboto,Helvetica,Arial,sans-serif" font-size="14.00" fill="#dddddd">List</text>
</g>
<!-- ListStruct&#45;&gt;List -->
<g id="edge6" class="edge">
<title>ListStruct:cons&#45;&gt;List</title>
<path fill="none" stroke="#dddddd" stroke-dasharray="5,2" d="M472,-35.5C472,-35.5 499.31,-31.78 523.51,-28.48"/>
<polygon fill="#dddddd" stroke="#dddddd" points="524.16,-31.92 533.6,-27.1 523.22,-24.98 524.16,-31.92"/>
<text text-anchor="middle" x="503" y="-35.7" font-family="Segoe UI,Roboto,Helvetica,Arial,sans-serif" font-size="11.00" fill="#dddddd">Cons</text>
</g>
<!-- ListStruct&#45;&gt;List -->
<g id="edge7" class="edge">
<title>ListStruct:nil&#45;&gt;List</title>
<path fill="none" stroke="#dddddd" stroke-dasharray="5,2" d="M472,-11.5C472,-11.5 499.31,-15.22 523.51,-18.52"/>
<polygon fill="#dddddd" stroke="#dddddd" points="523.22,-22.02 533.6,-19.9 524.16,-15.08 523.22,-22.02"/>
<text text-anchor="middle" x="503" y="-16.7" font-family="Segoe UI,Roboto,Helvetica,Arial,sans-serif" font-size="11.00" fill="#dddddd">Nil</text>
</g>
<!-- ListStruct2 -->
<g id="node2" class="node">
<title>ListStruct2</title>
<path fill="#b2ebf2" stroke="#2980b9" d="M273,-0.5C273,-0.5 324,-0.5 324,-0.5 330,-0.5 336,-6.5 336,-12.5 336,-12.5 336,-34.5 336,-34.5 336,-40.5 330,-46.5 324,-46.5 324,-46.5 273,-46.5 273,-46.5 267,-46.5 261,-40.5 261,-34.5 261,-34.5 261,-12.5 261,-12.5 261,-6.5 267,-0.5 273,-0.5"/>
<text text-anchor="middle" x="298.5" y="-31.3" font-family="Segoe UI,Roboto,Helvetica,Arial,sans-serif" font-size="14.00" fill="#000000">Int, String</text>
<polyline fill="none" stroke="#2980b9" points="261,-23.5 336,-23.5 "/>
<text text-anchor="middle" x="298.5" y="-8.3" font-family="Segoe UI,Roboto,Helvetica,Arial,sans-serif" font-size="14.00" fill="#000000">∅</text>
</g>
<!-- ListStruct2&#45;&gt;ListStruct -->
<g id="edge4" class="edge">
<title>ListStruct2:cons&#45;&gt;ListStruct:cons</title>
<path fill="none" stroke="#dddddd" d="M336,-35.5C336,-35.5 379.38,-35.5 399.71,-35.5"/>
<polygon fill="#dddddd" stroke="#dddddd" points="400,-39 410,-35.5 400,-32 400,-39"/>
<text text-anchor="middle" x="373" y="-38.7" font-family="Segoe UI,Roboto,Helvetica,Arial,sans-serif" font-size="11.00" fill="#dddddd">recurse</text>
</g>
<!-- ListStruct2&#45;&gt;ListStruct -->
<g id="edge5" class="edge">
<title>ListStruct2:nil&#45;&gt;ListStruct:nil</title>
<path fill="none" stroke="#dddddd" d="M336,-11.5C336,-11.5 379.38,-11.5 399.71,-11.5"/>
<polygon fill="#dddddd" stroke="#dddddd" points="400,-15 410,-11.5 400,-8 400,-15"/>
</g>
<!-- choice -->
<g id="node3" class="node">
<title>choice</title>
<path fill="none" stroke="#dddddd" stroke-dasharray="5,2" d="M149,-0.5C149,-0.5 179,-0.5 179,-0.5 185,-0.5 191,-6.5 191,-12.5 191,-12.5 191,-34.5 191,-34.5 191,-40.5 185,-46.5 179,-46.5 179,-46.5 149,-46.5 149,-46.5 143,-46.5 137,-40.5 137,-34.5 137,-34.5 137,-12.5 137,-12.5 137,-6.5 143,-0.5 149,-0.5"/>
<text text-anchor="middle" x="164" y="-31.3" font-family="Segoe UI,Roboto,Helvetica,Arial,sans-serif" font-size="14.00" fill="#dddddd">true</text>
<polyline fill="none" stroke="#dddddd" stroke-dasharray="5,2" points="137,-23.5 191,-23.5 "/>
<text text-anchor="middle" x="164" y="-8.3" font-family="Segoe UI,Roboto,Helvetica,Arial,sans-serif" font-size="14.00" fill="#dddddd">false</text>
</g>
<!-- choice&#45;&gt;ListStruct2 -->
<g id="edge2" class="edge">
<title>choice:true&#45;&gt;ListStruct2:cons</title>
<path fill="none" stroke="#dddddd" d="M191,-35.5C191,-35.5 231.62,-35.5 250.97,-35.5"/>
<polygon fill="#dddddd" stroke="#dddddd" points="251,-39 261,-35.5 251,-32 251,-39"/>
<text text-anchor="middle" x="226" y="-38.7" font-family="Segoe UI,Roboto,Helvetica,Arial,sans-serif" font-size="11.00" fill="#dddddd">update</text>
</g>
<!-- choice&#45;&gt;ListStruct2 -->
<g id="edge3" class="edge">
<title>choice:false&#45;&gt;ListStruct2:nil</title>
<path fill="none" stroke="#dddddd" d="M191,-11.5C191,-11.5 231.62,-11.5 250.97,-11.5"/>
<polygon fill="#dddddd" stroke="#dddddd" points="251,-15 261,-11.5 251,-8 251,-15"/>
</g>
<!-- A -->
<g id="node4" class="node">
<title>A</title>
<path fill="#b2ebf2" stroke="#2980b9" d="M42,-41.5C42,-41.5 12,-41.5 12,-41.5 6,-41.5 0,-35.5 0,-29.5 0,-29.5 0,-17.5 0,-17.5 0,-11.5 6,-5.5 12,-5.5 12,-5.5 42,-5.5 42,-5.5 48,-5.5 54,-11.5 54,-17.5 54,-17.5 54,-29.5 54,-29.5 54,-35.5 48,-41.5 42,-41.5"/>
<text text-anchor="middle" x="27" y="-19.8" font-family="Segoe UI,Roboto,Helvetica,Arial,sans-serif" font-size="14.00" fill="#000000">String</text>
</g>
<!-- A&#45;&gt;choice -->
<g id="edge1" class="edge">
<title>A&#45;&gt;choice</title>
<path fill="none" stroke="#dddddd" d="M54.03,-23.5C74.63,-23.5 103.64,-23.5 126.55,-23.5"/>
<polygon fill="#dddddd" stroke="#dddddd" points="126.59,-27 136.59,-23.5 126.59,-20 126.59,-27"/>
<text text-anchor="middle" x="95.5" y="-26.7" font-family="Segoe UI,Roboto,Helvetica,Arial,sans-serif" font-size="11.00" fill="#dddddd">predicate</text>
</g>
</g>
</svg>
