<?xml version="1.0" encoding="UTF-8" standalone="no"?>
<!DOCTYPE svg PUBLIC "-//W3C//DTD SVG 1.1//EN"
 "http://www.w3.org/Graphics/SVG/1.1/DTD/svg11.dtd">
<!-- Generated by graphviz version 2.43.0 (0)
 -->
<!-- Title: %3 Pages: 1 -->
<svg width="575pt" height="56pt"
 viewBox="0.00 0.00 575.00 55.50" xmlns="http://www.w3.org/2000/svg" xmlns:xlink="http://www.w3.org/1999/xlink">
<g id="graph0" class="graph" transform="scale(1 1) rotate(0) translate(4 51.5)">
<title>%3</title>
<!-- ListStruct -->
<g id="node1" class="node">
<title>ListStruct</title>
<path fill="#b2ebf2" stroke="#dddddd" d="M401,-0.5C401,-0.5 439,-0.5 439,-0.5 445,-0.5 451,-6.5 451,-12.5 451,-12.5 451,-34.5 451,-34.5 451,-40.5 445,-46.5 439,-46.5 439,-46.5 401,-46.5 401,-46.5 395,-46.5 389,-40.5 389,-34.5 389,-34.5 389,-12.5 389,-12.5 389,-6.5 395,-0.5 401,-0.5"/>
<text text-anchor="middle" x="420" y="-31.3" font-family="Segoe UI,Roboto,Helvetica,Arial,sans-serif" font-size="14.00" fill="#dddddd">Int, List</text>
<polyline fill="none" stroke="#dddddd" points="389,-23.5 451,-23.5 "/>
<text text-anchor="middle" x="420" y="-8.3" font-family="Segoe UI,Roboto,Helvetica,Arial,sans-serif" font-size="14.00" fill="#dddddd">∅</text>
</g>
<!-- List -->
<g id="node5" class="node">
<title>List</title>
<path fill="#b2ebf2" stroke="#dddddd" d="M555,-41.5C555,-41.5 525,-41.5 525,-41.5 519,-41.5 513,-35.5 513,-29.5 513,-29.5 513,-17.5 513,-17.5 513,-11.5 519,-5.5 525,-5.5 525,-5.5 555,-5.5 555,-5.5 561,-5.5 567,-11.5 567,-17.5 567,-17.5 567,-29.5 567,-29.5 567,-35.5 561,-41.5 555,-41.5"/>
<text text-anchor="middle" x="540" y="-19.8" font-family="Segoe UI,Roboto,Helvetica,Arial,sans-serif" font-size="14.00" fill="#dddddd">List</text>
</g>
<!-- ListStruct&#45;&gt;List -->
<g id="edge6" class="edge">
<title>ListStruct:cons&#45;&gt;List</title>
<path fill="none" stroke="#dddddd" stroke-dasharray="5,2" d="M451,-35.5C451,-35.5 478.31,-31.78 502.51,-28.48"/>
<polygon fill="#dddddd" stroke="#dddddd" points="503.16,-31.92 512.6,-27.1 502.22,-24.98 503.16,-31.92"/>
<text text-anchor="middle" x="482" y="-35.7" font-family="Segoe UI,Roboto,Helvetica,Arial,sans-serif" font-size="11.00" fill="#dddddd">Cons</text>
</g>
<!-- ListStruct&#45;&gt;List -->
<g id="edge7" class="edge">
<title>ListStruct:nil&#45;&gt;List</title>
<path fill="none" stroke="#dddddd" stroke-dasharray="5,2" d="M451,-11.5C451,-11.5 478.31,-15.22 502.51,-18.52"/>
<polygon fill="#dddddd" stroke="#dddddd" points="502.22,-22.02 512.6,-19.9 503.16,-15.08 502.22,-22.02"/>
<text text-anchor="middle" x="482" y="-16.7" font-family="Segoe UI,Roboto,Helvetica,Arial,sans-serif" font-size="11.00" fill="#dddddd">Nil</text>
</g>
<!-- ListStruct2 -->
<g id="node2" class="node">
<title>ListStruct2</title>
<path fill="#b2ebf2" stroke="#2980b9" d="M273,-0.5C273,-0.5 303,-0.5 303,-0.5 309,-0.5 315,-6.5 315,-12.5 315,-12.5 315,-34.5 315,-34.5 315,-40.5 309,-46.5 303,-46.5 303,-46.5 273,-46.5 273,-46.5 267,-46.5 261,-40.5 261,-34.5 261,-34.5 261,-12.5 261,-12.5 261,-6.5 267,-0.5 273,-0.5"/>
<text text-anchor="middle" x="288" y="-31.3" font-family="Segoe UI,Roboto,Helvetica,Arial,sans-serif" font-size="14.00" fill="#000000">Int, A</text>
<polyline fill="none" stroke="#2980b9" points="261,-23.5 315,-23.5 "/>
<text text-anchor="middle" x="288" y="-8.3" font-family="Segoe UI,Roboto,Helvetica,Arial,sans-serif" font-size="14.00" fill="#000000">∅</text>
</g>
<!-- ListStruct2&#45;&gt;ListStruct -->
<g id="edge4" class="edge">
<title>ListStruct2:cons&#45;&gt;ListStruct:cons</title>
<path fill="none" stroke="#dddddd" d="M315,-35.5C315,-35.5 358.38,-35.5 378.71,-35.5"/>
<polygon fill="#dddddd" stroke="#dddddd" points="379,-39 389,-35.5 379,-32 379,-39"/>
<text text-anchor="middle" x="352" y="-38.7" font-family="Segoe UI,Roboto,Helvetica,Arial,sans-serif" font-size="11.00" fill="#dddddd">recurse</text>
</g>
<!-- ListStruct2&#45;&gt;ListStruct -->
<g id="edge5" class="edge">
<title>ListStruct2:nil&#45;&gt;ListStruct:nil</title>
<path fill="none" stroke="#dddddd" d="M315,-11.5C315,-11.5 358.38,-11.5 378.71,-11.5"/>
<polygon fill="#dddddd" stroke="#dddddd" points="379,-15 389,-11.5 379,-8 379,-15"/>
</g>
<!-- choice -->
<g id="node3" class="node">
<title>choice</title>
<path fill="none" stroke="#dddddd" stroke-dasharray="5,2" d="M149,-0.5C149,-0.5 179,-0.5 179,-0.5 185,-0.5 191,-6.5 191,-12.5 191,-12.5 191,-34.5 191,-34.5 191,-40.5 185,-46.5 179,-46.5 179,-46.5 149,-46.5 149,-46.5 143,-46.5 137,-40.5 137,-34.5 137,-34.5 137,-12.5 137,-12.5 137,-6.5 143,-0.5 149,-0.5"/>
<text text-anchor="middle" x="164" y="-31.3" font-family="Segoe UI,Roboto,Helvetica,Arial,sans-serif" font-size="14.00" fill="#dddddd">true</text>
<polyline fill="none" stroke="#dddddd" stroke-dasharray="5,2" points="137,-23.5 191,-23.5 "/>
<text text-anchor="middle" x="164" y="-8.3" font-family="Segoe UI,Roboto,Helvetica,Arial,sans-serif" font-size="14.00" fill="#dddddd">false</text>
</g>
<!-- choice&#45;&gt;ListStruct2 -->
<g id="edge2" class="edge">
<title>choice:true&#45;&gt;ListStruct2:cons</title>
<path fill="none" stroke="#dddddd" d="M191,-35.5C191,-35.5 231.62,-35.5 250.97,-35.5"/>
<polygon fill="#dddddd" stroke="#dddddd" points="251,-39 261,-35.5 251,-32 251,-39"/>
<text text-anchor="middle" x="226" y="-38.7" font-family="Segoe UI,Roboto,Helvetica,Arial,sans-serif" font-size="11.00" fill="#dddddd">update</text>
</g>
<!-- choice&#45;&gt;ListStruct2 -->
<g id="edge3" class="edge">
<title>choice:false&#45;&gt;ListStruct2:nil</title>
<path fill="none" stroke="#dddddd" d="M191,-11.5C191,-11.5 231.62,-11.5 250.97,-11.5"/>
<polygon fill="#dddddd" stroke="#dddddd" points="251,-15 261,-11.5 251,-8 251,-15"/>
</g>
<!-- A -->
<g id="node4" class="node">
<title>A</title>
<path fill="#b2ebf2" stroke="#2980b9" d="M42,-41.5C42,-41.5 12,-41.5 12,-41.5 6,-41.5 0,-35.5 0,-29.5 0,-29.5 0,-17.5 0,-17.5 0,-11.5 6,-5.5 12,-5.5 12,-5.5 42,-5.5 42,-5.5 48,-5.5 54,-11.5 54,-17.5 54,-17.5 54,-29.5 54,-29.5 54,-35.5 48,-41.5 42,-41.5"/>
<text text-anchor="middle" x="27" y="-19.8" font-family="Segoe UI,Roboto,Helvetica,Arial,sans-serif" font-size="14.00" fill="#000000">A</text>
</g>
<!-- A&#45;&gt;choice -->
<g id="edge1" class="edge">
<title>A&#45;&gt;choice</title>
<path fill="none" stroke="#dddddd" d="M54.03,-23.5C74.63,-23.5 103.64,-23.5 126.55,-23.5"/>
<polygon fill="#dddddd" stroke="#dddddd" points="126.59,-27 136.59,-23.5 126.59,-20 126.59,-27"/>
<text text-anchor="middle" x="95.5" y="-26.7" font-family="Segoe UI,Roboto,Helvetica,Arial,sans-serif" font-size="11.00" fill="#dddddd">predicate</text>
</g>
</g>
</svg>
