<?xml version="1.0" encoding="UTF-8" standalone="no"?>
<!DOCTYPE svg PUBLIC "-//W3C//DTD SVG 1.1//EN"
 "http://www.w3.org/Graphics/SVG/1.1/DTD/svg11.dtd">
<!-- Generated by graphviz version 2.43.0 (0)
 -->
<!-- Title: %3 Pages: 1 -->
<svg width="570pt" height="56pt"
 viewBox="0.00 0.00 570.00 55.50" xmlns="http://www.w3.org/2000/svg" xmlns:xlink="http://www.w3.org/1999/xlink">
<g id="graph0" class="graph" transform="scale(1 1) rotate(0) translate(4 51.5)">
<title>%3</title>
<!-- String -->
<g id="node1" class="node">
<title>String</title>
<path fill="#ffffff" stroke="#586e75" d="M42,-41.5C42,-41.5 12,-41.5 12,-41.5 6,-41.5 0,-35.5 0,-29.5 0,-29.5 0,-17.5 0,-17.5 0,-11.5 6,-5.5 12,-5.5 12,-5.5 42,-5.5 42,-5.5 48,-5.5 54,-11.5 54,-17.5 54,-17.5 54,-29.5 54,-29.5 54,-35.5 48,-41.5 42,-41.5"/>
<text text-anchor="middle" x="27" y="-19.8" font-family="Inter,Arial" font-size="14.00" fill="#586e75">A</text>
</g>
<!-- choice -->
<g id="node4" class="node predicate">
<title>choice</title>
<path fill="none" stroke="#586e75" stroke-dasharray="5,2" d="M151,-0.5C151,-0.5 181,-0.5 181,-0.5 187,-0.5 193,-6.5 193,-12.5 193,-12.5 193,-34.5 193,-34.5 193,-40.5 187,-46.5 181,-46.5 181,-46.5 151,-46.5 151,-46.5 145,-46.5 139,-40.5 139,-34.5 139,-34.5 139,-12.5 139,-12.5 139,-6.5 145,-0.5 151,-0.5"/>
<text text-anchor="middle" x="166" y="-31.3" font-family="Inter,Arial" font-size="14.00" fill="#586e75">true</text>
<polyline fill="none" stroke="#586e75" stroke-dasharray="5,2" points="139,-23.5 193,-23.5 "/>
<text text-anchor="middle" x="166" y="-8.3" font-family="Inter,Arial" font-size="14.00" fill="#586e75">false</text>
</g>
<!-- String&#45;&gt;choice -->
<g id="edge1" class="edge">
<title>String&#45;&gt;choice</title>
<path fill="none" stroke="#586e75" d="M54.09,-23.5C75.1,-23.5 104.87,-23.5 128.28,-23.5"/>
<polygon fill="#586e75" stroke="#586e75" points="128.54,-27 138.54,-23.5 128.54,-20 128.54,-27"/>
<text text-anchor="middle" x="96.5" y="-26.7" font-family="Inter,Arial" font-size="11.00" fill="#586e75">predicate</text>
</g>
<!-- ListStruct -->
<g id="node2" class="node">
<title>ListStruct</title>
<path fill="#ffffff" stroke="#586e75" d="M391,-0.5C391,-0.5 432,-0.5 432,-0.5 438,-0.5 444,-6.5 444,-12.5 444,-12.5 444,-34.5 444,-34.5 444,-40.5 438,-46.5 432,-46.5 432,-46.5 391,-46.5 391,-46.5 385,-46.5 379,-40.5 379,-34.5 379,-34.5 379,-12.5 379,-12.5 379,-6.5 385,-0.5 391,-0.5"/>
<text text-anchor="middle" x="411.5" y="-31.3" font-family="Inter,Arial" font-size="14.00" fill="#586e75">Int, List</text>
<polyline fill="none" stroke="#586e75" points="379,-23.5 444,-23.5 "/>
<text text-anchor="middle" x="411.5" y="-8.3" font-family="Inter,Arial" font-size="14.00" fill="#586e75">∅</text>
</g>
<!-- List -->
<g id="node5" class="node">
<title>List</title>
<path fill="#ffffff" stroke="#586e75" d="M550,-41.5C550,-41.5 520,-41.5 520,-41.5 514,-41.5 508,-35.5 508,-29.5 508,-29.5 508,-17.5 508,-17.5 508,-11.5 514,-5.5 520,-5.5 520,-5.5 550,-5.5 550,-5.5 556,-5.5 562,-11.5 562,-17.5 562,-17.5 562,-29.5 562,-29.5 562,-35.5 556,-41.5 550,-41.5"/>
<text text-anchor="middle" x="535" y="-19.8" font-family="Inter,Arial" font-size="14.00" fill="#586e75">List</text>
</g>
<!-- ListStruct&#45;&gt;List -->
<g id="edge6" class="edge pattern">
<title>ListStruct:cons&#45;&gt;List</title>
<path fill="none" stroke="#586e75" stroke-dasharray="5,2" d="M444,-35.5C444,-35.5 472.88,-31.65 497.92,-28.31"/>
<polygon fill="#586e75" stroke="#586e75" points="498.52,-31.76 507.97,-26.97 497.59,-24.82 498.52,-31.76"/>
<text text-anchor="middle" x="476" y="-35.7" font-family="Inter,Arial" font-size="11.00" fill="#586e75">Cons</text>
</g>
<!-- ListStruct&#45;&gt;List -->
<g id="edge7" class="edge pattern">
<title>ListStruct:nil&#45;&gt;List</title>
<path fill="none" stroke="#586e75" stroke-dasharray="5,2" d="M444,-11.5C444,-11.5 472.88,-15.35 497.92,-18.69"/>
<polygon fill="#586e75" stroke="#586e75" points="497.59,-22.18 507.97,-20.03 498.52,-15.24 497.59,-22.18"/>
<text text-anchor="middle" x="476" y="-16.7" font-family="Inter,Arial" font-size="11.00" fill="#586e75">Nil</text>
</g>
<!-- ListStruct2 -->
<g id="node3" class="node">
<title>ListStruct2</title>
<path fill="#ffffff" stroke="#586e75" d="M278,-0.5C278,-0.5 308,-0.5 308,-0.5 314,-0.5 320,-6.5 320,-12.5 320,-12.5 320,-34.5 320,-34.5 320,-40.5 314,-46.5 308,-46.5 308,-46.5 278,-46.5 278,-46.5 272,-46.5 266,-40.5 266,-34.5 266,-34.5 266,-12.5 266,-12.5 266,-6.5 272,-0.5 278,-0.5"/>
<text text-anchor="middle" x="293" y="-31.3" font-family="Inter,Arial" font-size="14.00" fill="#586e75">Int, A</text>
<polyline fill="none" stroke="#586e75" points="266,-23.5 320,-23.5 "/>
<text text-anchor="middle" x="293" y="-8.3" font-family="Inter,Arial" font-size="14.00" fill="#586e75">∅</text>
</g>
<!-- ListStruct2&#45;&gt;ListStruct -->
<g id="edge4" class="edge">
<title>ListStruct2:cons&#45;&gt;ListStruct:cons</title>
<path fill="none" stroke="#586e75" d="M320,-35.5C320,-35.5 352.16,-35.5 368.99,-35.5"/>
<polygon fill="#586e75" stroke="#586e75" points="369,-39 379,-35.5 369,-32 369,-39"/>
<text text-anchor="middle" x="349.5" y="-38.7" font-family="Inter,Arial" font-size="11.00" fill="#586e75">loop</text>
</g>
<!-- ListStruct2&#45;&gt;ListStruct -->
<g id="edge5" class="edge">
<title>ListStruct2:nil&#45;&gt;ListStruct:nil</title>
<path fill="none" stroke="#586e75" d="M320,-11.5C320,-11.5 352.16,-11.5 368.99,-11.5"/>
<polygon fill="#586e75" stroke="#586e75" points="369,-15 379,-11.5 369,-8 369,-15"/>
</g>
<!-- choice&#45;&gt;ListStruct2 -->
<g id="edge2" class="edge">
<title>choice:true&#45;&gt;ListStruct2:cons</title>
<path fill="none" stroke="#586e75" d="M193,-35.5C193,-35.5 235.79,-35.5 255.85,-35.5"/>
<polygon fill="#586e75" stroke="#586e75" points="256,-39 266,-35.5 256,-32 256,-39"/>
<text text-anchor="middle" x="229.5" y="-38.7" font-family="Inter,Arial" font-size="11.00" fill="#586e75">update</text>
</g>
<!-- choice&#45;&gt;ListStruct2 -->
<g id="edge3" class="edge">
<title>choice:false&#45;&gt;ListStruct2:nil</title>
<path fill="none" stroke="#586e75" d="M193,-11.5C193,-11.5 235.79,-11.5 255.85,-11.5"/>
<polygon fill="#586e75" stroke="#586e75" points="256,-15 266,-11.5 256,-8 256,-15"/>
</g>
</g>
</svg>
