<?xml version="1.0" encoding="UTF-8" standalone="no"?>
<!DOCTYPE svg PUBLIC "-//W3C//DTD SVG 1.1//EN"
 "http://www.w3.org/Graphics/SVG/1.1/DTD/svg11.dtd">
<!-- Generated by graphviz version 2.43.0 (0)
 -->
<!-- Title: %3 Pages: 1 -->
<svg width="615pt" height="56pt"
 viewBox="0.00 0.00 615.00 55.50" xmlns="http://www.w3.org/2000/svg" xmlns:xlink="http://www.w3.org/1999/xlink">
<g id="graph0" class="graph" transform="scale(1 1) rotate(0) translate(4 51.5)">
<title>%3</title>
<!-- String -->
<g id="node1" class="node">
<title>String</title>
<path fill="#ffffff" stroke="#586e75" d="M44,-41.5C44,-41.5 12,-41.5 12,-41.5 6,-41.5 0,-35.5 0,-29.5 0,-29.5 0,-17.5 0,-17.5 0,-11.5 6,-5.5 12,-5.5 12,-5.5 44,-5.5 44,-5.5 50,-5.5 56,-11.5 56,-17.5 56,-17.5 56,-29.5 56,-29.5 56,-35.5 50,-41.5 44,-41.5"/>
<text text-anchor="middle" x="28" y="-19.8" font-family="Inter,Arial" font-size="14.00" fill="#586e75">String</text>
</g>
<!-- choice -->
<g id="node4" class="node predicate,disabled">
<title>choice</title>
<path fill="none" stroke="#d0dce3" stroke-dasharray="5,2" d="M153,-0.5C153,-0.5 183,-0.5 183,-0.5 189,-0.5 195,-6.5 195,-12.5 195,-12.5 195,-34.5 195,-34.5 195,-40.5 189,-46.5 183,-46.5 183,-46.5 153,-46.5 153,-46.5 147,-46.5 141,-40.5 141,-34.5 141,-34.5 141,-12.5 141,-12.5 141,-6.5 147,-0.5 153,-0.5"/>
<text text-anchor="middle" x="168" y="-31.3" font-family="Inter,Arial" font-size="14.00" fill="#d0dce3">true</text>
<polyline fill="none" stroke="#d0dce3" stroke-dasharray="5,2" points="141,-23.5 195,-23.5 "/>
<text text-anchor="middle" x="168" y="-8.3" font-family="Inter,Arial" font-size="14.00" fill="#d0dce3">false</text>
</g>
<!-- String&#45;&gt;choice -->
<g id="edge1" class="edge disabled">
<title>String&#45;&gt;choice</title>
<path fill="none" stroke="#d0dce3" d="M56.26,-23.5C77.52,-23.5 107.23,-23.5 130.53,-23.5"/>
<polygon fill="#d0dce3" stroke="#d0dce3" points="130.73,-27 140.73,-23.5 130.73,-20 130.73,-27"/>
<text text-anchor="middle" x="98.5" y="-26.7" font-family="Inter,Arial" font-size="11.00" fill="#d0dce3">predicate</text>
</g>
<!-- ListStruct -->
<g id="node2" class="node disabled">
<title>ListStruct</title>
<path fill="#ffffff" stroke="#d0dce3" d="M436,-0.5C436,-0.5 477,-0.5 477,-0.5 483,-0.5 489,-6.5 489,-12.5 489,-12.5 489,-34.5 489,-34.5 489,-40.5 483,-46.5 477,-46.5 477,-46.5 436,-46.5 436,-46.5 430,-46.5 424,-40.5 424,-34.5 424,-34.5 424,-12.5 424,-12.5 424,-6.5 430,-0.5 436,-0.5"/>
<text text-anchor="middle" x="456.5" y="-31.3" font-family="Inter,Arial" font-size="14.00" fill="#d0dce3">Int, List</text>
<polyline fill="none" stroke="#d0dce3" points="424,-23.5 489,-23.5 "/>
<text text-anchor="middle" x="456.5" y="-8.3" font-family="Inter,Arial" font-size="14.00" fill="#d0dce3">∅</text>
</g>
<!-- List -->
<g id="node5" class="node disabled">
<title>List</title>
<path fill="#ffffff" stroke="#d0dce3" d="M595,-41.5C595,-41.5 565,-41.5 565,-41.5 559,-41.5 553,-35.5 553,-29.5 553,-29.5 553,-17.5 553,-17.5 553,-11.5 559,-5.5 565,-5.5 565,-5.5 595,-5.5 595,-5.5 601,-5.5 607,-11.5 607,-17.5 607,-17.5 607,-29.5 607,-29.5 607,-35.5 601,-41.5 595,-41.5"/>
<text text-anchor="middle" x="580" y="-19.8" font-family="Inter,Arial" font-size="14.00" fill="#d0dce3">List</text>
</g>
<!-- ListStruct&#45;&gt;List -->
<g id="edge6" class="edge pattern,disabled">
<title>ListStruct:cons&#45;&gt;List</title>
<path fill="none" stroke="#d0dce3" stroke-dasharray="5,2" d="M489,-35.5C489,-35.5 517.88,-31.65 542.92,-28.31"/>
<polygon fill="#d0dce3" stroke="#d0dce3" points="543.52,-31.76 552.97,-26.97 542.59,-24.82 543.52,-31.76"/>
<text text-anchor="middle" x="521" y="-35.7" font-family="Inter,Arial" font-size="11.00" fill="#d0dce3">Cons</text>
</g>
<!-- ListStruct&#45;&gt;List -->
<g id="edge7" class="edge pattern,disabled">
<title>ListStruct:nil&#45;&gt;List</title>
<path fill="none" stroke="#d0dce3" stroke-dasharray="5,2" d="M489,-11.5C489,-11.5 517.88,-15.35 542.92,-18.69"/>
<polygon fill="#d0dce3" stroke="#d0dce3" points="542.59,-22.18 552.97,-20.03 543.52,-15.24 542.59,-22.18"/>
<text text-anchor="middle" x="521" y="-16.7" font-family="Inter,Arial" font-size="11.00" fill="#d0dce3">Nil</text>
</g>
<!-- ListStruct2 -->
<g id="node3" class="node">
<title>ListStruct2</title>
<path fill="#ffffff" stroke="#586e75" d="M280,-0.5C280,-0.5 336,-0.5 336,-0.5 342,-0.5 348,-6.5 348,-12.5 348,-12.5 348,-34.5 348,-34.5 348,-40.5 342,-46.5 336,-46.5 336,-46.5 280,-46.5 280,-46.5 274,-46.5 268,-40.5 268,-34.5 268,-34.5 268,-12.5 268,-12.5 268,-6.5 274,-0.5 280,-0.5"/>
<text text-anchor="middle" x="308" y="-31.3" font-family="Inter,Arial" font-size="14.00" fill="#586e75">Int, String</text>
<polyline fill="none" stroke="#586e75" points="268,-23.5 348,-23.5 "/>
<text text-anchor="middle" x="308" y="-8.3" font-family="Inter,Arial" font-size="14.00" fill="#586e75">∅</text>
</g>
<!-- ListStruct2&#45;&gt;ListStruct -->
<g id="edge4" class="edge disabled">
<title>ListStruct2:cons&#45;&gt;ListStruct:cons</title>
<path fill="none" stroke="#d0dce3" d="M348,-35.5C348,-35.5 393.01,-35.5 413.75,-35.5"/>
<polygon fill="#d0dce3" stroke="#d0dce3" points="414,-39 424,-35.5 414,-32 414,-39"/>
<text text-anchor="middle" x="386" y="-38.7" font-family="Inter,Arial" font-size="11.00" fill="#d0dce3">recurse</text>
</g>
<!-- ListStruct2&#45;&gt;ListStruct -->
<g id="edge5" class="edge disabled">
<title>ListStruct2:nil&#45;&gt;ListStruct:nil</title>
<path fill="none" stroke="#d0dce3" d="M348,-11.5C348,-11.5 393.01,-11.5 413.75,-11.5"/>
<polygon fill="#d0dce3" stroke="#d0dce3" points="414,-15 424,-11.5 414,-8 414,-15"/>
</g>
<!-- choice&#45;&gt;ListStruct2 -->
<g id="edge2" class="edge disabled">
<title>choice:true&#45;&gt;ListStruct2:cons</title>
<path fill="none" stroke="#d0dce3" d="M195,-35.5C195,-35.5 237.79,-35.5 257.85,-35.5"/>
<polygon fill="#d0dce3" stroke="#d0dce3" points="258,-39 268,-35.5 258,-32 258,-39"/>
<text text-anchor="middle" x="231.5" y="-38.7" font-family="Inter,Arial" font-size="11.00" fill="#d0dce3">update</text>
</g>
<!-- choice&#45;&gt;ListStruct2 -->
<g id="edge3" class="edge disabled">
<title>choice:false&#45;&gt;ListStruct2:nil</title>
<path fill="none" stroke="#d0dce3" d="M195,-11.5C195,-11.5 237.79,-11.5 257.85,-11.5"/>
<polygon fill="#d0dce3" stroke="#d0dce3" points="258,-15 268,-11.5 258,-8 258,-15"/>
</g>
</g>
</svg>
