<?xml version="1.0" encoding="UTF-8" standalone="no"?>
<!DOCTYPE svg PUBLIC "-//W3C//DTD SVG 1.1//EN"
 "http://www.w3.org/Graphics/SVG/1.1/DTD/svg11.dtd">
<!-- Generated by graphviz version 2.43.0 (0)
 -->
<!-- Title: %3 Pages: 1 -->
<svg width="159pt" height="128pt"
 viewBox="0.00 0.00 158.69 128.00" xmlns="http://www.w3.org/2000/svg" xmlns:xlink="http://www.w3.org/1999/xlink">
<g id="graph0" class="graph" transform="scale(1 1) rotate(0) translate(4 124)">
<title>%3</title>
<!-- classifier -->
<g id="node1" class="node product">
<title>classifier</title>
<polygon fill="#586e75" stroke="#586e75" points="113.68,-120 29.71,-120 -0.19,-84 143.58,-84 113.68,-120"/>
<text text-anchor="middle" x="71.69" y="-98.3" font-family="Inter,Arial" font-size="14.00" fill="#ffffff">Classifier</text>
</g>
<!-- classifier_name -->
<g id="node2" class="node">
<title>classifier_name</title>
<path fill="#ffffff" stroke="#586e75" d="M51.69,-36C51.69,-36 19.69,-36 19.69,-36 13.69,-36 7.69,-30 7.69,-24 7.69,-24 7.69,-12 7.69,-12 7.69,-6 13.69,0 19.69,0 19.69,0 51.69,0 51.69,0 57.69,0 63.69,-6 63.69,-12 63.69,-12 63.69,-24 63.69,-24 63.69,-30 57.69,-36 51.69,-36"/>
<text text-anchor="middle" x="35.69" y="-14.3" font-family="Inter,Arial" font-size="14.00" fill="#586e75">String</text>
</g>
<!-- classifier&#45;&gt;classifier_name -->
<g id="edge1" class="edge">
<title>classifier&#45;&gt;classifier_name</title>
<path fill="none" stroke="#586e75" d="M64.06,-83.61C59.21,-72.56 52.83,-58.03 47.35,-45.55"/>
<polygon fill="#586e75" stroke="#586e75" points="50.42,-43.83 43.19,-36.08 44.01,-46.65 50.42,-43.83"/>
<text text-anchor="middle" x="70.69" y="-57.2" font-family="Inter,Arial" font-size="11.00" fill="#586e75">name</text>
</g>
<!-- classifier_classCount -->
<g id="node3" class="node">
<title>classifier_classCount</title>
<path fill="#ffffff" stroke="#586e75" d="M123.69,-36C123.69,-36 93.69,-36 93.69,-36 87.69,-36 81.69,-30 81.69,-24 81.69,-24 81.69,-12 81.69,-12 81.69,-6 87.69,0 93.69,0 93.69,0 123.69,0 123.69,0 129.69,0 135.69,-6 135.69,-12 135.69,-12 135.69,-24 135.69,-24 135.69,-30 129.69,-36 123.69,-36"/>
<text text-anchor="middle" x="108.69" y="-14.3" font-family="Inter,Arial" font-size="14.00" fill="#586e75">Int</text>
</g>
<!-- classifier&#45;&gt;classifier_classCount -->
<g id="edge2" class="edge">
<title>classifier&#45;&gt;classifier_classCount</title>
<path fill="none" stroke="#586e75" d="M79.54,-83.61C84.53,-72.56 91.08,-58.03 96.72,-45.55"/>
<polygon fill="#586e75" stroke="#586e75" points="100.06,-46.64 100.99,-36.08 93.68,-43.76 100.06,-46.64"/>
<text text-anchor="middle" x="121.19" y="-57.2" font-family="Inter,Arial" font-size="11.00" fill="#586e75">classCount</text>
</g>
</g>
</svg>
