<?xml version="1.0" encoding="UTF-8" standalone="no"?>
<!DOCTYPE svg PUBLIC "-//W3C//DTD SVG 1.1//EN"
 "http://www.w3.org/Graphics/SVG/1.1/DTD/svg11.dtd">
<!-- Generated by graphviz version 2.43.0 (0)
 -->
<!-- Title: %3 Pages: 1 -->
<svg width="530pt" height="56pt"
 viewBox="0.00 0.00 530.00 55.50" xmlns="http://www.w3.org/2000/svg" xmlns:xlink="http://www.w3.org/1999/xlink">
<g id="graph0" class="graph" transform="scale(1 1) rotate(0) translate(4 51.5)">
<title>%3</title>
<!-- ListStruct -->
<g id="node1" class="node">
<title>ListStruct</title>
<path fill="#b2ebf2" stroke="#2980b9" d="M356,-0.5C356,-0.5 394,-0.5 394,-0.5 400,-0.5 406,-6.5 406,-12.5 406,-12.5 406,-34.5 406,-34.5 406,-40.5 400,-46.5 394,-46.5 394,-46.5 356,-46.5 356,-46.5 350,-46.5 344,-40.5 344,-34.5 344,-34.5 344,-12.5 344,-12.5 344,-6.5 350,-0.5 356,-0.5"/>
<text text-anchor="middle" x="375" y="-31.3" font-family="Segoe UI,Roboto,Helvetica,Arial,sans-serif" font-size="14.00" fill="#000000">Int, List</text>
<polyline fill="none" stroke="#2980b9" points="344,-23.5 406,-23.5 "/>
<text text-anchor="middle" x="375" y="-8.3" font-family="Segoe UI,Roboto,Helvetica,Arial,sans-serif" font-size="14.00" fill="#000000">∅</text>
</g>
<!-- List -->
<g id="node4" class="node">
<title>List</title>
<path fill="#b2ebf2" stroke="#2980b9" d="M510,-41.5C510,-41.5 480,-41.5 480,-41.5 474,-41.5 468,-35.5 468,-29.5 468,-29.5 468,-17.5 468,-17.5 468,-11.5 474,-5.5 480,-5.5 480,-5.5 510,-5.5 510,-5.5 516,-5.5 522,-11.5 522,-17.5 522,-17.5 522,-29.5 522,-29.5 522,-35.5 516,-41.5 510,-41.5"/>
<text text-anchor="middle" x="495" y="-19.8" font-family="Segoe UI,Roboto,Helvetica,Arial,sans-serif" font-size="14.00" fill="#000000">List</text>
</g>
<!-- ListStruct&#45;&gt;List -->
<g id="edge6" class="edge">
<title>ListStruct:cons&#45;&gt;List</title>
<path fill="none" stroke="#2980b9" stroke-dasharray="5,2" d="M406,-35.5C406,-35.5 433.31,-31.78 457.51,-28.48"/>
<polygon fill="#2980b9" stroke="#2980b9" points="458.16,-31.92 467.6,-27.1 457.22,-24.98 458.16,-31.92"/>
<text text-anchor="middle" x="437" y="-35.7" font-family="Segoe UI,Roboto,Helvetica,Arial,sans-serif" font-size="11.00" fill="#000000">Cons</text>
</g>
<!-- ListStruct&#45;&gt;List -->
<g id="edge7" class="edge">
<title>ListStruct:nil&#45;&gt;List</title>
<path fill="none" stroke="#2980b9" stroke-dasharray="5,2" d="M406,-11.5C406,-11.5 433.31,-15.22 457.51,-18.52"/>
<polygon fill="#2980b9" stroke="#2980b9" points="457.22,-22.02 467.6,-19.9 458.16,-15.08 457.22,-22.02"/>
<text text-anchor="middle" x="437" y="-16.7" font-family="Segoe UI,Roboto,Helvetica,Arial,sans-serif" font-size="11.00" fill="#000000">Nil</text>
</g>
<!-- ListStruct2 -->
<g id="node2" class="node">
<title>ListStruct2</title>
<path fill="#b2ebf2" stroke="#dddddd" d="M244,-0.5C244,-0.5 274,-0.5 274,-0.5 280,-0.5 286,-6.5 286,-12.5 286,-12.5 286,-34.5 286,-34.5 286,-40.5 280,-46.5 274,-46.5 274,-46.5 244,-46.5 244,-46.5 238,-46.5 232,-40.5 232,-34.5 232,-34.5 232,-12.5 232,-12.5 232,-6.5 238,-0.5 244,-0.5"/>
<text text-anchor="middle" x="259" y="-31.3" font-family="Segoe UI,Roboto,Helvetica,Arial,sans-serif" font-size="14.00" fill="#dddddd">Int, A</text>
<polyline fill="none" stroke="#dddddd" points="232,-23.5 286,-23.5 "/>
<text text-anchor="middle" x="259" y="-8.3" font-family="Segoe UI,Roboto,Helvetica,Arial,sans-serif" font-size="14.00" fill="#dddddd">∅</text>
</g>
<!-- ListStruct2&#45;&gt;ListStruct -->
<g id="edge4" class="edge">
<title>ListStruct2:cons&#45;&gt;ListStruct:cons</title>
<path fill="none" stroke="#dddddd" d="M286,-35.5C286,-35.5 317.28,-35.5 333.9,-35.5"/>
<polygon fill="#dddddd" stroke="#dddddd" points="334,-39 344,-35.5 334,-32 334,-39"/>
<text text-anchor="middle" x="315" y="-38.7" font-family="Segoe UI,Roboto,Helvetica,Arial,sans-serif" font-size="11.00" fill="#dddddd">loop</text>
</g>
<!-- ListStruct2&#45;&gt;ListStruct -->
<g id="edge5" class="edge">
<title>ListStruct2:nil&#45;&gt;ListStruct:nil</title>
<path fill="none" stroke="#dddddd" d="M286,-11.5C286,-11.5 317.28,-11.5 333.9,-11.5"/>
<polygon fill="#dddddd" stroke="#dddddd" points="334,-15 344,-11.5 334,-8 334,-15"/>
</g>
<!-- ListFA -->
<g id="node3" class="node">
<title>ListFA</title>
<path fill="#b2ebf2" stroke="#dddddd" d="M155,-41.5C155,-41.5 115,-41.5 115,-41.5 109,-41.5 103,-35.5 103,-29.5 103,-29.5 103,-17.5 103,-17.5 103,-11.5 109,-5.5 115,-5.5 115,-5.5 155,-5.5 155,-5.5 161,-5.5 167,-11.5 167,-17.5 167,-17.5 167,-29.5 167,-29.5 167,-35.5 161,-41.5 155,-41.5"/>
<text text-anchor="middle" x="135" y="-19.8" font-family="Segoe UI,Roboto,Helvetica,Arial,sans-serif" font-size="14.00" fill="#dddddd">ListF[A]</text>
</g>
<!-- ListFA&#45;&gt;ListStruct2 -->
<g id="edge2" class="edge">
<title>ListFA&#45;&gt;ListStruct2:cons</title>
<path fill="none" stroke="#dddddd" stroke-dasharray="5,2" d="M167.17,-27.4C186,-29.75 208.79,-32.6 221.72,-34.22"/>
<polygon fill="#dddddd" stroke="#dddddd" points="221.64,-37.73 232,-35.5 222.51,-30.79 221.64,-37.73"/>
<text text-anchor="middle" x="199.5" y="-35.7" font-family="Segoe UI,Roboto,Helvetica,Arial,sans-serif" font-size="11.00" fill="#dddddd">Some</text>
</g>
<!-- ListFA&#45;&gt;ListStruct2 -->
<g id="edge3" class="edge">
<title>ListFA&#45;&gt;ListStruct2:nil</title>
<path fill="none" stroke="#dddddd" stroke-dasharray="5,2" d="M167.17,-19.6C186,-17.25 208.79,-14.4 221.72,-12.78"/>
<polygon fill="#dddddd" stroke="#dddddd" points="222.51,-16.21 232,-11.5 221.64,-9.27 222.51,-16.21"/>
<text text-anchor="middle" x="199.5" y="-16.7" font-family="Segoe UI,Roboto,Helvetica,Arial,sans-serif" font-size="11.00" fill="#dddddd">None</text>
</g>
<!-- A -->
<g id="node5" class="node">
<title>A</title>
<path fill="#b2ebf2" stroke="#dddddd" d="M42,-41.5C42,-41.5 12,-41.5 12,-41.5 6,-41.5 0,-35.5 0,-29.5 0,-29.5 0,-17.5 0,-17.5 0,-11.5 6,-5.5 12,-5.5 12,-5.5 42,-5.5 42,-5.5 48,-5.5 54,-11.5 54,-17.5 54,-17.5 54,-29.5 54,-29.5 54,-35.5 48,-41.5 42,-41.5"/>
<text text-anchor="middle" x="27" y="-19.8" font-family="Segoe UI,Roboto,Helvetica,Arial,sans-serif" font-size="14.00" fill="#dddddd">A</text>
</g>
<!-- A&#45;&gt;ListFA -->
<g id="edge1" class="edge">
<title>A&#45;&gt;ListFA</title>
<path fill="none" stroke="#dddddd" d="M54.2,-23.5C65.81,-23.5 79.75,-23.5 92.71,-23.5"/>
<polygon fill="#dddddd" stroke="#dddddd" points="92.82,-27 102.82,-23.5 92.82,-20 92.82,-27"/>
<text text-anchor="middle" x="78.5" y="-26.7" font-family="Segoe UI,Roboto,Helvetica,Arial,sans-serif" font-size="11.00" fill="#dddddd">op</text>
</g>
</g>
</svg>
