<?xml version="1.0" encoding="UTF-8" standalone="no"?>
<!DOCTYPE svg PUBLIC "-//W3C//DTD SVG 1.1//EN"
 "http://www.w3.org/Graphics/SVG/1.1/DTD/svg11.dtd">
<!-- Generated by graphviz version 2.43.0 (0)
 -->
<!-- Title: %3 Pages: 1 -->
<svg width="748pt" height="56pt"
 viewBox="0.00 0.00 748.00 55.50" xmlns="http://www.w3.org/2000/svg" xmlns:xlink="http://www.w3.org/1999/xlink">
<g id="graph0" class="graph" transform="scale(1 1) rotate(0) translate(4 51.5)">
<title>%3</title>
<!-- ListStruct -->
<g id="node1" class="node">
<title>ListStruct</title>
<path fill="#b2ebf2" stroke="#dddddd" d="M313,-0.5C313,-0.5 351,-0.5 351,-0.5 357,-0.5 363,-6.5 363,-12.5 363,-12.5 363,-34.5 363,-34.5 363,-40.5 357,-46.5 351,-46.5 351,-46.5 313,-46.5 313,-46.5 307,-46.5 301,-40.5 301,-34.5 301,-34.5 301,-12.5 301,-12.5 301,-6.5 307,-0.5 313,-0.5"/>
<text text-anchor="middle" x="332" y="-31.3" font-family="Segoe UI,Roboto,Helvetica,Arial,sans-serif" font-size="14.00" fill="#dddddd">Int, List</text>
<polyline fill="none" stroke="#dddddd" points="301,-23.5 363,-23.5 "/>
<text text-anchor="middle" x="332" y="-8.3" font-family="Segoe UI,Roboto,Helvetica,Arial,sans-serif" font-size="14.00" fill="#dddddd">∅</text>
</g>
<!-- ListStruct2 -->
<g id="node2" class="node">
<title>ListStruct2</title>
<path fill="#b2ebf2" stroke="#2980b9" d="M433,-0.5C433,-0.5 463,-0.5 463,-0.5 469,-0.5 475,-6.5 475,-12.5 475,-12.5 475,-34.5 475,-34.5 475,-40.5 469,-46.5 463,-46.5 463,-46.5 433,-46.5 433,-46.5 427,-46.5 421,-40.5 421,-34.5 421,-34.5 421,-12.5 421,-12.5 421,-6.5 427,-0.5 433,-0.5"/>
<text text-anchor="middle" x="448" y="-31.3" font-family="Segoe UI,Roboto,Helvetica,Arial,sans-serif" font-size="14.00" fill="#000000">Int, A</text>
<polyline fill="none" stroke="#2980b9" points="421,-23.5 475,-23.5 "/>
<text text-anchor="middle" x="448" y="-8.3" font-family="Segoe UI,Roboto,Helvetica,Arial,sans-serif" font-size="14.00" fill="#000000">∅</text>
</g>
<!-- ListStruct&#45;&gt;ListStruct2 -->
<g id="edge4" class="edge">
<title>ListStruct:cons&#45;&gt;ListStruct2:cons</title>
<path fill="none" stroke="#dddddd" d="M363,-35.5C363,-35.5 394.28,-35.5 410.9,-35.5"/>
<polygon fill="#dddddd" stroke="#dddddd" points="411,-39 421,-35.5 411,-32 411,-39"/>
<text text-anchor="middle" x="392" y="-38.7" font-family="Segoe UI,Roboto,Helvetica,Arial,sans-serif" font-size="11.00" fill="#dddddd">loop</text>
</g>
<!-- ListStruct&#45;&gt;ListStruct2 -->
<g id="edge5" class="edge">
<title>ListStruct:nil&#45;&gt;ListStruct2:nil</title>
<path fill="none" stroke="#dddddd" d="M363,-11.5C363,-11.5 394.28,-11.5 410.9,-11.5"/>
<polygon fill="#dddddd" stroke="#dddddd" points="411,-15 421,-11.5 411,-8 411,-15"/>
</g>
<!-- ListFA -->
<g id="node4" class="node">
<title>ListFA</title>
<path fill="#b2ebf2" stroke="#2980b9" d="M625,-41.5C625,-41.5 552,-41.5 552,-41.5 546,-41.5 540,-35.5 540,-29.5 540,-29.5 540,-17.5 540,-17.5 540,-11.5 546,-5.5 552,-5.5 552,-5.5 625,-5.5 625,-5.5 631,-5.5 637,-11.5 637,-17.5 637,-17.5 637,-29.5 637,-29.5 637,-35.5 631,-41.5 625,-41.5"/>
<text text-anchor="middle" x="588.5" y="-19.8" font-family="Segoe UI,Roboto,Helvetica,Arial,sans-serif" font-size="14.00" fill="#000000">Option[Int, A]</text>
</g>
<!-- ListStruct2&#45;&gt;ListFA -->
<g id="edge6" class="edge">
<title>ListStruct2:cons&#45;&gt;ListFA</title>
<path fill="none" stroke="#2980b9" stroke-dasharray="5,2" d="M475,-35.5C475,-35.5 502.07,-32.61 529.65,-29.67"/>
<polygon fill="#2980b9" stroke="#2980b9" points="530.22,-33.13 539.79,-28.59 529.48,-26.17 530.22,-33.13"/>
<text text-anchor="middle" x="507.5" y="-35.7" font-family="Segoe UI,Roboto,Helvetica,Arial,sans-serif" font-size="11.00" fill="#000000">Some</text>
</g>
<!-- ListStruct2&#45;&gt;ListFA -->
<g id="edge7" class="edge">
<title>ListStruct2:nil&#45;&gt;ListFA</title>
<path fill="none" stroke="#2980b9" stroke-dasharray="5,2" d="M475,-11.5C475,-11.5 502.07,-14.39 529.65,-17.33"/>
<polygon fill="#2980b9" stroke="#2980b9" points="529.48,-20.83 539.79,-18.41 530.22,-13.87 529.48,-20.83"/>
<text text-anchor="middle" x="507.5" y="-17.7" font-family="Segoe UI,Roboto,Helvetica,Arial,sans-serif" font-size="11.00" fill="#000000">None</text>
</g>
<!-- ListFList -->
<g id="node3" class="node">
<title>ListFList</title>
<path fill="#b2ebf2" stroke="#dddddd" d="M224,-41.5C224,-41.5 137,-41.5 137,-41.5 131,-41.5 125,-35.5 125,-29.5 125,-29.5 125,-17.5 125,-17.5 125,-11.5 131,-5.5 137,-5.5 137,-5.5 224,-5.5 224,-5.5 230,-5.5 236,-11.5 236,-17.5 236,-17.5 236,-29.5 236,-29.5 236,-35.5 230,-41.5 224,-41.5"/>
<text text-anchor="middle" x="180.5" y="-19.8" font-family="Segoe UI,Roboto,Helvetica,Arial,sans-serif" font-size="14.00" fill="#dddddd">Option[Int, List]</text>
</g>
<!-- ListFList&#45;&gt;ListStruct -->
<g id="edge2" class="edge">
<title>ListFList&#45;&gt;ListStruct:cons</title>
<path fill="none" stroke="#dddddd" stroke-dasharray="5,2" d="M236,-28.97C256.93,-31.07 278.73,-33.26 291.01,-34.5"/>
<polygon fill="#dddddd" stroke="#dddddd" points="290.7,-37.98 301,-35.5 291.4,-31.02 290.7,-37.98"/>
<text text-anchor="middle" x="268.5" y="-35.7" font-family="Segoe UI,Roboto,Helvetica,Arial,sans-serif" font-size="11.00" fill="#dddddd">Some</text>
</g>
<!-- ListFList&#45;&gt;ListStruct -->
<g id="edge3" class="edge">
<title>ListFList&#45;&gt;ListStruct:nil</title>
<path fill="none" stroke="#dddddd" stroke-dasharray="5,2" d="M236,-18.03C256.93,-15.93 278.73,-13.74 291.01,-12.5"/>
<polygon fill="#dddddd" stroke="#dddddd" points="291.4,-15.98 301,-11.5 290.7,-9.02 291.4,-15.98"/>
<text text-anchor="middle" x="268.5" y="-17.7" font-family="Segoe UI,Roboto,Helvetica,Arial,sans-serif" font-size="11.00" fill="#dddddd">None</text>
</g>
<!-- A -->
<g id="node5" class="node">
<title>A</title>
<path fill="#b2ebf2" stroke="#2980b9" d="M728,-41.5C728,-41.5 698,-41.5 698,-41.5 692,-41.5 686,-35.5 686,-29.5 686,-29.5 686,-17.5 686,-17.5 686,-11.5 692,-5.5 698,-5.5 698,-5.5 728,-5.5 728,-5.5 734,-5.5 740,-11.5 740,-17.5 740,-17.5 740,-29.5 740,-29.5 740,-35.5 734,-41.5 728,-41.5"/>
<text text-anchor="middle" x="713" y="-19.8" font-family="Segoe UI,Roboto,Helvetica,Arial,sans-serif" font-size="14.00" fill="#000000">A</text>
</g>
<!-- ListFA&#45;&gt;A -->
<g id="edge8" class="edge">
<title>ListFA&#45;&gt;A</title>
<path fill="none" stroke="#2980b9" d="M637.21,-23.5C649.99,-23.5 663.6,-23.5 675.66,-23.5"/>
<polygon fill="#2980b9" stroke="#2980b9" points="675.8,-27 685.8,-23.5 675.8,-20 675.8,-27"/>
<text text-anchor="middle" x="661.5" y="-26.7" font-family="Segoe UI,Roboto,Helvetica,Arial,sans-serif" font-size="11.00" fill="#000000">op</text>
</g>
<!-- List -->
<g id="node6" class="node">
<title>List</title>
<path fill="#b2ebf2" stroke="#dddddd" d="M42,-41.5C42,-41.5 12,-41.5 12,-41.5 6,-41.5 0,-35.5 0,-29.5 0,-29.5 0,-17.5 0,-17.5 0,-11.5 6,-5.5 12,-5.5 12,-5.5 42,-5.5 42,-5.5 48,-5.5 54,-11.5 54,-17.5 54,-17.5 54,-29.5 54,-29.5 54,-35.5 48,-41.5 42,-41.5"/>
<text text-anchor="middle" x="27" y="-19.8" font-family="Segoe UI,Roboto,Helvetica,Arial,sans-serif" font-size="14.00" fill="#dddddd">List</text>
</g>
<!-- List&#45;&gt;ListFList -->
<g id="edge1" class="edge">
<title>List&#45;&gt;ListFList</title>
<path fill="none" stroke="#dddddd" d="M54.04,-23.5C70.84,-23.5 93.48,-23.5 114.9,-23.5"/>
<polygon fill="#dddddd" stroke="#dddddd" points="114.96,-27 124.96,-23.5 114.96,-20 114.96,-27"/>
<text text-anchor="middle" x="89.5" y="-26.7" font-family="Segoe UI,Roboto,Helvetica,Arial,sans-serif" font-size="11.00" fill="#dddddd">project</text>
</g>
</g>
</svg>
