<?xml version="1.0" encoding="UTF-8" standalone="no"?>
<!DOCTYPE svg PUBLIC "-//W3C//DTD SVG 1.1//EN"
 "http://www.w3.org/Graphics/SVG/1.1/DTD/svg11.dtd">
<!-- Generated by graphviz version 2.43.0 (0)
 -->
<!-- Title: %3 Pages: 1 -->
<svg width="682pt" height="56pt"
 viewBox="0.00 0.00 682.00 55.50" xmlns="http://www.w3.org/2000/svg" xmlns:xlink="http://www.w3.org/1999/xlink">
<g id="graph0" class="graph" transform="scale(1 1) rotate(0) translate(4 51.5)">
<title>%3</title>
<!-- ListStruct -->
<g id="node1" class="node">
<title>ListStruct</title>
<path fill="#b2ebf2" stroke="#dddddd" d="M280,-0.5C280,-0.5 318,-0.5 318,-0.5 324,-0.5 330,-6.5 330,-12.5 330,-12.5 330,-34.5 330,-34.5 330,-40.5 324,-46.5 318,-46.5 318,-46.5 280,-46.5 280,-46.5 274,-46.5 268,-40.5 268,-34.5 268,-34.5 268,-12.5 268,-12.5 268,-6.5 274,-0.5 280,-0.5"/>
<text text-anchor="middle" x="299" y="-31.3" font-family="Segoe UI,Roboto,Helvetica,Arial,sans-serif" font-size="14.00" fill="#dddddd">Int, List</text>
<polyline fill="none" stroke="#dddddd" points="268,-23.5 330,-23.5 "/>
<text text-anchor="middle" x="299" y="-8.3" font-family="Segoe UI,Roboto,Helvetica,Arial,sans-serif" font-size="14.00" fill="#dddddd">∅</text>
</g>
<!-- ListStruct2 -->
<g id="node2" class="node">
<title>ListStruct2</title>
<path fill="#b2ebf2" stroke="#dddddd" d="M400,-0.5C400,-0.5 430,-0.5 430,-0.5 436,-0.5 442,-6.5 442,-12.5 442,-12.5 442,-34.5 442,-34.5 442,-40.5 436,-46.5 430,-46.5 430,-46.5 400,-46.5 400,-46.5 394,-46.5 388,-40.5 388,-34.5 388,-34.5 388,-12.5 388,-12.5 388,-6.5 394,-0.5 400,-0.5"/>
<text text-anchor="middle" x="415" y="-31.3" font-family="Segoe UI,Roboto,Helvetica,Arial,sans-serif" font-size="14.00" fill="#dddddd">Int, A</text>
<polyline fill="none" stroke="#dddddd" points="388,-23.5 442,-23.5 "/>
<text text-anchor="middle" x="415" y="-8.3" font-family="Segoe UI,Roboto,Helvetica,Arial,sans-serif" font-size="14.00" fill="#dddddd">∅</text>
</g>
<!-- ListStruct&#45;&gt;ListStruct2 -->
<g id="edge4" class="edge">
<title>ListStruct:cons&#45;&gt;ListStruct2:cons</title>
<path fill="none" stroke="#dddddd" d="M330,-35.5C330,-35.5 361.28,-35.5 377.9,-35.5"/>
<polygon fill="#dddddd" stroke="#dddddd" points="378,-39 388,-35.5 378,-32 378,-39"/>
<text text-anchor="middle" x="359" y="-38.7" font-family="Segoe UI,Roboto,Helvetica,Arial,sans-serif" font-size="11.00" fill="#dddddd">loop</text>
</g>
<!-- ListStruct&#45;&gt;ListStruct2 -->
<g id="edge5" class="edge">
<title>ListStruct:nil&#45;&gt;ListStruct2:nil</title>
<path fill="none" stroke="#dddddd" d="M330,-11.5C330,-11.5 361.28,-11.5 377.9,-11.5"/>
<polygon fill="#dddddd" stroke="#dddddd" points="378,-15 388,-11.5 378,-8 378,-15"/>
</g>
<!-- ListFA -->
<g id="node4" class="node">
<title>ListFA</title>
<path fill="#b2ebf2" stroke="#2980b9" d="M559,-41.5C559,-41.5 519,-41.5 519,-41.5 513,-41.5 507,-35.5 507,-29.5 507,-29.5 507,-17.5 507,-17.5 507,-11.5 513,-5.5 519,-5.5 519,-5.5 559,-5.5 559,-5.5 565,-5.5 571,-11.5 571,-17.5 571,-17.5 571,-29.5 571,-29.5 571,-35.5 565,-41.5 559,-41.5"/>
<text text-anchor="middle" x="539" y="-19.8" font-family="Segoe UI,Roboto,Helvetica,Arial,sans-serif" font-size="14.00" fill="#000000">ListF[A]</text>
</g>
<!-- ListStruct2&#45;&gt;ListFA -->
<g id="edge6" class="edge">
<title>ListStruct2:cons&#45;&gt;ListFA</title>
<path fill="none" stroke="#dddddd" stroke-dasharray="5,2" d="M442,-35.5C442,-35.5 470.68,-31.91 496.69,-28.66"/>
<polygon fill="#dddddd" stroke="#dddddd" points="497.34,-32.11 506.83,-27.4 496.47,-25.16 497.34,-32.11"/>
<text text-anchor="middle" x="474.5" y="-35.7" font-family="Segoe UI,Roboto,Helvetica,Arial,sans-serif" font-size="11.00" fill="#dddddd">Some</text>
</g>
<!-- ListStruct2&#45;&gt;ListFA -->
<g id="edge7" class="edge">
<title>ListStruct2:nil&#45;&gt;ListFA</title>
<path fill="none" stroke="#dddddd" stroke-dasharray="5,2" d="M442,-11.5C442,-11.5 470.68,-15.09 496.69,-18.34"/>
<polygon fill="#dddddd" stroke="#dddddd" points="496.47,-21.84 506.83,-19.6 497.34,-14.89 496.47,-21.84"/>
<text text-anchor="middle" x="474.5" y="-16.7" font-family="Segoe UI,Roboto,Helvetica,Arial,sans-serif" font-size="11.00" fill="#dddddd">None</text>
</g>
<!-- ListFList -->
<g id="node3" class="node">
<title>ListFList</title>
<path fill="#b2ebf2" stroke="#2980b9" d="M191,-41.5C191,-41.5 137,-41.5 137,-41.5 131,-41.5 125,-35.5 125,-29.5 125,-29.5 125,-17.5 125,-17.5 125,-11.5 131,-5.5 137,-5.5 137,-5.5 191,-5.5 191,-5.5 197,-5.5 203,-11.5 203,-17.5 203,-17.5 203,-29.5 203,-29.5 203,-35.5 197,-41.5 191,-41.5"/>
<text text-anchor="middle" x="164" y="-19.8" font-family="Segoe UI,Roboto,Helvetica,Arial,sans-serif" font-size="14.00" fill="#000000">ListF[List]</text>
</g>
<!-- ListFList&#45;&gt;ListStruct -->
<g id="edge2" class="edge">
<title>ListFList&#45;&gt;ListStruct:cons</title>
<path fill="none" stroke="#dddddd" stroke-dasharray="5,2" d="M203.06,-27.93C222.77,-30.23 245.31,-32.86 257.98,-34.33"/>
<polygon fill="#dddddd" stroke="#dddddd" points="257.66,-37.82 268,-35.5 258.47,-30.87 257.66,-37.82"/>
<text text-anchor="middle" x="235.5" y="-35.7" font-family="Segoe UI,Roboto,Helvetica,Arial,sans-serif" font-size="11.00" fill="#dddddd">Some</text>
</g>
<!-- ListFList&#45;&gt;ListStruct -->
<g id="edge3" class="edge">
<title>ListFList&#45;&gt;ListStruct:nil</title>
<path fill="none" stroke="#dddddd" stroke-dasharray="5,2" d="M203.06,-19.07C222.77,-16.77 245.31,-14.14 257.98,-12.67"/>
<polygon fill="#dddddd" stroke="#dddddd" points="258.47,-16.13 268,-11.5 257.66,-9.18 258.47,-16.13"/>
<text text-anchor="middle" x="235.5" y="-16.7" font-family="Segoe UI,Roboto,Helvetica,Arial,sans-serif" font-size="11.00" fill="#dddddd">None</text>
</g>
<!-- A -->
<g id="node6" class="node">
<title>A</title>
<path fill="#b2ebf2" stroke="#dddddd" d="M662,-41.5C662,-41.5 632,-41.5 632,-41.5 626,-41.5 620,-35.5 620,-29.5 620,-29.5 620,-17.5 620,-17.5 620,-11.5 626,-5.5 632,-5.5 632,-5.5 662,-5.5 662,-5.5 668,-5.5 674,-11.5 674,-17.5 674,-17.5 674,-29.5 674,-29.5 674,-35.5 668,-41.5 662,-41.5"/>
<text text-anchor="middle" x="647" y="-19.8" font-family="Segoe UI,Roboto,Helvetica,Arial,sans-serif" font-size="14.00" fill="#dddddd">A</text>
</g>
<!-- ListFA&#45;&gt;A -->
<g id="edge8" class="edge">
<title>ListFA&#45;&gt;A</title>
<path fill="none" stroke="#dddddd" d="M571.23,-23.5C583.35,-23.5 597.3,-23.5 609.85,-23.5"/>
<polygon fill="#dddddd" stroke="#dddddd" points="609.99,-27 619.99,-23.5 609.99,-20 609.99,-27"/>
<text text-anchor="middle" x="595.5" y="-26.7" font-family="Segoe UI,Roboto,Helvetica,Arial,sans-serif" font-size="11.00" fill="#dddddd">op</text>
</g>
<!-- List -->
<g id="node5" class="node">
<title>List</title>
<path fill="#b2ebf2" stroke="#dddddd" d="M42,-41.5C42,-41.5 12,-41.5 12,-41.5 6,-41.5 0,-35.5 0,-29.5 0,-29.5 0,-17.5 0,-17.5 0,-11.5 6,-5.5 12,-5.5 12,-5.5 42,-5.5 42,-5.5 48,-5.5 54,-11.5 54,-17.5 54,-17.5 54,-29.5 54,-29.5 54,-35.5 48,-41.5 42,-41.5"/>
<text text-anchor="middle" x="27" y="-19.8" font-family="Segoe UI,Roboto,Helvetica,Arial,sans-serif" font-size="14.00" fill="#dddddd">List</text>
</g>
<!-- List&#45;&gt;ListFList -->
<g id="edge1" class="edge">
<title>List&#45;&gt;ListFList</title>
<path fill="none" stroke="#dddddd" d="M54.03,-23.5C71.2,-23.5 94.22,-23.5 114.68,-23.5"/>
<polygon fill="#dddddd" stroke="#dddddd" points="114.79,-27 124.79,-23.5 114.79,-20 114.79,-27"/>
<text text-anchor="middle" x="89.5" y="-26.7" font-family="Segoe UI,Roboto,Helvetica,Arial,sans-serif" font-size="11.00" fill="#dddddd">project</text>
</g>
</g>
</svg>
