<?xml version="1.0" encoding="UTF-8" standalone="no"?>
<!DOCTYPE svg PUBLIC "-//W3C//DTD SVG 1.1//EN"
 "http://www.w3.org/Graphics/SVG/1.1/DTD/svg11.dtd">
<!-- Generated by graphviz version 2.43.0 (0)
 -->
<!-- Title: %3 Pages: 1 -->
<svg width="312pt" height="48pt"
 viewBox="0.00 0.00 312.30 48.30" xmlns="http://www.w3.org/2000/svg" xmlns:xlink="http://www.w3.org/1999/xlink">
<g id="graph0" class="graph" transform="scale(1 1) rotate(0) translate(4 44.3)">
<title>%3</title>
<!-- p1 -->
<g id="node1" class="node">
<title>p1</title>
<ellipse fill="#b2ebf2" stroke="#2980b9" cx="18" cy="-20.15" rx="18" ry="18"/>
<text text-anchor="middle" x="18" y="-16.45" font-family="Segoe UI,Roboto,Helvetica,Arial,sans-serif" font-size="14.00" fill="#000000">3</text>
</g>
<!-- p2 -->
<g id="node2" class="node">
<title>p2</title>
<ellipse fill="#b2ebf2" stroke="#dddddd" cx="106" cy="-20.15" rx="18" ry="18"/>
<text text-anchor="middle" x="106" y="-16.45" font-family="Segoe UI,Roboto,Helvetica,Arial,sans-serif" font-size="14.00" fill="#dddddd">2</text>
</g>
<!-- p1&#45;&gt;p2 -->
<g id="edge1" class="edge">
<title>p1&#45;&gt;p2</title>
<path fill="none" stroke="#2980b9" d="M36.4,-20.15C48.25,-20.15 64.18,-20.15 77.71,-20.15"/>
<polygon fill="#2980b9" stroke="#2980b9" points="77.92,-23.65 87.92,-20.15 77.92,-16.65 77.92,-23.65"/>
<text text-anchor="middle" x="62" y="-23.35" font-family="Segoe UI,Roboto,Helvetica,Arial,sans-serif" font-size="11.00" fill="#000000">tail</text>
</g>
<!-- p3 -->
<g id="node3" class="node">
<title>p3</title>
<ellipse fill="#b2ebf2" stroke="#dddddd" cx="194" cy="-20.15" rx="18" ry="18"/>
<text text-anchor="middle" x="194" y="-16.45" font-family="Segoe UI,Roboto,Helvetica,Arial,sans-serif" font-size="14.00" fill="#dddddd">1</text>
</g>
<!-- p2&#45;&gt;p3 -->
<g id="edge2" class="edge">
<title>p2&#45;&gt;p3</title>
<path fill="none" stroke="#dddddd" d="M124.4,-20.15C136.25,-20.15 152.18,-20.15 165.71,-20.15"/>
<polygon fill="#dddddd" stroke="#dddddd" points="165.92,-23.65 175.92,-20.15 165.92,-16.65 165.92,-23.65"/>
<text text-anchor="middle" x="150" y="-23.35" font-family="Segoe UI,Roboto,Helvetica,Arial,sans-serif" font-size="11.00" fill="#dddddd">tail</text>
</g>
<!-- nil -->
<g id="node4" class="node">
<title>nil</title>
<ellipse fill="#ffffff" stroke="#dddddd" cx="284.15" cy="-20.15" rx="20.3" ry="20.3"/>
<text text-anchor="middle" x="284.15" y="-16.45" font-family="Segoe UI,Roboto,Helvetica,Arial,sans-serif" font-size="14.00" fill="#dddddd">∅</text>
</g>
<!-- p3&#45;&gt;nil -->
<g id="edge3" class="edge">
<title>p3&#45;&gt;nil</title>
<path fill="none" stroke="#dddddd" d="M212.42,-20.15C224.13,-20.15 239.88,-20.15 253.54,-20.15"/>
<polygon fill="#dddddd" stroke="#dddddd" points="253.93,-23.65 263.93,-20.15 253.93,-16.65 253.93,-23.65"/>
<text text-anchor="middle" x="238" y="-23.35" font-family="Segoe UI,Roboto,Helvetica,Arial,sans-serif" font-size="11.00" fill="#dddddd">tail</text>
</g>
</g>
</svg>
