<?xml version="1.0" encoding="UTF-8" standalone="no"?>
<!DOCTYPE svg PUBLIC "-//W3C//DTD SVG 1.1//EN"
 "http://www.w3.org/Graphics/SVG/1.1/DTD/svg11.dtd">
<!-- Generated by graphviz version 2.43.0 (0)
 -->
<!-- Title: %3 Pages: 1 -->
<svg width="222pt" height="305pt"
 viewBox="0.00 0.00 222.30 304.59" xmlns="http://www.w3.org/2000/svg" xmlns:xlink="http://www.w3.org/1999/xlink">
<g id="graph0" class="graph" transform="scale(1 1) rotate(0) translate(4 300.59)">
<title>%3</title>
<!-- n1 -->
<g id="node1" class="node">
<title>n1</title>
<ellipse fill="#b2ebf2" stroke="#2980b9" cx="143.15" cy="-278.59" rx="18" ry="18"/>
<text text-anchor="middle" x="143.15" y="-274.89" font-family="Segoe UI,Roboto,Helvetica,Arial,sans-serif" font-size="14.00" fill="#000000">4</text>
</g>
<!-- n2 -->
<g id="node2" class="node">
<title>n2</title>
<ellipse fill="#b2ebf2" stroke="#2980b9" cx="107.15" cy="-192.44" rx="18" ry="18"/>
<text text-anchor="middle" x="107.15" y="-188.74" font-family="Segoe UI,Roboto,Helvetica,Arial,sans-serif" font-size="14.00" fill="#000000">2</text>
</g>
<!-- n1&#45;&gt;n2 -->
<g id="edge1" class="edge">
<title>n1&#45;&gt;n2</title>
<path fill="none" stroke="#2980b9" d="M136.38,-261.77C131.2,-249.66 123.95,-232.73 117.97,-218.75"/>
<polygon fill="#2980b9" stroke="#2980b9" points="121.04,-217.02 113.89,-209.2 114.6,-219.77 121.04,-217.02"/>
<text text-anchor="middle" x="135.65" y="-233.79" font-family="Segoe UI,Roboto,Helvetica,Arial,sans-serif" font-size="11.00" fill="#000000">left</text>
</g>
<!-- l1 -->
<g id="node5" class="node">
<title>l1</title>
<ellipse fill="#ffffff" stroke="#2980b9" cx="163.15" cy="-192.44" rx="20.3" ry="20.3"/>
<text text-anchor="middle" x="163.15" y="-188.74" font-family="Segoe UI,Roboto,Helvetica,Arial,sans-serif" font-size="14.00" fill="#000000">∅</text>
</g>
<!-- n1&#45;&gt;l1 -->
<g id="edge2" class="edge">
<title>n1&#45;&gt;l1</title>
<path fill="none" stroke="#2980b9" d="M147.1,-260.97C149.72,-249.93 153.23,-235.15 156.3,-222.24"/>
<polygon fill="#2980b9" stroke="#2980b9" points="159.74,-222.92 158.65,-212.38 152.93,-221.3 159.74,-222.92"/>
<text text-anchor="middle" x="164.65" y="-233.79" font-family="Segoe UI,Roboto,Helvetica,Arial,sans-serif" font-size="11.00" fill="#000000">right</text>
</g>
<!-- n3 -->
<g id="node3" class="node">
<title>n3</title>
<ellipse fill="#b2ebf2" stroke="#2980b9" cx="78.15" cy="-106.3" rx="18" ry="18"/>
<text text-anchor="middle" x="78.15" y="-102.6" font-family="Segoe UI,Roboto,Helvetica,Arial,sans-serif" font-size="14.00" fill="#000000">1</text>
</g>
<!-- n2&#45;&gt;n3 -->
<g id="edge3" class="edge">
<title>n2&#45;&gt;n3</title>
<path fill="none" stroke="#2980b9" d="M101.56,-175.22C97.46,-163.35 91.83,-146.99 87.11,-133.3"/>
<polygon fill="#2980b9" stroke="#2980b9" points="90.29,-131.79 83.72,-123.47 83.67,-134.07 90.29,-131.79"/>
<text text-anchor="middle" x="100.65" y="-145.5" font-family="Segoe UI,Roboto,Helvetica,Arial,sans-serif" font-size="11.00" fill="#000000">left</text>
</g>
<!-- n4 -->
<g id="node4" class="node">
<title>n4</title>
<ellipse fill="#b2ebf2" stroke="#2980b9" cx="136.15" cy="-106.3" rx="18" ry="18"/>
<text text-anchor="middle" x="136.15" y="-102.6" font-family="Segoe UI,Roboto,Helvetica,Arial,sans-serif" font-size="14.00" fill="#000000">3</text>
</g>
<!-- n2&#45;&gt;n4 -->
<g id="edge4" class="edge">
<title>n2&#45;&gt;n4</title>
<path fill="none" stroke="#2980b9" d="M112.74,-175.22C116.83,-163.35 122.47,-146.99 127.19,-133.3"/>
<polygon fill="#2980b9" stroke="#2980b9" points="130.62,-134.07 130.57,-123.47 124.01,-131.79 130.62,-134.07"/>
<text text-anchor="middle" x="134.65" y="-145.5" font-family="Segoe UI,Roboto,Helvetica,Arial,sans-serif" font-size="11.00" fill="#000000">right</text>
</g>
<!-- l2 -->
<g id="node6" class="node">
<title>l2</title>
<ellipse fill="#ffffff" stroke="#2980b9" cx="20.15" cy="-20.15" rx="20.3" ry="20.3"/>
<text text-anchor="middle" x="20.15" y="-16.45" font-family="Segoe UI,Roboto,Helvetica,Arial,sans-serif" font-size="14.00" fill="#000000">∅</text>
</g>
<!-- n3&#45;&gt;l2 -->
<g id="edge5" class="edge">
<title>n3&#45;&gt;l2</title>
<path fill="none" stroke="#2980b9" d="M68.31,-91.02C59.8,-78.67 47.3,-60.54 37.17,-45.84"/>
<polygon fill="#2980b9" stroke="#2980b9" points="39.78,-43.47 31.23,-37.22 34.02,-47.44 39.78,-43.47"/>
<text text-anchor="middle" x="61.65" y="-61.5" font-family="Segoe UI,Roboto,Helvetica,Arial,sans-serif" font-size="11.00" fill="#000000">left</text>
</g>
<!-- l3 -->
<g id="node7" class="node">
<title>l3</title>
<ellipse fill="#ffffff" stroke="#2980b9" cx="78.15" cy="-20.15" rx="20.3" ry="20.3"/>
<text text-anchor="middle" x="78.15" y="-16.45" font-family="Segoe UI,Roboto,Helvetica,Arial,sans-serif" font-size="14.00" fill="#000000">∅</text>
</g>
<!-- n3&#45;&gt;l3 -->
<g id="edge6" class="edge">
<title>n3&#45;&gt;l3</title>
<path fill="none" stroke="#2980b9" d="M78.15,-88.27C78.15,-77.46 78.15,-63.19 78.15,-50.59"/>
<polygon fill="#2980b9" stroke="#2980b9" points="81.65,-50.51 78.15,-40.51 74.65,-50.51 81.65,-50.51"/>
<text text-anchor="middle" x="89.65" y="-61.5" font-family="Segoe UI,Roboto,Helvetica,Arial,sans-serif" font-size="11.00" fill="#000000">right</text>
</g>
<!-- l4 -->
<g id="node8" class="node">
<title>l4</title>
<ellipse fill="#ffffff" stroke="#2980b9" cx="136.15" cy="-20.15" rx="20.3" ry="20.3"/>
<text text-anchor="middle" x="136.15" y="-16.45" font-family="Segoe UI,Roboto,Helvetica,Arial,sans-serif" font-size="14.00" fill="#000000">∅</text>
</g>
<!-- n4&#45;&gt;l4 -->
<g id="edge7" class="edge">
<title>n4&#45;&gt;l4</title>
<path fill="none" stroke="#2980b9" d="M136.15,-88.27C136.15,-77.46 136.15,-63.19 136.15,-50.59"/>
<polygon fill="#2980b9" stroke="#2980b9" points="139.65,-50.51 136.15,-40.51 132.65,-50.51 139.65,-50.51"/>
<text text-anchor="middle" x="144.65" y="-61.5" font-family="Segoe UI,Roboto,Helvetica,Arial,sans-serif" font-size="11.00" fill="#000000">left</text>
</g>
<!-- l5 -->
<g id="node9" class="node">
<title>l5</title>
<ellipse fill="#ffffff" stroke="#2980b9" cx="194.15" cy="-20.15" rx="20.3" ry="20.3"/>
<text text-anchor="middle" x="194.15" y="-16.45" font-family="Segoe UI,Roboto,Helvetica,Arial,sans-serif" font-size="14.00" fill="#000000">∅</text>
</g>
<!-- n4&#45;&gt;l5 -->
<g id="edge8" class="edge">
<title>n4&#45;&gt;l5</title>
<path fill="none" stroke="#2980b9" d="M145.99,-91.02C154.5,-78.67 167,-60.54 177.13,-45.84"/>
<polygon fill="#2980b9" stroke="#2980b9" points="180.28,-47.44 183.07,-37.22 174.51,-43.47 180.28,-47.44"/>
<text text-anchor="middle" x="177.65" y="-61.5" font-family="Segoe UI,Roboto,Helvetica,Arial,sans-serif" font-size="11.00" fill="#000000">right</text>
</g>
</g>
</svg>
