<?xml version="1.0" encoding="UTF-8" standalone="no"?>
<!DOCTYPE svg PUBLIC "-//W3C//DTD SVG 1.1//EN"
 "http://www.w3.org/Graphics/SVG/1.1/DTD/svg11.dtd">
<!-- Generated by graphviz version 2.43.0 (0)
 -->
<!-- Title: %3 Pages: 1 -->
<svg width="613pt" height="56pt"
 viewBox="0.00 0.00 613.00 55.50" xmlns="http://www.w3.org/2000/svg" xmlns:xlink="http://www.w3.org/1999/xlink">
<g id="graph0" class="graph" transform="scale(1 1) rotate(0) translate(4 51.5)">
<title>%3</title>
<!-- ListStruct -->
<g id="node1" class="node">
<title>ListStruct</title>
<path fill="#b2ebf2" stroke="#dddddd" d="M439,-0.5C439,-0.5 477,-0.5 477,-0.5 483,-0.5 489,-6.5 489,-12.5 489,-12.5 489,-34.5 489,-34.5 489,-40.5 483,-46.5 477,-46.5 477,-46.5 439,-46.5 439,-46.5 433,-46.5 427,-40.5 427,-34.5 427,-34.5 427,-12.5 427,-12.5 427,-6.5 433,-0.5 439,-0.5"/>
<text text-anchor="middle" x="458" y="-31.3" font-family="Segoe UI,Roboto,Helvetica,Arial,sans-serif" font-size="14.00" fill="#dddddd">Int, List</text>
<polyline fill="none" stroke="#dddddd" points="427,-23.5 489,-23.5 "/>
<text text-anchor="middle" x="458" y="-8.3" font-family="Segoe UI,Roboto,Helvetica,Arial,sans-serif" font-size="14.00" fill="#dddddd">∅</text>
</g>
<!-- List -->
<g id="node5" class="node">
<title>List</title>
<path fill="#b2ebf2" stroke="#dddddd" d="M593,-41.5C593,-41.5 563,-41.5 563,-41.5 557,-41.5 551,-35.5 551,-29.5 551,-29.5 551,-17.5 551,-17.5 551,-11.5 557,-5.5 563,-5.5 563,-5.5 593,-5.5 593,-5.5 599,-5.5 605,-11.5 605,-17.5 605,-17.5 605,-29.5 605,-29.5 605,-35.5 599,-41.5 593,-41.5"/>
<text text-anchor="middle" x="578" y="-19.8" font-family="Segoe UI,Roboto,Helvetica,Arial,sans-serif" font-size="14.00" fill="#dddddd">List</text>
</g>
<!-- ListStruct&#45;&gt;List -->
<g id="edge6" class="edge">
<title>ListStruct:cons&#45;&gt;List</title>
<path fill="none" stroke="#dddddd" stroke-dasharray="5,2" d="M489,-35.5C489,-35.5 516.31,-31.78 540.51,-28.48"/>
<polygon fill="#dddddd" stroke="#dddddd" points="541.16,-31.92 550.6,-27.1 540.22,-24.98 541.16,-31.92"/>
<text text-anchor="middle" x="520" y="-35.7" font-family="Segoe UI,Roboto,Helvetica,Arial,sans-serif" font-size="11.00" fill="#dddddd">Cons</text>
</g>
<!-- ListStruct&#45;&gt;List -->
<g id="edge7" class="edge">
<title>ListStruct:nil&#45;&gt;List</title>
<path fill="none" stroke="#dddddd" stroke-dasharray="5,2" d="M489,-11.5C489,-11.5 516.31,-15.22 540.51,-18.52"/>
<polygon fill="#dddddd" stroke="#dddddd" points="540.22,-22.02 550.6,-19.9 541.16,-15.08 540.22,-22.02"/>
<text text-anchor="middle" x="520" y="-16.7" font-family="Segoe UI,Roboto,Helvetica,Arial,sans-serif" font-size="11.00" fill="#dddddd">Nil</text>
</g>
<!-- ListStruct2 -->
<g id="node2" class="node">
<title>ListStruct2</title>
<path fill="#b2ebf2" stroke="#dddddd" d="M290,-0.5C290,-0.5 341,-0.5 341,-0.5 347,-0.5 353,-6.5 353,-12.5 353,-12.5 353,-34.5 353,-34.5 353,-40.5 347,-46.5 341,-46.5 341,-46.5 290,-46.5 290,-46.5 284,-46.5 278,-40.5 278,-34.5 278,-34.5 278,-12.5 278,-12.5 278,-6.5 284,-0.5 290,-0.5"/>
<text text-anchor="middle" x="315.5" y="-31.3" font-family="Segoe UI,Roboto,Helvetica,Arial,sans-serif" font-size="14.00" fill="#dddddd">Int, String</text>
<polyline fill="none" stroke="#dddddd" points="278,-23.5 353,-23.5 "/>
<text text-anchor="middle" x="315.5" y="-8.3" font-family="Segoe UI,Roboto,Helvetica,Arial,sans-serif" font-size="14.00" fill="#dddddd">∅</text>
</g>
<!-- ListStruct2&#45;&gt;ListStruct -->
<g id="edge4" class="edge">
<title>ListStruct2:cons&#45;&gt;ListStruct:cons</title>
<path fill="none" stroke="#dddddd" d="M353,-35.5C353,-35.5 396.38,-35.5 416.71,-35.5"/>
<polygon fill="#dddddd" stroke="#dddddd" points="417,-39 427,-35.5 417,-32 417,-39"/>
<text text-anchor="middle" x="390" y="-38.7" font-family="Segoe UI,Roboto,Helvetica,Arial,sans-serif" font-size="11.00" fill="#dddddd">recurse</text>
</g>
<!-- ListStruct2&#45;&gt;ListStruct -->
<g id="edge5" class="edge">
<title>ListStruct2:nil&#45;&gt;ListStruct:nil</title>
<path fill="none" stroke="#dddddd" d="M353,-11.5C353,-11.5 396.38,-11.5 416.71,-11.5"/>
<polygon fill="#dddddd" stroke="#dddddd" points="417,-15 427,-11.5 417,-8 417,-15"/>
</g>
<!-- choice -->
<g id="node3" class="node">
<title>choice</title>
<path fill="none" stroke="#dddddd" stroke-dasharray="5,2" d="M149,-0.5C149,-0.5 179,-0.5 179,-0.5 185,-0.5 191,-6.5 191,-12.5 191,-12.5 191,-34.5 191,-34.5 191,-40.5 185,-46.5 179,-46.5 179,-46.5 149,-46.5 149,-46.5 143,-46.5 137,-40.5 137,-34.5 137,-34.5 137,-12.5 137,-12.5 137,-6.5 143,-0.5 149,-0.5"/>
<text text-anchor="middle" x="164" y="-31.3" font-family="Segoe UI,Roboto,Helvetica,Arial,sans-serif" font-size="14.00" fill="#dddddd">true</text>
<polyline fill="none" stroke="#dddddd" stroke-dasharray="5,2" points="137,-23.5 191,-23.5 "/>
<text text-anchor="middle" x="164" y="-8.3" font-family="Segoe UI,Roboto,Helvetica,Arial,sans-serif" font-size="14.00" fill="#dddddd">false</text>
</g>
<!-- choice&#45;&gt;ListStruct2 -->
<g id="edge2" class="edge">
<title>choice:true&#45;&gt;ListStruct2:cons</title>
<path fill="none" stroke="#2980b9" d="M191,-35.5C191,-35.5 244.63,-35.5 267.68,-35.5"/>
<polygon fill="#2980b9" stroke="#2980b9" points="268,-39 278,-35.5 268,-32 268,-39"/>
<text text-anchor="middle" x="234.5" y="-38.7" font-family="Segoe UI,Roboto,Helvetica,Arial,sans-serif" font-size="11.00" fill="#000000">head / tail</text>
</g>
<!-- choice&#45;&gt;ListStruct2 -->
<g id="edge3" class="edge">
<title>choice:false&#45;&gt;ListStruct2:nil</title>
<path fill="none" stroke="#dddddd" d="M191,-11.5C191,-11.5 244.63,-11.5 267.68,-11.5"/>
<polygon fill="#dddddd" stroke="#dddddd" points="268,-15 278,-11.5 268,-8 268,-15"/>
</g>
<!-- String -->
<g id="node4" class="node">
<title>String</title>
<path fill="#b2ebf2" stroke="#dddddd" d="M42,-41.5C42,-41.5 12,-41.5 12,-41.5 6,-41.5 0,-35.5 0,-29.5 0,-29.5 0,-17.5 0,-17.5 0,-11.5 6,-5.5 12,-5.5 12,-5.5 42,-5.5 42,-5.5 48,-5.5 54,-11.5 54,-17.5 54,-17.5 54,-29.5 54,-29.5 54,-35.5 48,-41.5 42,-41.5"/>
<text text-anchor="middle" x="27" y="-19.8" font-family="Segoe UI,Roboto,Helvetica,Arial,sans-serif" font-size="14.00" fill="#dddddd">String</text>
</g>
<!-- String&#45;&gt;choice -->
<g id="edge1" class="edge">
<title>String&#45;&gt;choice</title>
<path fill="none" stroke="#dddddd" d="M54.03,-23.5C74.63,-23.5 103.64,-23.5 126.55,-23.5"/>
<polygon fill="#dddddd" stroke="#dddddd" points="126.59,-27 136.59,-23.5 126.59,-20 126.59,-27"/>
<text text-anchor="middle" x="95.5" y="-26.7" font-family="Segoe UI,Roboto,Helvetica,Arial,sans-serif" font-size="11.00" fill="#dddddd">predicate</text>
</g>
</g>
</svg>
