<?xml version="1.0" encoding="UTF-8" standalone="no"?>
<!DOCTYPE svg PUBLIC "-//W3C//DTD SVG 1.1//EN"
 "http://www.w3.org/Graphics/SVG/1.1/DTD/svg11.dtd">
<!-- Generated by graphviz version 2.43.0 (0)
 -->
<!-- Title: %3 Pages: 1 -->
<svg width="559pt" height="56pt"
 viewBox="0.00 0.00 559.00 55.50" xmlns="http://www.w3.org/2000/svg" xmlns:xlink="http://www.w3.org/1999/xlink">
<g id="graph0" class="graph" transform="scale(1 1) rotate(0) translate(4 51.5)">
<title>%3</title>
<!-- ListStruct -->
<g id="node1" class="node">
<title>ListStruct</title>
<path fill="#b2ebf2" stroke="#2980b9" d="M385,-0.5C385,-0.5 423,-0.5 423,-0.5 429,-0.5 435,-6.5 435,-12.5 435,-12.5 435,-34.5 435,-34.5 435,-40.5 429,-46.5 423,-46.5 423,-46.5 385,-46.5 385,-46.5 379,-46.5 373,-40.5 373,-34.5 373,-34.5 373,-12.5 373,-12.5 373,-6.5 379,-0.5 385,-0.5"/>
<text text-anchor="middle" x="404" y="-31.3" font-family="Segoe UI,Roboto,Helvetica,Arial,sans-serif" font-size="14.00" fill="#000000">Int, List</text>
<polyline fill="none" stroke="#2980b9" points="373,-23.5 435,-23.5 "/>
<text text-anchor="middle" x="404" y="-8.3" font-family="Segoe UI,Roboto,Helvetica,Arial,sans-serif" font-size="14.00" fill="#000000">∅</text>
</g>
<!-- List -->
<g id="node5" class="node">
<title>List</title>
<path fill="#b2ebf2" stroke="#2980b9" d="M539,-41.5C539,-41.5 509,-41.5 509,-41.5 503,-41.5 497,-35.5 497,-29.5 497,-29.5 497,-17.5 497,-17.5 497,-11.5 503,-5.5 509,-5.5 509,-5.5 539,-5.5 539,-5.5 545,-5.5 551,-11.5 551,-17.5 551,-17.5 551,-29.5 551,-29.5 551,-35.5 545,-41.5 539,-41.5"/>
<text text-anchor="middle" x="524" y="-19.8" font-family="Segoe UI,Roboto,Helvetica,Arial,sans-serif" font-size="14.00" fill="#000000">List</text>
</g>
<!-- ListStruct&#45;&gt;List -->
<g id="edge6" class="edge">
<title>ListStruct:cons&#45;&gt;List</title>
<path fill="none" stroke="#2980b9" stroke-dasharray="5,2" d="M435,-35.5C435,-35.5 462.31,-31.78 486.51,-28.48"/>
<polygon fill="#2980b9" stroke="#2980b9" points="487.16,-31.92 496.6,-27.1 486.22,-24.98 487.16,-31.92"/>
<text text-anchor="middle" x="466" y="-35.7" font-family="Segoe UI,Roboto,Helvetica,Arial,sans-serif" font-size="11.00" fill="#000000">Cons</text>
</g>
<!-- ListStruct&#45;&gt;List -->
<g id="edge7" class="edge">
<title>ListStruct:nil&#45;&gt;List</title>
<path fill="none" stroke="#2980b9" stroke-dasharray="5,2" d="M435,-11.5C435,-11.5 462.31,-15.22 486.51,-18.52"/>
<polygon fill="#2980b9" stroke="#2980b9" points="486.22,-22.02 496.6,-19.9 487.16,-15.08 486.22,-22.02"/>
<text text-anchor="middle" x="466" y="-16.7" font-family="Segoe UI,Roboto,Helvetica,Arial,sans-serif" font-size="11.00" fill="#000000">Nil</text>
</g>
<!-- ListStruct2 -->
<g id="node2" class="node">
<title>ListStruct2</title>
<path fill="#b2ebf2" stroke="#2980b9" d="M273,-0.5C273,-0.5 303,-0.5 303,-0.5 309,-0.5 315,-6.5 315,-12.5 315,-12.5 315,-34.5 315,-34.5 315,-40.5 309,-46.5 303,-46.5 303,-46.5 273,-46.5 273,-46.5 267,-46.5 261,-40.5 261,-34.5 261,-34.5 261,-12.5 261,-12.5 261,-6.5 267,-0.5 273,-0.5"/>
<text text-anchor="middle" x="288" y="-31.3" font-family="Segoe UI,Roboto,Helvetica,Arial,sans-serif" font-size="14.00" fill="#000000">Int, A</text>
<polyline fill="none" stroke="#2980b9" points="261,-23.5 315,-23.5 "/>
<text text-anchor="middle" x="288" y="-8.3" font-family="Segoe UI,Roboto,Helvetica,Arial,sans-serif" font-size="14.00" fill="#000000">∅</text>
</g>
<!-- ListStruct2&#45;&gt;ListStruct -->
<g id="edge4" class="edge">
<title>ListStruct2:cons&#45;&gt;ListStruct:cons</title>
<path fill="none" stroke="#2980b9" d="M315,-35.5C315,-35.5 346.28,-35.5 362.9,-35.5"/>
<polygon fill="#2980b9" stroke="#2980b9" points="363,-39 373,-35.5 363,-32 363,-39"/>
<text text-anchor="middle" x="344" y="-38.7" font-family="Segoe UI,Roboto,Helvetica,Arial,sans-serif" font-size="11.00" fill="#000000">loop</text>
</g>
<!-- ListStruct2&#45;&gt;ListStruct -->
<g id="edge5" class="edge">
<title>ListStruct2:nil&#45;&gt;ListStruct:nil</title>
<path fill="none" stroke="#2980b9" d="M315,-11.5C315,-11.5 346.28,-11.5 362.9,-11.5"/>
<polygon fill="#2980b9" stroke="#2980b9" points="363,-15 373,-11.5 363,-8 363,-15"/>
</g>
<!-- choice -->
<g id="node3" class="node">
<title>choice</title>
<path fill="none" stroke="#2980b9" stroke-dasharray="5,2" d="M149,-0.5C149,-0.5 179,-0.5 179,-0.5 185,-0.5 191,-6.5 191,-12.5 191,-12.5 191,-34.5 191,-34.5 191,-40.5 185,-46.5 179,-46.5 179,-46.5 149,-46.5 149,-46.5 143,-46.5 137,-40.5 137,-34.5 137,-34.5 137,-12.5 137,-12.5 137,-6.5 143,-0.5 149,-0.5"/>
<text text-anchor="middle" x="164" y="-31.3" font-family="Segoe UI,Roboto,Helvetica,Arial,sans-serif" font-size="14.00" fill="#000000">true</text>
<polyline fill="none" stroke="#2980b9" stroke-dasharray="5,2" points="137,-23.5 191,-23.5 "/>
<text text-anchor="middle" x="164" y="-8.3" font-family="Segoe UI,Roboto,Helvetica,Arial,sans-serif" font-size="14.00" fill="#000000">false</text>
</g>
<!-- choice&#45;&gt;ListStruct2 -->
<g id="edge2" class="edge">
<title>choice:true&#45;&gt;ListStruct2:cons</title>
<path fill="none" stroke="#2980b9" d="M191,-35.5C191,-35.5 231.62,-35.5 250.97,-35.5"/>
<polygon fill="#2980b9" stroke="#2980b9" points="251,-39 261,-35.5 251,-32 251,-39"/>
<text text-anchor="middle" x="226" y="-38.7" font-family="Segoe UI,Roboto,Helvetica,Arial,sans-serif" font-size="11.00" fill="#000000">update</text>
</g>
<!-- choice&#45;&gt;ListStruct2 -->
<g id="edge3" class="edge">
<title>choice:false&#45;&gt;ListStruct2:nil</title>
<path fill="none" stroke="#2980b9" d="M191,-11.5C191,-11.5 231.62,-11.5 250.97,-11.5"/>
<polygon fill="#2980b9" stroke="#2980b9" points="251,-15 261,-11.5 251,-8 251,-15"/>
</g>
<!-- A -->
<g id="node4" class="node">
<title>A</title>
<path fill="#b2ebf2" stroke="#2980b9" d="M42,-41.5C42,-41.5 12,-41.5 12,-41.5 6,-41.5 0,-35.5 0,-29.5 0,-29.5 0,-17.5 0,-17.5 0,-11.5 6,-5.5 12,-5.5 12,-5.5 42,-5.5 42,-5.5 48,-5.5 54,-11.5 54,-17.5 54,-17.5 54,-29.5 54,-29.5 54,-35.5 48,-41.5 42,-41.5"/>
<text text-anchor="middle" x="27" y="-19.8" font-family="Segoe UI,Roboto,Helvetica,Arial,sans-serif" font-size="14.00" fill="#000000">A</text>
</g>
<!-- A&#45;&gt;choice -->
<g id="edge1" class="edge">
<title>A&#45;&gt;choice</title>
<path fill="none" stroke="#2980b9" d="M54.03,-23.5C74.63,-23.5 103.64,-23.5 126.55,-23.5"/>
<polygon fill="#2980b9" stroke="#2980b9" points="126.59,-27 136.59,-23.5 126.59,-20 126.59,-27"/>
<text text-anchor="middle" x="95.5" y="-26.7" font-family="Segoe UI,Roboto,Helvetica,Arial,sans-serif" font-size="11.00" fill="#000000">predicate</text>
</g>
</g>
</svg>
