<?xml version="1.0" encoding="UTF-8" standalone="no"?>
<!DOCTYPE svg PUBLIC "-//W3C//DTD SVG 1.1//EN"
 "http://www.w3.org/Graphics/SVG/1.1/DTD/svg11.dtd">
<!-- Generated by graphviz version 2.36.0 (20140111.2315)
 -->
<!-- Title: simple Pages: 1 -->
<svg width="179pt" height="260pt"
 viewBox="0.00 0.00 179.00 260.00" xmlns="http://www.w3.org/2000/svg" xmlns:xlink="http://www.w3.org/1999/xlink">
<g id="graph0" class="graph" transform="scale(1 1) rotate(0) translate(4 256)">
<title>simple</title>
<!-- a6 -->
<g id="node1" class="node"><title>a6</title>
<ellipse fill="none" stroke="white" cx="45" cy="-90" rx="18" ry="18"/>
<text text-anchor="middle" x="45" y="-85.8" font-family="Times,serif" font-size="14.00" fill="white">6</text>
</g>
<!-- b6 -->
<g id="node2" class="node"><title>b6</title>
<ellipse fill="none" stroke="white" cx="18" cy="-18" rx="18" ry="18"/>
<text text-anchor="middle" x="18" y="-13.8" font-family="Times,serif" font-size="14.00" fill="white">6</text>
</g>
<!-- a6&#45;&gt;b6 -->
<g id="edge1" class="edge"><title>a6&#45;&gt;b6</title>
<path fill="none" stroke="white" d="M38.7378,-72.7646C35.5004,-64.3715 31.4747,-53.9344 27.8339,-44.4952"/>
<polygon fill="white" stroke="white" points="31.0925,-43.2178 24.2282,-35.1473 24.5615,-45.7369 31.0925,-43.2178"/>
</g>
<!-- b8 -->
<g id="node3" class="node"><title>b8</title>
<ellipse fill="none" stroke="white" cx="72" cy="-18" rx="18" ry="18"/>
<text text-anchor="middle" x="72" y="-13.8" font-family="Times,serif" font-size="14.00" fill="white">8</text>
</g>
<!-- a6&#45;&gt;b8 -->
<g id="edge2" class="edge"><title>a6&#45;&gt;b8</title>
<path fill="none" stroke="white" d="M51.2622,-72.7646C54.4996,-64.3715 58.5253,-53.9344 62.1661,-44.4952"/>
<polygon fill="white" stroke="white" points="65.4385,-45.7369 65.7718,-35.1473 58.9075,-43.2178 65.4385,-45.7369"/>
</g>
<!-- a8 -->
<g id="node4" class="node"><title>a8</title>
<ellipse fill="none" stroke="white" cx="99" cy="-90" rx="18" ry="18"/>
<text text-anchor="middle" x="99" y="-85.8" font-family="Times,serif" font-size="14.00" fill="white">8</text>
</g>
<!-- 2 -->
<g id="node5" class="node"><title>2</title>
<ellipse fill="none" stroke="white" cx="126" cy="-234" rx="18" ry="18"/>
<text text-anchor="middle" x="126" y="-229.8" font-family="Times,serif" font-size="14.00" fill="white">2</text>
</g>
<!-- 4 -->
<g id="node6" class="node"><title>4</title>
<ellipse fill="none" stroke="white" cx="99" cy="-162" rx="18" ry="18"/>
<text text-anchor="middle" x="99" y="-157.8" font-family="Times,serif" font-size="14.00" fill="white">4</text>
</g>
<!-- 2&#45;&gt;4 -->
<g id="edge3" class="edge"><title>2&#45;&gt;4</title>
<path fill="none" stroke="white" d="M119.738,-216.765C116.5,-208.371 112.475,-197.934 108.834,-188.495"/>
<polygon fill="white" stroke="white" points="112.093,-187.218 105.228,-179.147 105.562,-189.737 112.093,-187.218"/>
</g>
<!-- 3 -->
<g id="node7" class="node"><title>3</title>
<ellipse fill="none" stroke="white" cx="153" cy="-162" rx="18" ry="18"/>
<text text-anchor="middle" x="153" y="-157.8" font-family="Times,serif" font-size="14.00" fill="white">3</text>
</g>
<!-- 2&#45;&gt;3 -->
<g id="edge4" class="edge"><title>2&#45;&gt;3</title>
<path fill="none" stroke="white" d="M132.262,-216.765C135.5,-208.371 139.525,-197.934 143.166,-188.495"/>
<polygon fill="white" stroke="white" points="146.438,-189.737 146.772,-179.147 139.907,-187.218 146.438,-189.737"/>
</g>
<!-- 4&#45;&gt;a6 -->
<g id="edge5" class="edge"><title>4&#45;&gt;a6</title>
<path fill="none" stroke="white" d="M88.3313,-147.17C80.7874,-137.391 70.5188,-124.08 61.8713,-112.87"/>
<polygon fill="white" stroke="white" points="64.5258,-110.581 55.6465,-104.801 58.9833,-114.857 64.5258,-110.581"/>
</g>
<!-- 4&#45;&gt;a8 -->
<g id="edge6" class="edge"><title>4&#45;&gt;a8</title>
<path fill="none" stroke="white" d="M99,-143.697C99,-135.983 99,-126.712 99,-118.112"/>
<polygon fill="white" stroke="white" points="102.5,-118.104 99,-108.104 95.5001,-118.104 102.5,-118.104"/>
</g>
<!-- 5 -->
<g id="node8" class="node"><title>5</title>
<ellipse fill="none" stroke="white" cx="153" cy="-90" rx="18" ry="18"/>
<text text-anchor="middle" x="153" y="-85.8" font-family="Times,serif" font-size="14.00" fill="white">5</text>
</g>
<!-- 3&#45;&gt;5 -->
<g id="edge7" class="edge"><title>3&#45;&gt;5</title>
<path fill="none" stroke="white" d="M153,-143.697C153,-135.983 153,-126.712 153,-118.112"/>
<polygon fill="white" stroke="white" points="156.5,-118.104 153,-108.104 149.5,-118.104 156.5,-118.104"/>
</g>
<!-- 9 -->
<g id="node9" class="node"><title>9</title>
<ellipse fill="none" stroke="white" cx="153" cy="-18" rx="18" ry="18"/>
<text text-anchor="middle" x="153" y="-13.8" font-family="Times,serif" font-size="14.00" fill="white">9</text>
</g>
<!-- 5&#45;&gt;9 -->
<g id="edge8" class="edge"><title>5&#45;&gt;9</title>
<path fill="none" stroke="white" d="M153,-71.6966C153,-63.9827 153,-54.7125 153,-46.1124"/>
<polygon fill="white" stroke="white" points="156.5,-46.1043 153,-36.1043 149.5,-46.1044 156.5,-46.1043"/>
</g>
</g>
</svg>
