<?xml version="1.0" encoding="UTF-8" standalone="no"?>
<!DOCTYPE svg PUBLIC "-//W3C//DTD SVG 1.1//EN"
 "http://www.w3.org/Graphics/SVG/1.1/DTD/svg11.dtd">
<!-- Generated by graphviz version 2.36.0 (20140111.2315)
 -->
<!-- Title: simple Pages: 1 -->
<svg width="213pt" height="188pt"
 viewBox="0.00 0.00 213.00 188.00" xmlns="http://www.w3.org/2000/svg" xmlns:xlink="http://www.w3.org/1999/xlink">
<g id="graph0" class="graph" transform="scale(1 1) rotate(0) translate(4 184)">
<title>simple</title>
<!-- n4 -->
<g id="node1" class="node"><title>n4</title>
<ellipse fill="none" stroke="#8cdcce" cx="65" cy="-162" rx="18" ry="18"/>
<text text-anchor="middle" x="65" y="-157.8" font-family="Times,serif" font-size="14.00" fill="#8cdcce">4</text>
</g>
<!-- n6_1 -->
<g id="node2" class="node"><title>n6_1</title>
<ellipse fill="none" stroke="white" cx="18" cy="-90" rx="18" ry="18"/>
<text text-anchor="middle" x="18" y="-85.8" font-family="Times,serif" font-size="14.00" fill="white">6</text>
</g>
<!-- n4&#45;&gt;n6_1 -->
<g id="edge1" class="edge"><title>n4&#45;&gt;n6_1</title>
<path fill="none" stroke="white" d="M55.2616,-146.496C48.9597,-137.11 40.6193,-124.688 33.4272,-113.977"/>
<polygon fill="white" stroke="white" points="36.2061,-111.837 27.726,-105.485 30.3946,-115.739 36.2061,-111.837"/>
</g>
<!-- n8_1 -->
<g id="node3" class="node"><title>n8_1</title>
<ellipse fill="none" stroke="white" cx="72" cy="-90" rx="18" ry="18"/>
<text text-anchor="middle" x="72" y="-85.8" font-family="Times,serif" font-size="14.00" fill="white">8</text>
</g>
<!-- n4&#45;&gt;n8_1 -->
<g id="edge2" class="edge"><title>n4&#45;&gt;n8_1</title>
<path fill="none" stroke="white" d="M66.6945,-144.055C67.4654,-136.346 68.3973,-127.027 69.2636,-118.364"/>
<polygon fill="white" stroke="white" points="72.76,-118.574 70.2725,-108.275 65.7947,-117.877 72.76,-118.574"/>
</g>
<!-- n8_2 -->
<g id="node4" class="node"><title>n8_2</title>
<ellipse fill="none" stroke="white" cx="18" cy="-18" rx="18" ry="18"/>
<text text-anchor="middle" x="18" y="-13.8" font-family="Times,serif" font-size="14.00" fill="white">8</text>
</g>
<!-- n6_1&#45;&gt;n8_2 -->
<g id="edge3" class="edge"><title>n6_1&#45;&gt;n8_2</title>
<path fill="none" stroke="white" d="M18,-71.6966C18,-63.9827 18,-54.7125 18,-46.1124"/>
<polygon fill="white" stroke="white" points="21.5001,-46.1043 18,-36.1043 14.5001,-46.1044 21.5001,-46.1043"/>
</g>
<!-- n6_2 -->
<g id="node5" class="node"><title>n6_2</title>
<ellipse fill="none" stroke="white" cx="72" cy="-18" rx="18" ry="18"/>
<text text-anchor="middle" x="72" y="-13.8" font-family="Times,serif" font-size="14.00" fill="white">6</text>
</g>
<!-- n6_1&#45;&gt;n6_2 -->
<g id="edge4" class="edge"><title>n6_1&#45;&gt;n6_2</title>
<path fill="none" stroke="white" d="M28.6687,-75.1703C36.2126,-65.391 46.4812,-52.0799 55.1287,-40.8702"/>
<polygon fill="white" stroke="white" points="58.0167,-42.8567 61.3535,-32.801 52.4742,-38.581 58.0167,-42.8567"/>
</g>
<!-- n3 -->
<g id="node6" class="node"><title>n3</title>
<ellipse fill="none" stroke="#8cdcce" cx="146" cy="-162" rx="18" ry="18"/>
<text text-anchor="middle" x="146" y="-157.8" font-family="Times,serif" font-size="14.00" fill="#8cdcce">3</text>
</g>
<!-- n5 -->
<g id="node7" class="node"><title>n5</title>
<ellipse fill="none" stroke="white" cx="133" cy="-90" rx="18" ry="18"/>
<text text-anchor="middle" x="133" y="-85.8" font-family="Times,serif" font-size="14.00" fill="white">5</text>
</g>
<!-- n3&#45;&gt;n5 -->
<g id="edge5" class="edge"><title>n3&#45;&gt;n5</title>
<path fill="none" stroke="white" d="M142.853,-144.055C141.384,-136.145 139.6,-126.54 137.956,-117.688"/>
<polygon fill="white" stroke="white" points="141.385,-116.982 136.118,-107.789 134.503,-118.26 141.385,-116.982"/>
</g>
<!-- n6_3 -->
<g id="node8" class="node"><title>n6_3</title>
<ellipse fill="none" stroke="white" cx="187" cy="-90" rx="18" ry="18"/>
<text text-anchor="middle" x="187" y="-85.8" font-family="Times,serif" font-size="14.00" fill="white">6</text>
</g>
<!-- n3&#45;&gt;n6_3 -->
<g id="edge6" class="edge"><title>n3&#45;&gt;n6_3</title>
<path fill="none" stroke="white" d="M154.695,-146.155C160.076,-136.967 167.104,-124.968 173.23,-114.509"/>
<polygon fill="white" stroke="white" points="176.284,-116.222 178.317,-105.824 170.243,-112.684 176.284,-116.222"/>
</g>
<!-- n9 -->
<g id="node9" class="node"><title>n9</title>
<ellipse fill="none" stroke="white" cx="133" cy="-18" rx="18" ry="18"/>
<text text-anchor="middle" x="133" y="-13.8" font-family="Times,serif" font-size="14.00" fill="white">9</text>
</g>
<!-- n5&#45;&gt;n9 -->
<g id="edge7" class="edge"><title>n5&#45;&gt;n9</title>
<path fill="none" stroke="white" d="M133,-71.6966C133,-63.9827 133,-54.7125 133,-46.1124"/>
<polygon fill="white" stroke="white" points="136.5,-46.1043 133,-36.1043 129.5,-46.1044 136.5,-46.1043"/>
</g>
</g>
</svg>
