<?xml version="1.0" encoding="UTF-8" standalone="no"?>
<!DOCTYPE svg PUBLIC "-//W3C//DTD SVG 1.1//EN"
 "http://www.w3.org/Graphics/SVG/1.1/DTD/svg11.dtd">
<!-- Generated by graphviz version 2.36.0 (20140111.2315)
 -->
<!-- Title: simple Pages: 1 -->
<svg width="206pt" height="260pt"
 viewBox="0.00 0.00 206.00 260.00" xmlns="http://www.w3.org/2000/svg" xmlns:xlink="http://www.w3.org/1999/xlink">
<g id="graph0" class="graph" transform="scale(1 1) rotate(0) translate(4 256)">
<title>simple</title>
<!-- n4 -->
<g id="node1" class="node"><title>n4</title>
<ellipse fill="none" stroke="white" cx="126" cy="-162" rx="18" ry="18"/>
<text text-anchor="middle" x="126" y="-157.8" font-family="Times,serif" font-size="14.00" fill="white">4</text>
</g>
<!-- n6_1 -->
<g id="node2" class="node"><title>n6_1</title>
<ellipse fill="none" stroke="white" cx="72" cy="-90" rx="18" ry="18"/>
<text text-anchor="middle" x="72" y="-85.8" font-family="Times,serif" font-size="14.00" fill="white">6</text>
</g>
<!-- n4&#45;&gt;n6_1 -->
<g id="edge1" class="edge"><title>n4&#45;&gt;n6_1</title>
<path fill="none" stroke="white" d="M115.331,-147.17C107.787,-137.391 97.5188,-124.08 88.8713,-112.87"/>
<polygon fill="white" stroke="white" points="91.5258,-110.581 82.6465,-104.801 85.9833,-114.857 91.5258,-110.581"/>
</g>
<!-- n6_3 -->
<g id="node3" class="node"><title>n6_3</title>
<ellipse fill="none" stroke="white" cx="126" cy="-90" rx="18" ry="18"/>
<text text-anchor="middle" x="126" y="-85.8" font-family="Times,serif" font-size="14.00" fill="white">6</text>
</g>
<!-- n4&#45;&gt;n6_3 -->
<g id="edge2" class="edge"><title>n4&#45;&gt;n6_3</title>
<path fill="none" stroke="white" d="M126,-143.697C126,-135.983 126,-126.712 126,-118.112"/>
<polygon fill="white" stroke="white" points="129.5,-118.104 126,-108.104 122.5,-118.104 129.5,-118.104"/>
</g>
<!-- n8_2 -->
<g id="node4" class="node"><title>n8_2</title>
<ellipse fill="none" stroke="white" cx="18" cy="-18" rx="18" ry="18"/>
<text text-anchor="middle" x="18" y="-13.8" font-family="Times,serif" font-size="14.00" fill="white">8</text>
</g>
<!-- n6_1&#45;&gt;n8_2 -->
<g id="edge3" class="edge"><title>n6_1&#45;&gt;n8_2</title>
<path fill="none" stroke="white" d="M61.3313,-75.1703C53.7874,-65.391 43.5188,-52.0799 34.8713,-40.8702"/>
<polygon fill="white" stroke="white" points="37.5258,-38.581 28.6465,-32.801 31.9833,-42.8567 37.5258,-38.581"/>
</g>
<!-- n6_2 -->
<g id="node5" class="node"><title>n6_2</title>
<ellipse fill="none" stroke="white" cx="72" cy="-18" rx="18" ry="18"/>
<text text-anchor="middle" x="72" y="-13.8" font-family="Times,serif" font-size="14.00" fill="white">6</text>
</g>
<!-- n6_1&#45;&gt;n6_2 -->
<g id="edge4" class="edge"><title>n6_1&#45;&gt;n6_2</title>
<path fill="none" stroke="white" d="M72,-71.6966C72,-63.9827 72,-54.7125 72,-46.1124"/>
<polygon fill="white" stroke="white" points="75.5001,-46.1043 72,-36.1043 68.5001,-46.1044 75.5001,-46.1043"/>
</g>
<!-- n8_1 -->
<g id="node6" class="node"><title>n8_1</title>
<ellipse fill="none" stroke="white" cx="126" cy="-18" rx="18" ry="18"/>
<text text-anchor="middle" x="126" y="-13.8" font-family="Times,serif" font-size="14.00" fill="white">8</text>
</g>
<!-- n6_3&#45;&gt;n8_1 -->
<g id="edge8" class="edge"><title>n6_3&#45;&gt;n8_1</title>
<path fill="none" stroke="white" d="M126,-71.6966C126,-63.9827 126,-54.7125 126,-46.1124"/>
<polygon fill="white" stroke="white" points="129.5,-46.1043 126,-36.1043 122.5,-46.1044 129.5,-46.1043"/>
</g>
<!-- n3 -->
<g id="node7" class="node"><title>n3</title>
<ellipse fill="none" stroke="white" cx="153" cy="-234" rx="18" ry="18"/>
<text text-anchor="middle" x="153" y="-229.8" font-family="Times,serif" font-size="14.00" fill="white">3</text>
</g>
<!-- n3&#45;&gt;n4 -->
<g id="edge5" class="edge"><title>n3&#45;&gt;n4</title>
<path fill="none" stroke="white" d="M146.738,-216.765C143.5,-208.371 139.475,-197.934 135.834,-188.495"/>
<polygon fill="white" stroke="white" points="139.093,-187.218 132.228,-179.147 132.562,-189.737 139.093,-187.218"/>
</g>
<!-- n5 -->
<g id="node8" class="node"><title>n5</title>
<ellipse fill="none" stroke="white" cx="180" cy="-162" rx="18" ry="18"/>
<text text-anchor="middle" x="180" y="-157.8" font-family="Times,serif" font-size="14.00" fill="white">5</text>
</g>
<!-- n3&#45;&gt;n5 -->
<g id="edge6" class="edge"><title>n3&#45;&gt;n5</title>
<path fill="none" stroke="white" d="M159.262,-216.765C162.5,-208.371 166.525,-197.934 170.166,-188.495"/>
<polygon fill="white" stroke="white" points="173.438,-189.737 173.772,-179.147 166.907,-187.218 173.438,-189.737"/>
</g>
<!-- n9 -->
<g id="node9" class="node"><title>n9</title>
<ellipse fill="none" stroke="white" cx="180" cy="-90" rx="18" ry="18"/>
<text text-anchor="middle" x="180" y="-85.8" font-family="Times,serif" font-size="14.00" fill="white">9</text>
</g>
<!-- n5&#45;&gt;n9 -->
<g id="edge7" class="edge"><title>n5&#45;&gt;n9</title>
<path fill="none" stroke="white" d="M180,-143.697C180,-135.983 180,-126.712 180,-118.112"/>
<polygon fill="white" stroke="white" points="183.5,-118.104 180,-108.104 176.5,-118.104 183.5,-118.104"/>
</g>
</g>
</svg>
