<?xml version="1.0" encoding="UTF-8" standalone="no"?>
<!DOCTYPE svg PUBLIC "-//W3C//DTD SVG 1.1//EN"
 "http://www.w3.org/Graphics/SVG/1.1/DTD/svg11.dtd">
<!-- Generated by graphviz version 2.36.0 (20140111.2315)
 -->
<!-- Title: simple Pages: 1 -->
<svg width="190pt" height="292pt"
 viewBox="0.00 0.00 190.00 292.00" xmlns="http://www.w3.org/2000/svg" xmlns:xlink="http://www.w3.org/1999/xlink">
<g id="graph0" class="graph" transform="scale(1 1) rotate(0) translate(4 288)">
<title>simple</title>
<g id="clust1" class="cluster"><title>cluster_1</title>
<path fill="none" stroke="none" d="M20,-80C20,-80 48,-80 48,-80 54,-80 60,-86 60,-92 60,-92 60,-264 60,-264 60,-270 54,-276 48,-276 48,-276 20,-276 20,-276 14,-276 8,-270 8,-264 8,-264 8,-92 8,-92 8,-86 14,-80 20,-80"/>
</g>
<g id="clust2" class="cluster"><title>cluster_2</title>
<path fill="none" stroke="white" d="M80,-8C80,-8 162,-8 162,-8 168,-8 174,-14 174,-20 174,-20 174,-192 174,-192 174,-198 168,-204 162,-204 162,-204 80,-204 80,-204 74,-204 68,-198 68,-192 68,-192 68,-20 68,-20 68,-14 74,-8 80,-8"/>
</g>
<!-- n3 -->
<g id="node1" class="node"><title>n3</title>
<ellipse fill="none" stroke="white" cx="34" cy="-250" rx="18" ry="18"/>
<text text-anchor="middle" x="34" y="-245.8" font-family="Times,serif" font-size="14.00" fill="white">3</text>
</g>
<!-- n5 -->
<g id="node2" class="node"><title>n5</title>
<ellipse fill="none" stroke="white" cx="34" cy="-178" rx="18" ry="18"/>
<text text-anchor="middle" x="34" y="-173.8" font-family="Times,serif" font-size="14.00" fill="white">5</text>
</g>
<!-- n3&#45;&gt;n5 -->
<g id="edge1" class="edge"><title>n3&#45;&gt;n5</title>
<path fill="none" stroke="white" d="M34,-231.697C34,-223.983 34,-214.712 34,-206.112"/>
<polygon fill="white" stroke="white" points="37.5001,-206.104 34,-196.104 30.5001,-206.104 37.5001,-206.104"/>
</g>
<!-- n4 -->
<g id="node5" class="node"><title>n4</title>
<ellipse fill="none" stroke="#8cdcce" cx="94" cy="-178" rx="18" ry="18"/>
<text text-anchor="middle" x="94" y="-173.8" font-family="Times,serif" font-size="14.00" fill="#8cdcce">4</text>
</g>
<!-- n3&#45;&gt;n4 -->
<g id="edge7" class="edge"><title>n3&#45;&gt;n4</title>
<path fill="none" stroke="white" d="M45.2855,-235.834C51.2287,-228.9 58.8033,-220.063 66.1987,-211.435"/>
<polygon fill="white" stroke="white" points="69.0376,-213.501 72.8882,-203.63 63.7228,-208.945 69.0376,-213.501"/>
</g>
<!-- n9 -->
<g id="node3" class="node"><title>n9</title>
<ellipse fill="none" stroke="white" cx="34" cy="-106" rx="18" ry="18"/>
<text text-anchor="middle" x="34" y="-101.8" font-family="Times,serif" font-size="14.00" fill="white">9</text>
</g>
<!-- n5&#45;&gt;n9 -->
<g id="edge2" class="edge"><title>n5&#45;&gt;n9</title>
<path fill="none" stroke="white" d="M34,-159.697C34,-151.983 34,-142.712 34,-134.112"/>
<polygon fill="white" stroke="white" points="37.5001,-134.104 34,-124.104 30.5001,-134.104 37.5001,-134.104"/>
</g>
<!-- n6_3 -->
<g id="node4" class="node"><title>n6_3</title>
<ellipse fill="none" stroke="#8cdcce" cx="148" cy="-178" rx="18" ry="18"/>
<text text-anchor="middle" x="148" y="-173.8" font-family="Times,serif" font-size="14.00" fill="#8cdcce">6</text>
</g>
<!-- n6_1 -->
<g id="node6" class="node"><title>n6_1</title>
<ellipse fill="none" stroke="white" cx="94" cy="-106" rx="18" ry="18"/>
<text text-anchor="middle" x="94" y="-101.8" font-family="Times,serif" font-size="14.00" fill="white">6</text>
</g>
<!-- n4&#45;&gt;n6_1 -->
<g id="edge3" class="edge"><title>n4&#45;&gt;n6_1</title>
<path fill="none" stroke="white" d="M94,-159.697C94,-151.983 94,-142.712 94,-134.112"/>
<polygon fill="white" stroke="white" points="97.5001,-134.104 94,-124.104 90.5001,-134.104 97.5001,-134.104"/>
</g>
<!-- n8_1 -->
<g id="node7" class="node"><title>n8_1</title>
<ellipse fill="none" stroke="white" cx="148" cy="-106" rx="18" ry="18"/>
<text text-anchor="middle" x="148" y="-101.8" font-family="Times,serif" font-size="14.00" fill="white">8</text>
</g>
<!-- n4&#45;&gt;n8_1 -->
<g id="edge4" class="edge"><title>n4&#45;&gt;n8_1</title>
<path fill="none" stroke="white" d="M104.669,-163.17C112.213,-153.391 122.481,-140.08 131.129,-128.87"/>
<polygon fill="white" stroke="white" points="134.017,-130.857 137.354,-120.801 128.474,-126.581 134.017,-130.857"/>
</g>
<!-- n8_2 -->
<g id="node8" class="node"><title>n8_2</title>
<ellipse fill="none" stroke="white" cx="94" cy="-34" rx="18" ry="18"/>
<text text-anchor="middle" x="94" y="-29.8" font-family="Times,serif" font-size="14.00" fill="white">8</text>
</g>
<!-- n6_1&#45;&gt;n8_2 -->
<g id="edge5" class="edge"><title>n6_1&#45;&gt;n8_2</title>
<path fill="none" stroke="white" d="M94,-87.6966C94,-79.9827 94,-70.7125 94,-62.1124"/>
<polygon fill="white" stroke="white" points="97.5001,-62.1043 94,-52.1043 90.5001,-62.1044 97.5001,-62.1043"/>
</g>
<!-- n6_2 -->
<g id="node9" class="node"><title>n6_2</title>
<ellipse fill="none" stroke="white" cx="148" cy="-34" rx="18" ry="18"/>
<text text-anchor="middle" x="148" y="-29.8" font-family="Times,serif" font-size="14.00" fill="white">6</text>
</g>
<!-- n6_1&#45;&gt;n6_2 -->
<g id="edge6" class="edge"><title>n6_1&#45;&gt;n6_2</title>
<path fill="none" stroke="white" d="M104.669,-91.1703C112.213,-81.391 122.481,-68.0799 131.129,-56.8702"/>
<polygon fill="white" stroke="white" points="134.017,-58.8567 137.354,-48.801 128.474,-54.581 134.017,-58.8567"/>
</g>
</g>
</svg>
