<?xml version="1.0" encoding="UTF-8" standalone="no"?>
<!DOCTYPE svg PUBLIC "-//W3C//DTD SVG 1.1//EN"
 "http://www.w3.org/Graphics/SVG/1.1/DTD/svg11.dtd">
<!-- Generated by graphviz version 2.36.0 (20140111.2315)
 -->
<!-- Title: simple Pages: 1 -->
<svg width="244pt" height="292pt"
 viewBox="0.00 0.00 244.00 292.00" xmlns="http://www.w3.org/2000/svg" xmlns:xlink="http://www.w3.org/1999/xlink">
<g id="graph0" class="graph" transform="scale(1 1) rotate(0) translate(4 288)">
<title>simple</title>
<g id="clust1" class="cluster"><title>cluster_1</title>
<path fill="none" stroke="none" d="M20,-80C20,-80 48,-80 48,-80 54,-80 60,-86 60,-92 60,-92 60,-264 60,-264 60,-270 54,-276 48,-276 48,-276 20,-276 20,-276 14,-276 8,-270 8,-264 8,-264 8,-92 8,-92 8,-86 14,-80 20,-80"/>
</g>
<g id="clust2" class="cluster"><title>cluster_2</title>
<path fill="none" stroke="white" d="M80,-8C80,-8 216,-8 216,-8 222,-8 228,-14 228,-20 228,-20 228,-192 228,-192 228,-198 222,-204 216,-204 216,-204 80,-204 80,-204 74,-204 68,-198 68,-192 68,-192 68,-20 68,-20 68,-14 74,-8 80,-8"/>
</g>
<!-- n3 -->
<g id="node1" class="node"><title>n3</title>
<ellipse fill="none" stroke="white" cx="34" cy="-250" rx="18" ry="18"/>
<text text-anchor="middle" x="34" y="-245.8" font-family="Times,serif" font-size="14.00" fill="white">3</text>
</g>
<!-- n5 -->
<g id="node2" class="node"><title>n5</title>
<ellipse fill="none" stroke="white" cx="34" cy="-178" rx="18" ry="18"/>
<text text-anchor="middle" x="34" y="-173.8" font-family="Times,serif" font-size="14.00" fill="white">5</text>
</g>
<!-- n3&#45;&gt;n5 -->
<g id="edge1" class="edge"><title>n3&#45;&gt;n5</title>
<path fill="none" stroke="white" d="M34,-231.697C34,-223.983 34,-214.712 34,-206.112"/>
<polygon fill="white" stroke="white" points="37.5001,-206.104 34,-196.104 30.5001,-206.104 37.5001,-206.104"/>
</g>
<!-- n4 -->
<g id="node4" class="node"><title>n4</title>
<ellipse fill="none" stroke="white" cx="107" cy="-178" rx="18" ry="18"/>
<text text-anchor="middle" x="107" y="-173.8" font-family="Times,serif" font-size="14.00" fill="white">4</text>
</g>
<!-- n3&#45;&gt;n4 -->
<g id="edge8" class="edge"><title>n3&#45;&gt;n4</title>
<path fill="none" stroke="white" d="M46.7156,-236.807C54.3142,-229.521 64.3485,-219.899 74.0459,-210.6"/>
<polygon fill="white" stroke="white" points="76.5545,-213.043 81.3499,-203.596 71.7096,-207.991 76.5545,-213.043"/>
</g>
<!-- n9 -->
<g id="node3" class="node"><title>n9</title>
<ellipse fill="none" stroke="white" cx="34" cy="-106" rx="18" ry="18"/>
<text text-anchor="middle" x="34" y="-101.8" font-family="Times,serif" font-size="14.00" fill="white">9</text>
</g>
<!-- n5&#45;&gt;n9 -->
<g id="edge2" class="edge"><title>n5&#45;&gt;n9</title>
<path fill="none" stroke="white" d="M34,-159.697C34,-151.983 34,-142.712 34,-134.112"/>
<polygon fill="white" stroke="white" points="37.5001,-134.104 34,-124.104 30.5001,-134.104 37.5001,-134.104"/>
</g>
<!-- n6_1 -->
<g id="node5" class="node"><title>n6_1</title>
<ellipse fill="none" stroke="white" cx="107" cy="-106" rx="18" ry="18"/>
<text text-anchor="middle" x="107" y="-101.8" font-family="Times,serif" font-size="14.00" fill="white">6</text>
</g>
<!-- n4&#45;&gt;n6_1 -->
<g id="edge3" class="edge"><title>n4&#45;&gt;n6_1</title>
<path fill="none" stroke="white" d="M107,-159.697C107,-151.983 107,-142.712 107,-134.112"/>
<polygon fill="white" stroke="white" points="110.5,-134.104 107,-124.104 103.5,-134.104 110.5,-134.104"/>
</g>
<!-- n6_3 -->
<g id="node6" class="node"><title>n6_3</title>
<ellipse fill="none" stroke="white" cx="188" cy="-106" rx="18" ry="18"/>
<text text-anchor="middle" x="188" y="-101.8" font-family="Times,serif" font-size="14.00" fill="white">6</text>
</g>
<!-- n4&#45;&gt;n6_3 -->
<g id="edge4" class="edge"><title>n4&#45;&gt;n6_3</title>
<path fill="none" stroke="white" d="M120.376,-165.441C133.114,-154.432 152.479,-137.697 167.227,-124.952"/>
<polygon fill="white" stroke="white" points="169.596,-127.531 174.873,-118.344 165.019,-122.234 169.596,-127.531"/>
</g>
<!-- n8_2 -->
<g id="node7" class="node"><title>n8_2</title>
<ellipse fill="none" stroke="white" cx="94" cy="-34" rx="18" ry="18"/>
<text text-anchor="middle" x="94" y="-29.8" font-family="Times,serif" font-size="14.00" fill="white">8</text>
</g>
<!-- n6_1&#45;&gt;n8_2 -->
<g id="edge5" class="edge"><title>n6_1&#45;&gt;n8_2</title>
<path fill="none" stroke="white" d="M103.853,-88.055C102.384,-80.1446 100.6,-70.5398 98.9563,-61.6879"/>
<polygon fill="white" stroke="white" points="102.385,-60.9818 97.118,-51.789 95.5028,-62.26 102.385,-60.9818"/>
</g>
<!-- n6_2 -->
<g id="node8" class="node"><title>n6_2</title>
<ellipse fill="none" stroke="white" cx="148" cy="-34" rx="18" ry="18"/>
<text text-anchor="middle" x="148" y="-29.8" font-family="Times,serif" font-size="14.00" fill="white">6</text>
</g>
<!-- n6_1&#45;&gt;n6_2 -->
<g id="edge6" class="edge"><title>n6_1&#45;&gt;n6_2</title>
<path fill="none" stroke="white" d="M115.695,-90.1548C121.076,-80.967 128.104,-68.9682 134.23,-58.5092"/>
<polygon fill="white" stroke="white" points="137.284,-60.2216 139.317,-49.8238 131.243,-56.6837 137.284,-60.2216"/>
</g>
<!-- n8_1 -->
<g id="node9" class="node"><title>n8_1</title>
<ellipse fill="none" stroke="white" cx="202" cy="-34" rx="18" ry="18"/>
<text text-anchor="middle" x="202" y="-29.8" font-family="Times,serif" font-size="14.00" fill="white">8</text>
</g>
<!-- n6_3&#45;&gt;n8_1 -->
<g id="edge7" class="edge"><title>n6_3&#45;&gt;n8_1</title>
<path fill="none" stroke="white" d="M191.389,-88.055C192.971,-80.1446 194.892,-70.5398 196.662,-61.6879"/>
<polygon fill="white" stroke="white" points="200.113,-62.2812 198.642,-51.789 193.249,-60.9084 200.113,-62.2812"/>
</g>
</g>
</svg>
