<?xml version="1.0" encoding="UTF-8" standalone="no"?>
<!DOCTYPE svg PUBLIC "-//W3C//DTD SVG 1.1//EN"
 "http://www.w3.org/Graphics/SVG/1.1/DTD/svg11.dtd">
<!-- Generated by graphviz version 2.36.0 (20140111.2315)
 -->
<!-- Title: simple Pages: 1 -->
<svg width="207pt" height="190pt"
 viewBox="0.00 0.00 207.00 190.00" xmlns="http://www.w3.org/2000/svg" xmlns:xlink="http://www.w3.org/1999/xlink">
<g id="graph0" class="graph" transform="scale(1 1) rotate(0) translate(4 186)">
<title>simple</title>
<!-- 1 -->
<g id="node1" class="node"><title>1</title>
<ellipse fill="none" stroke="white" cx="99" cy="-164" rx="18" ry="18"/>
<text text-anchor="middle" x="99" y="-159.8" font-family="Times,serif" font-size="14.00" fill="white">1</text>
</g>
<!-- 3 -->
<g id="node2" class="node"><title>3</title>
<ellipse fill="none" stroke="white" cx="72" cy="-92" rx="18" ry="18"/>
<text text-anchor="middle" x="72" y="-87.8" font-family="Times,serif" font-size="14.00" fill="white">3</text>
</g>
<!-- 1&#45;&gt;3 -->
<g id="edge1" class="edge"><title>1&#45;&gt;3</title>
<path fill="none" stroke="white" d="M92.7378,-146.765C89.5004,-138.371 85.4747,-127.934 81.8339,-118.495"/>
<polygon fill="white" stroke="white" points="85.0925,-117.218 78.2282,-109.147 78.5615,-119.737 85.0925,-117.218"/>
</g>
<!-- 6 -->
<g id="node3" class="node"><title>6</title>
<ellipse fill="none" stroke="white" cx="126" cy="-92" rx="18" ry="18"/>
<text text-anchor="middle" x="126" y="-87.8" font-family="Times,serif" font-size="14.00" fill="white">6</text>
</g>
<!-- 1&#45;&gt;6 -->
<g id="edge2" class="edge"><title>1&#45;&gt;6</title>
<path fill="none" stroke="white" d="M105.262,-146.765C108.5,-138.371 112.525,-127.934 116.166,-118.495"/>
<polygon fill="white" stroke="white" points="119.438,-119.737 119.772,-109.147 112.907,-117.218 119.438,-119.737"/>
</g>
<!-- 5 -->
<g id="node4" class="node"><title>5</title>
<ellipse fill="none" stroke="white" cx="18" cy="-19" rx="18" ry="18"/>
<text text-anchor="middle" x="18" y="-14.8" font-family="Times,serif" font-size="14.00" fill="white">5</text>
</g>
<!-- 3&#45;&gt;5 -->
<g id="edge3" class="edge"><title>3&#45;&gt;5</title>
<path fill="none" stroke="white" d="M61.5883,-77.3105C54.0661,-67.4202 43.7393,-53.8425 35.0254,-42.3853"/>
<polygon fill="white" stroke="white" points="37.5889,-39.9741 28.7494,-34.1335 32.0173,-44.2117 37.5889,-39.9741"/>
</g>
<!-- 9 -->
<g id="node5" class="node"><title>9</title>
<ellipse fill="none" stroke="white" cx="72" cy="-19" rx="18" ry="18"/>
<text text-anchor="middle" x="72" y="-14.8" font-family="Times,serif" font-size="14.00" fill="white">9</text>
</g>
<!-- 3&#45;&gt;9 -->
<g id="edge4" class="edge"><title>3&#45;&gt;9</title>
<path fill="none" stroke="white" d="M72,-73.8129C72,-65.7895 72,-56.0475 72,-47.0691"/>
<polygon fill="white" stroke="white" points="75.5001,-47.0288 72,-37.0288 68.5001,-47.0289 75.5001,-47.0288"/>
</g>
<!-- 8 -->
<g id="node6" class="node"><title>8</title>
<ellipse fill="none" stroke="white" cx="126" cy="-19" rx="18" ry="18"/>
<text text-anchor="middle" x="126" y="-14.8" font-family="Times,serif" font-size="14.00" fill="white">8</text>
</g>
<!-- 6&#45;&gt;8 -->
<g id="edge5" class="edge"><title>6&#45;&gt;8</title>
<path fill="none" stroke="white" d="M126,-73.8129C126,-65.7895 126,-56.0475 126,-47.0691"/>
<polygon fill="white" stroke="white" points="129.5,-47.0288 126,-37.0288 122.5,-47.0289 129.5,-47.0288"/>
</g>
<!-- 12 -->
<g id="node7" class="node"><title>12</title>
<ellipse fill="none" stroke="white" cx="181" cy="-19" rx="18.4268" ry="18.9007"/>
<text text-anchor="middle" x="181" y="-14.8" font-family="Times,serif" font-size="14.00" fill="white">12</text>
</g>
<!-- 6&#45;&gt;12 -->
<g id="edge6" class="edge"><title>6&#45;&gt;12</title>
<path fill="none" stroke="white" d="M136.605,-77.3105C144.167,-67.5487 154.511,-54.1945 163.313,-42.8327"/>
<polygon fill="white" stroke="white" points="166.314,-44.6741 169.671,-34.6252 160.78,-40.3873 166.314,-44.6741"/>
</g>
</g>
</svg>
