<?xml version="1.0" encoding="UTF-8" standalone="no"?>
<!DOCTYPE svg PUBLIC "-//W3C//DTD SVG 1.1//EN"
 "http://www.w3.org/Graphics/SVG/1.1/DTD/svg11.dtd">
<!-- Generated by graphviz version 2.36.0 (20140111.2315)
 -->
<!-- Title: simple Pages: 1 -->
<svg width="368pt" height="332pt"
 viewBox="0.00 0.00 368.00 332.00" xmlns="http://www.w3.org/2000/svg" xmlns:xlink="http://www.w3.org/1999/xlink">
<g id="graph0" class="graph" transform="scale(1 1) rotate(0) translate(4 328)">
<title>simple</title>
<!-- n0_1 -->
<g id="node1" class="node"><title>n0_1</title>
<ellipse fill="none" stroke="white" cx="247" cy="-306" rx="18" ry="18"/>
<text text-anchor="middle" x="247" y="-301.8" font-family="Times,serif" font-size="14.00" fill="white">9</text>
</g>
<!-- n1_1 -->
<g id="node2" class="node"><title>n1_1</title>
<ellipse fill="none" stroke="white" cx="207" cy="-234" rx="18" ry="18"/>
<text text-anchor="middle" x="207" y="-229.8" font-family="Times,serif" font-size="14.00" fill="white">5</text>
</g>
<!-- n0_1&#45;&gt;n1_1 -->
<g id="edge1" class="edge"><title>n0_1&#45;&gt;n1_1</title>
<path fill="none" stroke="white" d="M238.321,-289.811C233.184,-280.822 226.561,-269.232 220.73,-259.028"/>
<polygon fill="white" stroke="white" points="223.663,-257.105 215.662,-250.159 217.585,-260.578 223.663,-257.105"/>
</g>
<!-- n1_2 -->
<g id="node3" class="node"><title>n1_2</title>
<ellipse fill="none" stroke="white" cx="288" cy="-234" rx="18" ry="18"/>
<text text-anchor="middle" x="288" y="-229.8" font-family="Times,serif" font-size="14.00" fill="white">3</text>
</g>
<!-- n0_1&#45;&gt;n1_2 -->
<g id="edge2" class="edge"><title>n0_1&#45;&gt;n1_2</title>
<path fill="none" stroke="white" d="M255.695,-290.155C261.076,-280.967 268.104,-268.968 274.23,-258.509"/>
<polygon fill="white" stroke="white" points="277.284,-260.222 279.317,-249.824 271.243,-256.684 277.284,-260.222"/>
</g>
<!-- n2_1 -->
<g id="node4" class="node"><title>n2_1</title>
<ellipse fill="none" stroke="white" cx="126" cy="-162" rx="18" ry="18"/>
<text text-anchor="middle" x="126" y="-157.8" font-family="Times,serif" font-size="14.00" fill="white">3</text>
</g>
<!-- n1_1&#45;&gt;n2_1 -->
<g id="edge3" class="edge"><title>n1_1&#45;&gt;n2_1</title>
<path fill="none" stroke="white" d="M193.624,-221.441C180.886,-210.432 161.521,-193.697 146.773,-180.952"/>
<polygon fill="white" stroke="white" points="148.981,-178.234 139.127,-174.344 144.404,-183.531 148.981,-178.234"/>
</g>
<!-- n2_2 -->
<g id="node5" class="node"><title>n2_2</title>
<ellipse fill="none" stroke="white" cx="207" cy="-162" rx="18" ry="18"/>
<text text-anchor="middle" x="207" y="-157.8" font-family="Times,serif" font-size="14.00" fill="white">1</text>
</g>
<!-- n1_1&#45;&gt;n2_2 -->
<g id="edge4" class="edge"><title>n1_1&#45;&gt;n2_2</title>
<path fill="none" stroke="white" d="M207,-215.697C207,-207.983 207,-198.712 207,-190.112"/>
<polygon fill="white" stroke="white" points="210.5,-190.104 207,-180.104 203.5,-190.104 210.5,-190.104"/>
</g>
<!-- n2_3 -->
<g id="node6" class="node"><title>n2_3</title>
<ellipse fill="none" stroke="white" cx="288" cy="-162" rx="18" ry="18"/>
<text text-anchor="middle" x="288" y="-157.8" font-family="Times,serif" font-size="14.00" fill="white">2</text>
</g>
<!-- n1_2&#45;&gt;n2_3 -->
<g id="edge5" class="edge"><title>n1_2&#45;&gt;n2_3</title>
<path fill="none" stroke="white" d="M288,-215.697C288,-207.983 288,-198.712 288,-190.112"/>
<polygon fill="white" stroke="white" points="291.5,-190.104 288,-180.104 284.5,-190.104 291.5,-190.104"/>
</g>
<!-- n2_4 -->
<g id="node7" class="node"><title>n2_4</title>
<ellipse fill="none" stroke="#8cdcce" cx="342" cy="-162" rx="18" ry="18"/>
<text text-anchor="middle" x="342" y="-157.8" font-family="Times,serif" font-size="14.00" fill="#8cdcce">0</text>
</g>
<!-- n1_2&#45;&gt;n2_4 -->
<g id="edge6" class="edge"><title>n1_2&#45;&gt;n2_4</title>
<path fill="none" stroke="white" d="M298.669,-219.17C306.213,-209.391 316.481,-196.08 325.129,-184.87"/>
<polygon fill="white" stroke="white" points="328.017,-186.857 331.354,-176.801 322.474,-182.581 328.017,-186.857"/>
</g>
<!-- n3_1 -->
<g id="node8" class="node"><title>n3_1</title>
<ellipse fill="none" stroke="white" cx="72" cy="-90" rx="18" ry="18"/>
<text text-anchor="middle" x="72" y="-85.8" font-family="Times,serif" font-size="14.00" fill="white">1</text>
</g>
<!-- n2_1&#45;&gt;n3_1 -->
<g id="edge7" class="edge"><title>n2_1&#45;&gt;n3_1</title>
<path fill="none" stroke="white" d="M115.331,-147.17C107.787,-137.391 97.5188,-124.08 88.8713,-112.87"/>
<polygon fill="white" stroke="white" points="91.5258,-110.581 82.6465,-104.801 85.9833,-114.857 91.5258,-110.581"/>
</g>
<!-- n3_2 -->
<g id="node9" class="node"><title>n3_2</title>
<ellipse fill="none" stroke="white" cx="126" cy="-90" rx="18" ry="18"/>
<text text-anchor="middle" x="126" y="-85.8" font-family="Times,serif" font-size="14.00" fill="white">1</text>
</g>
<!-- n2_1&#45;&gt;n3_2 -->
<g id="edge8" class="edge"><title>n2_1&#45;&gt;n3_2</title>
<path fill="none" stroke="white" d="M126,-143.697C126,-135.983 126,-126.712 126,-118.112"/>
<polygon fill="white" stroke="white" points="129.5,-118.104 126,-108.104 122.5,-118.104 129.5,-118.104"/>
</g>
<!-- n3_3 -->
<g id="node10" class="node"><title>n3_3</title>
<ellipse fill="none" stroke="#8cdcce" cx="180" cy="-90" rx="18" ry="18"/>
<text text-anchor="middle" x="180" y="-85.8" font-family="Times,serif" font-size="14.00" fill="#8cdcce">0</text>
</g>
<!-- n2_2&#45;&gt;n3_3 -->
<g id="edge9" class="edge"><title>n2_2&#45;&gt;n3_3</title>
<path fill="none" stroke="white" d="M200.738,-144.765C197.5,-136.371 193.475,-125.934 189.834,-116.495"/>
<polygon fill="white" stroke="white" points="193.093,-115.218 186.228,-107.147 186.562,-117.737 193.093,-115.218"/>
</g>
<!-- n3_4 -->
<g id="node11" class="node"><title>n3_4</title>
<ellipse fill="none" stroke="#8cdcce" cx="234" cy="-90" rx="18" ry="18"/>
<text text-anchor="middle" x="234" y="-85.8" font-family="Times,serif" font-size="14.00" fill="#8cdcce">0</text>
</g>
<!-- n2_2&#45;&gt;n3_4 -->
<g id="edge10" class="edge"><title>n2_2&#45;&gt;n3_4</title>
<path fill="none" stroke="white" d="M213.262,-144.765C216.5,-136.371 220.525,-125.934 224.166,-116.495"/>
<polygon fill="white" stroke="white" points="227.438,-117.737 227.772,-107.147 220.907,-115.218 227.438,-117.737"/>
</g>
<!-- n3_5 -->
<g id="node12" class="node"><title>n3_5</title>
<ellipse fill="none" stroke="white" cx="288" cy="-90" rx="18" ry="18"/>
<text text-anchor="middle" x="288" y="-85.8" font-family="Times,serif" font-size="14.00" fill="white">1</text>
</g>
<!-- n2_3&#45;&gt;n3_5 -->
<g id="edge11" class="edge"><title>n2_3&#45;&gt;n3_5</title>
<path fill="none" stroke="white" d="M288,-143.697C288,-135.983 288,-126.712 288,-118.112"/>
<polygon fill="white" stroke="white" points="291.5,-118.104 288,-108.104 284.5,-118.104 291.5,-118.104"/>
</g>
<!-- n3_6 -->
<g id="node13" class="node"><title>n3_6</title>
<ellipse fill="none" stroke="#8cdcce" cx="342" cy="-90" rx="18" ry="18"/>
<text text-anchor="middle" x="342" y="-85.8" font-family="Times,serif" font-size="14.00" fill="#8cdcce">0</text>
</g>
<!-- n2_3&#45;&gt;n3_6 -->
<g id="edge12" class="edge"><title>n2_3&#45;&gt;n3_6</title>
<path fill="none" stroke="white" d="M298.669,-147.17C306.213,-137.391 316.481,-124.08 325.129,-112.87"/>
<polygon fill="white" stroke="white" points="328.017,-114.857 331.354,-104.801 322.474,-110.581 328.017,-114.857"/>
</g>
<!-- n4_1 -->
<g id="node14" class="node"><title>n4_1</title>
<ellipse fill="none" stroke="#8cdcce" cx="18" cy="-18" rx="18" ry="18"/>
<text text-anchor="middle" x="18" y="-13.8" font-family="Times,serif" font-size="14.00" fill="#8cdcce">0</text>
</g>
<!-- n3_1&#45;&gt;n4_1 -->
<g id="edge13" class="edge"><title>n3_1&#45;&gt;n4_1</title>
<path fill="none" stroke="white" d="M61.3313,-75.1703C53.7874,-65.391 43.5188,-52.0799 34.8713,-40.8702"/>
<polygon fill="white" stroke="white" points="37.5258,-38.581 28.6465,-32.801 31.9833,-42.8567 37.5258,-38.581"/>
</g>
<!-- n4_2 -->
<g id="node15" class="node"><title>n4_2</title>
<ellipse fill="none" stroke="#8cdcce" cx="72" cy="-18" rx="18" ry="18"/>
<text text-anchor="middle" x="72" y="-13.8" font-family="Times,serif" font-size="14.00" fill="#8cdcce">0</text>
</g>
<!-- n3_1&#45;&gt;n4_2 -->
<g id="edge14" class="edge"><title>n3_1&#45;&gt;n4_2</title>
<path fill="none" stroke="white" d="M72,-71.6966C72,-63.9827 72,-54.7125 72,-46.1124"/>
<polygon fill="white" stroke="white" points="75.5001,-46.1043 72,-36.1043 68.5001,-46.1044 75.5001,-46.1043"/>
</g>
<!-- n4_3 -->
<g id="node16" class="node"><title>n4_3</title>
<ellipse fill="none" stroke="#8cdcce" cx="126" cy="-18" rx="18" ry="18"/>
<text text-anchor="middle" x="126" y="-13.8" font-family="Times,serif" font-size="14.00" fill="#8cdcce">0</text>
</g>
<!-- n3_2&#45;&gt;n4_3 -->
<g id="edge15" class="edge"><title>n3_2&#45;&gt;n4_3</title>
<path fill="none" stroke="white" d="M126,-71.6966C126,-63.9827 126,-54.7125 126,-46.1124"/>
<polygon fill="white" stroke="white" points="129.5,-46.1043 126,-36.1043 122.5,-46.1044 129.5,-46.1043"/>
</g>
<!-- n4_4 -->
<g id="node17" class="node"><title>n4_4</title>
<ellipse fill="none" stroke="#8cdcce" cx="180" cy="-18" rx="18" ry="18"/>
<text text-anchor="middle" x="180" y="-13.8" font-family="Times,serif" font-size="14.00" fill="#8cdcce">0</text>
</g>
<!-- n3_2&#45;&gt;n4_4 -->
<g id="edge16" class="edge"><title>n3_2&#45;&gt;n4_4</title>
<path fill="none" stroke="white" d="M136.669,-75.1703C144.213,-65.391 154.481,-52.0799 163.129,-40.8702"/>
<polygon fill="white" stroke="white" points="166.017,-42.8567 169.354,-32.801 160.474,-38.581 166.017,-42.8567"/>
</g>
<!-- n4_5 -->
<g id="node18" class="node"><title>n4_5</title>
<ellipse fill="none" stroke="#8cdcce" cx="261" cy="-18" rx="18" ry="18"/>
<text text-anchor="middle" x="261" y="-13.8" font-family="Times,serif" font-size="14.00" fill="#8cdcce">0</text>
</g>
<!-- n3_5&#45;&gt;n4_5 -->
<g id="edge17" class="edge"><title>n3_5&#45;&gt;n4_5</title>
<path fill="none" stroke="white" d="M281.738,-72.7646C278.5,-64.3715 274.475,-53.9344 270.834,-44.4952"/>
<polygon fill="white" stroke="white" points="274.093,-43.2178 267.228,-35.1473 267.562,-45.7369 274.093,-43.2178"/>
</g>
<!-- n4_6 -->
<g id="node19" class="node"><title>n4_6</title>
<ellipse fill="none" stroke="#8cdcce" cx="315" cy="-18" rx="18" ry="18"/>
<text text-anchor="middle" x="315" y="-13.8" font-family="Times,serif" font-size="14.00" fill="#8cdcce">0</text>
</g>
<!-- n3_5&#45;&gt;n4_6 -->
<g id="edge18" class="edge"><title>n3_5&#45;&gt;n4_6</title>
<path fill="none" stroke="white" d="M294.262,-72.7646C297.5,-64.3715 301.525,-53.9344 305.166,-44.4952"/>
<polygon fill="white" stroke="white" points="308.438,-45.7369 308.772,-35.1473 301.907,-43.2178 308.438,-45.7369"/>
</g>
</g>
</svg>
