<?xml version="1.0" encoding="UTF-8" standalone="no"?>
<!DOCTYPE svg PUBLIC "-//W3C//DTD SVG 1.1//EN"
 "http://www.w3.org/Graphics/SVG/1.1/DTD/svg11.dtd">
<!-- Generated by graphviz version 2.36.0 (20140111.2315)
 -->
<!-- Title: simple Pages: 1 -->
<svg width="216pt" height="264pt"
 viewBox="0.00 0.00 216.00 264.00" xmlns="http://www.w3.org/2000/svg" xmlns:xlink="http://www.w3.org/1999/xlink">
<g id="graph0" class="graph" transform="scale(1 1) rotate(0) translate(4 260)">
<title>simple</title>
<polygon fill="white" stroke="none" points="-4,4 -4,-260 212,-260 212,4 -4,4"/>
<!-- 8 -->
<g id="node1" class="node"><title>8</title>
<ellipse fill="none" stroke="blue" cx="107" cy="-238" rx="18" ry="18"/>
<text text-anchor="middle" x="107" y="-233.8" font-family="Times,serif" font-size="14.00" fill="blue">8</text>
</g>
<!-- 5 -->
<g id="node2" class="node"><title>5</title>
<ellipse fill="none" stroke="blue" cx="80" cy="-165" rx="18" ry="18"/>
<text text-anchor="middle" x="80" y="-160.8" font-family="Times,serif" font-size="14.00" fill="blue">5</text>
</g>
<!-- 8&#45;&gt;5 -->
<g id="edge1" class="edge"><title>8&#45;&gt;5</title>
<path fill="none" stroke="blue" d="M100.873,-220.889C97.5938,-212.265 93.4768,-201.439 89.7678,-191.686"/>
<polygon fill="blue" stroke="blue" points="92.9285,-190.15 86.1025,-182.047 86.3856,-192.638 92.9285,-190.15"/>
</g>
<!-- 10 -->
<g id="node5" class="node"><title>10</title>
<ellipse fill="none" stroke="black" cx="135" cy="-165" rx="18.4268" ry="18.9007"/>
<text text-anchor="middle" x="135" y="-160.8" font-family="Times,serif" font-size="14.00">10</text>
</g>
<!-- 8&#45;&gt;10 -->
<g id="edge2" class="edge"><title>8&#45;&gt;10</title>
<path fill="none" stroke="black" d="M113.354,-220.889C116.659,-212.508 120.784,-202.047 124.544,-192.512"/>
<polygon fill="black" stroke="black" points="127.868,-193.624 128.281,-183.037 121.356,-191.056 127.868,-193.624"/>
</g>
<!-- 3 -->
<g id="node3" class="node"><title>3</title>
<ellipse fill="none" stroke="blue" cx="27" cy="-91" rx="18" ry="18"/>
<text text-anchor="middle" x="27" y="-86.8" font-family="Times,serif" font-size="14.00" fill="blue">3</text>
</g>
<!-- 5&#45;&gt;3 -->
<g id="edge3" class="edge"><title>5&#45;&gt;3</title>
<path fill="none" stroke="blue" d="M69.7811,-150.118C62.229,-139.858 51.7967,-125.686 43.1247,-113.905"/>
<polygon fill="blue" stroke="blue" points="45.9345,-111.818 37.1876,-105.84 40.2971,-115.968 45.9345,-111.818"/>
</g>
<!-- 6 -->
<g id="node6" class="node"><title>6</title>
<ellipse fill="none" stroke="black" cx="81" cy="-91" rx="18" ry="18"/>
<text text-anchor="middle" x="81" y="-86.8" font-family="Times,serif" font-size="14.00">6</text>
</g>
<!-- 5&#45;&gt;6 -->
<g id="edge4" class="edge"><title>5&#45;&gt;6</title>
<path fill="none" stroke="black" d="M80.237,-146.937C80.3499,-138.807 80.4878,-128.876 80.6152,-119.705"/>
<polygon fill="black" stroke="black" points="84.1185,-119.488 80.7578,-109.441 77.1191,-119.391 84.1185,-119.488"/>
</g>
<!-- na -->
<g id="node4" class="node"><title>na</title>
<text text-anchor="middle" x="27" y="-13.8" font-family="Times,serif" font-size="14.00" fill="red">∅</text>
</g>
<!-- 3&#45;&gt;na -->
<g id="edge5" class="edge"><title>3&#45;&gt;na</title>
<path fill="none" stroke="red" d="M27,-72.8129C27,-64.7895 27,-55.0475 27,-46.0691"/>
<polygon fill="red" stroke="red" points="30.5001,-46.0288 27,-36.0288 23.5001,-46.0289 30.5001,-46.0288"/>
</g>
<!-- 9 -->
<g id="node7" class="node"><title>9</title>
<ellipse fill="none" stroke="black" cx="135" cy="-91" rx="18" ry="18"/>
<text text-anchor="middle" x="135" y="-86.8" font-family="Times,serif" font-size="14.00">9</text>
</g>
<!-- 10&#45;&gt;9 -->
<g id="edge6" class="edge"><title>10&#45;&gt;9</title>
<path fill="none" stroke="black" d="M135,-145.831C135,-137.894 135,-128.409 135,-119.628"/>
<polygon fill="black" stroke="black" points="138.5,-119.418 135,-109.418 131.5,-119.418 138.5,-119.418"/>
</g>
<!-- 12 -->
<g id="node8" class="node"><title>12</title>
<ellipse fill="none" stroke="black" cx="190" cy="-91" rx="18.4268" ry="18.9007"/>
<text text-anchor="middle" x="190" y="-86.8" font-family="Times,serif" font-size="14.00">12</text>
</g>
<!-- 10&#45;&gt;12 -->
<g id="edge7" class="edge"><title>10&#45;&gt;12</title>
<path fill="none" stroke="black" d="M146.13,-149.43C153.734,-139.475 163.963,-126.084 172.632,-114.737"/>
<polygon fill="black" stroke="black" points="175.597,-116.62 178.886,-106.549 170.035,-112.371 175.597,-116.62"/>
</g>
</g>
</svg>
