<?xml version="1.0" encoding="UTF-8" standalone="no"?>
<!DOCTYPE svg PUBLIC "-//W3C//DTD SVG 1.1//EN"
 "http://www.w3.org/Graphics/SVG/1.1/DTD/svg11.dtd">
<!-- Generated by graphviz version 2.36.0 (20140111.2315)
 -->
<!-- Title: simple Pages: 1 -->
<svg width="207pt" height="264pt"
 viewBox="0.00 0.00 207.00 264.00" xmlns="http://www.w3.org/2000/svg" xmlns:xlink="http://www.w3.org/1999/xlink">
<g id="graph0" class="graph" transform="scale(1 1) rotate(0) translate(4 260)">
<title>simple</title>
<!-- 8 -->
<g id="node1" class="node"><title>8</title>
<ellipse fill="none" stroke="blue" cx="98" cy="-238" rx="18" ry="18"/>
<text text-anchor="middle" x="98" y="-233.8" font-family="Times,serif" font-size="14.00" fill="blue">8</text>
</g>
<!-- 5 -->
<g id="node2" class="node"><title>5</title>
<ellipse fill="none" stroke="blue" cx="71" cy="-165" rx="18" ry="18"/>
<text text-anchor="middle" x="71" y="-160.8" font-family="Times,serif" font-size="14.00" fill="blue">5</text>
</g>
<!-- 8&#45;&gt;5 -->
<g id="edge1" class="edge"><title>8&#45;&gt;5</title>
<path fill="none" stroke="blue" d="M91.8733,-220.889C88.5938,-212.265 84.4768,-201.439 80.7678,-191.686"/>
<polygon fill="blue" stroke="blue" points="83.9285,-190.15 77.1025,-182.047 77.3856,-192.638 83.9285,-190.15"/>
</g>
<!-- 10 -->
<g id="node3" class="node"><title>10</title>
<ellipse fill="none" stroke="white" cx="126" cy="-165" rx="18.4268" ry="18.9007"/>
<text text-anchor="middle" x="126" y="-160.8" font-family="Times,serif" font-size="14.00" fill="white">10</text>
</g>
<!-- 8&#45;&gt;10 -->
<g id="edge2" class="edge"><title>8&#45;&gt;10</title>
<path fill="none" stroke="white" d="M104.354,-220.889C107.659,-212.508 111.784,-202.047 115.544,-192.512"/>
<polygon fill="white" stroke="white" points="118.868,-193.624 119.281,-183.037 112.356,-191.056 118.868,-193.624"/>
</g>
<!-- 3 -->
<g id="node4" class="node"><title>3</title>
<ellipse fill="none" stroke="blue" cx="18" cy="-91" rx="18" ry="18"/>
<text text-anchor="middle" x="18" y="-86.8" font-family="Times,serif" font-size="14.00" fill="blue">3</text>
</g>
<!-- 5&#45;&gt;3 -->
<g id="edge3" class="edge"><title>5&#45;&gt;3</title>
<path fill="none" stroke="blue" d="M60.7811,-150.118C53.229,-139.858 42.7967,-125.686 34.1247,-113.905"/>
<polygon fill="blue" stroke="blue" points="36.9345,-111.818 28.1876,-105.84 31.2971,-115.968 36.9345,-111.818"/>
</g>
<!-- 6 -->
<g id="node5" class="node"><title>6</title>
<ellipse fill="none" stroke="white" cx="72" cy="-91" rx="18" ry="18"/>
<text text-anchor="middle" x="72" y="-86.8" font-family="Times,serif" font-size="14.00" fill="white">6</text>
</g>
<!-- 5&#45;&gt;6 -->
<g id="edge4" class="edge"><title>5&#45;&gt;6</title>
<path fill="none" stroke="white" d="M71.237,-146.937C71.3499,-138.807 71.4878,-128.876 71.6152,-119.705"/>
<polygon fill="white" stroke="white" points="75.1185,-119.488 71.7578,-109.441 68.1191,-119.391 75.1185,-119.488"/>
</g>
<!-- 9 -->
<g id="node7" class="node"><title>9</title>
<ellipse fill="none" stroke="white" cx="126" cy="-91" rx="18" ry="18"/>
<text text-anchor="middle" x="126" y="-86.8" font-family="Times,serif" font-size="14.00" fill="white">9</text>
</g>
<!-- 10&#45;&gt;9 -->
<g id="edge6" class="edge"><title>10&#45;&gt;9</title>
<path fill="none" stroke="white" d="M126,-145.831C126,-137.894 126,-128.409 126,-119.628"/>
<polygon fill="white" stroke="white" points="129.5,-119.418 126,-109.418 122.5,-119.418 129.5,-119.418"/>
</g>
<!-- 12 -->
<g id="node8" class="node"><title>12</title>
<ellipse fill="none" stroke="white" cx="181" cy="-91" rx="18.4268" ry="18.9007"/>
<text text-anchor="middle" x="181" y="-86.8" font-family="Times,serif" font-size="14.00" fill="white">12</text>
</g>
<!-- 10&#45;&gt;12 -->
<g id="edge7" class="edge"><title>10&#45;&gt;12</title>
<path fill="none" stroke="white" d="M137.13,-149.43C144.734,-139.475 154.963,-126.084 163.632,-114.737"/>
<polygon fill="white" stroke="white" points="166.597,-116.62 169.886,-106.549 161.035,-112.371 166.597,-116.62"/>
</g>
<!-- na -->
<g id="node6" class="node"><title>na</title>
<ellipse fill="none" stroke="red" cx="18" cy="-18" rx="18" ry="18"/>
<text text-anchor="middle" x="18" y="-13.8" font-family="Times,serif" font-size="14.00" fill="red">∅</text>
</g>
<!-- 3&#45;&gt;na -->
<g id="edge5" class="edge"><title>3&#45;&gt;na</title>
<path fill="none" stroke="blue" d="M18,-72.8129C18,-64.7895 18,-55.0475 18,-46.0691"/>
<polygon fill="blue" stroke="blue" points="21.5001,-46.0288 18,-36.0288 14.5001,-46.0289 21.5001,-46.0288"/>
</g>
</g>
</svg>
