<?xml version="1.0" encoding="UTF-8" standalone="no"?>
<!DOCTYPE svg PUBLIC "-//W3C//DTD SVG 1.1//EN"
 "http://www.w3.org/Graphics/SVG/1.1/DTD/svg11.dtd">
<!-- Generated by graphviz version 2.36.0 (20140111.2315)
 -->
<!-- Title: simple Pages: 1 -->
<svg width="208pt" height="192pt"
 viewBox="0.00 0.00 208.00 192.00" xmlns="http://www.w3.org/2000/svg" xmlns:xlink="http://www.w3.org/1999/xlink">
<g id="graph0" class="graph" transform="scale(1 1) rotate(0) translate(4 188)">
<title>simple</title>
<!-- 8 -->
<g id="node1" class="node"><title>8</title>
<ellipse fill="none" stroke="lightgreen" cx="100" cy="-166" rx="18" ry="18"/>
<text text-anchor="middle" x="100" y="-161.8" font-family="Times,serif" font-size="14.00" fill="lightgreen">8</text>
</g>
<!-- 10 -->
<g id="node2" class="node"><title>10</title>
<ellipse fill="none" stroke="lightgreen" cx="73" cy="-93" rx="18.4268" ry="18.9007"/>
<text text-anchor="middle" x="73" y="-88.8" font-family="Times,serif" font-size="14.00" fill="lightgreen">10</text>
</g>
<!-- 8&#45;&gt;10 -->
<g id="edge1" class="edge"><title>8&#45;&gt;10</title>
<path fill="none" stroke="lightgreen" d="M93.8733,-148.889C90.6861,-140.508 86.7081,-130.047 83.0822,-120.512"/>
<polygon fill="lightgreen" stroke="lightgreen" points="86.305,-119.14 79.479,-111.037 79.7621,-121.628 86.305,-119.14"/>
</g>
<!-- 5 -->
<g id="node3" class="node"><title>5</title>
<ellipse fill="none" stroke="white" cx="128" cy="-93" rx="18" ry="18"/>
<text text-anchor="middle" x="128" y="-88.8" font-family="Times,serif" font-size="14.00" fill="white">5</text>
</g>
<!-- 8&#45;&gt;5 -->
<g id="edge2" class="edge"><title>8&#45;&gt;5</title>
<path fill="none" stroke="white" d="M106.354,-148.889C109.79,-140.174 114.114,-129.211 117.992,-119.378"/>
<polygon fill="white" stroke="white" points="121.259,-120.634 121.672,-110.047 114.747,-118.066 121.259,-120.634"/>
</g>
<!-- 9 -->
<g id="node4" class="node"><title>9</title>
<ellipse fill="none" stroke="lightgreen" cx="18" cy="-19" rx="18" ry="18"/>
<text text-anchor="middle" x="18" y="-14.8" font-family="Times,serif" font-size="14.00" fill="lightgreen">9</text>
</g>
<!-- 10&#45;&gt;9 -->
<g id="edge3" class="edge"><title>10&#45;&gt;9</title>
<path fill="none" stroke="lightgreen" d="M61.8699,-77.4297C54.1659,-67.3444 43.7669,-53.7312 35.0271,-42.29"/>
<polygon fill="lightgreen" stroke="lightgreen" points="37.591,-39.8807 28.7392,-34.0586 32.0283,-44.13 37.591,-39.8807"/>
</g>
<!-- 12 -->
<g id="node5" class="node"><title>12</title>
<ellipse fill="none" stroke="white" cx="73" cy="-19" rx="18.4268" ry="18.9007"/>
<text text-anchor="middle" x="73" y="-14.8" font-family="Times,serif" font-size="14.00" fill="white">12</text>
</g>
<!-- 10&#45;&gt;12 -->
<g id="edge4" class="edge"><title>10&#45;&gt;12</title>
<path fill="none" stroke="white" d="M73,-73.8314C73,-66.131 73,-56.9743 73,-48.4166"/>
<polygon fill="white" stroke="white" points="76.5001,-48.4132 73,-38.4133 69.5001,-48.4133 76.5001,-48.4132"/>
</g>
<!-- 3 -->
<g id="node6" class="node"><title>3</title>
<ellipse fill="none" stroke="white" cx="128" cy="-19" rx="18" ry="18"/>
<text text-anchor="middle" x="128" y="-14.8" font-family="Times,serif" font-size="14.00" fill="white">3</text>
</g>
<!-- 5&#45;&gt;3 -->
<g id="edge5" class="edge"><title>5&#45;&gt;3</title>
<path fill="none" stroke="white" d="M128,-74.937C128,-66.8072 128,-56.8761 128,-47.7047"/>
<polygon fill="white" stroke="white" points="131.5,-47.4406 128,-37.4407 124.5,-47.4407 131.5,-47.4406"/>
</g>
<!-- 6 -->
<g id="node7" class="node"><title>6</title>
<ellipse fill="none" stroke="white" cx="182" cy="-19" rx="18" ry="18"/>
<text text-anchor="middle" x="182" y="-14.8" font-family="Times,serif" font-size="14.00" fill="white">6</text>
</g>
<!-- 5&#45;&gt;6 -->
<g id="edge6" class="edge"><title>5&#45;&gt;6</title>
<path fill="none" stroke="white" d="M138.412,-78.1177C146.106,-67.8583 156.735,-53.686 165.571,-41.9052"/>
<polygon fill="white" stroke="white" points="168.42,-43.9397 171.62,-33.8397 162.82,-39.7397 168.42,-43.9397"/>
</g>
</g>
</svg>
