<?xml version="1.0" encoding="UTF-8" standalone="no"?>
<!DOCTYPE svg PUBLIC "-//W3C//DTD SVG 1.1//EN"
 "http://www.w3.org/Graphics/SVG/1.1/DTD/svg11.dtd">
<!-- Generated by graphviz version 2.36.0 (20140111.2315)
 -->
<!-- Title: simple Pages: 1 -->
<svg width="218pt" height="268pt"
 viewBox="0.00 0.00 218.00 268.00" xmlns="http://www.w3.org/2000/svg" xmlns:xlink="http://www.w3.org/1999/xlink">
<g id="graph0" class="graph" transform="scale(1 1) rotate(0) translate(4 264)">
<title>simple</title>
<polygon fill="white" stroke="none" points="-4,4 -4,-264 214,-264 214,4 -4,4"/>
<!-- 8 -->
<g id="node1" class="node"><title>8</title>
<ellipse fill="none" stroke="blue" cx="108" cy="-242" rx="18" ry="18"/>
<text text-anchor="middle" x="108" y="-238.997" font-family="CabinSketch" font-size="14.00" fill="blue">8</text>
</g>
<!-- 5 -->
<g id="node2" class="node"><title>5</title>
<ellipse fill="none" stroke="blue" cx="80" cy="-167" rx="18" ry="18"/>
<text text-anchor="middle" x="80" y="-163.997" font-family="CabinSketch" font-size="14.00" fill="blue">5</text>
</g>
<!-- 8&#45;&gt;5 -->
<g id="edge1" class="edge"><title>8&#45;&gt;5</title>
<path fill="none" stroke="blue" d="M101.786,-224.799C98.2696,-215.631 93.7924,-203.959 89.8126,-193.583"/>
<polygon fill="blue" stroke="blue" points="93.0459,-192.239 86.1967,-184.156 86.5102,-194.746 93.0459,-192.239"/>
</g>
<!-- 10 -->
<g id="node5" class="node"><title>10</title>
<ellipse fill="none" stroke="black" cx="137" cy="-167" rx="20.3821" ry="20.8404"/>
<text text-anchor="middle" x="137" y="-163.997" font-family="CabinSketch" font-size="14.00">10</text>
</g>
<!-- 8&#45;&gt;10 -->
<g id="edge2" class="edge"><title>8&#45;&gt;10</title>
<path fill="none" stroke="black" d="M114.436,-224.799C117.79,-216.356 121.988,-205.788 125.851,-196.065"/>
<polygon fill="black" stroke="black" points="129.118,-197.32 129.558,-186.734 122.613,-194.735 129.118,-197.32"/>
</g>
<!-- 3 -->
<g id="node3" class="node"><title>3</title>
<ellipse fill="none" stroke="blue" cx="27" cy="-91" rx="18" ry="18"/>
<text text-anchor="middle" x="27" y="-87.997" font-family="CabinSketch" font-size="14.00" fill="blue">3</text>
</g>
<!-- 5&#45;&gt;3 -->
<g id="edge3" class="edge"><title>5&#45;&gt;3</title>
<path fill="none" stroke="blue" d="M69.7811,-151.732C62.1806,-141.12 51.6628,-126.435 42.9581,-114.281"/>
<polygon fill="blue" stroke="blue" points="45.6761,-112.065 37.0078,-105.973 39.9852,-116.141 45.6761,-112.065"/>
</g>
<!-- 6 -->
<g id="node6" class="node"><title>6</title>
<ellipse fill="none" stroke="black" cx="81" cy="-91" rx="18" ry="18"/>
<text text-anchor="middle" x="81" y="-87.997" font-family="CabinSketch" font-size="14.00">6</text>
</g>
<!-- 5&#45;&gt;6 -->
<g id="edge4" class="edge"><title>5&#45;&gt;6</title>
<path fill="none" stroke="black" d="M80.2319,-148.837C80.3506,-140.058 80.4978,-129.163 80.6315,-119.267"/>
<polygon fill="black" stroke="black" points="84.1338,-119.116 80.7693,-109.07 77.1344,-119.022 84.1338,-119.116"/>
</g>
<!-- na -->
<g id="node4" class="node"><title>na</title>
<text text-anchor="middle" x="27" y="-13.8" font-family="CabinSketch" font-size="14.00" fill="red">∅</text>
</g>
<!-- 3&#45;&gt;na -->
<g id="edge5" class="edge"><title>3&#45;&gt;na</title>
<path fill="none" stroke="red" d="M27,-72.8129C27,-64.7895 27,-55.0475 27,-46.0691"/>
<polygon fill="red" stroke="red" points="30.5001,-46.0288 27,-36.0288 23.5001,-46.0289 30.5001,-46.0288"/>
</g>
<!-- 9 -->
<g id="node7" class="node"><title>9</title>
<ellipse fill="none" stroke="black" cx="136" cy="-91" rx="18" ry="18"/>
<text text-anchor="middle" x="136" y="-87.997" font-family="CabinSketch" font-size="14.00">9</text>
</g>
<!-- 10&#45;&gt;9 -->
<g id="edge6" class="edge"><title>10&#45;&gt;9</title>
<path fill="none" stroke="black" d="M136.727,-145.779C136.617,-137.626 136.488,-128.093 136.369,-119.337"/>
<polygon fill="black" stroke="black" points="139.867,-119.138 136.232,-109.186 132.868,-119.233 139.867,-119.138"/>
</g>
<!-- 12 -->
<g id="node8" class="node"><title>12</title>
<ellipse fill="none" stroke="black" cx="191" cy="-91" rx="19.2968" ry="19.3965"/>
<text text-anchor="middle" x="191" y="-87.997" font-family="CabinSketch" font-size="14.00">12</text>
</g>
<!-- 10&#45;&gt;12 -->
<g id="edge7" class="edge"><title>10&#45;&gt;12</title>
<path fill="none" stroke="black" d="M148.984,-149.577C156.412,-139.398 166.064,-126.172 174.243,-114.963"/>
<polygon fill="black" stroke="black" points="177.082,-117.01 180.149,-106.869 171.427,-112.884 177.082,-117.01"/>
</g>
</g>
</svg>
