<?xml version="1.0" encoding="UTF-8" standalone="no"?>
<!DOCTYPE svg PUBLIC "-//W3C//DTD SVG 1.1//EN"
 "http://www.w3.org/Graphics/SVG/1.1/DTD/svg11.dtd">
<!-- Generated by graphviz version 2.36.0 (20140111.2315)
 -->
<!-- Title: simple Pages: 1 -->
<svg width="293pt" height="264pt"
 viewBox="0.00 0.00 293.00 264.00" xmlns="http://www.w3.org/2000/svg" xmlns:xlink="http://www.w3.org/1999/xlink">
<g id="graph0" class="graph" transform="scale(1 1) rotate(0) translate(4 260)">
<title>simple</title>
<!-- b8 -->
<g id="node1" class="node"><title>b8</title>
<ellipse fill="none" stroke="#8cdcce" cx="131" cy="-238" rx="18" ry="18"/>
<text text-anchor="middle" x="131" y="-233.8" font-family="Times,serif" font-size="14.00" fill="#8cdcce">8</text>
</g>
<!-- b5 -->
<g id="node2" class="node"><title>b5</title>
<ellipse fill="none" stroke="#8cdcce" cx="103" cy="-165" rx="18" ry="18"/>
<text text-anchor="middle" x="103" y="-160.8" font-family="Times,serif" font-size="14.00" fill="#8cdcce">5</text>
</g>
<!-- b8&#45;&gt;b5 -->
<g id="edge1" class="edge"><title>b8&#45;&gt;b5</title>
<path fill="none" stroke="#8cdcce" d="M124.646,-220.889C121.21,-212.174 116.886,-201.211 113.008,-191.378"/>
<polygon fill="#8cdcce" stroke="#8cdcce" points="116.253,-190.066 109.328,-182.047 109.741,-192.634 116.253,-190.066"/>
</g>
<!-- 10 -->
<g id="node3" class="node"><title>10</title>
<ellipse fill="none" stroke="white" cx="158" cy="-165" rx="18.4268" ry="18.9007"/>
<text text-anchor="middle" x="158" y="-160.8" font-family="Times,serif" font-size="14.00" fill="white">10</text>
</g>
<!-- b8&#45;&gt;10 -->
<g id="edge2" class="edge"><title>b8&#45;&gt;10</title>
<path fill="none" stroke="#8cdcce" d="M137.127,-220.889C140.314,-212.508 144.292,-202.047 147.918,-192.512"/>
<polygon fill="#8cdcce" stroke="#8cdcce" points="151.238,-193.628 151.521,-183.037 144.695,-191.14 151.238,-193.628"/>
</g>
<!-- b3 -->
<g id="node4" class="node"><title>b3</title>
<ellipse fill="none" stroke="#8cdcce" cx="49" cy="-91" rx="18" ry="18"/>
<text text-anchor="middle" x="49" y="-86.8" font-family="Times,serif" font-size="14.00" fill="#8cdcce">3</text>
</g>
<!-- b5&#45;&gt;b3 -->
<g id="edge3" class="edge"><title>b5&#45;&gt;b3</title>
<path fill="none" stroke="#8cdcce" d="M92.5883,-150.118C84.8937,-139.858 74.2645,-125.686 65.4289,-113.905"/>
<polygon fill="#8cdcce" stroke="#8cdcce" points="68.1798,-111.74 59.3798,-105.84 62.5798,-115.94 68.1798,-111.74"/>
</g>
<!-- 6 -->
<g id="node5" class="node"><title>6</title>
<ellipse fill="none" stroke="white" cx="157" cy="-91" rx="18" ry="18"/>
<text text-anchor="middle" x="157" y="-86.8" font-family="Times,serif" font-size="14.00" fill="white">6</text>
</g>
<!-- b5&#45;&gt;6 -->
<g id="edge4" class="edge"><title>b5&#45;&gt;6</title>
<path fill="none" stroke="#8cdcce" d="M113.412,-150.118C121.106,-139.858 131.735,-125.686 140.571,-113.905"/>
<polygon fill="#8cdcce" stroke="#8cdcce" points="143.42,-115.94 146.62,-105.84 137.82,-111.74 143.42,-115.94"/>
</g>
<!-- 9 -->
<g id="node8" class="node"><title>9</title>
<ellipse fill="none" stroke="white" cx="103" cy="-91" rx="18" ry="18"/>
<text text-anchor="middle" x="103" y="-86.8" font-family="Times,serif" font-size="14.00" fill="white">9</text>
</g>
<!-- 10&#45;&gt;9 -->
<g id="edge7" class="edge"><title>10&#45;&gt;9</title>
<path fill="none" stroke="white" d="M146.87,-149.43C139.166,-139.344 128.767,-125.731 120.027,-114.29"/>
<polygon fill="white" stroke="white" points="122.591,-111.881 113.739,-106.059 117.028,-116.13 122.591,-111.881"/>
</g>
<!-- 12 -->
<g id="node9" class="node"><title>12</title>
<ellipse fill="none" stroke="white" cx="212" cy="-91" rx="18.4268" ry="18.9007"/>
<text text-anchor="middle" x="212" y="-86.8" font-family="Times,serif" font-size="14.00" fill="white">12</text>
</g>
<!-- 10&#45;&gt;12 -->
<g id="edge8" class="edge"><title>10&#45;&gt;12</title>
<path fill="none" stroke="white" d="M168.928,-149.43C176.393,-139.475 186.437,-126.084 194.947,-114.737"/>
<polygon fill="white" stroke="white" points="197.889,-116.649 201.089,-106.549 192.289,-112.449 197.889,-116.649"/>
</g>
<!-- 4 -->
<g id="node6" class="node"><title>4</title>
<ellipse fill="none" stroke="#8cdcce" cx="18" cy="-18" rx="18" ry="18"/>
<text text-anchor="middle" x="18" y="-13.8" font-family="Times,serif" font-size="14.00" fill="#8cdcce">4</text>
</g>
<!-- b3&#45;&gt;4 -->
<g id="edge5" class="edge"><title>b3&#45;&gt;4</title>
<path fill="none" stroke="#8cdcce" d="M42.1201,-74.2428C38.227,-65.3264 33.2702,-53.9737 28.8639,-43.8818"/>
<polygon fill="#8cdcce" stroke="#8cdcce" points="32.0697,-42.4772 24.8607,-34.7132 25.6546,-45.2782 32.0697,-42.4772"/>
</g>
<!-- na -->
<g id="node7" class="node"><title>na</title>
<text text-anchor="middle" x="81" y="-13.8" font-family="Times,serif" font-size="14.00" fill="#8cdcce">∅</text>
</g>
<!-- b3&#45;&gt;na -->
<g id="edge6" class="edge"><title>b3&#45;&gt;na</title>
<path fill="none" stroke="#8cdcce" d="M56.1018,-74.2428C59.9133,-65.786 64.7126,-55.1376 69.078,-45.452"/>
<polygon fill="#8cdcce" stroke="#8cdcce" points="72.3279,-46.7591 73.246,-36.2041 65.9461,-43.8828 72.3279,-46.7591"/>
</g>
<!-- 8 -->
<g id="node10" class="node"><title>8</title>
<ellipse fill="none" stroke="white" cx="185" cy="-238" rx="18" ry="18"/>
<text text-anchor="middle" x="185" y="-233.8" font-family="Times,serif" font-size="14.00" fill="white">8</text>
</g>
<!-- 8&#45;&gt;10 -->
<g id="edge9" class="edge"><title>8&#45;&gt;10</title>
<path fill="none" stroke="white" d="M178.873,-220.889C175.686,-212.508 171.708,-202.047 168.082,-192.512"/>
<polygon fill="white" stroke="white" points="171.305,-191.14 164.479,-183.037 164.762,-193.628 171.305,-191.14"/>
</g>
<!-- 5 -->
<g id="node11" class="node"><title>5</title>
<ellipse fill="none" stroke="white" cx="213" cy="-165" rx="18" ry="18"/>
<text text-anchor="middle" x="213" y="-160.8" font-family="Times,serif" font-size="14.00" fill="white">5</text>
</g>
<!-- 8&#45;&gt;5 -->
<g id="edge10" class="edge"><title>8&#45;&gt;5</title>
<path fill="none" stroke="white" d="M191.354,-220.889C194.79,-212.174 199.114,-201.211 202.992,-191.378"/>
<polygon fill="white" stroke="white" points="206.259,-192.634 206.672,-182.047 199.747,-190.066 206.259,-192.634"/>
</g>
<!-- 5&#45;&gt;6 -->
<g id="edge11" class="edge"><title>5&#45;&gt;6</title>
<path fill="none" stroke="white" d="M202.203,-150.118C194.223,-139.858 183.2,-125.686 174.037,-113.905"/>
<polygon fill="white" stroke="white" points="176.666,-111.584 167.764,-105.84 171.141,-115.882 176.666,-111.584"/>
</g>
<!-- 3 -->
<g id="node12" class="node"><title>3</title>
<ellipse fill="none" stroke="white" cx="267" cy="-91" rx="18" ry="18"/>
<text text-anchor="middle" x="267" y="-86.8" font-family="Times,serif" font-size="14.00" fill="white">3</text>
</g>
<!-- 5&#45;&gt;3 -->
<g id="edge12" class="edge"><title>5&#45;&gt;3</title>
<path fill="none" stroke="white" d="M223.412,-150.118C231.106,-139.858 241.735,-125.686 250.571,-113.905"/>
<polygon fill="white" stroke="white" points="253.42,-115.94 256.62,-105.84 247.82,-111.74 253.42,-115.94"/>
</g>
</g>
</svg>
