<?xml version="1.0" encoding="UTF-8" standalone="no"?>
<!DOCTYPE svg PUBLIC "-//W3C//DTD SVG 1.1//EN"
 "http://www.w3.org/Graphics/SVG/1.1/DTD/svg11.dtd">
<!-- Generated by graphviz version 2.36.0 (20140111.2315)
 -->
<!-- Title: simple Pages: 1 -->
<svg width="303pt" height="268pt"
 viewBox="0.00 0.00 303.00 268.00" xmlns="http://www.w3.org/2000/svg" xmlns:xlink="http://www.w3.org/1999/xlink">
<g id="graph0" class="graph" transform="scale(1 1) rotate(0) translate(4 264)">
<title>simple</title>
<polygon fill="white" stroke="none" points="-4,4 -4,-264 299,-264 299,4 -4,4"/>
<!-- b8 -->
<g id="node1" class="node"><title>b8</title>
<ellipse fill="none" stroke="blue" cx="139" cy="-242" rx="18" ry="18"/>
<text text-anchor="middle" x="139" y="-238.997" font-family="CabinSketch" font-size="14.00" fill="blue">8</text>
</g>
<!-- b5 -->
<g id="node2" class="node"><title>b5</title>
<ellipse fill="none" stroke="blue" cx="111" cy="-167" rx="18" ry="18"/>
<text text-anchor="middle" x="111" y="-163.997" font-family="CabinSketch" font-size="14.00" fill="blue">5</text>
</g>
<!-- b8&#45;&gt;b5 -->
<g id="edge1" class="edge"><title>b8&#45;&gt;b5</title>
<path fill="none" stroke="blue" d="M132.786,-224.799C129.27,-215.631 124.792,-203.959 120.813,-193.583"/>
<polygon fill="blue" stroke="blue" points="124.046,-192.239 117.197,-184.156 117.51,-194.746 124.046,-192.239"/>
</g>
<!-- 10 -->
<g id="node6" class="node"><title>10</title>
<ellipse fill="none" stroke="black" cx="222" cy="-167" rx="20.3821" ry="20.8404"/>
<text text-anchor="middle" x="222" y="-163.997" font-family="CabinSketch" font-size="14.00">10</text>
</g>
<!-- b8&#45;&gt;10 -->
<g id="edge2" class="edge"><title>b8&#45;&gt;10</title>
<path fill="none" stroke="blue" d="M152.335,-229.271C164.863,-218.253 183.873,-201.533 198.872,-188.342"/>
<polygon fill="blue" stroke="blue" points="201.528,-190.667 206.725,-181.434 196.905,-185.411 201.528,-190.667"/>
</g>
<!-- b3 -->
<g id="node3" class="node"><title>b3</title>
<ellipse fill="none" stroke="blue" cx="58" cy="-91" rx="18" ry="18"/>
<text text-anchor="middle" x="58" y="-87.997" font-family="CabinSketch" font-size="14.00" fill="blue">3</text>
</g>
<!-- b5&#45;&gt;b3 -->
<g id="edge5" class="edge"><title>b5&#45;&gt;b3</title>
<path fill="none" stroke="blue" d="M100.781,-151.732C93.1806,-141.12 82.6628,-126.435 73.9581,-114.281"/>
<polygon fill="blue" stroke="blue" points="76.6761,-112.065 68.0078,-105.973 70.9852,-116.141 76.6761,-112.065"/>
</g>
<!-- 6 -->
<g id="node9" class="node"><title>6</title>
<ellipse fill="none" stroke="black" cx="166" cy="-91" rx="18" ry="18"/>
<text text-anchor="middle" x="166" y="-87.997" font-family="CabinSketch" font-size="14.00">6</text>
</g>
<!-- b5&#45;&gt;6 -->
<g id="edge6" class="edge"><title>b5&#45;&gt;6</title>
<path fill="none" stroke="blue" d="M121.345,-152.081C129.334,-141.332 140.54,-126.255 149.728,-113.894"/>
<polygon fill="blue" stroke="blue" points="152.545,-115.97 155.701,-105.856 146.927,-111.795 152.545,-115.97"/>
</g>
<!-- 4 -->
<g id="node4" class="node"><title>4</title>
<ellipse fill="none" stroke="blue" cx="90" cy="-18" rx="18" ry="18"/>
<text text-anchor="middle" x="90" y="-14.997" font-family="CabinSketch" font-size="14.00" fill="blue">4</text>
</g>
<!-- b3&#45;&gt;4 -->
<g id="edge10" class="edge"><title>b3&#45;&gt;4</title>
<path fill="none" stroke="blue" d="M65.1018,-74.2428C69.1205,-65.3264 74.2372,-53.9737 78.7857,-43.8818"/>
<polygon fill="blue" stroke="blue" points="81.9999,-45.2681 82.918,-34.7132 75.6181,-42.3918 81.9999,-45.2681"/>
</g>
<!-- na -->
<g id="node5" class="node"><title>na</title>
<text text-anchor="middle" x="27" y="-13.8" font-family="CabinSketch" font-size="14.00" fill="blue">∅</text>
</g>
<!-- b3&#45;&gt;na -->
<g id="edge9" class="edge"><title>b3&#45;&gt;na</title>
<path fill="none" stroke="blue" d="M51.1201,-74.2428C47.4277,-65.786 42.7784,-55.1376 38.5495,-45.452"/>
<polygon fill="blue" stroke="blue" points="41.7207,-43.9681 34.5117,-36.2041 35.3055,-46.7692 41.7207,-43.9681"/>
</g>
<!-- 9 -->
<g id="node11" class="node"><title>9</title>
<ellipse fill="none" stroke="black" cx="221" cy="-91" rx="18" ry="18"/>
<text text-anchor="middle" x="221" y="-87.997" font-family="CabinSketch" font-size="14.00">9</text>
</g>
<!-- 10&#45;&gt;9 -->
<g id="edge11" class="edge"><title>10&#45;&gt;9</title>
<path fill="none" stroke="black" d="M221.727,-145.779C221.617,-137.626 221.488,-128.093 221.369,-119.337"/>
<polygon fill="black" stroke="black" points="224.867,-119.138 221.232,-109.186 217.868,-119.233 224.867,-119.138"/>
</g>
<!-- 12 -->
<g id="node12" class="node"><title>12</title>
<ellipse fill="none" stroke="black" cx="276" cy="-91" rx="19.2968" ry="19.3965"/>
<text text-anchor="middle" x="276" y="-87.997" font-family="CabinSketch" font-size="14.00">12</text>
</g>
<!-- 10&#45;&gt;12 -->
<g id="edge12" class="edge"><title>10&#45;&gt;12</title>
<path fill="none" stroke="black" d="M233.984,-149.577C241.412,-139.398 251.064,-126.172 259.243,-114.963"/>
<polygon fill="black" stroke="black" points="262.082,-117.01 265.149,-106.869 256.427,-112.884 262.082,-117.01"/>
</g>
<!-- 8 -->
<g id="node7" class="node"><title>8</title>
<ellipse fill="none" stroke="black" cx="193" cy="-242" rx="18" ry="18"/>
<text text-anchor="middle" x="193" y="-238.997" font-family="CabinSketch" font-size="14.00">8</text>
</g>
<!-- 8&#45;&gt;10 -->
<g id="edge4" class="edge"><title>8&#45;&gt;10</title>
<path fill="none" stroke="black" d="M199.436,-224.799C202.79,-216.356 206.988,-205.788 210.851,-196.065"/>
<polygon fill="black" stroke="black" points="214.118,-197.32 214.558,-186.734 207.613,-194.735 214.118,-197.32"/>
</g>
<!-- 5 -->
<g id="node8" class="node"><title>5</title>
<ellipse fill="none" stroke="black" cx="165" cy="-167" rx="18" ry="18"/>
<text text-anchor="middle" x="165" y="-163.997" font-family="CabinSketch" font-size="14.00">5</text>
</g>
<!-- 8&#45;&gt;5 -->
<g id="edge3" class="edge"><title>8&#45;&gt;5</title>
<path fill="none" stroke="black" d="M186.786,-224.799C183.27,-215.631 178.792,-203.959 174.813,-193.583"/>
<polygon fill="black" stroke="black" points="178.046,-192.239 171.197,-184.156 171.51,-194.746 178.046,-192.239"/>
</g>
<!-- 5&#45;&gt;6 -->
<g id="edge8" class="edge"><title>5&#45;&gt;6</title>
<path fill="none" stroke="black" d="M165.232,-148.837C165.351,-140.058 165.498,-129.163 165.632,-119.267"/>
<polygon fill="black" stroke="black" points="169.134,-119.116 165.769,-109.07 162.134,-119.022 169.134,-119.116"/>
</g>
<!-- 3 -->
<g id="node10" class="node"><title>3</title>
<ellipse fill="none" stroke="black" cx="112" cy="-91" rx="18" ry="18"/>
<text text-anchor="middle" x="112" y="-87.997" font-family="CabinSketch" font-size="14.00">3</text>
</g>
<!-- 5&#45;&gt;3 -->
<g id="edge7" class="edge"><title>5&#45;&gt;3</title>
<path fill="none" stroke="black" d="M154.781,-151.732C147.181,-141.12 136.663,-126.435 127.958,-114.281"/>
<polygon fill="black" stroke="black" points="130.676,-112.065 122.008,-105.973 124.985,-116.141 130.676,-112.065"/>
</g>
</g>
</svg>
