<?xml version="1.0" encoding="UTF-8" standalone="no"?>
<!DOCTYPE svg PUBLIC "-//W3C//DTD SVG 1.1//EN"
 "http://www.w3.org/Graphics/SVG/1.1/DTD/svg11.dtd">
<!-- Generated by graphviz version 2.36.0 (20140111.2315)
 -->
<!-- Title: simple Pages: 1 -->
<svg width="292pt" height="264pt"
 viewBox="0.00 0.00 292.00 264.00" xmlns="http://www.w3.org/2000/svg" xmlns:xlink="http://www.w3.org/1999/xlink">
<g id="graph0" class="graph" transform="scale(1 1) rotate(0) translate(4 260)">
<title>simple</title>
<!-- b8 -->
<g id="node1" class="node"><title>b8</title>
<ellipse fill="none" stroke="#8cdcce" cx="129" cy="-238" rx="18" ry="18"/>
<text text-anchor="middle" x="129" y="-233.8" font-family="Times,serif" font-size="14.00" fill="#8cdcce">8</text>
</g>
<!-- b5 -->
<g id="node2" class="node"><title>b5</title>
<ellipse fill="none" stroke="#8cdcce" cx="102" cy="-165" rx="18" ry="18"/>
<text text-anchor="middle" x="102" y="-160.8" font-family="Times,serif" font-size="14.00" fill="#8cdcce">5</text>
</g>
<!-- b8&#45;&gt;b5 -->
<g id="edge1" class="edge"><title>b8&#45;&gt;b5</title>
<path fill="none" stroke="#8cdcce" d="M122.873,-220.889C119.594,-212.265 115.477,-201.439 111.768,-191.686"/>
<polygon fill="#8cdcce" stroke="#8cdcce" points="114.928,-190.15 108.102,-182.047 108.386,-192.638 114.928,-190.15"/>
</g>
<!-- 10 -->
<g id="node3" class="node"><title>10</title>
<ellipse fill="none" stroke="white" cx="211" cy="-165" rx="18.4268" ry="18.9007"/>
<text text-anchor="middle" x="211" y="-160.8" font-family="Times,serif" font-size="14.00" fill="white">10</text>
</g>
<!-- b8&#45;&gt;10 -->
<g id="edge2" class="edge"><title>b8&#45;&gt;10</title>
<path fill="none" stroke="#8cdcce" d="M142.175,-225.593C154.933,-214.546 174.498,-197.606 189.511,-184.606"/>
<polygon fill="#8cdcce" stroke="#8cdcce" points="192.042,-187.044 197.311,-177.853 187.46,-181.752 192.042,-187.044"/>
</g>
<!-- b3 -->
<g id="node4" class="node"><title>b3</title>
<ellipse fill="none" stroke="#8cdcce" cx="49" cy="-91" rx="18" ry="18"/>
<text text-anchor="middle" x="49" y="-86.8" font-family="Times,serif" font-size="14.00" fill="#8cdcce">3</text>
</g>
<!-- b5&#45;&gt;b3 -->
<g id="edge3" class="edge"><title>b5&#45;&gt;b3</title>
<path fill="none" stroke="#8cdcce" d="M91.7811,-150.118C84.229,-139.858 73.7967,-125.686 65.1247,-113.905"/>
<polygon fill="#8cdcce" stroke="#8cdcce" points="67.9345,-111.818 59.1876,-105.84 62.2971,-115.968 67.9345,-111.818"/>
</g>
<!-- 6 -->
<g id="node5" class="node"><title>6</title>
<ellipse fill="none" stroke="white" cx="103" cy="-91" rx="18" ry="18"/>
<text text-anchor="middle" x="103" y="-86.8" font-family="Times,serif" font-size="14.00" fill="white">6</text>
</g>
<!-- b5&#45;&gt;6 -->
<g id="edge4" class="edge"><title>b5&#45;&gt;6</title>
<path fill="none" stroke="#8cdcce" d="M102.237,-146.937C102.35,-138.807 102.488,-128.876 102.615,-119.705"/>
<polygon fill="#8cdcce" stroke="#8cdcce" points="106.118,-119.488 102.758,-109.441 99.1191,-119.391 106.118,-119.488"/>
</g>
<!-- 9 -->
<g id="node8" class="node"><title>9</title>
<ellipse fill="none" stroke="white" cx="211" cy="-91" rx="18" ry="18"/>
<text text-anchor="middle" x="211" y="-86.8" font-family="Times,serif" font-size="14.00" fill="white">9</text>
</g>
<!-- 10&#45;&gt;9 -->
<g id="edge7" class="edge"><title>10&#45;&gt;9</title>
<path fill="none" stroke="white" d="M211,-145.831C211,-137.894 211,-128.409 211,-119.628"/>
<polygon fill="white" stroke="white" points="214.5,-119.418 211,-109.418 207.5,-119.418 214.5,-119.418"/>
</g>
<!-- 12 -->
<g id="node9" class="node"><title>12</title>
<ellipse fill="none" stroke="white" cx="266" cy="-91" rx="18.4268" ry="18.9007"/>
<text text-anchor="middle" x="266" y="-86.8" font-family="Times,serif" font-size="14.00" fill="white">12</text>
</g>
<!-- 10&#45;&gt;12 -->
<g id="edge8" class="edge"><title>10&#45;&gt;12</title>
<path fill="none" stroke="white" d="M222.13,-149.43C229.734,-139.475 239.963,-126.084 248.632,-114.737"/>
<polygon fill="white" stroke="white" points="251.597,-116.62 254.886,-106.549 246.035,-112.371 251.597,-116.62"/>
</g>
<!-- 4 -->
<g id="node6" class="node"><title>4</title>
<ellipse fill="none" stroke="#8cdcce" cx="18" cy="-18" rx="18" ry="18"/>
<text text-anchor="middle" x="18" y="-13.8" font-family="Times,serif" font-size="14.00" fill="#8cdcce">4</text>
</g>
<!-- b3&#45;&gt;4 -->
<g id="edge5" class="edge"><title>b3&#45;&gt;4</title>
<path fill="none" stroke="#8cdcce" d="M42.1201,-74.2428C38.227,-65.3264 33.2702,-53.9737 28.8639,-43.8818"/>
<polygon fill="#8cdcce" stroke="#8cdcce" points="32.0697,-42.4772 24.8607,-34.7132 25.6546,-45.2782 32.0697,-42.4772"/>
</g>
<!-- na -->
<g id="node7" class="node"><title>na</title>
<text text-anchor="middle" x="81" y="-13.8" font-family="Times,serif" font-size="14.00" fill="#8cdcce">∅</text>
</g>
<!-- b3&#45;&gt;na -->
<g id="edge6" class="edge"><title>b3&#45;&gt;na</title>
<path fill="none" stroke="#8cdcce" d="M56.1018,-74.2428C59.9133,-65.786 64.7126,-55.1376 69.078,-45.452"/>
<polygon fill="#8cdcce" stroke="#8cdcce" points="72.3279,-46.7591 73.246,-36.2041 65.9461,-43.8828 72.3279,-46.7591"/>
</g>
<!-- 8 -->
<g id="node10" class="node"><title>8</title>
<ellipse fill="none" stroke="white" cx="183" cy="-238" rx="18" ry="18"/>
<text text-anchor="middle" x="183" y="-233.8" font-family="Times,serif" font-size="14.00" fill="white">8</text>
</g>
<!-- 8&#45;&gt;10 -->
<g id="edge9" class="edge"><title>8&#45;&gt;10</title>
<path fill="none" stroke="white" d="M189.354,-220.889C192.659,-212.508 196.784,-202.047 200.544,-192.512"/>
<polygon fill="white" stroke="white" points="203.868,-193.624 204.281,-183.037 197.356,-191.056 203.868,-193.624"/>
</g>
<!-- 5 -->
<g id="node11" class="node"><title>5</title>
<ellipse fill="none" stroke="white" cx="156" cy="-165" rx="18" ry="18"/>
<text text-anchor="middle" x="156" y="-160.8" font-family="Times,serif" font-size="14.00" fill="white">5</text>
</g>
<!-- 8&#45;&gt;5 -->
<g id="edge10" class="edge"><title>8&#45;&gt;5</title>
<path fill="none" stroke="white" d="M176.873,-220.889C173.594,-212.265 169.477,-201.439 165.768,-191.686"/>
<polygon fill="white" stroke="white" points="168.928,-190.15 162.102,-182.047 162.386,-192.638 168.928,-190.15"/>
</g>
<!-- 5&#45;&gt;6 -->
<g id="edge11" class="edge"><title>5&#45;&gt;6</title>
<path fill="none" stroke="white" d="M145.781,-150.118C138.229,-139.858 127.797,-125.686 119.125,-113.905"/>
<polygon fill="white" stroke="white" points="121.934,-111.818 113.188,-105.84 116.297,-115.968 121.934,-111.818"/>
</g>
<!-- 3 -->
<g id="node12" class="node"><title>3</title>
<ellipse fill="none" stroke="white" cx="157" cy="-91" rx="18" ry="18"/>
<text text-anchor="middle" x="157" y="-86.8" font-family="Times,serif" font-size="14.00" fill="white">3</text>
</g>
<!-- 5&#45;&gt;3 -->
<g id="edge12" class="edge"><title>5&#45;&gt;3</title>
<path fill="none" stroke="white" d="M156.237,-146.937C156.35,-138.807 156.488,-128.876 156.615,-119.705"/>
<polygon fill="white" stroke="white" points="160.118,-119.488 156.758,-109.441 153.119,-119.391 160.118,-119.488"/>
</g>
</g>
</svg>
