<?xml version="1.0" encoding="UTF-8" standalone="no"?>
<!DOCTYPE svg PUBLIC "-//W3C//DTD SVG 1.1//EN"
 "http://www.w3.org/Graphics/SVG/1.1/DTD/svg11.dtd">
<!-- Generated by graphviz version 2.43.0 (0)
 -->
<!-- Title: %3 Pages: 1 -->
<svg width="150pt" height="116pt"
 viewBox="0.00 0.00 150.00 116.00" xmlns="http://www.w3.org/2000/svg" xmlns:xlink="http://www.w3.org/1999/xlink">
<g id="graph0" class="graph" transform="scale(1 1) rotate(0) translate(4 112)">
<title>%3</title>
<!-- Add -->
<g id="node1" class="node">
<title>Add</title>
<path fill="#586e75" stroke="#586e75" d="M86,-108C86,-108 56,-108 56,-108 50,-108 44,-102 44,-96 44,-96 44,-84 44,-84 44,-78 50,-72 56,-72 56,-72 86,-72 86,-72 92,-72 98,-78 98,-84 98,-84 98,-96 98,-96 98,-102 92,-108 86,-108"/>
<text text-anchor="middle" x="71" y="-86.3" font-family="Inter,Arial" font-size="14.00" fill="#ffffff">Add</text>
</g>
<!-- One -->
<g id="node2" class="node leaf">
<title>One</title>
<path fill="#ffffff" stroke="#586e75" d="M50,-36C50,-36 12,-36 12,-36 6,-36 0,-30 0,-24 0,-24 0,-12 0,-12 0,-6 6,0 12,0 12,0 50,0 50,0 56,0 62,-6 62,-12 62,-12 62,-24 62,-24 62,-30 56,-36 50,-36"/>
<text text-anchor="middle" x="31" y="-14.3" font-family="Inter,Arial" font-size="14.00" fill="#586e75">Num(1)</text>
</g>
<!-- Add&#45;&gt;One -->
<g id="edge1" class="edge">
<title>Add&#45;&gt;One</title>
<path fill="none" stroke="#586e75" d="M61.11,-71.7C56.51,-63.64 50.94,-53.89 45.85,-44.98"/>
<polygon fill="#586e75" stroke="#586e75" points="48.77,-43.05 40.77,-36.1 42.7,-46.52 48.77,-43.05"/>
</g>
<!-- Two -->
<g id="node3" class="node leaf">
<title>Two</title>
<path fill="#ffffff" stroke="#586e75" d="M130,-36C130,-36 92,-36 92,-36 86,-36 80,-30 80,-24 80,-24 80,-12 80,-12 80,-6 86,0 92,0 92,0 130,0 130,0 136,0 142,-6 142,-12 142,-12 142,-24 142,-24 142,-30 136,-36 130,-36"/>
<text text-anchor="middle" x="111" y="-14.3" font-family="Inter,Arial" font-size="14.00" fill="#586e75">Num(2)</text>
</g>
<!-- Add&#45;&gt;Two -->
<g id="edge2" class="edge">
<title>Add&#45;&gt;Two</title>
<path fill="none" stroke="#586e75" d="M80.89,-71.7C85.49,-63.64 91.06,-53.89 96.15,-44.98"/>
<polygon fill="#586e75" stroke="#586e75" points="99.3,-46.52 101.23,-36.1 93.23,-43.05 99.3,-46.52"/>
</g>
</g>
</svg>
